<svg xmlns="http://www.w3.org/2000/svg" xmlns:xlink="http://www.w3.org/1999/xlink" width="129.425" height="136.25" viewBox="0 0 129.425 136.25">
  <defs>
    <clipPath id="clip-path">
      <rect id="Rectángulo_293098" data-name="Rectángulo 293098" width="117.799" height="64.508" fill="none"/>
    </clipPath>
    <clipPath id="clip-path-2">
      <rect id="Rectángulo_293140" data-name="Rectángulo 293140" width="70.526" height="38.621" fill="none"/>
    </clipPath>
    <clipPath id="clip-path-3">
      <rect id="Rectángulo_293154" data-name="Rectángulo 293154" width="28.765" height="15.752" fill="none"/>
    </clipPath>
    <clipPath id="clip-path-4">
      <path id="Trazado_593622" data-name="Trazado 593622" d="M14.908,80.246c-.023,7.257,4.765,14.527,14.353,20.068q.861.5,1.753.962c.195.1.4.2.592.3.4.2.809.41,1.221.605.24.114.487.222.729.334.378.173.756.346,1.14.511.265.113.533.222.8.331s.517.22.78.325c.083.032.167.059.25.09q1.265.494,2.569.94c.134.046.272.086.406.132q1.136.377,2.3.715c.128.037.252.082.381.118.148.042.3.078.448.118.489.137.983.265,1.477.391.3.077.6.154.9.226.543.132,1.09.253,1.638.371.205.046.405.1.611.139l.167.032c.5.1,1,.195,1.5.287.273.05.543.105.818.153q.986.17,1.982.313c.117.017.234.039.351.055l.018,0q1.156.165,2.323.3c.19.022.381.036.573.055.588.062,1.177.124,1.768.173a.338.338,0,0,1,.047,0c.278.023.556.036.835.056.491.036.983.074,1.476.1.325.017.653.026.98.041.462.02.924.041,1.388.054l.113,0c.259.007.516,0,.775.009.511.008,1.021.016,1.53.015.33,0,.66-.009.989-.013.476-.007.95-.013,1.426-.027.087,0,.175,0,.262-.005.22-.007.438-.024.659-.033.547-.023,1.093-.049,1.639-.082.328-.021.656-.045.985-.068q.783-.057,1.562-.129c.183-.016.367-.027.55-.045.128-.013.254-.033.383-.047q1.213-.126,2.417-.287c.133-.018.266-.032.4-.05q1.384-.194,2.751-.439c.085-.014.173-.025.258-.04.242-.043.481-.1.723-.142.425-.082.85-.162,1.272-.249.346-.073.688-.149,1.03-.226.415-.092.83-.187,1.242-.286.341-.083.68-.17,1.019-.258.406-.1.812-.211,1.215-.324.337-.092.671-.188,1-.287q.6-.174,1.188-.361c.172-.054.346-.1.515-.158.124-.039.24-.086.362-.126q1.071-.354,2.115-.741c.145-.054.292-.1.438-.159q1.232-.47,2.426-.989c.206-.089.41-.184.615-.276q.915-.411,1.805-.85c.221-.109.443-.217.661-.329.762-.39,1.513-.791,2.24-1.213q.3-.174.593-.351c.184-.11.354-.225.534-.338.3-.185.595-.37.881-.558.265-.174.523-.35.778-.526.278-.191.553-.383.821-.576.247-.18.488-.362.726-.545.258-.2.512-.393.76-.593q.344-.279.673-.561c.238-.2.472-.4.7-.61.095-.085.2-.167.29-.252s.159-.163.243-.243q.574-.541,1.1-1.094c.118-.124.242-.247.358-.371.446-.485.868-.976,1.262-1.472.017-.022.037-.042.053-.063.09-.114.166-.23.253-.346.236-.312.471-.625.687-.941.118-.174.228-.349.341-.523.185-.286.364-.573.531-.861.046-.079.1-.157.146-.236.066-.117.12-.236.183-.354.131-.242.259-.485.378-.729.1-.2.195-.409.287-.614.109-.246.212-.49.31-.737.043-.111.1-.22.14-.33s.063-.2.1-.3c.084-.233.161-.466.234-.7.066-.215.13-.429.188-.645.064-.236.12-.472.173-.709.029-.127.068-.255.093-.384.017-.087.026-.174.041-.261.045-.241.082-.484.114-.727.03-.214.06-.427.082-.64.024-.245.039-.489.053-.734.008-.143.026-.287.029-.429s.008-.285.009-.427l.03-22.946c0,.286-.023.572-.039.858-.013.245-.028.49-.052.734-.022.214-.051.427-.08.64-.034.243-.071.486-.115.728-.039.215-.086.429-.134.643-.053.237-.11.473-.174.709-.058.215-.122.43-.188.644-.073.235-.149.468-.233.7-.075.211-.155.42-.238.629-.1.247-.2.491-.311.736-.092.205-.187.41-.287.615-.12.245-.247.488-.377.73-.107.2-.215.393-.328.589-.168.288-.348.575-.534.861-.112.174-.221.349-.34.523-.216.316-.45.628-.687.94-.1.136-.2.274-.306.409-.393.5-.816.987-1.262,1.473-.114.124-.239.247-.356.371-.353.368-.719.735-1.1,1.1-.174.164-.349.329-.531.492-.227.205-.462.41-.7.612-.222.188-.443.375-.673.56-.247.2-.5.4-.76.593-.238.182-.479.364-.725.543-.267.195-.543.386-.821.576-.256.176-.513.353-.779.527-.287.188-.583.373-.88.558-.373.231-.74.463-1.129.689-.726.422-1.477.823-2.238,1.212-.218.113-.441.222-.662.331q-.888.439-1.8.848c-.205.092-.41.188-.617.277-.794.345-1.6.676-2.425.988-.146.057-.3.108-.442.161-.693.259-1.4.5-2.107.738-.293.1-.588.193-.884.286q-.587.186-1.181.361c-.336.1-.672.195-1.011.289q-.6.166-1.209.322c-.34.087-.681.175-1.026.259-.409.1-.821.191-1.234.284-.346.077-.69.154-1.038.226-.421.088-.844.17-1.268.25-.327.062-.653.125-.981.183-.911.162-1.827.31-2.751.438-.132.02-.265.034-.4.051q-1.2.161-2.418.288c-.309.033-.619.061-.93.09-.52.049-1.04.09-1.562.129-.329.024-.659.048-.988.067-.543.034-1.089.06-1.634.083-.308.013-.616.028-.924.038-.474.015-.948.021-1.421.027-.331,0-.664.012-1,.013-.5,0-1.008-.008-1.512-.015-.3-.005-.6-.005-.906-.013-.465-.013-.927-.036-1.391-.054-.324-.014-.649-.024-.974-.041-.505-.027-1.011-.066-1.515-.1-.28-.02-.561-.035-.841-.058-.6-.05-1.194-.111-1.789-.174-.185-.02-.371-.035-.554-.054q-1.166-.132-2.323-.3c-.124-.017-.246-.039-.37-.058q-.994-.145-1.982-.313c-.274-.048-.543-.1-.817-.153-.5-.092-1.006-.185-1.505-.286-.261-.054-.52-.115-.779-.172-.548-.118-1.094-.239-1.636-.37-.3-.073-.6-.151-.9-.227-.495-.126-.988-.255-1.477-.391q-.416-.116-.829-.238-1.164-.339-2.3-.715c-.134-.045-.27-.085-.4-.129-.872-.3-1.727-.612-2.573-.941-.345-.135-.688-.275-1.029-.415-.266-.11-.536-.217-.8-.331-.385-.166-.763-.338-1.14-.511-.243-.111-.49-.22-.729-.334-.413-.2-.817-.4-1.222-.605-.2-.1-.4-.2-.592-.3-.593-.312-1.18-.631-1.753-.963C19.7,71.829,14.916,64.559,14.938,57.3Z" transform="translate(-14.908 -57.302)" fill="none"/>
    </clipPath>
    <linearGradient id="linear-gradient" x1="-0.166" y1="1.244" x2="-0.155" y2="1.244" gradientUnits="objectBoundingBox">
      <stop offset="0" stop-color="#e9f2f9"/>
      <stop offset="0.433" stop-color="#c6d6e6"/>
      <stop offset="0.775" stop-color="#e9f2f9"/>
      <stop offset="1" stop-color="#b6cadd"/>
    </linearGradient>
    <clipPath id="clip-path-5">
      <rect id="Rectángulo_293100" data-name="Rectángulo 293100" width="113.519" height="126.074" fill="none"/>
    </clipPath>
    <clipPath id="clip-path-6">
      <path id="Trazado_593624" data-name="Trazado 593624" d="M19.85,56.922c-.021,6.456,4.239,12.924,12.769,17.851.51.3,1.031.58,1.56.858.173.091.352.176.527.265.359.182.718.364,1.086.539.214.1.431.2.648.3.337.154.674.308,1.016.455.235.1.473.2.71.295s.461.2.694.288c.074.028.15.053.222.082.751.292,1.513.573,2.287.836.118.04.241.077.362.116q1.011.337,2.044.636c.114.035.225.074.34.108.13.037.266.068.4.105q.654.179,1.314.347c.266.068.531.137.8.2q.724.173,1.456.328c.182.04.361.085.543.123.049.011.1.02.149.029.443.09.89.173,1.337.254.245.046.485.095.729.137.585.1,1.173.192,1.764.278.1.015.208.034.312.05l.015,0q1.03.145,2.067.262c.17.018.34.033.51.05.523.054,1.048.11,1.573.152l.042.005c.247.021.495.032.742.05.437.032.874.065,1.313.089.29.016.58.024.872.037.411.017.822.038,1.234.049l.1,0c.23.007.461,0,.69.008.454.008.908.015,1.361.014.293,0,.587-.008.88-.012.423-.005.846-.012,1.268-.024l.234,0c.195-.007.389-.022.585-.029.487-.021.974-.043,1.459-.073.292-.017.585-.039.876-.061.464-.035.928-.073,1.389-.114.164-.016.328-.025.49-.041.114-.011.226-.028.339-.04q1.081-.112,2.152-.255c.117-.016.235-.028.353-.045q1.232-.174,2.446-.39c.077-.013.154-.023.229-.037.216-.039.428-.085.643-.126.378-.072.756-.143,1.131-.222.306-.065.612-.134.916-.2q.554-.122,1.105-.254.455-.111.906-.228.543-.14,1.081-.288c.3-.083.6-.17.892-.257q.533-.155,1.058-.322c.152-.047.308-.09.459-.139.11-.035.214-.077.322-.113q.954-.315,1.881-.659c.129-.048.261-.092.389-.141q1.1-.417,2.16-.879c.184-.079.363-.164.547-.246q.814-.365,1.606-.756c.2-.1.393-.193.588-.293.677-.347,1.344-.7,1.992-1.079q.267-.153.528-.312c.163-.1.315-.2.475-.3.264-.164.528-.328.784-.5.236-.155.465-.312.692-.468.247-.171.492-.341.73-.513.22-.161.433-.322.646-.484.228-.176.455-.351.676-.529.2-.165.4-.331.6-.5.212-.178.42-.36.623-.541.084-.075.175-.149.256-.225s.142-.143.217-.215q.51-.483.979-.974c.105-.111.215-.22.318-.331.4-.431.773-.867,1.123-1.309.014-.018.033-.037.048-.055.079-.1.147-.205.224-.308.211-.277.418-.556.612-.837.105-.154.2-.311.3-.466.165-.254.325-.509.474-.764.041-.071.09-.14.13-.211.059-.1.107-.21.162-.315.116-.215.23-.431.336-.649q.134-.272.255-.547c.1-.217.188-.436.276-.654.039-.1.087-.2.124-.295s.057-.177.089-.266c.073-.208.141-.416.206-.624.059-.191.116-.381.167-.574.057-.21.107-.42.154-.629.025-.115.06-.228.083-.342.016-.077.023-.154.037-.231.04-.216.071-.431.1-.648.027-.189.053-.379.073-.568.022-.217.034-.436.047-.653.007-.128.024-.255.027-.383s.007-.253.007-.38l.027-20.411c0,.254-.02.509-.035.763-.011.217-.024.436-.046.652-.02.19-.046.379-.073.57-.029.216-.061.431-.1.648-.036.19-.077.383-.121.573-.047.211-.1.42-.153.63-.051.19-.109.383-.167.573-.065.209-.134.417-.208.625-.066.186-.138.373-.212.56-.087.22-.179.437-.276.655-.083.183-.166.364-.255.546-.107.217-.218.435-.336.65-.095.176-.19.35-.292.524-.148.258-.309.512-.473.766-.1.155-.2.311-.3.466-.193.28-.4.558-.611.836-.091.122-.178.243-.273.364-.35.441-.726.877-1.123,1.309-.1.112-.212.221-.317.329q-.471.494-.98.976c-.157.148-.313.293-.473.439-.2.183-.412.364-.624.543q-.293.251-.6.5c-.221.177-.448.353-.676.528-.212.163-.426.324-.646.485-.238.172-.484.342-.73.512-.227.157-.456.314-.692.468-.255.167-.52.333-.784.5-.331.205-.658.412-1,.612-.648.376-1.315.733-1.992,1.079-.195.1-.391.2-.589.293-.526.26-1.062.511-1.6.755-.185.082-.365.167-.55.247-.708.306-1.425.6-2.157.878-.129.049-.264.095-.393.143q-.926.344-1.876.658-.39.129-.785.253-.523.165-1.052.32-.447.132-.9.258c-.355.1-.715.193-1.075.287-.3.077-.606.155-.913.229-.363.088-.73.172-1.1.253-.307.068-.614.137-.923.2-.374.078-.751.15-1.128.223-.29.054-.58.111-.873.162q-1.216.215-2.448.39c-.117.017-.236.028-.353.046-.714.1-1.432.179-2.152.255q-.412.042-.828.079c-.461.043-.925.082-1.389.116-.293.021-.586.042-.879.06-.484.03-.968.053-1.453.074-.274.011-.548.025-.823.034-.421.012-.841.018-1.263.024-.3,0-.59.011-.886.012-.449,0-.9-.008-1.346-.014-.268,0-.538,0-.806-.012-.413-.01-.825-.03-1.237-.049-.288-.012-.578-.02-.865-.036-.451-.024-.9-.06-1.35-.091-.249-.02-.5-.032-.748-.052-.533-.046-1.062-.1-1.591-.155-.164-.017-.329-.029-.493-.048q-1.037-.117-2.067-.263c-.109-.015-.217-.036-.327-.051-.591-.087-1.179-.178-1.764-.279-.243-.041-.485-.091-.727-.136-.448-.082-.9-.164-1.339-.255-.233-.048-.462-.1-.693-.151-.488-.107-.974-.214-1.455-.33-.268-.064-.535-.133-.8-.2-.44-.112-.879-.227-1.314-.348q-.37-.1-.738-.212-1.035-.3-2.049-.637c-.118-.039-.238-.075-.356-.115-.775-.263-1.536-.543-2.288-.836-.308-.121-.612-.245-.916-.371-.237-.1-.475-.193-.71-.293-.342-.148-.679-.3-1.015-.455-.216-.1-.436-.2-.649-.3-.367-.174-.727-.356-1.086-.539-.175-.088-.354-.174-.527-.264q-.794-.416-1.56-.858c-8.531-4.928-12.789-11.4-12.768-17.851Z" transform="translate(-19.85 -36.511)" fill="none"/>
    </clipPath>
    <clipPath id="clip-path-8">
      <path id="Trazado_593626" data-name="Trazado 593626" d="M14.908,48.726c-.023,7.258,4.765,14.527,14.353,20.068q.861.5,1.753.963c.195.1.4.2.592.3.4.2.809.409,1.221.605.24.115.487.223.729.334.378.173.756.346,1.14.511.265.113.533.222.8.331s.517.221.78.324c.083.033.167.06.25.091.843.329,1.7.646,2.569.94.134.046.272.087.406.132q1.136.377,2.3.715c.128.037.252.082.381.118.148.041.3.077.448.12.489.136.983.265,1.477.391.3.076.6.153.9.226.543.13,1.09.252,1.638.371.205.043.405.1.611.137.057.012.112.021.167.033.5.1,1,.193,1.5.287.273.051.543.105.818.153.658.114,1.318.215,1.982.313.117.016.234.038.351.055l.018,0q1.156.165,2.323.3c.19.021.381.035.573.055.588.062,1.177.123,1.768.173.015,0,.032,0,.047,0,.278.024.556.038.835.059.491.035.983.073,1.476.1.325.017.653.026.98.04.462.021.924.043,1.388.055l.113,0c.259.007.516,0,.775.008.511.009,1.021.017,1.53.017.33,0,.66-.01.989-.014.476-.007.95-.013,1.426-.027.087,0,.175,0,.262-.005.22-.007.438-.023.659-.033.547-.023,1.093-.049,1.639-.082.328-.021.656-.045.985-.068q.783-.057,1.562-.129c.183-.016.367-.027.55-.046.128-.013.254-.032.383-.046q1.213-.126,2.417-.287c.133-.017.266-.032.4-.05.923-.129,1.839-.278,2.751-.438.085-.015.173-.026.258-.041.242-.045.481-.1.723-.142.425-.08.85-.162,1.272-.25.346-.072.688-.149,1.03-.225.415-.093.83-.187,1.242-.287.341-.082.68-.168,1.019-.256q.61-.157,1.215-.323c.337-.093.671-.19,1-.288q.6-.176,1.188-.361c.172-.054.346-.1.515-.158.124-.039.24-.086.362-.126q1.071-.355,2.115-.741c.145-.054.292-.1.438-.159q1.232-.47,2.426-.989c.206-.09.41-.184.615-.276q.915-.411,1.805-.85c.221-.11.443-.218.661-.329.762-.39,1.513-.79,2.24-1.213q.3-.174.593-.35c.184-.112.354-.227.534-.339.3-.185.595-.37.881-.558.265-.174.523-.35.778-.527.278-.19.553-.381.821-.576.247-.179.488-.361.726-.543.258-.2.512-.395.76-.595.229-.185.453-.373.673-.56.238-.2.472-.405.7-.61.095-.085.2-.167.29-.252s.159-.163.243-.242q.574-.543,1.1-1.1c.118-.124.242-.246.358-.372.446-.485.868-.975,1.262-1.472.017-.021.037-.041.053-.062.09-.114.166-.23.253-.345.236-.314.471-.627.687-.942.118-.173.228-.349.341-.523.185-.287.364-.572.531-.861.046-.079.1-.157.146-.236.066-.117.12-.237.183-.354.131-.242.259-.485.378-.729.1-.2.195-.41.287-.615.109-.245.212-.489.31-.736.043-.11.1-.22.14-.33s.063-.2.1-.3c.084-.235.161-.468.234-.7.066-.215.13-.429.188-.645.064-.236.12-.472.173-.708.029-.128.068-.256.093-.385.017-.087.026-.174.041-.26.045-.243.082-.486.114-.728.03-.213.06-.427.082-.64.024-.245.039-.489.053-.734.008-.143.026-.286.029-.429s.008-.286.009-.427l.03-22.944c0,.285-.023.571-.039.856-.013.245-.028.489-.052.734-.022.213-.051.426-.08.64-.034.243-.071.486-.115.727-.039.215-.086.43-.134.645-.053.237-.11.473-.174.709-.058.215-.122.429-.188.644-.073.234-.149.468-.233.7-.075.211-.155.421-.238.63-.1.247-.2.492-.311.737-.092.205-.187.41-.287.614-.12.245-.247.487-.377.729-.107.2-.215.395-.328.59-.168.288-.348.575-.534.861-.112.174-.221.349-.34.523-.216.315-.45.628-.687.94-.1.136-.2.274-.306.409-.393.5-.816.988-1.262,1.473-.114.124-.239.247-.356.37-.353.37-.719.736-1.1,1.1-.174.165-.349.33-.531.493-.227.205-.462.409-.7.612-.222.187-.443.374-.673.559-.247.2-.5.4-.76.593q-.357.276-.725.546c-.267.193-.543.385-.821.576-.256.176-.513.352-.779.526-.287.188-.583.373-.88.558-.373.23-.74.464-1.129.689-.726.422-1.477.823-2.238,1.213-.218.112-.441.221-.662.33q-.888.439-1.8.848c-.205.092-.41.188-.617.278-.794.343-1.6.675-2.425.988-.146.055-.3.105-.442.16-.693.258-1.4.5-2.107.739q-.44.145-.884.286-.587.184-1.181.359c-.336.1-.672.2-1.011.289q-.6.168-1.209.322c-.34.088-.681.175-1.026.259-.409.1-.821.192-1.234.285-.346.077-.69.154-1.038.227-.421.088-.844.168-1.268.249-.327.062-.653.125-.981.183q-1.366.243-2.751.439c-.132.018-.265.032-.4.05q-1.2.161-2.418.287c-.309.033-.619.063-.93.091q-.779.072-1.562.129c-.329.024-.659.048-.988.068-.543.033-1.089.059-1.634.082-.308.013-.616.028-.924.038-.474.014-.948.02-1.421.027-.331,0-.664.012-1,.013-.5,0-1.008-.008-1.512-.015-.3-.005-.6-.005-.906-.013-.465-.013-.927-.035-1.391-.054-.324-.015-.649-.024-.974-.041-.505-.027-1.011-.066-1.515-.1-.28-.021-.561-.036-.841-.059-.6-.05-1.194-.112-1.789-.175-.185-.02-.371-.033-.554-.053q-1.166-.13-2.323-.3c-.124-.017-.246-.039-.37-.058q-.994-.145-1.982-.313c-.274-.048-.543-.1-.817-.153-.5-.092-1.006-.185-1.505-.287-.261-.054-.52-.113-.779-.171-.548-.118-1.094-.239-1.636-.37-.3-.073-.6-.151-.9-.227-.495-.126-.988-.255-1.477-.391-.277-.077-.553-.158-.829-.237q-1.164-.339-2.3-.716c-.134-.045-.27-.086-.4-.13-.872-.3-1.727-.611-2.573-.94-.345-.135-.688-.275-1.029-.415-.266-.11-.536-.218-.8-.331-.385-.166-.763-.338-1.14-.511-.243-.112-.49-.22-.729-.334-.413-.2-.817-.4-1.222-.605-.2-.1-.4-.2-.592-.3-.593-.311-1.18-.63-1.753-.962C19.7,40.309,14.916,33.039,14.938,25.782Z" transform="translate(-14.908 -25.782)" fill="none"/>
    </clipPath>
    <linearGradient id="linear-gradient-2" x1="-0.166" y1="1.912" x2="-0.155" y2="1.912" xlink:href="#linear-gradient"/>
    <clipPath id="clip-path-10">
      <path id="Trazado_593628" data-name="Trazado 593628" d="M35.523,11.964c-14.95,8.683-14.876,22.766.167,31.458s39.357,8.7,54.308.017,14.876-22.765-.166-31.458C82.3,7.633,72.456,5.458,62.621,5.458s-19.628,2.168-27.1,6.506" transform="translate(-24.359 -5.458)" fill="none"/>
    </clipPath>
    <clipPath id="clip-path-11">
      <path id="Trazado_593629" data-name="Trazado 593629" d="M35.521,11.964c-8.539,4.959-12.155,11.679-10.9,18.151.923-4.82,4.539-9.5,10.9-13.193,14.952-8.682,39.266-8.674,54.309.017,6.452,3.728,10.128,8.447,11.068,13.306,1.246-6.5-2.429-13.273-11.068-18.264C82.3,7.633,72.454,5.458,62.62,5.458s-19.627,2.168-27.1,6.506" transform="translate(-24.378 -5.458)" fill="none"/>
    </clipPath>
    <clipPath id="clip-path-12">
      <path id="Trazado_593630" data-name="Trazado 593630" d="M0,101.244v.058c.012,4.4,2.927,8.8,8.74,12.163q.525.3,1.068.586c.118.063.241.121.361.183.246.124.492.249.742.368.147.07.3.135.446.2.229.107.46.212.694.313.16.068.324.134.486.2s.315.134.476.2c.05.02.1.036.152.055.514.2,1.035.392,1.564.572.083.028.166.053.249.08q.691.23,1.4.436c.078.023.153.05.233.072s.182.048.272.073c.3.083.6.162.9.238.182.047.364.093.548.138.33.079.664.153,1,.226.124.027.248.058.372.084l.1.02c.3.062.609.118.915.174.166.032.331.064.5.095.4.068.8.13,1.207.19.072.01.142.024.214.034h.011q.7.1,1.415.179c.115.014.231.023.348.035.359.038.717.075,1.077.105l.028,0c.17.014.34.022.509.035.3.022.6.045.9.061.2.012.4.016.6.025.283.012.564.026.846.034l.07,0c.157,0,.314,0,.472.005.272,0,.542.009.814.01h.117c.2,0,.4-.005.6-.008.289,0,.578-.008.867-.017l.161,0c.133-.005.266-.015.4-.021.334-.014.666-.029,1-.05.2-.013.4-.026.6-.041.318-.023.635-.05.951-.079.112-.01.224-.016.336-.027.078-.008.154-.02.233-.027q.74-.078,1.473-.175c.08-.011.162-.02.242-.032.562-.078,1.119-.168,1.675-.266.052-.01.105-.015.158-.025.147-.027.292-.059.44-.086.259-.05.517-.1.774-.153.211-.043.418-.09.627-.137q.38-.085.756-.174.313-.077.621-.157c.248-.064.5-.129.741-.2q.306-.085.611-.175.364-.108.724-.22c.1-.033.211-.062.314-.1.074-.023.146-.051.221-.076q.65-.215,1.288-.452c.088-.032.178-.062.266-.1.5-.19.992-.392,1.478-.6.126-.055.249-.113.373-.168q.559-.249,1.1-.517c.135-.066.27-.133.4-.2.463-.236.922-.48,1.363-.738.123-.071.243-.141.362-.213s.215-.138.326-.205c.182-.113.361-.225.536-.34s.318-.214.475-.322.336-.231.5-.35.3-.22.442-.331.312-.239.462-.362.276-.226.41-.341.288-.247.427-.371c.057-.052.12-.1.176-.153s.1-.1.149-.148q.349-.331.669-.667c.073-.075.148-.15.217-.226.272-.3.529-.593.769-.9.01-.014.023-.026.033-.038.054-.07.1-.141.153-.211.145-.19.287-.381.418-.573.073-.107.139-.213.208-.32.113-.174.223-.348.324-.524.028-.048.062-.095.089-.143.04-.071.073-.145.112-.216.079-.147.157-.295.229-.443.061-.125.118-.25.174-.375.067-.149.13-.3.19-.448.026-.067.06-.134.085-.2s.038-.122.06-.183c.051-.142.1-.285.142-.427s.079-.262.115-.393.072-.287.1-.43c.017-.078.041-.157.057-.235.011-.052.016-.105.026-.159.027-.148.049-.295.07-.442.018-.13.036-.26.05-.39.014-.148.023-.3.03-.447.005-.087.017-.174.02-.261s0-.174,0-.262l.018-13.973c0,.174-.014.348-.023.522-.009.149-.017.3-.032.447-.014.13-.032.26-.05.39-.021.148-.042.3-.07.443-.025.13-.053.262-.083.392s-.066.287-.1.431-.074.262-.115.391-.091.286-.142.428-.093.257-.145.384c-.06.149-.122.3-.19.449-.055.125-.113.249-.174.374-.072.148-.149.3-.229.445-.065.121-.13.239-.2.359-.1.175-.212.351-.325.524-.068.107-.135.213-.208.318-.132.193-.274.384-.418.574-.062.082-.121.166-.187.248-.239.3-.5.6-.767.9-.071.076-.146.15-.217.225-.215.225-.438.449-.672.668-.107.1-.213.2-.324.3q-.209.187-.427.372c-.134.114-.27.228-.41.341s-.3.241-.461.362-.293.222-.443.331-.329.234-.5.35-.313.215-.475.321-.354.227-.536.339c-.227.141-.451.283-.687.421-.443.257-.9.5-1.363.738-.134.068-.27.135-.4.2-.36.178-.727.351-1.1.517-.126.055-.25.114-.376.168q-.727.315-1.476.6c-.089.033-.182.064-.272.1-.421.157-.85.305-1.282.45-.178.059-.358.117-.538.173-.238.075-.478.149-.719.22-.2.061-.409.12-.615.176-.245.068-.49.133-.736.2-.209.053-.415.107-.626.157-.248.06-.5.117-.751.174-.21.047-.42.093-.631.138q-.385.078-.773.151c-.2.038-.4.076-.6.112-.556.1-1.114.188-1.676.266l-.242.03q-.732.1-1.473.175c-.188.021-.377.039-.566.057-.317.029-.634.054-.952.078-.2.014-.4.029-.6.041-.331.021-.663.036-1,.05-.187.009-.375.017-.563.023-.287.009-.576.013-.864.016-.2,0-.4.009-.606.009-.308,0-.615,0-.921-.009-.185,0-.37,0-.553-.009-.283-.008-.564-.022-.847-.033-.2-.009-.4-.015-.593-.026-.308-.016-.616-.04-.923-.062-.171-.013-.341-.022-.512-.037-.365-.03-.728-.067-1.089-.105-.113-.012-.226-.021-.338-.033q-.711-.08-1.415-.18c-.076-.01-.15-.024-.224-.035q-.606-.088-1.209-.191c-.166-.028-.331-.063-.5-.092-.306-.057-.612-.113-.916-.175-.159-.033-.316-.07-.475-.1-.334-.072-.666-.146-1-.225-.184-.043-.367-.091-.549-.138-.3-.077-.6-.155-.9-.238-.17-.048-.337-.1-.5-.146q-.709-.205-1.4-.436c-.082-.026-.163-.051-.245-.078-.53-.18-1.051-.373-1.565-.573-.211-.083-.42-.167-.628-.253-.162-.067-.325-.133-.486-.2-.234-.1-.465-.205-.694-.311-.149-.067-.3-.134-.445-.2-.251-.12-.5-.243-.743-.37-.12-.06-.242-.118-.361-.18-.362-.19-.718-.385-1.068-.587-5.84-3.374-8.753-7.8-8.74-12.222Z" transform="translate(0 -87.269)" fill="none"/>
    </clipPath>
    <linearGradient id="linear-gradient-3" x1="0" y1="1" x2="0.018" y2="1" xlink:href="#linear-gradient"/>
    <clipPath id="clip-path-14">
      <path id="Trazado_593632" data-name="Trazado 593632" d="M3.01,87.038C3,90.969,5.591,94.909,10.786,97.911q.466.269.949.522c.107.054.215.107.323.161.217.111.437.222.66.328.132.062.264.12.4.18.2.093.409.187.616.277.145.061.289.12.434.179s.28.12.423.175c.043.018.091.033.135.05.458.178.921.35,1.392.509.073.026.148.047.221.072.41.136.826.265,1.246.387.07.021.137.046.208.065s.161.041.241.064c.265.074.533.143.8.212.163.041.325.084.488.123.293.071.59.136.888.2.11.025.22.052.331.076l.09.016c.27.055.541.105.814.155.148.027.295.058.443.084.356.061.715.117,1.074.168.064.01.126.022.191.03h.01q.626.09,1.259.161c.1.012.206.02.309.03.32.033.638.066.959.092l.026,0c.15.012.3.02.452.03.265.02.531.04.8.054.177.01.354.015.531.023.25.011.5.023.752.029l.061,0c.14,0,.28,0,.42,0,.277.005.553.009.83.009.178,0,.356,0,.536-.008.258,0,.514-.005.772-.014l.141,0,.358-.018c.3-.012.591-.027.888-.045.178-.011.356-.023.534-.037q.424-.031.846-.07c.1-.01.2-.014.3-.025l.207-.025c.439-.045.875-.1,1.311-.155.071-.01.143-.016.215-.027.5-.07,1-.15,1.489-.237.047-.009.095-.014.14-.023.132-.023.261-.051.392-.077.229-.043.46-.088.689-.135.186-.039.372-.08.558-.122.225-.05.45-.1.673-.155q.277-.067.552-.139c.221-.058.44-.115.659-.175.182-.05.364-.1.543-.157.216-.063.43-.128.644-.195.092-.03.187-.057.279-.086.066-.022.13-.047.2-.068q.58-.192,1.147-.4c.078-.029.159-.055.236-.086.447-.17.884-.348,1.315-.535.113-.049.222-.1.333-.15q.5-.223.978-.461c.121-.059.241-.118.359-.179.412-.211.819-.427,1.213-.655l.323-.19c.1-.061.191-.123.289-.184.161-.1.321-.2.477-.3s.283-.19.422-.285.3-.208.445-.312.264-.2.392-.3.278-.213.412-.322.245-.2.365-.3.255-.22.378-.33c.051-.047.107-.09.157-.137s.086-.088.133-.132c.208-.2.405-.393.6-.592.064-.068.13-.135.193-.2.241-.263.471-.528.684-.8.009-.012.021-.023.029-.035.048-.062.089-.124.136-.187.129-.168.255-.338.373-.51.064-.093.124-.188.185-.284.1-.154.2-.31.289-.466.024-.042.054-.084.078-.127.036-.063.065-.128.1-.191.07-.133.139-.263.2-.4.053-.111.105-.221.154-.333.06-.132.115-.265.168-.4.024-.06.053-.118.076-.179s.034-.108.053-.162c.046-.126.086-.252.125-.379s.072-.233.1-.35.064-.255.093-.383c.016-.07.037-.139.05-.209.01-.047.014-.095.023-.141.024-.13.045-.263.063-.393s.032-.231.042-.348c.014-.132.022-.265.028-.4.005-.078.015-.155.018-.233l0-.233.016-12.43c0,.154-.012.309-.02.464-.009.133-.016.265-.03.4-.01.115-.027.23-.043.347-.017.132-.037.263-.062.393s-.047.234-.073.35-.059.255-.093.383-.066.234-.1.35-.08.254-.125.38-.085.227-.13.341c-.053.133-.109.266-.168.4-.049.112-.1.222-.154.333-.064.133-.134.264-.2.4-.058.107-.116.213-.178.318-.091.157-.189.311-.288.466-.062.095-.121.189-.186.283-.117.172-.243.34-.372.51-.055.075-.108.149-.166.222q-.32.4-.684.8c-.062.067-.129.134-.193.2q-.285.3-.6.595c-.095.09-.189.179-.288.267q-.186.166-.38.331c-.118.1-.239.2-.363.3s-.273.215-.412.322-.26.2-.393.295-.295.209-.445.312-.278.191-.422.286-.316.2-.477.3c-.2.125-.4.251-.611.373-.395.228-.8.446-1.213.656-.118.061-.239.12-.36.179q-.481.238-.977.46c-.111.05-.222.1-.335.151-.429.186-.867.365-1.313.535-.079.03-.161.058-.24.087-.375.139-.756.273-1.141.4-.16.053-.318.1-.478.154q-.318.1-.641.195c-.182.054-.363.107-.548.157-.215.061-.435.118-.654.176-.185.047-.37.095-.555.139q-.333.08-.668.154c-.187.041-.374.084-.562.123q-.342.07-.688.135c-.177.034-.354.067-.53.1-.495.088-.991.168-1.491.238l-.215.027c-.436.059-.872.11-1.311.155-.167.017-.336.034-.5.049q-.422.039-.846.071c-.179.012-.358.026-.535.037-.3.017-.591.033-.886.043-.167.008-.335.016-.5.021-.256.009-.513.012-.769.015-.18,0-.359.007-.539.008-.274,0-.547,0-.819-.009-.163,0-.328,0-.491-.007-.251-.008-.5-.02-.753-.03-.176-.008-.352-.012-.527-.022-.275-.015-.549-.036-.822-.055-.152-.012-.3-.02-.455-.033-.324-.027-.647-.061-.969-.093-.1-.011-.2-.02-.3-.029-.421-.049-.84-.1-1.257-.161l-.2-.032c-.36-.052-.718-.108-1.075-.168l-.442-.084c-.273-.05-.546-.1-.815-.155-.142-.029-.281-.062-.423-.092-.3-.064-.592-.129-.886-.2-.164-.04-.326-.083-.488-.124-.268-.068-.536-.138-.8-.212-.15-.041-.3-.085-.449-.128-.421-.123-.836-.251-1.248-.388-.072-.024-.145-.046-.217-.071-.472-.16-.935-.33-1.393-.51-.186-.072-.372-.149-.558-.225-.145-.06-.29-.117-.433-.179-.209-.089-.413-.184-.618-.276-.132-.061-.265-.12-.4-.182-.223-.107-.441-.217-.66-.327-.107-.055-.216-.107-.322-.162q-.483-.253-.95-.522c-5.2-3-7.788-6.941-7.775-10.872Z" transform="translate(-3.01 -74.608)" fill="none"/>
    </clipPath>
    <clipPath id="clip-path-16">
      <path id="Trazado_593634" data-name="Trazado 593634" d="M0,82.048v.058c.012,4.4,2.927,8.8,8.74,12.163q.525.3,1.068.586c.118.063.241.122.361.183.246.124.492.249.742.368.147.07.3.135.446.2.229.105.46.211.694.311.16.068.324.136.486.2s.315.134.476.2c.05.02.1.036.152.055.514.2,1.035.392,1.564.572.083.028.166.053.249.08q.691.23,1.4.436c.078.022.153.05.233.072s.182.047.272.073c.3.082.6.161.9.238.182.047.364.093.548.137.33.08.664.154,1,.226.124.028.248.059.372.085.035.007.068.012.1.02.3.062.609.118.915.174.166.032.331.064.5.093.4.07.8.132,1.207.191.072.011.142.023.214.033l.011,0q.7.1,1.415.18c.115.013.231.022.348.034.359.038.717.075,1.077.105l.028,0c.17.014.34.022.509.035.3.022.6.045.9.062.2.011.4.015.6.024.283.013.564.026.846.034l.07,0c.157,0,.314,0,.472.005.311,0,.621.011.931.01.2,0,.4-.005.6-.008.289,0,.578-.008.867-.017l.161,0c.133-.005.266-.015.4-.021.334-.014.666-.029,1-.05.2-.012.4-.026.6-.041.318-.024.635-.05.951-.079.112-.01.224-.016.336-.027.078-.008.154-.02.233-.027q.74-.078,1.473-.175c.08-.011.162-.02.242-.032.562-.078,1.119-.168,1.675-.266.052-.01.105-.015.158-.025.147-.027.292-.059.44-.086.259-.05.517-.1.774-.153.211-.043.418-.09.627-.137.253-.057.505-.113.756-.174.209-.051.415-.1.621-.157.248-.064.5-.129.741-.2q.306-.085.611-.175c.242-.072.484-.143.724-.22.1-.033.211-.062.314-.1.074-.024.146-.052.221-.077q.65-.215,1.288-.452c.088-.032.178-.062.266-.1.5-.19.992-.392,1.478-.6.126-.055.249-.113.373-.168q.559-.249,1.1-.517l.4-.2c.463-.237.922-.481,1.363-.738.123-.072.243-.142.362-.214s.215-.138.326-.205c.182-.113.361-.225.536-.341s.318-.213.475-.32.336-.233.5-.351.3-.22.442-.331.312-.239.462-.361.276-.227.41-.341.288-.247.427-.372c.057-.052.12-.1.176-.154s.1-.1.149-.147q.349-.331.669-.667c.073-.076.148-.15.217-.226.272-.3.529-.593.769-.9.01-.013.023-.025.033-.038.054-.07.1-.14.153-.21.145-.191.287-.381.418-.574.073-.105.139-.212.208-.318.113-.174.223-.348.324-.524.028-.048.062-.1.089-.143.04-.071.073-.143.112-.216.079-.148.157-.295.229-.443.061-.125.118-.25.174-.375.067-.149.13-.3.19-.448.026-.067.06-.134.085-.2s.038-.121.06-.181c.051-.142.1-.285.142-.427s.079-.262.115-.393.072-.287.1-.43c.017-.078.041-.157.057-.235.011-.053.016-.105.026-.159.027-.148.049-.295.07-.442.018-.13.036-.26.05-.39.014-.148.023-.3.03-.447.005-.087.017-.174.02-.261s0-.174,0-.261l.018-13.974c0,.174-.014.348-.023.522-.009.149-.017.3-.032.448-.014.129-.032.259-.05.389-.021.148-.042.3-.07.443-.025.13-.053.262-.083.392s-.066.287-.1.431-.074.262-.115.391-.091.286-.142.428-.093.255-.145.384c-.06.15-.122.3-.19.449-.055.125-.113.249-.174.373-.072.149-.149.3-.229.446-.065.121-.13.239-.2.359-.1.176-.212.35-.325.524-.068.107-.135.213-.208.318-.132.192-.274.384-.418.573-.062.084-.121.166-.187.249-.239.3-.5.6-.767.9-.071.076-.146.15-.217.226-.215.224-.438.448-.672.667-.107.1-.213.2-.324.3q-.209.189-.427.373c-.134.114-.27.228-.41.34s-.3.242-.461.363-.293.222-.443.331-.329.234-.5.35-.313.215-.475.321-.354.227-.536.339c-.227.141-.451.283-.687.42-.443.258-.9.5-1.363.739-.134.068-.27.135-.4.2-.36.178-.727.351-1.1.517-.126.055-.25.114-.376.168q-.727.315-1.476.6c-.089.034-.182.064-.272.1-.421.157-.85.305-1.282.45-.178.059-.358.117-.538.174-.238.074-.478.148-.719.218l-.615.177c-.245.067-.49.132-.736.195-.209.054-.415.108-.626.158-.248.06-.5.117-.751.174-.21.047-.42.093-.631.138q-.385.078-.773.151c-.2.038-.4.076-.6.112-.556.1-1.114.188-1.676.266l-.242.03q-.732.1-1.473.175l-.566.057c-.317.029-.634.054-.952.078-.2.014-.4.029-.6.041-.331.021-.663.036-1,.05-.187.008-.375.017-.563.023-.287.009-.576.013-.864.016-.2,0-.4.009-.606.009-.308,0-.615,0-.921-.01-.185,0-.37,0-.553-.008-.283-.008-.564-.022-.847-.033-.2-.009-.4-.015-.593-.026-.308-.016-.616-.04-.923-.062-.171-.013-.341-.022-.512-.037-.365-.03-.728-.067-1.089-.105-.113-.012-.226-.021-.338-.034q-.711-.078-1.415-.178c-.076-.011-.15-.025-.224-.036-.4-.06-.808-.122-1.209-.191-.166-.028-.331-.062-.5-.093-.306-.055-.612-.112-.916-.174-.159-.033-.316-.07-.475-.1-.334-.073-.666-.147-1-.226-.184-.045-.367-.092-.549-.138q-.452-.114-.9-.239c-.17-.047-.337-.1-.5-.145q-.709-.205-1.4-.435l-.245-.079q-.8-.271-1.565-.574c-.211-.082-.42-.166-.628-.252-.162-.067-.325-.133-.486-.2-.234-.1-.465-.205-.694-.311-.149-.067-.3-.134-.445-.2-.251-.121-.5-.246-.743-.371-.12-.06-.242-.118-.361-.18-.362-.19-.718-.385-1.068-.587-5.84-3.374-8.753-7.8-8.74-12.221Z" transform="translate(0 -68.074)" fill="none"/>
    </clipPath>
    <linearGradient id="linear-gradient-4" x1="0" y1="1.667" x2="0.018" y2="1.667" xlink:href="#linear-gradient"/>
    <clipPath id="clip-path-18">
      <path id="Trazado_593636" data-name="Trazado 593636" d="M12.554,59.659c-9.1,5.288-9.059,13.865.1,19.158s23.969,5.3,33.075.011,9.059-13.865-.1-19.158A33.85,33.85,0,0,0,29.058,55.7a33.6,33.6,0,0,0-16.5,3.963" transform="translate(-5.756 -55.696)" fill="none"/>
    </clipPath>
    <clipPath id="clip-path-19">
      <path id="Trazado_593637" data-name="Trazado 593637" d="M12.553,59.659c-5.2,3.02-7.4,7.112-6.638,11.054.562-2.937,2.764-5.784,6.638-8.035,9.106-5.288,23.914-5.282,33.075.011,3.928,2.27,6.168,5.144,6.742,8.1.758-3.962-1.48-8.084-6.742-11.123A33.85,33.85,0,0,0,29.057,55.7a33.582,33.582,0,0,0-16.5,3.963" transform="translate(-5.767 -55.696)" fill="none"/>
    </clipPath>
    <clipPath id="clip-path-21">
      <rect id="Rectángulo_293122" data-name="Rectángulo 293122" width="34.007" height="22.03" fill="none"/>
    </clipPath>
    <clipPath id="clip-path-22">
      <path id="Trazado_593638" data-name="Trazado 593638" d="M39.807,60.382l0,.014a.549.549,0,0,1-.059.115l-.014.021a.743.743,0,0,1-.1.108.9.9,0,0,1-.087.064c-.026.018-.048.038-.077.055l-1.309.76-.015.01c-.022.013-.038.029-.059.043a.9.9,0,0,0-.087.064l-.009.007a.76.76,0,0,0-.076.082l-.012.018-.013.02a.343.343,0,0,0-.024.036.448.448,0,0,0-.033.07l0,.01,0,.012a.374.374,0,0,0-.013.047.38.38,0,0,0-.009.07v.011l-.009,3.056a.434.434,0,0,1,.022-.127l0-.012a.555.555,0,0,1,.06-.115l.013-.02a.733.733,0,0,1,.1-.107.915.915,0,0,1,.088-.064.737.737,0,0,1,.073-.053l1.309-.76.015-.009c.024-.014.04-.032.062-.046s.061-.042.086-.065l.009-.005a.773.773,0,0,0,.077-.083l.013-.02.014-.021c.008-.012.016-.023.023-.034a.58.58,0,0,0,.033-.071l0-.011,0-.014c0-.015.01-.03.013-.046a.5.5,0,0,0,.008-.071v-.011l.009-3.056a.432.432,0,0,1-.021.127" transform="translate(-37.795 -60.255)" fill="none"/>
    </clipPath>
    <linearGradient id="linear-gradient-5" x1="-20.211" y1="12.575" x2="-19.676" y2="12.575" gradientUnits="objectBoundingBox">
      <stop offset="0" stop-color="#c6d6e6"/>
      <stop offset="1" stop-color="#b6cadd"/>
    </linearGradient>
    <clipPath id="clip-path-23">
      <path id="Trazado_593639" data-name="Trazado 593639" d="M16.514,61.517,15.2,60.76a.848.848,0,0,1-.274-.239.471.471,0,0,1-.091-.272l-.009,3.056a.619.619,0,0,0,.365.511l1.313.758a.844.844,0,0,1,.272.237.47.47,0,0,1,.092.272l.009-3.056a.621.621,0,0,0-.364-.509" transform="translate(-14.827 -60.249)" fill="none"/>
    </clipPath>
    <linearGradient id="linear-gradient-6" x1="-7.853" y1="12.537" x2="-7.323" y2="12.537" xlink:href="#linear-gradient-5"/>
    <clipPath id="clip-path-24">
      <path id="Trazado_593640" data-name="Trazado 593640" d="M24.652,58.276,24.647,57.2l-.009,3.056.005,1.077Z" transform="translate(-24.638 -57.199)" fill="none"/>
    </clipPath>
    <linearGradient id="linear-gradient-7" x1="-1895.159" y1="15.463" x2="-1818.239" y2="15.463" xlink:href="#linear-gradient-5"/>
    <clipPath id="clip-path-25">
      <path id="Trazado_593641" data-name="Trazado 593641" d="M34.165,62.41c-.207-.12-.423-.23-.645-.336-.073-.035-.15-.065-.224-.1-.133-.059-.262-.12-.4-.174l-.048-.015c-.3-.118-.618-.224-.941-.318-.026-.008-.05-.018-.076-.026-.074-.021-.151-.035-.226-.055-.179-.047-.36-.092-.543-.133-.05-.011-.1-.026-.146-.036-.072-.015-.147-.024-.218-.038-.154-.029-.308-.057-.464-.08-.063-.01-.124-.024-.187-.033s-.138-.014-.207-.023c-.145-.018-.291-.035-.437-.049-.071-.008-.139-.018-.21-.024s-.13-.005-.195-.011c-.149-.01-.3-.017-.447-.023-.074,0-.148-.011-.222-.012s-.118,0-.178,0c-.161,0-.321,0-.481,0-.079,0-.159,0-.238,0-.048,0-.093.008-.141.01-.2.009-.395.023-.591.039-.079.007-.161.009-.24.016-.025,0-.049.008-.074.01-.335.036-.668.082-1,.139-.015,0-.032,0-.048.007-.1.017-.188.041-.283.061-.163.033-.325.065-.485.1-.117.027-.23.061-.345.092-.152.041-.3.083-.453.129l-.1.027c-.053.017-.1.04-.154.059q-.354.121-.691.262c-.084.035-.168.07-.251.107a9.083,9.083,0,0,0-.828.42c-.036.021-.072.041-.107.063-.082.049-.15.1-.227.151-.108.07-.216.139-.316.211s-.165.129-.246.195-.186.147-.271.223l-.055.046c-.112.1-.216.21-.314.317-.021.022-.038.045-.058.067-.06.066-.12.134-.173.2-.023.029-.038.06-.06.089-.076.1-.143.2-.208.308-.026.042-.062.085-.086.128-.013.022-.02.043-.032.065-.048.09-.088.182-.127.274-.024.053-.055.105-.075.16-.007.017-.01.036-.015.054-.032.087-.053.174-.076.262-.015.059-.039.117-.051.177,0,.015,0,.032-.005.047-.016.092-.023.184-.032.276-.005.06-.018.12-.02.18,0,.025,0,.051,0,.076l-.009,3.056c0-.085.014-.171.022-.257s.015-.185.033-.276c.013-.075.036-.15.055-.225s.045-.175.076-.261.059-.143.09-.214c.039-.091.079-.184.127-.274.036-.065.078-.129.118-.195.063-.1.13-.205.206-.306s.148-.195.233-.29c.02-.023.037-.046.058-.067.113-.123.238-.243.37-.363.085-.076.178-.149.27-.223s.16-.132.247-.195.209-.141.316-.211.215-.146.335-.214a8.924,8.924,0,0,1,.827-.42c.083-.037.167-.072.251-.107q.337-.142.691-.262c.084-.028.165-.06.25-.086.149-.047.3-.088.453-.129.114-.032.228-.065.345-.092.16-.039.322-.072.485-.1.111-.022.22-.048.33-.067.328-.058.662-.1,1-.138.1-.012.209-.018.312-.027.2-.016.393-.03.591-.039.127-.005.254-.009.381-.011.16,0,.32,0,.479,0,.135,0,.268.007.4.012s.3.013.442.023.272.022.406.035.292.03.437.049.263.035.393.055c.155.024.31.051.464.08.122.023.243.048.364.074.184.04.364.086.543.133.1.027.2.052.3.082.322.095.637.2.941.317.152.06.3.125.447.19.074.033.151.063.224.1.222.105.437.216.644.336,1.734,1,2.6,2.313,2.594,3.622l.009-3.056c0-1.31-.861-2.621-2.594-3.622" transform="translate(-19.195 -60.925)" fill="none"/>
    </clipPath>
    <linearGradient id="linear-gradient-8" x1="-1.187" y1="7.332" x2="-1.126" y2="7.332" xlink:href="#linear-gradient-5"/>
    <clipPath id="clip-path-26">
      <path id="Trazado_593642" data-name="Trazado 593642" d="M43.339,66.575l0,.012a.494.494,0,0,1-.062.118l-.013.018a.715.715,0,0,1-.1.1,1.014,1.014,0,0,1-.1.072c-.018.012-.034.026-.054.038a1.356,1.356,0,0,1-.25.112l-.086.027c-.04.011-.082.022-.123.03s-.095.02-.143.026l-.043.005a2.067,2.067,0,0,1-.236.014l-1.856,0h-.08c-.045,0-.089,0-.134.009s-.1.013-.154.022l-.015,0-.035.009a1.507,1.507,0,0,0-.177.043c-.026.009-.046.022-.071.032-.047.018-.089.037-.132.059-.026.013-.059.023-.083.037a.925.925,0,0,0-.095.07c-.012.01-.027.018-.038.029s-.016.01-.022.015a.672.672,0,0,0-.076.083.539.539,0,0,0-.051.075l-.013.025c-.053.105-.114.211-.175.316-.043.074-.089.148-.136.221s-.079.124-.122.185-.105.147-.16.22c-.042.058-.085.115-.13.172-.12.15-.246.3-.381.443-.015.016-.029.033-.041.048a.474.474,0,0,0-.049.073c-.008.013-.012.025-.018.038l-.005.013-.009.018a.4.4,0,0,0-.027.137v.01l-.009,3.056a.408.408,0,0,1,.036-.165l.005-.013a.575.575,0,0,1,.109-.159c.136-.146.262-.293.381-.443.012-.015.026-.029.038-.045.034-.042.061-.085.092-.127.055-.073.109-.146.16-.22s.082-.123.121-.185.093-.147.137-.221c.014-.025.032-.05.046-.075.046-.08.089-.161.129-.241a.64.64,0,0,1,.162-.2c.011-.011.026-.02.038-.029a1.125,1.125,0,0,1,.177-.107,1.334,1.334,0,0,1,.132-.059,1.652,1.652,0,0,1,.248-.075l.035-.009a1.907,1.907,0,0,1,.384-.036l1.856,0H42.2c.047,0,.092,0,.137-.01a.164.164,0,0,0,.023,0l.045-.005c.03,0,.061-.008.091-.013s.034-.009.052-.013c.042-.009.083-.02.123-.03l.058-.014c.011,0,.018-.01.028-.013A1.4,1.4,0,0,0,43,69.994l.005,0a.541.541,0,0,0,.048-.035.971.971,0,0,0,.1-.072l.012-.009a.652.652,0,0,0,.075-.082l.01-.014.013-.018c.009-.013.02-.027.027-.04a.639.639,0,0,0,.032-.068l0-.01,0-.011a.42.42,0,0,0,.022-.118V69.5l.009-3.056a.409.409,0,0,1-.022.136" transform="translate(-37.837 -66.439)" fill="none"/>
    </clipPath>
    <linearGradient id="linear-gradient-9" x1="-7.444" y1="8.719" x2="-7.247" y2="8.719" xlink:href="#linear-gradient-5"/>
    <clipPath id="clip-path-27">
      <path id="Trazado_593643" data-name="Trazado 593643" d="M17.2,69.714a.5.5,0,0,0-.154-.345,6.732,6.732,0,0,1-1.122-1.556.769.769,0,0,0-.311-.3,1.322,1.322,0,0,0-.176-.085c-.048-.018-.1-.035-.148-.05l-.061-.014-.018,0-.05-.013-.121-.021c-.039-.005-.079-.01-.12-.013s-.08-.005-.122-.007h-.054l-1.857,0a2.033,2.033,0,0,1-.472-.055l-.02,0a1.519,1.519,0,0,1-.385-.15.625.625,0,0,1-.364-.506l-.011-1.825-.009,3.057.011,1.824a.625.625,0,0,0,.364.506,1.366,1.366,0,0,0,.179.086,1.513,1.513,0,0,0,.15.05l.057.014.018,0,.054.014c.039.008.08.015.122.021s.079.01.12.013.08.007.122.007h.054l1.857,0a2,2,0,0,1,.466.054l.018,0a1.518,1.518,0,0,1,.385.149.769.769,0,0,1,.311.3,6.732,6.732,0,0,0,1.122,1.556.57.57,0,0,1,.116.17.42.42,0,0,1,.038.175Z" transform="translate(-11.629 -64.758)" fill="none"/>
    </clipPath>
    <linearGradient id="linear-gradient-10" x1="-2.268" y1="6.951" x2="-2.073" y2="6.951" xlink:href="#linear-gradient-5"/>
    <clipPath id="clip-path-28">
      <path id="Trazado_593644" data-name="Trazado 593644" d="M41.861,71.073l0,.014a.5.5,0,0,1-.059.115l-.014.021a.809.809,0,0,1-.1.109c-.025.022-.058.042-.087.063s-.048.038-.077.055L39.3,72.74a1.5,1.5,0,0,1-.379.147l-.06.014a2.048,2.048,0,0,1-.426.049h-.016a2.034,2.034,0,0,1-.448-.05l-.016,0a1.478,1.478,0,0,1-.4-.153l-1.317-.761a1.419,1.419,0,0,0-.178-.085,1.487,1.487,0,0,0-.143-.049h-.005q-.064-.018-.13-.033c-.04-.008-.08-.015-.122-.021s-.077-.01-.115-.013H35.54c-.04,0-.08-.005-.121-.005s-.084,0-.125,0-.09,0-.135.009h-.009c-.049.005-.1.012-.147.021a1.92,1.92,0,0,0-.224.055c-.415.133-.841.249-1.273.353-.145.035-.292.061-.437.093-.324.071-.646.142-.975.2l-.026,0a1.745,1.745,0,0,0-.23.057c-.02.007-.034.016-.052.024a1.165,1.165,0,0,0-.129.058c-.034.016-.074.028-.1.047a.783.783,0,0,0-.065.049l-.048.035c-.013.011-.028.02-.04.03a.683.683,0,0,0-.077.083.515.515,0,0,0-.045.067l0,0v0a.417.417,0,0,0-.034.071.389.389,0,0,0-.02.07.38.38,0,0,0-.008.071v.014l0,1.128a.41.41,0,0,1-.013.083l0,.011a.575.575,0,0,1-.063.12l-.012.017a.8.8,0,0,1-.1.105,1.014,1.014,0,0,1-.1.073c-.017.012-.034.026-.053.037a1.392,1.392,0,0,1-.25.113l-.087.027-.123.03c-.047.01-.095.018-.143.025-.015,0-.028.005-.043.007a2.063,2.063,0,0,1-.235.014h-3.15a2.043,2.043,0,0,1-.473-.055l-.018,0a1.518,1.518,0,0,1-.385-.15.624.624,0,0,1-.365-.506l-.005-1.074a.621.621,0,0,0-.363-.5,1.273,1.273,0,0,0-.177-.085L25,72.585l-.04-.014L24.9,72.55c-.042-.012-.085-.022-.129-.032-.024,0-.049-.01-.074-.013-.351-.06-.7-.136-1.041-.213-.251-.055-.5-.117-.744-.181-.3-.08-.61-.158-.905-.251l-.048-.014c-.042-.012-.086-.023-.129-.032s-.079-.015-.121-.021c-.023,0-.047-.005-.07-.009h-.016l-.032,0c-.04,0-.079-.005-.12-.005s-.084,0-.126,0-.062,0-.093.007h-.042c-.053.005-.107.013-.159.023s-.092.022-.138.034l-.06.015c-.011,0-.023,0-.034.009a1.38,1.38,0,0,0-.273.12l-1.307.76a1.5,1.5,0,0,1-.377.146l-.059.014a1.969,1.969,0,0,1-.426.048h-.015a2.034,2.034,0,0,1-.448-.05l-.017,0a1.506,1.506,0,0,1-.4-.153L15.261,71.45a.62.62,0,0,1-.365-.512l-.009,3.056a.62.62,0,0,0,.365.512L17.49,75.8a1.344,1.344,0,0,0,.178.085,1.519,1.519,0,0,0,.15.051l.072.017.017,0,.039.01c.04.008.08.015.122.021s.079.011.12.014.082.005.122.007h.061c.022,0,.043,0,.065,0,.046,0,.091,0,.136-.009s.105-.013.158-.022c.023,0,.045-.012.067-.017l.059-.014c.036-.01.073-.016.107-.027a1.386,1.386,0,0,0,.271-.118l1.307-.76a1.443,1.443,0,0,1,.306-.128l.06-.015a2.051,2.051,0,0,1,.322-.058h.017a2.109,2.109,0,0,1,.371,0h.016a1.949,1.949,0,0,1,.367.075q.258.082.52.157c.126.036.258.061.385.095.247.064.495.126.746.182.1.022.189.05.286.071q.375.077.755.142a1.707,1.707,0,0,1,.264.065l.04.014a1.325,1.325,0,0,1,.224.1.718.718,0,0,1,.337.362.423.423,0,0,1,.026.142l.005,1.074a.624.624,0,0,0,.365.506,1.3,1.3,0,0,0,.179.086c.048.018.1.036.149.05l.057.014.018,0c.018,0,.036.01.055.013.039.009.079.015.122.022s.078.01.118.013.082.005.123.007h3.278q.07,0,.137-.01a.158.158,0,0,0,.024,0l.043-.005c.03,0,.062-.008.091-.013s.035-.01.052-.013c.042-.009.083-.02.123-.03.018-.005.039-.009.058-.015s.018-.009.029-.012a1.392,1.392,0,0,0,.25-.113l.007,0c.018-.011.03-.024.047-.035a1.012,1.012,0,0,0,.1-.073l.012-.009a.77.77,0,0,0,.076-.083l.01-.014.012-.017c.01-.014.02-.028.028-.042a.448.448,0,0,0,.033-.07l0-.008,0-.011A.394.394,0,0,0,31.2,77.4a.4.4,0,0,0,.009-.072v-.014l0-1.106a.457.457,0,0,1,.053-.195l0,0a.676.676,0,0,1,.162-.18l.048-.036a1.252,1.252,0,0,1,.17-.095,1.163,1.163,0,0,1,.129-.058,1.682,1.682,0,0,1,.309-.085l.21-.037c.259-.047.511-.107.765-.163.146-.032.293-.058.437-.092.431-.1.858-.221,1.273-.353a1.82,1.82,0,0,1,.372-.076h0a2.091,2.091,0,0,1,.387,0h0a1.945,1.945,0,0,1,.37.066h0a1.437,1.437,0,0,1,.323.134l1.317.761a1.482,1.482,0,0,0,.177.085,1.519,1.519,0,0,0,.15.051l.073.017.016,0,.039.01c.039.008.08.015.122.021s.079.01.12.013.08.005.121.007c.015,0,.032,0,.047,0h.079c.046,0,.091-.005.136-.01s.107-.012.158-.022c.024,0,.046-.012.07-.017l.06-.014c.035-.01.072-.016.105-.027a1.448,1.448,0,0,0,.274-.12l2.219-1.29.015-.009c.024-.015.041-.032.062-.047a.781.781,0,0,0,.087-.064l.008-.005a.773.773,0,0,0,.077-.083l.013-.02.014-.021c.008-.012.016-.023.023-.034a.512.512,0,0,0,.033-.071l0-.011,0-.014c0-.015.01-.03.013-.046a.38.38,0,0,0,.008-.071V74l.009-3.056a.432.432,0,0,1-.021.127" transform="translate(-14.887 -70.938)" fill="none"/>
    </clipPath>
    <linearGradient id="linear-gradient-11" x1="-0.599" y1="6.901" x2="-0.559" y2="6.901" xlink:href="#linear-gradient-5"/>
    <clipPath id="clip-path-29">
      <rect id="Rectángulo_293126" data-name="Rectángulo 293126" width="21.816" height="20.417" fill="none"/>
    </clipPath>
    <clipPath id="clip-path-30">
      <path id="Trazado_593646" data-name="Trazado 593646" d="M64.45,18.047a3,3,0,0,1-.45.033.284.284,0,0,1-.03,0,3,3,0,0,1-.425-.034l-.029-.005a2.692,2.692,0,0,1-.366-.089l-.057-.02a1.983,1.983,0,0,1-.329-.146,1.052,1.052,0,0,1-.449-.453l-1.793-3.81a.633.633,0,0,1-.058-.261l-.016,5.69a.633.633,0,0,0,.058.261L62.3,23.024a1.055,1.055,0,0,0,.449.452,1.833,1.833,0,0,0,.25.12c.025.01.053.017.079.027l.057.018c.026.009.049.018.076.026.06.016.121.032.184.045.035.008.071.013.107.018l.029.005.038.007c.055.008.112.014.17.018s.114.009.172.01h.179q.1,0,.2-.013c.05,0,.1-.011.151-.018l6.746-1.049L71.2,17Z" transform="translate(-60.447 -13.262)" fill="none"/>
    </clipPath>
    <linearGradient id="linear-gradient-12" x1="-6.112" y1="10.626" x2="-6.011" y2="10.626" xlink:href="#linear-gradient-5"/>
    <clipPath id="clip-path-31">
      <path id="Trazado_593647" data-name="Trazado 593647" d="M80.712,15.873c0,.017-.011.035-.015.052a1.3,1.3,0,0,1-.073.216l-2.606,5.69L78,27.52l2.605-5.69c.013-.028.025-.057.036-.086a1.175,1.175,0,0,0,.037-.13c0-.017.011-.035.015-.051l0-.015a1.266,1.266,0,0,0,.023-.2v-.03l.016-5.69a1.182,1.182,0,0,1-.027.246" transform="translate(-78.002 -15.627)" fill="none"/>
    </clipPath>
    <linearGradient id="linear-gradient-13" x1="-30.978" y1="9.172" x2="-30.581" y2="9.172" xlink:href="#linear-gradient-5"/>
    <clipPath id="clip-path-32">
      <path id="Trazado_593648" data-name="Trazado 593648" d="M81.747,22.316l0,.008a.337.337,0,0,1-.071.1l-.007.007a.559.559,0,0,1-.114.082c-.023.013-.052.023-.079.035a.792.792,0,0,1-.118.046l-7.019,1.963a4.841,4.841,0,0,1-.88.152l-.054,0a5.142,5.142,0,0,1-.868-.01l-.042,0a4.675,4.675,0,0,1-.828-.161l-.039-.013a3.481,3.481,0,0,1-.724-.3,2.44,2.44,0,0,1-.364-.255l-4.385-3.725a.32.32,0,0,1-.133-.245L66,25.681a.327.327,0,0,0,.133.246l4.385,3.724a2.44,2.44,0,0,0,.364.255,3.3,3.3,0,0,0,.431.207c.093.037.193.067.292.1.014,0,.026.01.039.013l.03.011c.1.029.21.055.318.078s.2.038.3.052c.059.008.12.013.178.02l.042,0,.074.009c.1.008.2.013.3.016s.205,0,.309,0c.063,0,.126-.008.19-.012l.054,0c.029,0,.059,0,.088-.005.129-.013.258-.03.386-.053s.274-.057.408-.093l7.018-1.962a.453.453,0,0,0,.046-.014.64.64,0,0,0,.073-.033.777.777,0,0,0,.08-.035l.016-.008a.551.551,0,0,0,.091-.067l.005-.005.007-.008c.012-.012.024-.024.034-.036a.379.379,0,0,0,.029-.043l.009-.017,0-.009.008-.016a.207.207,0,0,0,.012-.042.278.278,0,0,0,.005-.043V27.9l.016-5.69a.264.264,0,0,1-.025.109" transform="translate(-66 -19.991)" fill="none"/>
    </clipPath>
    <linearGradient id="linear-gradient-14" x1="-4.548" y1="10.01" x2="-4.479" y2="10.01" xlink:href="#linear-gradient-5"/>
    <clipPath id="clip-path-33">
      <rect id="Rectángulo_293130" data-name="Rectángulo 293130" width="22.794" height="21.535" fill="none"/>
    </clipPath>
    <clipPath id="clip-path-34">
      <path id="Trazado_593650" data-name="Trazado 593650" d="M47.328,12.78a.264.264,0,0,1-.027-.117l-.016,5.69a.279.279,0,0,0,.027.117l.573,1.248.016-5.69Z" transform="translate(-47.285 -12.663)" fill="none"/>
    </clipPath>
    <linearGradient id="linear-gradient-15" x1="-83.394" y1="15.92" x2="-81.632" y2="15.92" xlink:href="#linear-gradient-5"/>
    <clipPath id="clip-path-35">
      <path id="Trazado_593651" data-name="Trazado 593651" d="M56.366,16.41l-.008.016a1.36,1.36,0,0,1-.221.364l-3.392,4.043a.6.6,0,0,1-.218.149.423.423,0,0,1-.046.021,1.122,1.122,0,0,1-.293.066h-.01a1.282,1.282,0,0,1-.329-.016h-.007a.942.942,0,0,1-.291-.1.453.453,0,0,1-.195-.2L50.778,19.5l-6.042.923-.016,5.691,6.042-.924.578,1.252a.456.456,0,0,0,.195.2.7.7,0,0,0,.1.049.762.762,0,0,0,.088.03c.026.008.052.014.079.02l.021,0h.008l.048.009c.024,0,.049.007.074.008s.051,0,.076,0,.052,0,.078,0l.053,0h.032a.921.921,0,0,0,.1-.014.969.969,0,0,0,.137-.034c.013,0,.024-.012.038-.016l.046-.021a.867.867,0,0,0,.085-.038.564.564,0,0,0,.095-.071.453.453,0,0,0,.039-.04l3.392-4.043.03-.038a1.343,1.343,0,0,0,.123-.183,1.242,1.242,0,0,0,.068-.145l.007-.015.005-.012a1,1,0,0,0,.049-.17.924.924,0,0,0,.02-.172v-.027l.015-5.69a1.046,1.046,0,0,1-.074.379" transform="translate(-44.72 -16.031)" fill="none"/>
    </clipPath>
    <linearGradient id="linear-gradient-16" x1="-4.147" y1="10.122" x2="-4.055" y2="10.122" xlink:href="#linear-gradient-5"/>
    <clipPath id="clip-path-36">
      <path id="Trazado_593652" data-name="Trazado 593652" d="M51.074,23.569a.616.616,0,0,1-.03.18l-.005.017a.762.762,0,0,1-.085.164l-.018.027a.991.991,0,0,1-.139.151c-.034.03-.076.058-.116.087s-.075.058-.121.084l-4.815,2.779a2.083,2.083,0,0,1-.537.2l-.082.021a2.943,2.943,0,0,1-.605.066H44.5a2.952,2.952,0,0,1-.631-.074l-.025-.005a2.166,2.166,0,0,1-.563-.217l-7.7-4.487a1.763,1.763,0,0,1-1.027-1.44l-.016,5.69a1.762,1.762,0,0,0,1.027,1.44l7.7,4.487a1.932,1.932,0,0,0,.252.122,2.226,2.226,0,0,0,.213.072l.1.024.025.007.061.014c.058.012.115.022.174.03s.113.014.171.02.114.008.172.009c.018,0,.037,0,.055,0H44.5c.035,0,.068,0,.1,0,.064,0,.129-.007.193-.013s.149-.017.222-.03c.03-.005.058-.015.087-.022s.054-.013.082-.02c.054-.014.11-.024.162-.041a1.879,1.879,0,0,0,.375-.163l4.816-2.779.029-.017c.035-.021.059-.045.089-.066a1.448,1.448,0,0,0,.118-.087.069.069,0,0,0,.014-.011.961.961,0,0,0,.108-.115.2.2,0,0,0,.016-.025l.018-.027c.012-.017.025-.034.035-.051a.621.621,0,0,0,.046-.1l0-.013.005-.018c.007-.022.014-.043.018-.065a.629.629,0,0,0,.012-.1v-.015Z" transform="translate(-34.531 -21.126)" fill="none"/>
    </clipPath>
    <linearGradient id="linear-gradient-17" x1="-2.268" y1="8.655" x2="-2.203" y2="8.655" xlink:href="#linear-gradient-5"/>
    <clipPath id="clip-path-37">
      <rect id="Rectángulo_293138" data-name="Rectángulo 293138" width="26.278" height="16.79" fill="none"/>
    </clipPath>
    <clipPath id="clip-path-38">
      <path id="Trazado_593654" data-name="Trazado 593654" d="M61.807,27.95l0,.007a.5.5,0,0,1-.16.14l-1.561.921-.016,5.69,1.561-.919,0,0a.666.666,0,0,0,.1-.073.5.5,0,0,0,.047-.05l.01-.015,0-.005.014-.023a.343.343,0,0,0,.02-.04.3.3,0,0,0,.012-.041.281.281,0,0,0,0-.041v-.007l.016-5.691a.276.276,0,0,1-.05.152" transform="translate(-60.066 -27.798)" fill="none"/>
    </clipPath>
    <linearGradient id="linear-gradient-18" x1="-36.448" y1="13.875" x2="-35.841" y2="13.875" xlink:href="#linear-gradient-5"/>
    <clipPath id="clip-path-39">
      <path id="Trazado_593656" data-name="Trazado 593656" d="M75.016,28.8,75,34.491a.617.617,0,0,1-.055.251l.016-5.69a.621.621,0,0,0,.055-.251" transform="translate(-74.944 -28.801)" fill="none"/>
    </clipPath>
    <linearGradient id="linear-gradient-19" x1="-1135.351" y1="15.954" x2="-1120.202" y2="15.954" xlink:href="#linear-gradient-5"/>
    <clipPath id="clip-path-40">
      <path id="Trazado_593657" data-name="Trazado 593657" d="M74.995,34.491v0Zm.016-5.661L75,34.241l.015-5.44v.028" transform="translate(-74.995 -28.801)" fill="none"/>
    </clipPath>
    <linearGradient id="linear-gradient-20" x1="-4999.87" y1="16.746" x2="-4933.201" y2="16.746" xlink:href="#linear-gradient-5"/>
    <clipPath id="clip-path-41">
      <path id="Trazado_593658" data-name="Trazado 593658" d="M75,28.9l0,.015-.017,5.69,0-.024a.506.506,0,0,0,.008-.09v-.25l.015-5.411c0,.023,0,.047-.009.071" transform="translate(-74.984 -28.827)" fill="none"/>
    </clipPath>
    <linearGradient id="linear-gradient-21" x1="-2883.892" y1="16.359" x2="-2845.432" y2="16.359" xlink:href="#linear-gradient-5"/>
    <clipPath id="clip-path-42">
      <path id="Trazado_593659" data-name="Trazado 593659" d="M75,28.931a.631.631,0,0,1-.022.074l-.017,5.689a.528.528,0,0,0,.028-.1L75,28.906,75,28.931" transform="translate(-74.958 -28.906)" fill="none"/>
    </clipPath>
    <linearGradient id="linear-gradient-22" x1="-1784.722" y1="16.356" x2="-1760.912" y2="16.356" xlink:href="#linear-gradient-5"/>
    <clipPath id="clip-path-43">
      <path id="Trazado_593660" data-name="Trazado 593660" d="M74.96,29.035l-.016,5.69.005-.012.01-.027L74.977,29l-.016.038" transform="translate(-74.944 -28.997)" fill="none"/>
    </clipPath>
    <linearGradient id="linear-gradient-23" x1="-2498.235" y1="16.508" x2="-2464.9" y2="16.508" xlink:href="#linear-gradient-5"/>
    <clipPath id="clip-path-44">
      <path id="Trazado_593661" data-name="Trazado 593661" d="M74.346,35.15a1.538,1.538,0,0,1-.116.2c-.018.029-.037.058-.058.086s-.067.084-.1.125-.07.078-.109.116-.057.05-.086.076a2.683,2.683,0,0,1-.356.264l-.046.032a3.578,3.578,0,0,1-.364.189c-.024.011-.051.018-.075.029-.108.046-.217.089-.334.127-.033.011-.067.02-.1.029a4.927,4.927,0,0,1-.506.126c-.066.013-.13.029-.2.039L64.349,37.8a5.677,5.677,0,0,1-.879.072H63.4a5.983,5.983,0,0,1-.853-.062l-.036-.007a5.276,5.276,0,0,1-.765-.179l-.112-.038a4.056,4.056,0,0,1-.683-.3l-7.27-4.133-1.555.916a.88.88,0,0,1-.248.1l-.032.008a1.247,1.247,0,0,1-.27.027h0a1.27,1.27,0,0,1-.27-.035l-.012,0a.943.943,0,0,1-.232-.09.368.368,0,0,1-.214-.3l-.016,5.691a.365.365,0,0,0,.215.3.76.76,0,0,0,.108.052c.03.011.061.022.093.032l.029.007.012,0,.04.01q.037.008.075.013l.074.009c.024,0,.048,0,.073,0h.012a.61.61,0,0,0,.063,0l.079-.005c.03,0,.062-.008.091-.013l.036-.009.032-.008.071-.017a.87.87,0,0,0,.177-.079l1.555-.917,7.27,4.133a3.81,3.81,0,0,0,.492.234c.061.025.127.043.19.065l.112.037c.041.013.082.03.124.042.121.034.243.064.368.09.089.018.182.033.273.047a.374.374,0,0,0,.037.007c.012,0,.024.005.036.007.112.016.224.028.338.038s.226.015.339.018c.047,0,.093,0,.14,0h.066c.049,0,.1,0,.146,0,.127,0,.254-.012.38-.025s.236-.027.353-.047l7.545-1.209L72,42.263c.028-.005.052-.014.079-.02.174-.035.342-.076.5-.125.023-.007.048-.011.07-.017l.034-.013c.115-.038.225-.082.331-.126.025-.011.052-.02.076-.03a3.58,3.58,0,0,0,.364-.189l.014-.008c.012-.007.02-.016.032-.023a2.788,2.788,0,0,0,.356-.265c.015-.013.036-.024.051-.038s.022-.025.035-.038c.039-.038.074-.077.109-.116s.051-.051.073-.078.02-.032.032-.047.038-.057.057-.085.037-.05.051-.075q.036-.065.065-.13l2.708-6.118.016-5.69Z" transform="translate(-50.832 -29.032)" fill="none"/>
    </clipPath>
    <linearGradient id="linear-gradient-24" x1="-2.107" y1="6.503" x2="-2.065" y2="6.503" xlink:href="#linear-gradient-5"/>
    <clipPath id="clip-path-45">
      <rect id="Rectángulo_293153" data-name="Rectángulo 293153" width="53.929" height="81.436" fill="none"/>
    </clipPath>
    <clipPath id="clip-path-46">
      <path id="Trazado_593669" data-name="Trazado 593669" d="M72.959,284.776l4.688,4.068.067.058.013.012h0a4.463,4.463,0,0,0,5.236,0h0l.014-.012c.025-.021.049-.042.074-.064l5.21-4.559Z" transform="translate(-72.959 -284.278)" fill="#12263f"/>
    </clipPath>
    <clipPath id="clip-path-47">
      <path id="Trazado_593670" data-name="Trazado 593670" d="M63.35,245.359c0,4.289,4.457,7.765,9.955,7.765s9.955-3.476,9.955-7.765-4.457-7.765-9.955-7.765-9.955,3.476-9.955,7.765" transform="translate(-63.35 -237.594)" fill="#727997"/>
    </clipPath>
    <clipPath id="clip-path-48">
      <path id="Trazado_593671" data-name="Trazado 593671" d="M61.41,235.6c0,4.512,4.689,8.169,10.473,8.169s10.473-3.658,10.473-8.169-4.689-8.17-10.473-8.17S61.41,231.087,61.41,235.6" transform="translate(-61.41 -227.429)" fill="#12263f"/>
    </clipPath>
    <clipPath id="clip-path-49">
      <path id="Trazado_593672" data-name="Trazado 593672" d="M59.788,226.3c0,4.512,4.883,8.17,10.906,8.17S81.6,230.809,81.6,226.3s-4.883-8.169-10.906-8.169-10.906,3.658-10.906,8.169" transform="translate(-59.788 -218.128)" fill="#727997"/>
    </clipPath>
    <clipPath id="clip-path-50">
      <path id="Trazado_593673" data-name="Trazado 593673" d="M61.41,220.735c0,4.068,4.689,7.367,10.473,7.367s10.473-3.3,10.473-7.367-4.689-7.366-10.473-7.366-10.473,3.3-10.473,7.366" transform="translate(-61.41 -213.369)" fill="#12263f"/>
    </clipPath>
    <clipPath id="clip-path-52">
      <rect id="Rectángulo_293146" data-name="Rectángulo 293146" width="16.203" height="16.203" fill="none"/>
    </clipPath>
    <clipPath id="clip-path-53">
      <rect id="Rectángulo_293147" data-name="Rectángulo 293147" width="6.807" height="6.807" fill="none"/>
    </clipPath>
    <clipPath id="clip-path-54">
      <rect id="Rectángulo_293149" data-name="Rectángulo 293149" width="19.38" height="47.93" fill="none"/>
    </clipPath>
    <clipPath id="clip-path-55">
      <path id="Trazado_593678" data-name="Trazado 593678" d="M73.974,95.249,64.393,74.122l7.7-6.167L70.805,48.009l1.335-.69L83.773,66.875,74.766,74.12l.542,20.438Z" transform="translate(-64.393 -47.319)" fill="none"/>
    </clipPath>
    <clipPath id="clip-path-56">
      <rect id="Rectángulo_293151" data-name="Rectángulo 293151" width="18.045" height="47.239" fill="#d5c485"/>
    </clipPath>
    <clipPath id="clip-path-57">
      <path id="Trazado_593679" data-name="Trazado 593679" d="M73.7,97.142,64.123,76.016l7.7-6.167L70.535,49.9,82.168,69.459,73.161,76.7Z" transform="translate(-64.123 -49.903)" fill="#d5c485"/>
    </clipPath>
  </defs>
  <g id="Grupo_874633" data-name="Grupo 874633" transform="translate(-948.333 -159.382)">
    <g id="Grupo_873931" data-name="Grupo 873931" transform="translate(20.131 18.951)">
      <g id="Grupo_873842" data-name="Grupo 873842" transform="translate(939.828 193.031)" opacity="0.218" clip-path="url(#clip-path)">
        <path id="Trazado_593621" data-name="Trazado 593621" d="M117.8,94.335c0,17.813-26.37,32.254-58.9,32.254S0,112.148,0,94.335,26.37,62.081,58.9,62.081s58.9,14.44,58.9,32.254" transform="translate(0 -62.08)" fill="#383838"/>
      </g>
      <g id="Grupo_873930" data-name="Grupo 873930" transform="translate(928.202 232.46)" opacity="0.218" clip-path="url(#clip-path-2)">
        <path id="Trazado_593662" data-name="Trazado 593662" d="M70.526,81.391c0,10.665-15.788,19.31-35.263,19.31S0,92.056,0,81.391s15.788-19.31,35.263-19.31,35.263,8.645,35.263,19.31" transform="translate(0 -62.081)" fill="#383838"/>
      </g>
      <g id="Grupo_873961" data-name="Grupo 873961" transform="translate(991.735 260.929)" opacity="0.218" clip-path="url(#clip-path-3)">
        <path id="Trazado_593680" data-name="Trazado 593680" d="M28.765,69.957c0,4.35-6.439,7.876-14.382,7.876S0,74.307,0,69.957s6.439-7.876,14.382-7.876,14.382,3.526,14.382,7.876" transform="translate(0 -62.081)" fill="#383838"/>
      </g>
      <g id="Grupo_873929" data-name="Grupo 873929" transform="translate(932.975 140.431)">
        <g id="Grupo_873844" data-name="Grupo 873844" transform="translate(16.203 62.279)">
          <g id="Grupo_873843" data-name="Grupo 873843" clip-path="url(#clip-path-4)">
            <rect id="Rectángulo_293099" data-name="Rectángulo 293099" width="97.356" height="51.302" transform="translate(-0.03 -0.015)" fill="url(#linear-gradient)"/>
          </g>
        </g>
        <g id="Grupo_873846" data-name="Grupo 873846">
          <g id="Grupo_873845" data-name="Grupo 873845" clip-path="url(#clip-path-5)">
            <path id="Trazado_593623" data-name="Trazado 593623" d="M97.869,39.783c19.055,11.01,19.149,28.849.211,39.847s-49.736,10.987-68.791-.023S10.14,50.758,29.077,39.762s49.737-10.988,68.792.022" transform="translate(1.297 2.737)" fill="#f7f8f9"/>
          </g>
        </g>
        <g id="Grupo_873848" data-name="Grupo 873848" transform="translate(21.574 39.682)">
          <g id="Grupo_873847" data-name="Grupo 873847" clip-path="url(#clip-path-6)">
            <path id="Trazado_593665" data-name="Trazado 593665" d="M0,0H86.608V45.639H0Z" transform="translate(-0.027 -0.013)" fill="#9462e0"/>
          </g>
        </g>
        <g id="Grupo_873850" data-name="Grupo 873850">
          <g id="Grupo_873849" data-name="Grupo 873849" clip-path="url(#clip-path-5)">
            <path id="Trazado_593625" data-name="Trazado 593625" d="M93.653,20.926c16.95,9.794,17.035,25.665.188,35.448s-44.247,9.774-61.2-.02S15.609,30.69,32.456,20.907s44.247-9.774,61.2.02" transform="translate(1.726 1.179)" fill="#f7f8f9"/>
          </g>
        </g>
        <g id="Grupo_873852" data-name="Grupo 873852" transform="translate(16.203 28.021)">
          <g id="Grupo_873851" data-name="Grupo 873851" clip-path="url(#clip-path-8)">
            <rect id="Rectángulo_293103" data-name="Rectángulo 293103" width="97.356" height="51.302" transform="translate(-0.03 -0.015)" fill="url(#linear-gradient-2)"/>
          </g>
        </g>
        <g id="Grupo_873854" data-name="Grupo 873854">
          <g id="Grupo_873853" data-name="Grupo 873853" clip-path="url(#clip-path-5)">
            <path id="Trazado_593627" data-name="Trazado 593627" d="M97.869,8.263c19.055,11.01,19.149,28.849.211,39.847S48.344,59.1,29.289,48.088,10.14,19.238,29.077,8.242s49.737-10.988,68.792.022" transform="translate(1.297 0)" fill="#f7f8f9"/>
          </g>
        </g>
        <g id="Grupo_873856" data-name="Grupo 873856" transform="translate(26.475 5.932)">
          <g id="Grupo_873855" data-name="Grupo 873855" clip-path="url(#clip-path-10)">
            <path id="Trazado_593663" data-name="Trazado 593663" d="M0,0H84.376V46.663H0Z" transform="translate(-3.786 0)" fill="#9462e0"/>
          </g>
        </g>
        <g id="Grupo_873858" data-name="Grupo 873858" transform="translate(26.495 5.932)">
          <g id="Grupo_873857" data-name="Grupo 873857" clip-path="url(#clip-path-11)">
            <path id="Trazado_593664" data-name="Trazado 593664" d="M0,0H78.778V24.789H0Z" transform="translate(-1.011 -0.001)" fill="#6826cc"/>
          </g>
        </g>
        <g id="Grupo_873860" data-name="Grupo 873860" transform="translate(0 94.848)">
          <g id="Grupo_873859" data-name="Grupo 873859" clip-path="url(#clip-path-12)">
            <rect id="Rectángulo_293107" data-name="Rectángulo 293107" width="59.276" height="31.244" transform="translate(-0.005 -0.009)" fill="url(#linear-gradient-3)"/>
          </g>
        </g>
        <g id="Grupo_873862" data-name="Grupo 873862">
          <g id="Grupo_873861" data-name="Grupo 873861" clip-path="url(#clip-path-5)">
            <path id="Trazado_593631" data-name="Trazado 593631" d="M50.524,76.6c11.6,6.7,11.662,17.57.128,24.267s-30.29,6.691-41.895-.013S-2.9,83.285,8.629,76.587,38.92,69.9,50.524,76.6" transform="translate(0.001 6.216)" fill="#f7f8f9"/>
          </g>
        </g>
        <g id="Grupo_873864" data-name="Grupo 873864" transform="translate(3.271 81.088)">
          <g id="Grupo_873863" data-name="Grupo 873863" clip-path="url(#clip-path-14)">
            <path id="Trazado_593668" data-name="Trazado 593668" d="M0,0H52.744V27.793H0Z" transform="translate(-0.016 -0.008)" fill="#ffeeb0"/>
          </g>
        </g>
        <g id="Grupo_873866" data-name="Grupo 873866">
          <g id="Grupo_873865" data-name="Grupo 873865" clip-path="url(#clip-path-5)">
            <path id="Trazado_593633" data-name="Trazado 593633" d="M47.956,65.117c10.323,5.965,10.374,15.63.114,21.588S21.124,92.657,10.8,86.693.426,71.063,10.687,65.1s26.946-5.953,37.269.012" transform="translate(0.263 5.266)" fill="#f7f8f9"/>
          </g>
        </g>
        <g id="Grupo_873868" data-name="Grupo 873868" transform="translate(0 73.986)">
          <g id="Grupo_873867" data-name="Grupo 873867" clip-path="url(#clip-path-16)">
            <rect id="Rectángulo_293111" data-name="Rectángulo 293111" width="59.276" height="31.244" transform="translate(-0.005 -0.009)" fill="url(#linear-gradient-4)"/>
          </g>
        </g>
        <g id="Grupo_873870" data-name="Grupo 873870">
          <g id="Grupo_873869" data-name="Grupo 873869" clip-path="url(#clip-path-5)">
            <path id="Trazado_593635" data-name="Trazado 593635" d="M50.524,57.405c11.6,6.7,11.662,17.57.128,24.267s-30.29,6.692-41.895-.013S-2.9,64.089,8.629,57.392s30.29-6.692,41.895.013" transform="translate(0.001 4.548)" fill="#f7f8f9"/>
          </g>
        </g>
        <g id="Grupo_873872" data-name="Grupo 873872" transform="translate(6.256 60.533)">
          <g id="Grupo_873871" data-name="Grupo 873871" clip-path="url(#clip-path-18)">
            <path id="Trazado_593666" data-name="Trazado 593666" d="M0,0H51.386V28.418H0Z" transform="translate(-2.306)" fill="#ffeeb0"/>
          </g>
        </g>
        <g id="Grupo_873874" data-name="Grupo 873874" transform="translate(6.268 60.533)">
          <g id="Grupo_873873" data-name="Grupo 873873" clip-path="url(#clip-path-19)">
            <path id="Trazado_593667" data-name="Trazado 593667" d="M0,0H47.977V15.1H0Z" transform="translate(-0.617)" fill="#b9ac7d"/>
          </g>
        </g>
        <g id="Grupo_873928" data-name="Grupo 873928">
          <g id="Grupo_873927" data-name="Grupo 873927" clip-path="url(#clip-path-5)">
            <g id="Grupo_873891" data-name="Grupo 873891" transform="translate(12.639 62.166)" style="isolation: isolate">
              <g id="Grupo_873890" data-name="Grupo 873890">
                <g id="Grupo_873889" data-name="Grupo 873889" clip-path="url(#clip-path-21)">
                  <g id="Grupo_873876" data-name="Grupo 873876" transform="translate(28.438 3.322)">
                    <g id="Grupo_873875" data-name="Grupo 873875" clip-path="url(#clip-path-22)">
                      <rect id="Rectángulo_293115" data-name="Rectángulo 293115" width="2.032" height="4.818" transform="translate(0)" fill="url(#linear-gradient-5)"/>
                    </g>
                  </g>
                  <g id="Grupo_873878" data-name="Grupo 873878" transform="translate(3.476 3.315)">
                    <g id="Grupo_873877" data-name="Grupo 873877" clip-path="url(#clip-path-23)">
                      <rect id="Rectángulo_293116" data-name="Rectángulo 293116" width="2.052" height="4.833" transform="translate(-0.001 0)" fill="url(#linear-gradient-6)"/>
                    </g>
                  </g>
                  <g id="Grupo_873880" data-name="Grupo 873880" transform="translate(14.139 0)">
                    <g id="Grupo_873879" data-name="Grupo 873879" transform="translate(0)" clip-path="url(#clip-path-24)">
                      <rect id="Rectángulo_293117" data-name="Rectángulo 293117" width="0.014" height="4.133" transform="translate(0)" fill="url(#linear-gradient-7)"/>
                    </g>
                  </g>
                  <g id="Grupo_873882" data-name="Grupo 873882" transform="translate(8.223 4.05)">
                    <g id="Grupo_873881" data-name="Grupo 873881" clip-path="url(#clip-path-25)">
                      <rect id="Rectángulo_293118" data-name="Rectángulo 293118" width="17.569" height="8.164" transform="translate(0 -0.001)" fill="url(#linear-gradient-8)"/>
                    </g>
                  </g>
                  <g id="Grupo_873884" data-name="Grupo 873884" transform="translate(28.484 10.043)">
                    <g id="Grupo_873883" data-name="Grupo 873883" clip-path="url(#clip-path-26)">
                      <rect id="Rectángulo_293119" data-name="Rectángulo 293119" width="5.524" height="6.178" transform="translate(0 0)" fill="url(#linear-gradient-9)"/>
                    </g>
                  </g>
                  <g id="Grupo_873886" data-name="Grupo 873886" transform="translate(0 8.216)">
                    <g id="Grupo_873885" data-name="Grupo 873885" clip-path="url(#clip-path-27)">
                      <rect id="Rectángulo_293120" data-name="Rectángulo 293120" width="5.573" height="8.012" transform="translate(0)" fill="url(#linear-gradient-10)"/>
                    </g>
                  </g>
                  <g id="Grupo_873888" data-name="Grupo 873888" transform="translate(3.541 14.933)">
                    <g id="Grupo_873887" data-name="Grupo 873887" clip-path="url(#clip-path-28)">
                      <rect id="Rectángulo_293121" data-name="Rectángulo 293121" width="26.996" height="7.097" transform="translate(-0.001)" fill="url(#linear-gradient-11)"/>
                    </g>
                  </g>
                </g>
              </g>
            </g>
            <path id="Trazado_593645" data-name="Trazado 593645" d="M41.8,71.688a.535.535,0,0,1,0,1.012l-2.219,1.29a1.923,1.923,0,0,1-1.745,0l-1.317-.761a1.946,1.946,0,0,0-1.46-.122,20.023,20.023,0,0,1-2.685.646c-.525.087-.885.365-.884.684l.007,1.074c0,.4-.549.716-1.232.716h-3.15a1.784,1.784,0,0,1-.876-.21.624.624,0,0,1-.365-.506l-.005-1.074a.621.621,0,0,0-.363-.5,1.582,1.582,0,0,0-.528-.179,20.157,20.157,0,0,1-2.691-.646,1.936,1.936,0,0,0-1.459.123l-1.309.76a1.923,1.923,0,0,1-1.742,0L15.543,72.7c-.483-.279-.489-.733-.01-1.011l1.309-.761c.385-.223.474-.566.205-.846a6.732,6.732,0,0,1-1.122-1.556.769.769,0,0,0-.311-.3,1.767,1.767,0,0,0-.869-.208l-1.857,0a1.778,1.778,0,0,1-.876-.21.625.625,0,0,1-.364-.506l-.011-1.824c0-.4.549-.717,1.234-.717l1.856,0a1.325,1.325,0,0,0,1.178-.513,6.422,6.422,0,0,1,1.1-1.56c.261-.276.172-.622-.215-.846l-1.313-.758a.536.536,0,0,1-.005-1.014l2.219-1.289a1.932,1.932,0,0,1,1.75,0l1.313.758a1.934,1.934,0,0,0,1.46.122,19.774,19.774,0,0,1,2.689-.642c.524-.088.88-.368.878-.683l-.005-1.077c0-.4.549-.716,1.228-.714l3.154,0a1.79,1.79,0,0,1,.876.209.624.624,0,0,1,.364.508l.007,1.077a.63.63,0,0,0,.364.5,1.574,1.574,0,0,0,.523.178,19.739,19.739,0,0,1,2.7.642,1.916,1.916,0,0,0,1.455-.12l1.307-.76a1.932,1.932,0,0,1,1.75,0l2.238,1.291a.535.535,0,0,1,0,1.012l-1.307.76c-.385.224-.466.567-.2.843a6.511,6.511,0,0,1,1.118,1.56.762.762,0,0,0,.31.3,1.794,1.794,0,0,0,.874.211l1.857,0a1.79,1.79,0,0,1,.876.21.624.624,0,0,1,.364.506l.007,1.827c.007.393-.545.714-1.229.714l-1.856,0a1.308,1.308,0,0,0-1.175.512,6.69,6.69,0,0,1-1.1,1.556c-.265.279-.172.622.215.846ZM22.451,69.98a13.668,13.668,0,0,0,12.415,0c3.417-1.986,3.4-5.2-.045-7.188a13.666,13.666,0,0,0-12.407,0c-3.42,1.987-3.4,5.2.037,7.188" transform="translate(1.011 4.91)" fill="#fff"/>
            <g id="Grupo_873900" data-name="Grupo 873900" transform="translate(65.697 11.734)" style="isolation: isolate">
              <g id="Grupo_873899" data-name="Grupo 873899">
                <g id="Grupo_873898" data-name="Grupo 873898" clip-path="url(#clip-path-29)">
                  <g id="Grupo_873893" data-name="Grupo 873893" transform="translate(0 2.68)">
                    <g id="Grupo_873892" data-name="Grupo 873892" clip-path="url(#clip-path-30)">
                      <rect id="Rectángulo_293123" data-name="Rectángulo 293123" width="10.749" height="10.509" transform="translate(0 0)" fill="url(#linear-gradient-12)"/>
                    </g>
                  </g>
                  <g id="Grupo_873895" data-name="Grupo 873895" transform="translate(19.079 5.251)">
                    <g id="Grupo_873894" data-name="Grupo 873894" clip-path="url(#clip-path-31)">
                      <rect id="Rectángulo_293124" data-name="Rectángulo 293124" width="2.737" height="11.893" transform="translate(0 0)" fill="url(#linear-gradient-13)"/>
                    </g>
                  </g>
                  <g id="Grupo_873897" data-name="Grupo 873897" transform="translate(6.035 9.994)">
                    <g id="Grupo_873896" data-name="Grupo 873896" clip-path="url(#clip-path-32)">
                      <rect id="Rectángulo_293125" data-name="Rectángulo 293125" width="15.772" height="10.424" transform="translate(0 0)" fill="url(#linear-gradient-14)"/>
                    </g>
                  </g>
                  <path id="Trazado_593649" data-name="Trazado 593649" d="M81.225,14.6c.891.514,1.24,1.261.922,1.962l-2.605,5.69,2.156.335a.958.958,0,0,1,.338.111c.336.195.292.555-.2.693l-7.019,1.962a4.767,4.767,0,0,1-3.438-.337,2.44,2.44,0,0,1-.364-.255L66.63,21.035c-.39-.335.14-.766.808-.663l2.162.338,1.6-3.5-6.746,1.049A2.708,2.708,0,0,1,62.762,18a1.055,1.055,0,0,1-.449-.452L60.52,13.737c-.241-.537.3-1.09,1.226-1.235l10.536-1.638a5.436,5.436,0,0,1,3.39.528Z" transform="translate(-60.446 -10.796)" fill="#f7f8f9"/>
                </g>
              </g>
            </g>
            <g id="Grupo_873909" data-name="Grupo 873909" transform="translate(37.53 13.339)" style="isolation: isolate">
              <g id="Grupo_873908" data-name="Grupo 873908">
                <g id="Grupo_873907" data-name="Grupo 873907" clip-path="url(#clip-path-33)">
                  <g id="Grupo_873902" data-name="Grupo 873902" transform="translate(13.862 0.424)">
                    <g id="Grupo_873901" data-name="Grupo 873901" clip-path="url(#clip-path-34)">
                      <rect id="Rectángulo_293127" data-name="Rectángulo 293127" width="0.616" height="7.055" transform="translate(0 0)" fill="url(#linear-gradient-15)"/>
                    </g>
                  </g>
                  <g id="Grupo_873904" data-name="Grupo 873904" transform="translate(11.074 4.084)">
                    <g id="Grupo_873903" data-name="Grupo 873903" clip-path="url(#clip-path-35)">
                      <rect id="Rectángulo_293128" data-name="Rectángulo 293128" width="11.719" height="10.734" transform="translate(0 0)" fill="url(#linear-gradient-16)"/>
                    </g>
                  </g>
                  <g id="Grupo_873906" data-name="Grupo 873906" transform="translate(0 9.622)">
                    <g id="Grupo_873905" data-name="Grupo 873905" clip-path="url(#clip-path-36)">
                      <rect id="Rectángulo_293129" data-name="Rectángulo 293129" width="16.545" height="11.914" transform="translate(-0.002 0)" fill="url(#linear-gradient-17)"/>
                    </g>
                  </g>
                  <path id="Trazado_593653" data-name="Trazado 593653" d="M56.433,15.11c.9.52,1.159,1.326.588,2.008L53.629,21.16a1.084,1.084,0,0,1-1.194.116.453.453,0,0,1-.195-.2l-.578-1.251-6.042.924,4.946,2.875a.752.752,0,0,1-.009,1.425l-4.815,2.779a2.728,2.728,0,0,1-2.465-.007l-7.7-4.487c-.886-.517-1.235-1.264-.905-1.965L36.7,16.992a3.175,3.175,0,0,1,2.485-1.431l9.82-1.5-.573-1.248c-.18-.386.567-.691,1.141-.463l6.438,2.556a3.328,3.328,0,0,1,.418.2" transform="translate(-34.529 -12.273)" fill="#f7f8f9"/>
                </g>
              </g>
            </g>
            <g id="Grupo_873926" data-name="Grupo 873926" transform="translate(55.247 29.298)" style="isolation: isolate">
              <g id="Grupo_873925" data-name="Grupo 873925">
                <g id="Grupo_873924" data-name="Grupo 873924" clip-path="url(#clip-path-37)">
                  <g id="Grupo_873911" data-name="Grupo 873911" transform="translate(10.036 0.914)">
                    <g id="Grupo_873910" data-name="Grupo 873910" clip-path="url(#clip-path-38)">
                      <rect id="Rectángulo_293131" data-name="Rectángulo 293131" width="1.791" height="6.909" transform="translate(0 0)" fill="url(#linear-gradient-18)"/>
                    </g>
                  </g>
                  <path id="Trazado_593655" data-name="Trazado 593655" d="M76.594,28.245c.423.243.618.608.458.967L74.344,35.33a3.129,3.129,0,0,1-2.452,1.443l-7.545,1.21a5.4,5.4,0,0,1-3.4-.511l-7.269-4.133-1.555.916a1.154,1.154,0,0,1-1.066,0,.355.355,0,0,1-.213-.333l.5-4.506c.095-.868,1.268-1.556,2.762-1.624l7.738-.36a1.066,1.066,0,0,1,.583.121c.27.155.325.425.01.612l-1.561.921,4.468,2.54,1.732-3.917A2.059,2.059,0,0,1,69.2,26.99l6.6.994a2.251,2.251,0,0,1,.792.261" transform="translate(-50.831 -26.957)" fill="#f7f8f9"/>
                  <g id="Grupo_873913" data-name="Grupo 873913" transform="translate(26.206 2.004)">
                    <g id="Grupo_873912" data-name="Grupo 873912" clip-path="url(#clip-path-39)">
                      <rect id="Rectángulo_293132" data-name="Rectángulo 293132" width="0.072" height="5.941" transform="translate(0 0)" fill="url(#linear-gradient-19)"/>
                    </g>
                  </g>
                  <g id="Grupo_873915" data-name="Grupo 873915" transform="translate(26.262 2.004)">
                    <g id="Grupo_873914" data-name="Grupo 873914" clip-path="url(#clip-path-40)">
                      <rect id="Rectángulo_293133" data-name="Rectángulo 293133" width="0.016" height="5.69" transform="translate(0 0)" fill="url(#linear-gradient-20)"/>
                    </g>
                  </g>
                  <g id="Grupo_873917" data-name="Grupo 873917" transform="translate(26.25 2.033)">
                    <g id="Grupo_873916" data-name="Grupo 873916" clip-path="url(#clip-path-41)">
                      <rect id="Rectángulo_293134" data-name="Rectángulo 293134" width="0.028" height="5.776" transform="translate(0 0)" fill="url(#linear-gradient-21)"/>
                    </g>
                  </g>
                  <g id="Grupo_873919" data-name="Grupo 873919" transform="translate(26.221 2.119)">
                    <g id="Grupo_873918" data-name="Grupo 873918" clip-path="url(#clip-path-42)">
                      <rect id="Rectángulo_293135" data-name="Rectángulo 293135" width="0.046" height="5.787" transform="translate(0 0)" fill="url(#linear-gradient-22)"/>
                    </g>
                  </g>
                  <g id="Grupo_873921" data-name="Grupo 873921" transform="translate(26.206 2.217)">
                    <g id="Grupo_873920" data-name="Grupo 873920" clip-path="url(#clip-path-43)">
                      <rect id="Rectángulo_293136" data-name="Rectángulo 293136" width="0.033" height="5.728" transform="translate(0 0)" fill="url(#linear-gradient-23)"/>
                    </g>
                  </g>
                  <g id="Grupo_873923" data-name="Grupo 873923" transform="translate(0 2.256)">
                    <g id="Grupo_873922" data-name="Grupo 873922" clip-path="url(#clip-path-44)">
                      <rect id="Rectángulo_293137" data-name="Rectángulo 293137" width="26.222" height="14.536" transform="translate(0 0)" fill="url(#linear-gradient-24)"/>
                    </g>
                  </g>
                </g>
              </g>
            </g>
          </g>
        </g>
      </g>
    </g>
    <g id="Grupo_873932" data-name="Grupo 873932" transform="translate(999.177 211.516)">
      <g id="Grupo_873960" data-name="Grupo 873960" clip-path="url(#clip-path-45)">
        <g id="Grupo_873933" data-name="Grupo 873933" transform="translate(19.493 75.952)">
          <g id="Grupo_873932-2" data-name="Grupo 873932" clip-path="url(#clip-path-46)">
            <rect id="Rectángulo_293141" data-name="Rectángulo 293141" width="5.891" height="15.446" transform="translate(-0.147 5.48) rotate(-88.468)" fill="#12263f"/>
          </g>
        </g>
        <g id="Grupo_873935" data-name="Grupo 873935" transform="translate(16.925 63.479)">
          <g id="Grupo_873934" data-name="Grupo 873934" clip-path="url(#clip-path-47)">
            <rect id="Rectángulo_293142" data-name="Rectángulo 293142" width="19.91" height="15.53" transform="translate(0)" fill="#727997"/>
          </g>
        </g>
        <g id="Grupo_873937" data-name="Grupo 873937" transform="translate(16.407 60.763)">
          <g id="Grupo_873936" data-name="Grupo 873936" clip-path="url(#clip-path-48)">
            <rect id="Rectángulo_293143" data-name="Rectángulo 293143" width="20.946" height="16.339" transform="translate(0 0)" fill="#12263f"/>
          </g>
        </g>
        <g id="Grupo_873939" data-name="Grupo 873939" transform="translate(15.974 58.278)">
          <g id="Grupo_873938" data-name="Grupo 873938" clip-path="url(#clip-path-49)">
            <rect id="Rectángulo_293144" data-name="Rectángulo 293144" width="21.813" height="16.339" transform="translate(0 0)" fill="#727997"/>
          </g>
        </g>
        <g id="Grupo_873941" data-name="Grupo 873941" transform="translate(16.407 57.007)">
          <g id="Grupo_873940" data-name="Grupo 873940" clip-path="url(#clip-path-50)">
            <rect id="Rectángulo_293145" data-name="Rectángulo 293145" width="20.946" height="14.733" transform="translate(0 0)" fill="#12263f"/>
          </g>
        </g>
        <g id="Grupo_873959" data-name="Grupo 873959">
          <g id="Grupo_873958" data-name="Grupo 873958" clip-path="url(#clip-path-45)">
            <path id="Trazado_593674" data-name="Trazado 593674" d="M49.292,42.087h0a26.965,26.965,0,1,0-43.952.986h0l0,0a27.148,27.148,0,0,0,1.967,2.336c3.379,4.137,9.926,12.743,9.926,17.342,0,3.78,4.357,6.844,9.731,6.844s9.73-3.064,9.73-6.844c0,0,1.681-6.808,9.553-16.951a27.07,27.07,0,0,0,3.038-3.71l.006-.007" fill="#fff"/>
            <path id="Trazado_593675" data-name="Trazado 593675" d="M84.734,216.961c0,3.609-4.159,6.534-9.29,6.534s-9.29-2.926-9.29-6.534,4.159-6.534,9.29-6.534,9.29,2.926,9.29,6.534" transform="translate(-48.479 -154.206)" fill="#e8e8e8"/>
            <g id="Grupo_873944" data-name="Grupo 873944" transform="translate(8.39 9.268)" style="mix-blend-mode: screen;isolation: isolate">
              <g id="Grupo_873943" data-name="Grupo 873943">
                <g id="Grupo_873942" data-name="Grupo 873942" clip-path="url(#clip-path-52)">
                  <path id="Trazado_593676" data-name="Trazado 593676" d="M47.211,45.279a8.1,8.1,0,1,1-5.218-10.2,8.1,8.1,0,0,1,5.218,10.2" transform="translate(-31.403 -34.689)" fill="#250c1b"/>
                </g>
              </g>
            </g>
            <g id="Grupo_873947" data-name="Grupo 873947" transform="translate(9.54 26.192)" style="mix-blend-mode: screen;isolation: isolate">
              <g id="Grupo_873946" data-name="Grupo 873946">
                <g id="Grupo_873945" data-name="Grupo 873945" clip-path="url(#clip-path-53)">
                  <path id="Trazado_593677" data-name="Trazado 593677" d="M42.347,102.483A3.4,3.4,0,1,1,40.155,98.2a3.4,3.4,0,0,1,2.192,4.284" transform="translate(-35.706 -98.034)" fill="#250c1b"/>
                </g>
              </g>
            </g>
            <g id="Grupo_873952" data-name="Grupo 873952" transform="translate(17.204 12.642)" style="mix-blend-mode: multiply;isolation: isolate">
              <g id="Grupo_873951" data-name="Grupo 873951">
                <g id="Grupo_873950" data-name="Grupo 873950" clip-path="url(#clip-path-54)">
                  <g id="Grupo_873949" data-name="Grupo 873949" transform="translate(0)">
                    <g id="Grupo_873948" data-name="Grupo 873948" clip-path="url(#clip-path-55)">
                      <rect id="Rectángulo_293148" data-name="Rectángulo 293148" width="51.569" height="38.485" transform="translate(-18.931 38.659) rotate(-63.909)" fill="#b9ac7d"/>
                    </g>
                  </g>
                </g>
              </g>
            </g>
            <g id="Grupo_873957" data-name="Grupo 873957" transform="translate(17.132 13.333)" style="mix-blend-mode: screen;isolation: isolate">
              <g id="Grupo_873956" data-name="Grupo 873956">
                <g id="Grupo_873955" data-name="Grupo 873955" clip-path="url(#clip-path-56)">
                  <g id="Grupo_873954" data-name="Grupo 873954" transform="translate(0)">
                    <g id="Grupo_873953" data-name="Grupo 873953" clip-path="url(#clip-path-57)">
                      <rect id="Rectángulo_293150" data-name="Rectángulo 293150" width="18.045" height="47.239" transform="translate(0 0)" fill="#d5c485"/>
                    </g>
                  </g>
                </g>
              </g>
            </g>
          </g>
        </g>
      </g>
    </g>
  </g>
</svg>
