<svg xmlns="http://www.w3.org/2000/svg" xmlns:xlink="http://www.w3.org/1999/xlink" width="1021.524" height="455.417" viewBox="0 0 1021.524 455.417">
  <defs>
    <clipPath id="clip-path">
      <rect id="Rectángulo_293606" data-name="Rectángulo 293606" width="1021.524" height="455.417" fill="none"/>
    </clipPath>
    <clipPath id="clip-path-3">
      <rect id="Rectángulo_293500" data-name="Rectángulo 293500" width="474.949" height="126.55" fill="none"/>
    </clipPath>
    <clipPath id="clip-path-5">
      <rect id="Rectángulo_293508" data-name="Rectángulo 293508" width="474.949" height="75.674" fill="none"/>
    </clipPath>
    <clipPath id="clip-path-7">
      <rect id="Rectángulo_293516" data-name="Rectángulo 293516" width="474.949" height="75.664" fill="none"/>
    </clipPath>
    <clipPath id="clip-path-9">
      <rect id="Rectángulo_293524" data-name="Rectángulo 293524" width="474.949" height="75.668" fill="none"/>
    </clipPath>
    <clipPath id="clip-path-13">
      <rect id="Rectángulo_293540" data-name="Rectángulo 293540" width="474.949" height="126.541" fill="none"/>
    </clipPath>
    <clipPath id="clip-path-15">
      <rect id="Rectángulo_293548" data-name="Rectángulo 293548" width="474.948" height="126.55" fill="none"/>
    </clipPath>
    <clipPath id="clip-path-17">
      <rect id="Rectángulo_293556" data-name="Rectángulo 293556" width="474.948" height="75.674" fill="none"/>
    </clipPath>
    <clipPath id="clip-path-19">
      <rect id="Rectángulo_293564" data-name="Rectángulo 293564" width="474.948" height="75.664" fill="none"/>
    </clipPath>
    <clipPath id="clip-path-21">
      <rect id="Rectángulo_293572" data-name="Rectángulo 293572" width="474.948" height="75.668" fill="none"/>
    </clipPath>
    <clipPath id="clip-path-25">
      <rect id="Rectángulo_293588" data-name="Rectángulo 293588" width="474.948" height="126.541" fill="none"/>
    </clipPath>
    <clipPath id="clip-path-27">
      <rect id="Rectángulo_293593" data-name="Rectángulo 293593" width="214.232" height="375.014" fill="none"/>
    </clipPath>
    <clipPath id="clip-path-28">
      <path id="Trazado_595205" data-name="Trazado 595205" d="M252.324,123.558V284.344a104.307,104.307,0,0,0,208.614,0V123.558a104.307,104.307,0,0,0-208.614,0" transform="translate(-252.324 -19.252)" fill="none"/>
    </clipPath>
    <linearGradient id="linear-gradient" x1="-0.75" y1="1.086" x2="-0.746" y2="1.086" gradientUnits="objectBoundingBox">
      <stop offset="0" stop-color="#d1d3d4"/>
      <stop offset="1" stop-color="#fff"/>
    </linearGradient>
    <linearGradient id="linear-gradient-2" x1="-1.911" y1="1.143" x2="-1.904" y2="1.143" gradientUnits="objectBoundingBox">
      <stop offset="0" stop-color="#fff"/>
      <stop offset="1" stop-color="#b1b3b6"/>
    </linearGradient>
    <clipPath id="clip-path-31">
      <rect id="Rectángulo_293607" data-name="Rectángulo 293607" width="126.515" height="126.498" fill="#677987"/>
    </clipPath>
  </defs>
  <g id="Grupo_874635" data-name="Grupo 874635" transform="translate(-293.477 -555.348)">
    <g id="Grupo_874549" data-name="Grupo 874549" transform="translate(293.477 555.348)">
      <g id="Grupo_874548" data-name="Grupo 874548" transform="translate(0 0)" clip-path="url(#clip-path)">
        <g id="Grupo_874481" data-name="Grupo 874481">
          <g id="Grupo_874480" data-name="Grupo 874480" clip-path="url(#clip-path)">
            <g id="Grupo_874479" data-name="Grupo 874479" transform="translate(0 328.868)" opacity="0.25" style="mix-blend-mode: multiply;isolation: isolate">
              <g id="Grupo_874478" data-name="Grupo 874478">
                <g id="Grupo_874477" data-name="Grupo 874477" clip-path="url(#clip-path-3)">
                  <rect id="Rectángulo_293497" data-name="Rectángulo 293497" width="87.969" height="23.692" transform="translate(386.98 -0.001)"/>
                  <path id="Trazado_595179" data-name="Trazado 595179" d="M206.309,330.707l54.647-102.858V204.157l-54.647,51.981Z" transform="translate(126.025 -204.158)"/>
                  <rect id="Rectángulo_293498" data-name="Rectángulo 293498" width="270.719" height="74.57" transform="translate(61.614 51.98)"/>
                  <rect id="Rectángulo_293499" data-name="Rectángulo 293499" width="61.614" height="74.57" transform="translate(0 51.98)"/>
                </g>
              </g>
            </g>
          </g>
        </g>
        <rect id="Rectángulo_293502" data-name="Rectángulo 293502" width="87.969" height="23.692" transform="translate(386.98 325.264)" fill="#ffe0f0"/>
        <path id="Trazado_595180" data-name="Trazado 595180" d="M206.309,328.47l54.647-102.858V201.92L206.309,253.9Z" transform="translate(126.025 123.343)" fill="#edc4d9"/>
        <rect id="Rectángulo_293503" data-name="Rectángulo 293503" width="270.719" height="74.57" transform="translate(61.614 377.244)" fill="#ffe0f0"/>
        <rect id="Rectángulo_293504" data-name="Rectángulo 293504" width="61.614" height="74.57" transform="translate(0 377.244)" fill="#fff"/>
        <g id="Grupo_874486" data-name="Grupo 874486">
          <g id="Grupo_874485" data-name="Grupo 874485" clip-path="url(#clip-path)">
            <g id="Grupo_874484" data-name="Grupo 874484" transform="translate(0 305.174)" opacity="0.25" style="mix-blend-mode: multiply;isolation: isolate">
              <g id="Grupo_874483" data-name="Grupo 874483">
                <g id="Grupo_874482" data-name="Grupo 874482" clip-path="url(#clip-path-5)">
                  <rect id="Rectángulo_293505" data-name="Rectángulo 293505" width="87.969" height="23.694" transform="translate(386.98 -0.001)"/>
                  <path id="Trazado_595181" data-name="Trazado 595181" d="M206.309,265.123l54.647-51.981V189.448H206.309Z" transform="translate(126.025 -189.449)"/>
                  <rect id="Rectángulo_293506" data-name="Rectángulo 293506" width="270.719" height="75.675" transform="translate(61.614 -0.001)"/>
                  <rect id="Rectángulo_293507" data-name="Rectángulo 293507" width="61.614" height="75.675" transform="translate(0 -0.001)"/>
                </g>
              </g>
            </g>
          </g>
        </g>
        <rect id="Rectángulo_293510" data-name="Rectángulo 293510" width="87.969" height="23.694" transform="translate(386.98 301.57)" fill="#e8e8e8"/>
        <path id="Trazado_595182" data-name="Trazado 595182" d="M206.309,262.885,260.955,210.9V187.211H206.309Z" transform="translate(126.025 114.358)" fill="#d8d5d5"/>
        <rect id="Rectángulo_293511" data-name="Rectángulo 293511" width="270.719" height="75.675" transform="translate(61.614 301.57)" fill="#e8e8e8"/>
        <rect id="Rectángulo_293512" data-name="Rectángulo 293512" width="61.614" height="75.675" transform="translate(0 301.57)" fill="#fff"/>
        <g id="Grupo_874491" data-name="Grupo 874491">
          <g id="Grupo_874490" data-name="Grupo 874490" clip-path="url(#clip-path)">
            <g id="Grupo_874489" data-name="Grupo 874489" transform="translate(0 229.51)" opacity="0.25" style="mix-blend-mode: multiply;isolation: isolate">
              <g id="Grupo_874488" data-name="Grupo 874488">
                <g id="Grupo_874487" data-name="Grupo 874487" clip-path="url(#clip-path-7)">
                  <rect id="Rectángulo_293513" data-name="Rectángulo 293513" width="87.969" height="23.696" transform="translate(386.98 51.968)"/>
                  <path id="Trazado_595183" data-name="Trazado 595183" d="M206.309,218.141h54.647v-23.7l-54.647-51.968Z" transform="translate(126.025 -142.477)"/>
                  <rect id="Rectángulo_293514" data-name="Rectángulo 293514" width="270.719" height="75.663" transform="translate(61.614)"/>
                  <rect id="Rectángulo_293515" data-name="Rectángulo 293515" width="61.614" height="75.663"/>
                </g>
              </g>
            </g>
          </g>
        </g>
        <rect id="Rectángulo_293518" data-name="Rectángulo 293518" width="87.969" height="23.696" transform="translate(386.98 277.874)" fill="#6826cc"/>
        <path id="Trazado_595184" data-name="Trazado 595184" d="M206.309,215.9h54.647v-23.7L206.309,140.24Z" transform="translate(126.025 85.666)" fill="#42468d"/>
        <rect id="Rectángulo_293519" data-name="Rectángulo 293519" width="270.719" height="75.663" transform="translate(61.614 225.906)" fill="#6826cc"/>
        <rect id="Rectángulo_293520" data-name="Rectángulo 293520" width="61.614" height="75.663" transform="translate(0 225.906)" fill="#fff"/>
        <g id="Grupo_874496" data-name="Grupo 874496">
          <g id="Grupo_874495" data-name="Grupo 874495" clip-path="url(#clip-path)">
            <g id="Grupo_874494" data-name="Grupo 874494" transform="translate(0 153.841)" opacity="0.25" style="mix-blend-mode: multiply;isolation: isolate">
              <g id="Grupo_874493" data-name="Grupo 874493">
                <g id="Grupo_874492" data-name="Grupo 874492" clip-path="url(#clip-path-9)">
                  <rect id="Rectángulo_293521" data-name="Rectángulo 293521" width="87.969" height="23.694" transform="translate(386.98)"/>
                  <path id="Trazado_595185" data-name="Trazado 595185" d="M206.309,171.172,260.955,119.2V95.5H206.309Z" transform="translate(126.025 -95.503)"/>
                  <rect id="Rectángulo_293522" data-name="Rectángulo 293522" width="270.719" height="75.67" transform="translate(61.614 -0.002)"/>
                  <rect id="Rectángulo_293523" data-name="Rectángulo 293523" width="61.614" height="75.67" transform="translate(0 -0.002)"/>
                </g>
              </g>
            </g>
          </g>
        </g>
        <rect id="Rectángulo_293526" data-name="Rectángulo 293526" width="87.969" height="23.694" transform="translate(386.98 150.236)" fill="#ea3584"/>
        <path id="Trazado_595186" data-name="Trazado 595186" d="M206.309,168.935l54.647-51.976V93.265H206.309Z" transform="translate(126.025 56.971)" fill="#c71f68"/>
        <path id="Trazado_595220" data-name="Trazado 595220" d="M0,0H270.719V75.67H0Z" transform="translate(61.614 150.236)" fill="#ea3584"/>
        <rect id="Rectángulo_293528" data-name="Rectángulo 293528" width="61.614" height="75.67" transform="translate(0 150.236)" fill="#fff"/>
        <g id="Grupo_874501" data-name="Grupo 874501">
          <g id="Grupo_874500" data-name="Grupo 874500" clip-path="url(#clip-path)">
            <g id="Grupo_874499" data-name="Grupo 874499" transform="translate(0 78.173)" opacity="0.25" style="mix-blend-mode: multiply;isolation: isolate">
              <g id="Grupo_874498" data-name="Grupo 874498">
                <g id="Grupo_874497" data-name="Grupo 874497" clip-path="url(#clip-path-9)">
                  <rect id="Rectángulo_293529" data-name="Rectángulo 293529" width="87.969" height="23.694" transform="translate(386.98 51.974)"/>
                  <path id="Trazado_595187" data-name="Trazado 595187" d="M206.309,124.2h54.647V100.5L206.309,48.53Z" transform="translate(126.025 -48.529)"/>
                  <rect id="Rectángulo_293530" data-name="Rectángulo 293530" width="270.719" height="75.667" transform="translate(61.614 0.002)"/>
                  <rect id="Rectángulo_293531" data-name="Rectángulo 293531" width="61.614" height="75.667" transform="translate(0 0.002)"/>
                </g>
              </g>
            </g>
          </g>
        </g>
        <rect id="Rectángulo_293534" data-name="Rectángulo 293534" width="87.969" height="23.694" transform="translate(386.98 126.542)" fill="#203a5a"/>
        <path id="Trazado_595188" data-name="Trazado 595188" d="M206.309,121.959h54.647V98.265L206.309,46.292Z" transform="translate(126.025 28.278)" fill="#12263f"/>
        <rect id="Rectángulo_293535" data-name="Rectángulo 293535" width="270.719" height="75.667" transform="translate(61.614 74.57)" fill="#203a5a"/>
        <rect id="Rectángulo_293536" data-name="Rectángulo 293536" width="61.614" height="75.667" transform="translate(0 74.57)" fill="#fff"/>
        <g id="Grupo_874506" data-name="Grupo 874506">
          <g id="Grupo_874505" data-name="Grupo 874505" clip-path="url(#clip-path)">
            <g id="Grupo_874504" data-name="Grupo 874504" transform="translate(0 3.605)" opacity="0.25" style="mix-blend-mode: multiply;isolation: isolate">
              <g id="Grupo_874503" data-name="Grupo 874503">
                <g id="Grupo_874502" data-name="Grupo 874502" clip-path="url(#clip-path-13)">
                  <rect id="Rectángulo_293537" data-name="Rectángulo 293537" width="87.969" height="23.697" transform="translate(386.98 102.843)"/>
                  <path id="Trazado_595189" data-name="Trazado 595189" d="M206.309,76.807l54.647,51.973v-23.7L206.309,2.237Z" transform="translate(126.025 -2.238)"/>
                  <rect id="Rectángulo_293538" data-name="Rectángulo 293538" width="270.719" height="74.57" transform="translate(61.614 -0.002)"/>
                  <rect id="Rectángulo_293539" data-name="Rectángulo 293539" width="61.614" height="74.57" transform="translate(0 -0.002)"/>
                </g>
              </g>
            </g>
          </g>
        </g>
        <rect id="Rectángulo_293542" data-name="Rectángulo 293542" width="87.969" height="23.697" transform="translate(386.98 102.845)" fill="#727997"/>
        <path id="Trazado_595190" data-name="Trazado 595190" d="M206.309,0V74.57l54.647,51.973v-23.7Z" transform="translate(126.025 0)" fill="#575c71"/>
        <rect id="Rectángulo_293543" data-name="Rectángulo 293543" width="270.72" height="74.57" transform="translate(61.614 0.002)" fill="#727997"/>
        <rect id="Rectángulo_293544" data-name="Rectángulo 293544" width="61.614" height="74.57" transform="translate(0 0.002)" fill="#fff"/>
        <text id="_01" data-name="01" transform="translate(16.599 45.652)" fill="#727997" font-size="18" font-family="Roboto-Bold, Roboto" font-weight="700"><tspan x="0" y="0">01</tspan></text>
        <text id="_02" data-name="02" transform="translate(16.599 120.112)" fill="#12263f" font-size="18" font-family="Roboto-Bold, Roboto" font-weight="700"><tspan x="0" y="0">02</tspan></text>
        <text id="_03" data-name="03" transform="translate(16.599 194.572)" fill="#007fb2" font-size="18" font-family="Roboto-Bold, Roboto" font-weight="700"><tspan x="0" y="0">03</tspan></text>
        <text id="_04" data-name="04" transform="translate(16.599 271.454)" fill="#4e53a7" font-size="18" font-family="Roboto-Bold, Roboto" font-weight="700"><tspan x="0" y="0">04</tspan></text>
        <text id="_05" data-name="05" transform="translate(16.599 345.916)" fill="#12263f" font-size="18" font-family="Roboto-Bold, Roboto" font-weight="700"><tspan x="0" y="0">05</tspan></text>
        <text id="_06" data-name="06" transform="translate(16.599 420.375)" fill="#12263f" font-size="18" font-family="Roboto-Bold, Roboto" font-weight="700"><tspan x="0" y="0">06</tspan></text>
        <g id="Grupo_874511" data-name="Grupo 874511">
          <g id="Grupo_874510" data-name="Grupo 874510" clip-path="url(#clip-path)">
            <g id="Grupo_874509" data-name="Grupo 874509" transform="translate(546.576 328.868)" opacity="0.25" style="mix-blend-mode: multiply;isolation: isolate">
              <g id="Grupo_874508" data-name="Grupo 874508">
                <g id="Grupo_874507" data-name="Grupo 874507" clip-path="url(#clip-path-15)">
                  <rect id="Rectángulo_293545" data-name="Rectángulo 293545" width="87.97" height="23.692" transform="translate(0 -0.001)"/>
                  <path id="Trazado_595191" data-name="Trazado 595191" d="M448.565,330.707,393.919,227.849V204.157l54.647,51.981Z" transform="translate(-305.949 -204.158)"/>
                  <rect id="Rectángulo_293546" data-name="Rectángulo 293546" width="270.717" height="74.57" transform="translate(142.615 51.98)"/>
                  <rect id="Rectángulo_293547" data-name="Rectángulo 293547" width="61.615" height="74.57" transform="translate(413.332 51.98)"/>
                </g>
              </g>
            </g>
          </g>
        </g>
        <rect id="Rectángulo_293550" data-name="Rectángulo 293550" width="87.97" height="23.692" transform="translate(546.576 325.264)" fill="#ffe0f0"/>
        <path id="Trazado_595192" data-name="Trazado 595192" d="M448.565,328.47,393.919,225.612V201.92L448.565,253.9Z" transform="translate(240.627 123.343)" fill="#edc4d9"/>
        <rect id="Rectángulo_293551" data-name="Rectángulo 293551" width="270.717" height="74.57" transform="translate(689.191 377.244)" fill="#ffe0f0"/>
        <rect id="Rectángulo_293552" data-name="Rectángulo 293552" width="61.615" height="74.57" transform="translate(959.91 377.244)" fill="#fff"/>
        <g id="Grupo_874516" data-name="Grupo 874516">
          <g id="Grupo_874515" data-name="Grupo 874515" clip-path="url(#clip-path)">
            <g id="Grupo_874514" data-name="Grupo 874514" transform="translate(546.576 305.174)" opacity="0.25" style="mix-blend-mode: multiply;isolation: isolate">
              <g id="Grupo_874513" data-name="Grupo 874513">
                <g id="Grupo_874512" data-name="Grupo 874512" clip-path="url(#clip-path-17)">
                  <rect id="Rectángulo_293553" data-name="Rectángulo 293553" width="87.97" height="23.694" transform="translate(0 -0.001)"/>
                  <path id="Trazado_595193" data-name="Trazado 595193" d="M448.565,265.123l-54.647-51.981V189.448h54.647Z" transform="translate(-305.949 -189.449)"/>
                  <rect id="Rectángulo_293554" data-name="Rectángulo 293554" width="270.717" height="75.675" transform="translate(142.615 -0.001)"/>
                  <rect id="Rectángulo_293555" data-name="Rectángulo 293555" width="61.615" height="75.675" transform="translate(413.332 -0.001)"/>
                </g>
              </g>
            </g>
          </g>
        </g>
        <rect id="Rectángulo_293558" data-name="Rectángulo 293558" width="87.97" height="23.694" transform="translate(546.576 301.57)" fill="#e8e8e8"/>
        <path id="Trazado_595194" data-name="Trazado 595194" d="M448.565,262.885,393.919,210.9V187.211h54.647Z" transform="translate(240.627 114.358)" fill="#d8d5d5"/>
        <rect id="Rectángulo_293559" data-name="Rectángulo 293559" width="270.717" height="75.675" transform="translate(689.191 301.57)" fill="#e8e8e8"/>
        <rect id="Rectángulo_293560" data-name="Rectángulo 293560" width="61.615" height="75.675" transform="translate(959.91 301.57)" fill="#fff"/>
        <g id="Grupo_874521" data-name="Grupo 874521">
          <g id="Grupo_874520" data-name="Grupo 874520" clip-path="url(#clip-path)">
            <g id="Grupo_874519" data-name="Grupo 874519" transform="translate(546.576 229.51)" opacity="0.25" style="mix-blend-mode: multiply;isolation: isolate">
              <g id="Grupo_874518" data-name="Grupo 874518">
                <g id="Grupo_874517" data-name="Grupo 874517" clip-path="url(#clip-path-19)">
                  <rect id="Rectángulo_293561" data-name="Rectángulo 293561" width="87.97" height="23.696" transform="translate(0 51.968)"/>
                  <path id="Trazado_595195" data-name="Trazado 595195" d="M448.565,218.141H393.919v-23.7l54.647-51.968Z" transform="translate(-305.949 -142.477)"/>
                  <rect id="Rectángulo_293562" data-name="Rectángulo 293562" width="270.717" height="75.663" transform="translate(142.615)"/>
                  <rect id="Rectángulo_293563" data-name="Rectángulo 293563" width="61.615" height="75.663" transform="translate(413.332)"/>
                </g>
              </g>
            </g>
          </g>
        </g>
        <rect id="Rectángulo_293566" data-name="Rectángulo 293566" width="87.97" height="23.696" transform="translate(546.576 277.874)" fill="#6826cc"/>
        <path id="Trazado_595196" data-name="Trazado 595196" d="M448.565,215.9H393.919v-23.7l54.647-51.968Z" transform="translate(240.627 85.666)" fill="#42468d"/>
        <rect id="Rectángulo_293567" data-name="Rectángulo 293567" width="270.717" height="75.663" transform="translate(689.191 225.906)" fill="#6826cc"/>
        <rect id="Rectángulo_293568" data-name="Rectángulo 293568" width="61.615" height="75.663" transform="translate(959.91 225.906)" fill="#fff"/>
        <g id="Grupo_874526" data-name="Grupo 874526">
          <g id="Grupo_874525" data-name="Grupo 874525" clip-path="url(#clip-path)">
            <g id="Grupo_874524" data-name="Grupo 874524" transform="translate(546.576 153.841)" opacity="0.25" style="mix-blend-mode: multiply;isolation: isolate">
              <g id="Grupo_874523" data-name="Grupo 874523">
                <g id="Grupo_874522" data-name="Grupo 874522" clip-path="url(#clip-path-21)">
                  <rect id="Rectángulo_293569" data-name="Rectángulo 293569" width="87.97" height="23.694"/>
                  <path id="Trazado_595197" data-name="Trazado 595197" d="M448.565,171.172,393.919,119.2V95.5h54.647Z" transform="translate(-305.949 -95.503)"/>
                  <rect id="Rectángulo_293570" data-name="Rectángulo 293570" width="270.717" height="75.67" transform="translate(142.615 -0.002)"/>
                  <rect id="Rectángulo_293571" data-name="Rectángulo 293571" width="61.615" height="75.67" transform="translate(413.332 -0.002)"/>
                </g>
              </g>
            </g>
          </g>
        </g>
        <rect id="Rectángulo_293574" data-name="Rectángulo 293574" width="87.97" height="23.694" transform="translate(546.576 150.236)" fill="#ea3584"/>
        <path id="Trazado_595198" data-name="Trazado 595198" d="M448.565,168.935l-54.647-51.976V93.265h54.647Z" transform="translate(240.627 56.971)" fill="#c71f68"/>
        <rect id="Rectángulo_293575" data-name="Rectángulo 293575" width="270.717" height="75.67" transform="translate(689.191 150.236)" fill="#ea3584"/>
        <rect id="Rectángulo_293576" data-name="Rectángulo 293576" width="61.615" height="75.67" transform="translate(959.91 150.236)" fill="#fff"/>
        <g id="Grupo_874531" data-name="Grupo 874531">
          <g id="Grupo_874530" data-name="Grupo 874530" clip-path="url(#clip-path)">
            <g id="Grupo_874529" data-name="Grupo 874529" transform="translate(546.576 78.173)" opacity="0.25" style="mix-blend-mode: multiply;isolation: isolate">
              <g id="Grupo_874528" data-name="Grupo 874528">
                <g id="Grupo_874527" data-name="Grupo 874527" clip-path="url(#clip-path-21)">
                  <rect id="Rectángulo_293577" data-name="Rectángulo 293577" width="87.97" height="23.694" transform="translate(0 51.974)"/>
                  <path id="Trazado_595199" data-name="Trazado 595199" d="M448.565,124.2H393.919V100.5L448.565,48.53Z" transform="translate(-305.949 -48.529)"/>
                  <rect id="Rectángulo_293578" data-name="Rectángulo 293578" width="270.717" height="75.667" transform="translate(142.615 0.002)"/>
                  <rect id="Rectángulo_293579" data-name="Rectángulo 293579" width="61.615" height="75.667" transform="translate(413.332 0.002)"/>
                </g>
              </g>
            </g>
          </g>
        </g>
        <rect id="Rectángulo_293582" data-name="Rectángulo 293582" width="87.97" height="23.694" transform="translate(546.576 126.542)" fill="#203a5a"/>
        <path id="Trazado_595200" data-name="Trazado 595200" d="M448.565,121.959H393.919V98.265l54.647-51.973Z" transform="translate(240.627 28.278)" fill="#12263f"/>
        <rect id="Rectángulo_293583" data-name="Rectángulo 293583" width="270.717" height="75.667" transform="translate(689.191 74.57)" fill="#203a5a"/>
        <rect id="Rectángulo_293584" data-name="Rectángulo 293584" width="61.615" height="75.667" transform="translate(959.91 74.57)" fill="#fff"/>
        <g id="Grupo_874536" data-name="Grupo 874536">
          <g id="Grupo_874535" data-name="Grupo 874535" clip-path="url(#clip-path)">
            <g id="Grupo_874534" data-name="Grupo 874534" transform="translate(546.576 3.605)" opacity="0.25" style="mix-blend-mode: multiply;isolation: isolate">
              <g id="Grupo_874533" data-name="Grupo 874533">
                <g id="Grupo_874532" data-name="Grupo 874532" clip-path="url(#clip-path-25)">
                  <rect id="Rectángulo_293585" data-name="Rectángulo 293585" width="87.97" height="23.697" transform="translate(0 102.843)"/>
                  <path id="Trazado_595201" data-name="Trazado 595201" d="M448.565,76.807,393.919,128.78v-23.7L448.565,2.237Z" transform="translate(-305.949 -2.238)"/>
                  <rect id="Rectángulo_293586" data-name="Rectángulo 293586" width="270.717" height="74.57" transform="translate(142.615 -0.002)"/>
                  <rect id="Rectángulo_293587" data-name="Rectángulo 293587" width="61.615" height="74.57" transform="translate(413.332 -0.002)"/>
                </g>
              </g>
            </g>
          </g>
        </g>
        <rect id="Rectángulo_293590" data-name="Rectángulo 293590" width="87.97" height="23.697" transform="translate(546.576 102.845)" fill="#727997"/>
        <path id="Trazado_595202" data-name="Trazado 595202" d="M448.566,0,393.919,102.845v23.7L448.566,74.57Z" transform="translate(240.627 0)" fill="#575c71"/>
        <rect id="Rectángulo_293591" data-name="Rectángulo 293591" width="270.717" height="74.57" transform="translate(689.193 0.002)" fill="#727997"/>
        <rect id="Rectángulo_293592" data-name="Rectángulo 293592" width="61.615" height="74.57" transform="translate(959.91 0.002)" fill="#fff"/>
        <text id="_07" data-name="07" transform="translate(978.578 45.652)" fill="#727997" font-size="18" font-family="Roboto-Bold, Roboto" font-weight="700"><tspan x="0" y="0">07</tspan></text>
        <text id="_08" data-name="08" transform="translate(978.578 120.112)" fill="#12263f" font-size="18" font-family="Roboto-Bold, Roboto" font-weight="700"><tspan x="0" y="0">08</tspan></text>
        <text id="_09" data-name="09" transform="translate(978.578 194.572)" fill="#007fb2" font-size="18" font-family="Roboto-Bold, Roboto" font-weight="700"><tspan x="0" y="0">09</tspan></text>
        <text id="_10" data-name="10" transform="translate(978.578 271.454)" fill="#4e53a7" font-size="18" font-family="Roboto-Bold, Roboto" font-weight="700"><tspan x="0" y="0">10</tspan></text>
        <text id="_11" data-name="11" transform="translate(978.578 345.916)" fill="#12263f" font-size="18" font-family="Roboto-Bold, Roboto" font-weight="700"><tspan x="0" y="0">11</tspan></text>
        <text id="_12" data-name="12" transform="translate(978.578 420.375)" fill="#12263f" font-size="18" font-family="Roboto-Bold, Roboto" font-weight="700"><tspan x="0" y="0">12</tspan></text>
        <g id="Grupo_874541" data-name="Grupo 874541">
          <g id="Grupo_874540" data-name="Grupo 874540" clip-path="url(#clip-path)">
            <g id="Grupo_874539" data-name="Grupo 874539" transform="translate(403.648 33.076)" opacity="0.25" style="mix-blend-mode: multiply;isolation: isolate">
              <g id="Grupo_874538" data-name="Grupo 874538">
                <g id="Grupo_874537" data-name="Grupo 874537" clip-path="url(#clip-path-27)">
                  <path id="Trazado_595203" data-name="Trazado 595203" d="M460.938,126.583a104.307,104.307,0,0,0-208.614,0V287.367a104.307,104.307,0,0,0,208.614,0Z" transform="translate(-249.515 -19.468)"/>
                  <path id="Trazado_595204" data-name="Trazado 595204" d="M460.938,126.583a104.307,104.307,0,0,0-208.614,0V287.367a104.307,104.307,0,0,0,208.614,0Z" transform="translate(-249.515 -19.468)" fill="none" stroke="#000" stroke-miterlimit="10" stroke-width="3.488"/>
                </g>
              </g>
            </g>
          </g>
        </g>
        <g id="Grupo_874543" data-name="Grupo 874543" transform="translate(406.457 31.012)">
          <g id="Grupo_874542" data-name="Grupo 874542" clip-path="url(#clip-path-28)">
            <rect id="Rectángulo_293595" data-name="Rectángulo 293595" width="408.726" height="408.726" transform="translate(-184.704 184.697) rotate(-45)" fill="url(#linear-gradient)"/>
          </g>
        </g>
        <g id="Grupo_874545" data-name="Grupo 874545">
          <g id="Grupo_874544" data-name="Grupo 874544" clip-path="url(#clip-path)">
            <path id="Trazado_595206" data-name="Trazado 595206" d="M461.549,124.169h-1.611a102.7,102.7,0,0,0-205.392,0v160.8a102.7,102.7,0,0,0,205.392.006v-.043l1.611.023h-1.611V124.169h3.222V284.976l-.127,0h.127v0l-.127,0h.127a105.918,105.918,0,0,1-211.835-.006v-160.8a105.918,105.918,0,0,1,211.835,0Z" transform="translate(153.522 11.149)" fill="url(#linear-gradient-2)"/>
          </g>
        </g>
        <text id="CONCEPTO_Y" data-name="CONCEPTO Y" transform="translate(447.513 242.442)" fill="#677987" font-size="21" font-family="Roboto-Bold, Roboto" font-weight="700"><tspan x="0" y="0">CONCEP</tspan><tspan y="0" letter-spacing="-0.013em">T</tspan><tspan y="0">O Y</tspan></text>
        <text id="HERRAMIENTAS" transform="translate(432.754 264.009)" fill="#677987" font-size="21" font-family="Roboto-Bold, Roboto" font-weight="700"><tspan x="0" y="0">HERRAMIE</tspan><tspan y="0" letter-spacing="-0.014em">N</tspan><tspan y="0" letter-spacing="-0.053em">T</tspan><tspan y="0">AS</tspan></text>
        <g id="Grupo_874547" data-name="Grupo 874547">
          <g id="Grupo_874546" data-name="Grupo 874546" clip-path="url(#clip-path)">
            <rect id="Rectángulo_293597" data-name="Rectángulo 293597" width="10.411" height="2.297" transform="translate(469.118 280.62)" fill="#fdc400"/>
            <rect id="Rectángulo_293598" data-name="Rectángulo 293598" width="10.411" height="2.297" transform="translate(489.94 280.62)" fill="#00b29c"/>
            <rect id="Rectángulo_293599" data-name="Rectángulo 293599" width="10.411" height="2.297" transform="translate(479.529 280.62)" fill="#8bca00"/>
            <rect id="Rectángulo_293600" data-name="Rectángulo 293600" width="10.413" height="2.297" transform="translate(500.351 280.62)" fill="#007fb2"/>
            <rect id="Rectángulo_293601" data-name="Rectángulo 293601" width="10.409" height="2.297" transform="translate(510.763 280.62)" fill="#4e53a7"/>
            <rect id="Rectángulo_293602" data-name="Rectángulo 293602" width="10.413" height="2.297" transform="translate(521.173 280.62)" fill="#793aad"/>
            <rect id="Rectángulo_293603" data-name="Rectángulo 293603" width="10.411" height="2.297" transform="translate(531.585 280.62)" fill="#be36a4"/>
            <rect id="Rectángulo_293604" data-name="Rectángulo 293604" width="10.414" height="2.297" transform="translate(541.996 280.62)" fill="#bd365f"/>
          </g>
        </g>
      </g>
    </g>
    <path id="Trazado_595295" data-name="Trazado 595295" d="M11.188-4.263A4.528,4.528,0,0,1,9.664-1.011,5.355,5.355,0,0,1,6.038.176,4.816,4.816,0,0,1,2.167-1.481,6.793,6.793,0,0,1,.756-6.029v-.782a7.671,7.671,0,0,1,.65-3.252,4.874,4.874,0,0,1,1.859-2.158,5.207,5.207,0,0,1,2.808-.751,5.217,5.217,0,0,1,3.568,1.187,4.866,4.866,0,0,1,1.564,3.331H8.569a2.673,2.673,0,0,0-.69-1.8,2.555,2.555,0,0,0-1.806-.558A2.24,2.24,0,0,0,4.1-9.866a5.3,5.3,0,0,0-.672,2.931v.967a5.667,5.667,0,0,0,.628,3.032,2.2,2.2,0,0,0,1.982.958,2.6,2.6,0,0,0,1.824-.558,2.521,2.521,0,0,0,.69-1.727Zm6.469-.422h-2.1V0H12.92V-12.8h4.755a5.375,5.375,0,0,1,3.5,1.011A3.488,3.488,0,0,1,22.4-8.93a3.937,3.937,0,0,1-.567,2.184,3.866,3.866,0,0,1-1.718,1.393L22.887-.123V0h-2.83Zm-2.1-2.136h2.127a2.178,2.178,0,0,0,1.538-.505,1.806,1.806,0,0,0,.545-1.393,1.933,1.933,0,0,0-.514-1.424,2.137,2.137,0,0,0-1.578-.519H15.557Zm16.55,1.257H27.044v3.445h5.941V0H24.407V-12.8h8.561v2.136H27.044v3.05h5.063Zm9.65,2.927H37.134L36.255,0h-2.8l4.764-12.8h2.443L45.448,0h-2.8ZM37.846-4.772h3.2l-1.608-4.79Zm13.535.088h-2.1V0H46.644V-12.8H51.4a5.375,5.375,0,0,1,3.5,1.011,3.488,3.488,0,0,1,1.23,2.856,3.937,3.937,0,0,1-.567,2.184,3.866,3.866,0,0,1-1.718,1.393L56.61-.123V0H53.78ZM49.28-6.82h2.127a2.178,2.178,0,0,0,1.538-.505,1.806,1.806,0,0,0,.545-1.393,1.933,1.933,0,0,0-.514-1.424,2.137,2.137,0,0,0-1.578-.519H49.28ZM72.659-4.263a4.528,4.528,0,0,1-1.525,3.252A5.355,5.355,0,0,1,67.509.176a4.816,4.816,0,0,1-3.872-1.657,6.793,6.793,0,0,1-1.411-4.548v-.782a7.671,7.671,0,0,1,.65-3.252,4.874,4.874,0,0,1,1.859-2.158,5.207,5.207,0,0,1,2.808-.751,5.217,5.217,0,0,1,3.568,1.187,4.866,4.866,0,0,1,1.564,3.331H70.04a2.673,2.673,0,0,0-.69-1.8,2.555,2.555,0,0,0-1.806-.558,2.24,2.24,0,0,0-1.973.945A5.3,5.3,0,0,0,64.9-6.935v.967a5.667,5.667,0,0,0,.628,3.032,2.2,2.2,0,0,0,1.982.958,2.6,2.6,0,0,0,1.824-.558,2.521,2.521,0,0,0,.69-1.727ZM84.9-6.108a7.725,7.725,0,0,1-.668,3.313A5.03,5.03,0,0,1,82.323-.6a5.288,5.288,0,0,1-2.852.773,5.324,5.324,0,0,1-2.839-.765A5.08,5.08,0,0,1,74.7-2.773,7.5,7.5,0,0,1,74-6.038v-.633A7.685,7.685,0,0,1,74.685-10,5.072,5.072,0,0,1,76.61-12.2a5.3,5.3,0,0,1,2.843-.769A5.3,5.3,0,0,1,82.3-12.2,5.072,5.072,0,0,1,84.221-10,7.663,7.663,0,0,1,84.9-6.68Zm-2.672-.58a5.385,5.385,0,0,0-.721-3.059,2.349,2.349,0,0,0-2.057-1.046A2.349,2.349,0,0,0,77.405-9.76a5.324,5.324,0,0,0-.729,3.028v.624A5.453,5.453,0,0,0,77.4-3.067a2.342,2.342,0,0,0,2.074,1.081A2.321,2.321,0,0,0,81.51-3.028a5.421,5.421,0,0,0,.721-3.037ZM97.225,0H94.588L89.455-8.42V0H86.818V-12.8h2.637L94.6-4.359V-12.8h2.628Zm12.349-4.263a4.528,4.528,0,0,1-1.525,3.252A5.355,5.355,0,0,1,104.423.176a4.816,4.816,0,0,1-3.872-1.657,6.793,6.793,0,0,1-1.411-4.548v-.782a7.671,7.671,0,0,1,.65-3.252,4.874,4.874,0,0,1,1.859-2.158,5.207,5.207,0,0,1,2.808-.751,5.217,5.217,0,0,1,3.568,1.187,4.866,4.866,0,0,1,1.564,3.331h-2.637a2.673,2.673,0,0,0-.69-1.8,2.555,2.555,0,0,0-1.806-.558,2.24,2.24,0,0,0-1.973.945,5.3,5.3,0,0,0-.672,2.931v.967a5.667,5.667,0,0,0,.628,3.032,2.2,2.2,0,0,0,1.982.958,2.6,2.6,0,0,0,1.824-.558,2.521,2.521,0,0,0,.69-1.727ZM114.108,0h-2.637V-12.8h2.637Zm10.143-5.563h-5.062v3.445h5.941V0h-8.578V-12.8h8.561v2.136h-5.924v3.05h5.063ZM137.083,0h-2.637l-5.133-8.42V0h-2.637V-12.8h2.637l5.142,8.438V-12.8h2.628Zm12.349-4.263a4.528,4.528,0,0,1-1.525,3.252A5.355,5.355,0,0,1,144.281.176a4.816,4.816,0,0,1-3.872-1.657A6.793,6.793,0,0,1,139-6.029v-.782a7.671,7.671,0,0,1,.65-3.252,4.874,4.874,0,0,1,1.859-2.158,5.207,5.207,0,0,1,2.808-.751,5.217,5.217,0,0,1,3.568,1.187,4.866,4.866,0,0,1,1.564,3.331h-2.637a2.673,2.673,0,0,0-.69-1.8,2.555,2.555,0,0,0-1.806-.558,2.24,2.24,0,0,0-1.973.945,5.3,5.3,0,0,0-.672,2.931v.967a5.667,5.667,0,0,0,.628,3.032,2.2,2.2,0,0,0,1.982.958,2.6,2.6,0,0,0,1.824-.558,2.521,2.521,0,0,0,.69-1.727ZM153.967,0H151.33V-12.8h2.637Zm9.826-2.637H159.17L158.291,0h-2.8l4.764-12.8h2.443L167.484,0h-2.8Zm-3.911-2.136h3.2l-1.608-4.79Z" transform="translate(371 600)" fill="#fff"/>
    <path id="Trazado_595296" data-name="Trazado 595296" d="M11.188-4.263A4.528,4.528,0,0,1,9.664-1.011,5.355,5.355,0,0,1,6.038.176,4.816,4.816,0,0,1,2.167-1.481,6.793,6.793,0,0,1,.756-6.029v-.782a7.671,7.671,0,0,1,.65-3.252,4.874,4.874,0,0,1,1.859-2.158,5.207,5.207,0,0,1,2.808-.751,5.217,5.217,0,0,1,3.568,1.187,4.866,4.866,0,0,1,1.564,3.331H8.569a2.673,2.673,0,0,0-.69-1.8,2.555,2.555,0,0,0-1.806-.558A2.24,2.24,0,0,0,4.1-9.866a5.3,5.3,0,0,0-.672,2.931v.967a5.667,5.667,0,0,0,.628,3.032,2.2,2.2,0,0,0,1.982.958,2.6,2.6,0,0,0,1.824-.558,2.521,2.521,0,0,0,.69-1.727ZM23.432-6.108a7.725,7.725,0,0,1-.668,3.313A5.03,5.03,0,0,1,20.852-.6,5.288,5.288,0,0,1,18,.176a5.324,5.324,0,0,1-2.839-.765,5.08,5.08,0,0,1-1.934-2.184,7.5,7.5,0,0,1-.694-3.265v-.633A7.685,7.685,0,0,1,13.214-10,5.072,5.072,0,0,1,15.139-12.2a5.3,5.3,0,0,1,2.843-.769,5.3,5.3,0,0,1,2.843.769A5.072,5.072,0,0,1,22.75-10a7.663,7.663,0,0,1,.681,3.318Zm-2.672-.58a5.385,5.385,0,0,0-.721-3.059,2.349,2.349,0,0,0-2.057-1.046A2.349,2.349,0,0,0,15.935-9.76a5.324,5.324,0,0,0-.729,3.028v.624a5.453,5.453,0,0,0,.721,3.041A2.342,2.342,0,0,0,18-1.986a2.321,2.321,0,0,0,2.039-1.042,5.421,5.421,0,0,0,.721-3.037ZM35.754,0H33.117L27.984-8.42V0H25.348V-12.8h2.637l5.142,8.438V-12.8h2.628ZM48.568-6.108A7.725,7.725,0,0,1,47.9-2.795,5.03,5.03,0,0,1,45.989-.6a5.288,5.288,0,0,1-2.852.773A5.324,5.324,0,0,1,40.3-.589a5.08,5.08,0,0,1-1.934-2.184,7.5,7.5,0,0,1-.694-3.265v-.633A7.685,7.685,0,0,1,38.351-10,5.072,5.072,0,0,1,40.276-12.2a5.3,5.3,0,0,1,2.843-.769,5.3,5.3,0,0,1,2.843.769A5.072,5.072,0,0,1,47.887-10a7.663,7.663,0,0,1,.681,3.318ZM45.9-6.688a5.385,5.385,0,0,0-.721-3.059,2.349,2.349,0,0,0-2.057-1.046A2.349,2.349,0,0,0,41.071-9.76a5.324,5.324,0,0,0-.729,3.028v.624a5.453,5.453,0,0,0,.721,3.041,2.342,2.342,0,0,0,2.074,1.081,2.321,2.321,0,0,0,2.039-1.042A5.421,5.421,0,0,0,45.9-6.064ZM60.53-4.263a4.528,4.528,0,0,1-1.525,3.252A5.355,5.355,0,0,1,55.38.176a4.816,4.816,0,0,1-3.872-1.657A6.793,6.793,0,0,1,50.1-6.029v-.782a7.671,7.671,0,0,1,.65-3.252,4.874,4.874,0,0,1,1.859-2.158,5.207,5.207,0,0,1,2.808-.751,5.217,5.217,0,0,1,3.568,1.187,4.866,4.866,0,0,1,1.564,3.331H57.911a2.673,2.673,0,0,0-.69-1.8,2.555,2.555,0,0,0-1.806-.558,2.24,2.24,0,0,0-1.973.945,5.3,5.3,0,0,0-.672,2.931v.967A5.667,5.667,0,0,0,53.4-2.936a2.2,2.2,0,0,0,1.982.958A2.6,2.6,0,0,0,57.2-2.536a2.521,2.521,0,0,0,.69-1.727ZM65.065,0H62.429V-12.8h2.637Zm5.889-12.8,3.287,9.281,3.27-9.281h3.463V0H78.328V-3.5l.264-6.038L75.138,0H73.327L69.882-9.527,70.146-3.5V0H67.509V-12.8ZM86.08,0H83.443V-12.8H86.08ZM96.223-5.563H91.16v3.445H97.1V0H88.523V-12.8h8.561v2.136H91.16v3.05h5.063ZM109.055,0h-2.637l-5.133-8.42V0H98.648V-12.8h2.637l5.142,8.438V-12.8h2.628Zm11.681-10.661h-3.92V0h-2.637V-10.661h-3.867V-12.8h10.424ZM132.5-6.108a7.725,7.725,0,0,1-.668,3.313,5.03,5.03,0,0,1-1.912,2.2,5.288,5.288,0,0,1-2.852.773,5.324,5.324,0,0,1-2.839-.765A5.08,5.08,0,0,1,122.3-2.773a7.5,7.5,0,0,1-.694-3.265v-.633A7.685,7.685,0,0,1,122.287-10a5.072,5.072,0,0,1,1.925-2.206,5.3,5.3,0,0,1,2.843-.769,5.3,5.3,0,0,1,2.843.769A5.072,5.072,0,0,1,131.823-10,7.663,7.663,0,0,1,132.5-6.68Zm-2.672-.58a5.385,5.385,0,0,0-.721-3.059,2.349,2.349,0,0,0-2.057-1.046,2.349,2.349,0,0,0-2.048,1.033,5.324,5.324,0,0,0-.729,3.028v.624A5.453,5.453,0,0,0,125-3.067a2.342,2.342,0,0,0,2.074,1.081,2.321,2.321,0,0,0,2.039-1.042,5.421,5.421,0,0,0,.721-3.037ZM138.9,0V-12.8h3.938a5.98,5.98,0,0,1,3.019.76,5.3,5.3,0,0,1,2.079,2.162,6.669,6.669,0,0,1,.747,3.186V-6.1a6.688,6.688,0,0,1-.734,3.173,5.256,5.256,0,0,1-2.07,2.153A6.025,6.025,0,0,1,142.866,0Zm2.637-10.661v8.543h1.274a2.863,2.863,0,0,0,2.364-1.011,4.567,4.567,0,0,0,.835-2.892V-6.7a4.64,4.64,0,0,0-.809-2.958,2.854,2.854,0,0,0-2.364-1.006Zm16.761,5.1h-5.062v3.445h5.941V0H150.6V-12.8h8.561v2.136h-5.924v3.05H158.3Zm9.545,3.445h5.6V0h-8.235V-12.8h2.637Zm14.5-.519h-4.623L176.845,0h-2.8L178.8-12.8h2.443L186.038,0h-2.8Zm-3.911-2.136h3.2l-1.608-4.79Zm23.405,3.155a4.577,4.577,0,0,1-2.013,1.323,8.429,8.429,0,0,1-2.883.47,5.711,5.711,0,0,1-2.914-.725,4.836,4.836,0,0,1-1.934-2.1,7.408,7.408,0,0,1-.7-3.243v-.87a7.868,7.868,0,0,1,.646-3.318,4.779,4.779,0,0,1,1.863-2.145,5.367,5.367,0,0,1,2.852-.743,5.345,5.345,0,0,1,3.56,1.085,4.639,4.639,0,0,1,1.521,3.16h-2.566a2.552,2.552,0,0,0-.778-1.608,2.484,2.484,0,0,0-1.657-.51,2.338,2.338,0,0,0-2.048,1.011,5.315,5.315,0,0,0-.712,3.006v.817a5.06,5.06,0,0,0,.765,3.041,2.618,2.618,0,0,0,2.241,1.028,2.925,2.925,0,0,0,2.118-.633V-4.781h-2.4V-6.724h5.036Zm9.835-3.946h-5.062v3.445h5.941V0h-8.578V-12.8h8.561v2.136h-5.924v3.05h5.063ZM224.508,0h-2.637l-5.133-8.42V0H214.1V-12.8h2.637l5.142,8.438V-12.8h2.628Zm11.681-10.661h-3.92V0h-2.637V-10.661h-3.867V-12.8h10.424Zm9.2,5.1h-5.062v3.445h5.941V0h-8.578V-12.8h8.561v2.136h-5.924v3.05h5.063Z" transform="translate(371 675)" fill="#fff"/>
    <path id="Trazado_595297" data-name="Trazado 595297" d="M11.188-4.263A4.528,4.528,0,0,1,9.664-1.011,5.355,5.355,0,0,1,6.038.176,4.816,4.816,0,0,1,2.167-1.481,6.793,6.793,0,0,1,.756-6.029v-.782a7.671,7.671,0,0,1,.65-3.252,4.874,4.874,0,0,1,1.859-2.158,5.207,5.207,0,0,1,2.808-.751,5.217,5.217,0,0,1,3.568,1.187,4.866,4.866,0,0,1,1.564,3.331H8.569a2.673,2.673,0,0,0-.69-1.8,2.555,2.555,0,0,0-1.806-.558A2.24,2.24,0,0,0,4.1-9.866a5.3,5.3,0,0,0-.672,2.931v.967a5.667,5.667,0,0,0,.628,3.032,2.2,2.2,0,0,0,1.982.958,2.6,2.6,0,0,0,1.824-.558,2.521,2.521,0,0,0,.69-1.727Zm8.956,1.626H15.521L14.643,0h-2.8L16.6-12.8h2.443L23.836,0h-2.8ZM16.233-4.772h3.2l-1.608-4.79ZM28.477-12.8l3.287,9.281,3.27-9.281H38.5V0H35.851V-3.5l.264-6.038L32.66,0H30.85L27.4-9.527,27.668-3.5V0H25.031V-12.8ZM40.8,0V-12.8h4.482a5.886,5.886,0,0,1,3.533.892,3.05,3.05,0,0,1,1.2,2.615,2.891,2.891,0,0,1-.483,1.657,2.792,2.792,0,0,1-1.345,1.05,2.7,2.7,0,0,1,1.551.993,2.936,2.936,0,0,1,.567,1.828A3.377,3.377,0,0,1,49.131-.967,5.3,5.3,0,0,1,45.773,0Zm2.637-5.572v3.454h2.259a2.18,2.18,0,0,0,1.455-.444,1.522,1.522,0,0,0,.523-1.226,1.607,1.607,0,0,0-1.819-1.784Zm0-1.863h1.951q2-.035,2-1.591a1.47,1.47,0,0,0-.505-1.252,2.658,2.658,0,0,0-1.6-.382H43.436ZM55.09,0H52.453V-12.8H55.09Zm9.826-2.637H60.293L59.414,0h-2.8l4.764-12.8h2.443L68.607,0H65.8ZM61-4.772h3.2L62.6-9.562Zm13.535.088h-2.1V0H69.8V-12.8h4.755a5.375,5.375,0,0,1,3.5,1.011,3.488,3.488,0,0,1,1.23,2.856,3.937,3.937,0,0,1-.567,2.184A3.866,3.866,0,0,1,77-5.353L79.77-.123V0h-2.83Zm-2.1-2.136h2.127A2.178,2.178,0,0,0,76.1-7.326a1.806,1.806,0,0,0,.545-1.393,1.933,1.933,0,0,0-.514-1.424,2.137,2.137,0,0,0-1.578-.519H72.439ZM93-2.637H88.374L87.5,0h-2.8l4.764-12.8H91.9L96.688,0h-2.8ZM89.086-4.772h3.2l-1.608-4.79Zm18.659.51a4.528,4.528,0,0,1-1.525,3.252A5.355,5.355,0,0,1,102.595.176a4.816,4.816,0,0,1-3.872-1.657,6.793,6.793,0,0,1-1.411-4.548v-.782a7.671,7.671,0,0,1,.65-3.252,4.874,4.874,0,0,1,1.859-2.158,5.207,5.207,0,0,1,2.808-.751,5.217,5.217,0,0,1,3.568,1.187,4.866,4.866,0,0,1,1.564,3.331h-2.637a2.673,2.673,0,0,0-.69-1.8,2.555,2.555,0,0,0-1.806-.558,2.24,2.24,0,0,0-1.973.945,5.3,5.3,0,0,0-.672,2.931v.967a5.667,5.667,0,0,0,.628,3.032,2.2,2.2,0,0,0,1.982.958,2.6,2.6,0,0,0,1.824-.558,2.521,2.521,0,0,0,.69-1.727Zm11.109-6.4h-3.92V0H112.3V-10.661h-3.867V-12.8h10.424ZM123.161,0h-2.637V-12.8h2.637Zm11.821-10.661h-3.92V0h-2.637V-10.661h-3.867V-12.8h10.424ZM146.171-12.8v8.429a4.315,4.315,0,0,1-1.314,3.322,5.066,5.066,0,0,1-3.59,1.222,5.123,5.123,0,0,1-3.56-1.187,4.242,4.242,0,0,1-1.345-3.261V-12.8H139v8.446a2.438,2.438,0,0,0,.6,1.833,2.311,2.311,0,0,0,1.666.576q2.224,0,2.259-2.338V-12.8ZM148.333,0V-12.8h3.938a5.98,5.98,0,0,1,3.019.76,5.3,5.3,0,0,1,2.079,2.162,6.669,6.669,0,0,1,.747,3.186V-6.1a6.688,6.688,0,0,1-.734,3.173,5.256,5.256,0,0,1-2.07,2.153A6.025,6.025,0,0,1,152.3,0Zm2.637-10.661v8.543h1.274a2.863,2.863,0,0,0,2.364-1.011,4.567,4.567,0,0,0,.835-2.892V-6.7a4.64,4.64,0,0,0-.809-2.958,2.854,2.854,0,0,0-2.364-1.006Zm16.761,5.1h-5.062v3.445h5.941V0h-8.578V-12.8h8.561v2.136h-5.924v3.05h5.063Zm9.062,2.206a1.353,1.353,0,0,0-.527-1.147,6.917,6.917,0,0,0-1.9-.844,13.458,13.458,0,0,1-2.171-.875,3.547,3.547,0,0,1-2.18-3.173,3.09,3.09,0,0,1,.584-1.85,3.812,3.812,0,0,1,1.679-1.27,6.318,6.318,0,0,1,2.457-.457,5.751,5.751,0,0,1,2.443.5,3.891,3.891,0,0,1,1.666,1.4,3.668,3.668,0,0,1,.593,2.057H176.8a1.726,1.726,0,0,0-.554-1.367,2.276,2.276,0,0,0-1.556-.488,2.432,2.432,0,0,0-1.5.409,1.289,1.289,0,0,0-.536,1.077,1.235,1.235,0,0,0,.628,1.046,7.1,7.1,0,0,0,1.85.791,7.994,7.994,0,0,1,3.278,1.679,3.343,3.343,0,0,1,1.028,2.5,3.08,3.08,0,0,1-1.257,2.606A5.5,5.5,0,0,1,174.8.176a6.534,6.534,0,0,1-2.689-.541,4.256,4.256,0,0,1-1.85-1.481,3.793,3.793,0,0,1-.637-2.18h2.646q0,2.118,2.531,2.118a2.462,2.462,0,0,0,1.468-.382A1.244,1.244,0,0,0,176.792-3.357Z" transform="translate(371 750)" fill="#fff"/>
    <path id="Trazado_595300" data-name="Trazado 595300" d="M11.549,0H8.912L3.779-8.42V0H1.143V-12.8H3.779L8.921-4.359V-12.8h2.628Zm10-5.563H16.488v3.445H22.43V0H13.852V-12.8h8.561v2.136H16.488v3.05h5.063Zm12.472,1.3A4.528,4.528,0,0,1,32.5-1.011,5.355,5.355,0,0,1,28.872.176,4.816,4.816,0,0,1,25-1.481,6.793,6.793,0,0,1,23.59-6.029v-.782a7.671,7.671,0,0,1,.65-3.252A4.874,4.874,0,0,1,26.1-12.221a5.207,5.207,0,0,1,2.808-.751,5.217,5.217,0,0,1,3.568,1.187A4.866,4.866,0,0,1,34.04-8.455H31.4a2.673,2.673,0,0,0-.69-1.8,2.555,2.555,0,0,0-1.806-.558,2.24,2.24,0,0,0-1.973.945,5.3,5.3,0,0,0-.672,2.931v.967a5.667,5.667,0,0,0,.628,3.032,2.2,2.2,0,0,0,1.982.958A2.6,2.6,0,0,0,30.7-2.536a2.521,2.521,0,0,0,.69-1.727Zm9.431-1.3H38.391v3.445h5.941V0H35.754V-12.8h8.561v2.136H38.391v3.05h5.063Zm9.062,2.206A1.353,1.353,0,0,0,51.987-4.5a6.917,6.917,0,0,0-1.9-.844,13.458,13.458,0,0,1-2.171-.875A3.547,3.547,0,0,1,45.738-9.4a3.09,3.09,0,0,1,.584-1.85A3.812,3.812,0,0,1,48-12.516a6.318,6.318,0,0,1,2.457-.457,5.751,5.751,0,0,1,2.443.5,3.891,3.891,0,0,1,1.666,1.4,3.668,3.668,0,0,1,.593,2.057H52.523a1.726,1.726,0,0,0-.554-1.367,2.276,2.276,0,0,0-1.556-.488,2.432,2.432,0,0,0-1.5.409,1.289,1.289,0,0,0-.536,1.077A1.235,1.235,0,0,0,49-8.341a7.1,7.1,0,0,0,1.85.791,7.994,7.994,0,0,1,3.278,1.679,3.343,3.343,0,0,1,1.028,2.5A3.08,3.08,0,0,1,53.9-.769,5.5,5.5,0,0,1,50.52.176,6.534,6.534,0,0,1,47.83-.365a4.256,4.256,0,0,1-1.85-1.481,3.793,3.793,0,0,1-.637-2.18h2.646q0,2.118,2.531,2.118a2.462,2.462,0,0,0,1.468-.382A1.244,1.244,0,0,0,52.515-3.357ZM59.748,0H57.111V-12.8h2.637Zm2.443,0V-12.8h3.938a5.98,5.98,0,0,1,3.019.76,5.3,5.3,0,0,1,2.079,2.162,6.669,6.669,0,0,1,.747,3.186V-6.1a6.688,6.688,0,0,1-.734,3.173A5.256,5.256,0,0,1,69.17-.773,6.025,6.025,0,0,1,66.155,0Zm2.637-10.661v8.543H66.1a2.863,2.863,0,0,0,2.364-1.011A4.567,4.567,0,0,0,69.3-6.021V-6.7a4.64,4.64,0,0,0-.809-2.958,2.854,2.854,0,0,0-2.364-1.006Zm16.1,8.024H76.307L75.428,0h-2.8l4.764-12.8h2.443L84.621,0h-2.8ZM77.019-4.772h3.2l-1.608-4.79ZM85.816,0V-12.8h3.938a5.98,5.98,0,0,1,3.019.76,5.3,5.3,0,0,1,2.079,2.162A6.669,6.669,0,0,1,95.6-6.688V-6.1a6.688,6.688,0,0,1-.734,3.173,5.256,5.256,0,0,1-2.07,2.153A6.025,6.025,0,0,1,89.78,0Zm2.637-10.661v8.543h1.274a2.863,2.863,0,0,0,2.364-1.011,4.567,4.567,0,0,0,.835-2.892V-6.7a4.64,4.64,0,0,0-.809-2.958,2.854,2.854,0,0,0-2.364-1.006Zm23.59,6.4a4.528,4.528,0,0,1-1.525,3.252A5.355,5.355,0,0,1,106.893.176a4.816,4.816,0,0,1-3.872-1.657,6.793,6.793,0,0,1-1.411-4.548v-.782a7.671,7.671,0,0,1,.65-3.252,4.874,4.874,0,0,1,1.859-2.158,5.207,5.207,0,0,1,2.808-.751,5.217,5.217,0,0,1,3.568,1.187,4.866,4.866,0,0,1,1.564,3.331h-2.637a2.673,2.673,0,0,0-.69-1.8,2.555,2.555,0,0,0-1.806-.558,2.24,2.24,0,0,0-1.973.945,5.3,5.3,0,0,0-.672,2.931v.967a5.667,5.667,0,0,0,.628,3.032,2.2,2.2,0,0,0,1.982.958,2.6,2.6,0,0,0,1.824-.558,2.521,2.521,0,0,0,.69-1.727Zm12.243-1.846a7.725,7.725,0,0,1-.668,3.313,5.03,5.03,0,0,1-1.912,2.2,5.288,5.288,0,0,1-2.852.773,5.324,5.324,0,0,1-2.839-.765,5.08,5.08,0,0,1-1.934-2.184,7.5,7.5,0,0,1-.694-3.265v-.633A7.685,7.685,0,0,1,114.069-10a5.072,5.072,0,0,1,1.925-2.206,5.3,5.3,0,0,1,2.843-.769,5.3,5.3,0,0,1,2.843.769A5.072,5.072,0,0,1,123.6-10a7.663,7.663,0,0,1,.681,3.318Zm-2.672-.58a5.385,5.385,0,0,0-.721-3.059,2.349,2.349,0,0,0-2.057-1.046,2.349,2.349,0,0,0-2.048,1.033,5.324,5.324,0,0,0-.729,3.028v.624a5.453,5.453,0,0,0,.721,3.041,2.342,2.342,0,0,0,2.074,1.081,2.321,2.321,0,0,0,2.039-1.042,5.421,5.421,0,0,0,.721-3.037Zm7.225,4.57h5.6V0H126.2V-12.8h2.637Zm14.81-3.445h-5.062v3.445h5.941V0h-8.578V-12.8h8.561v2.136h-5.924v3.05h5.063Zm12.472,1.3A4.528,4.528,0,0,1,154.6-1.011,5.355,5.355,0,0,1,150.97.176,4.816,4.816,0,0,1,147.1-1.481a6.793,6.793,0,0,1-1.411-4.548v-.782a7.671,7.671,0,0,1,.65-3.252,4.874,4.874,0,0,1,1.859-2.158A5.207,5.207,0,0,1,151-12.973a5.217,5.217,0,0,1,3.568,1.187,4.866,4.866,0,0,1,1.564,3.331H153.5a2.673,2.673,0,0,0-.69-1.8A2.555,2.555,0,0,0,151-10.811a2.24,2.24,0,0,0-1.973.945,5.3,5.3,0,0,0-.672,2.931v.967a5.667,5.667,0,0,0,.628,3.032,2.2,2.2,0,0,0,1.982.958,2.6,2.6,0,0,0,1.824-.558,2.521,2.521,0,0,0,.69-1.727Zm11.109-6.4h-3.92V0h-2.637V-10.661h-3.867V-12.8h10.424ZM171.536,0H168.9V-12.8h2.637Zm7.172-3.173,2.9-9.624h2.936L180.088,0h-2.751L172.9-12.8h2.927Zm13.605.536H187.69L186.812,0h-2.8l4.764-12.8h2.443L196,0h-2.8ZM188.4-4.772h3.2l-1.608-4.79Z" transform="translate(992 750)" fill="#fff"/>
    <path id="Trazado_595298" data-name="Trazado 595298" d="M10.775-10.661H6.855V0H4.219V-10.661H.352V-12.8H10.775Zm9.2,5.1H14.915v3.445h5.941V0H12.278V-12.8h8.561v2.136H14.915v3.05h5.063ZM17.227-16.251H20l-2.435,2.725H15.5ZM32.449-4.263a4.528,4.528,0,0,1-1.525,3.252A5.355,5.355,0,0,1,27.3.176a4.816,4.816,0,0,1-3.872-1.657,6.793,6.793,0,0,1-1.411-4.548v-.782a7.671,7.671,0,0,1,.65-3.252,4.874,4.874,0,0,1,1.859-2.158,5.207,5.207,0,0,1,2.808-.751A5.217,5.217,0,0,1,30.9-11.786a4.866,4.866,0,0,1,1.564,3.331H29.83a2.673,2.673,0,0,0-.69-1.8,2.555,2.555,0,0,0-1.806-.558,2.24,2.24,0,0,0-1.973.945,5.3,5.3,0,0,0-.672,2.931v.967a5.667,5.667,0,0,0,.628,3.032,2.2,2.2,0,0,0,1.982.958,2.6,2.6,0,0,0,1.824-.558,2.521,2.521,0,0,0,.69-1.727ZM44.587,0H41.95L36.817-8.42V0H34.181V-12.8h2.637l5.142,8.438V-12.8h2.628Zm5.106,0H47.057V-12.8h2.637ZM62.183-4.263a4.528,4.528,0,0,1-1.525,3.252A5.355,5.355,0,0,1,57.032.176a4.816,4.816,0,0,1-3.872-1.657A6.793,6.793,0,0,1,51.75-6.029v-.782a7.671,7.671,0,0,1,.65-3.252,4.874,4.874,0,0,1,1.859-2.158,5.207,5.207,0,0,1,2.808-.751,5.217,5.217,0,0,1,3.568,1.187A4.866,4.866,0,0,1,62.2-8.455H59.563a2.673,2.673,0,0,0-.69-1.8,2.555,2.555,0,0,0-1.806-.558,2.24,2.24,0,0,0-1.973.945,5.3,5.3,0,0,0-.672,2.931v.967a5.667,5.667,0,0,0,.628,3.032,2.2,2.2,0,0,0,1.982.958,2.6,2.6,0,0,0,1.824-.558,2.521,2.521,0,0,0,.69-1.727Zm8.956,1.626H66.516L65.637,0h-2.8L67.6-12.8H70.04L74.83,0h-2.8ZM67.228-4.772h3.2l-1.608-4.79ZM82.661-3.357A1.353,1.353,0,0,0,82.134-4.5a6.917,6.917,0,0,0-1.9-.844,13.458,13.458,0,0,1-2.171-.875A3.547,3.547,0,0,1,75.885-9.4a3.09,3.09,0,0,1,.584-1.85,3.812,3.812,0,0,1,1.679-1.27,6.318,6.318,0,0,1,2.457-.457,5.751,5.751,0,0,1,2.443.5,3.891,3.891,0,0,1,1.666,1.4,3.668,3.668,0,0,1,.593,2.057H82.67a1.726,1.726,0,0,0-.554-1.367,2.276,2.276,0,0,0-1.556-.488,2.432,2.432,0,0,0-1.5.409,1.289,1.289,0,0,0-.536,1.077,1.235,1.235,0,0,0,.628,1.046A7.1,7.1,0,0,0,81-7.55a7.994,7.994,0,0,1,3.278,1.679,3.343,3.343,0,0,1,1.028,2.5A3.08,3.08,0,0,1,84.05-.769a5.5,5.5,0,0,1-3.384.945,6.534,6.534,0,0,1-2.689-.541,4.256,4.256,0,0,1-1.85-1.481,3.793,3.793,0,0,1-.637-2.18h2.646q0,2.118,2.531,2.118a2.462,2.462,0,0,0,1.468-.382A1.244,1.244,0,0,0,82.661-3.357ZM95.985-7.031,98.648-12.8h2.883l-4.2,8.156V0H94.649V-4.641l-4.2-8.156H93.34Zm18.9,1.468h-5.062v3.445h5.941V0h-8.578V-12.8h8.561v2.136h-5.924v3.05h5.063Zm5.063,3.445h5.6V0h-8.235V-12.8h2.637Zm14.81-3.445h-5.062v3.445h5.941V0h-8.578V-12.8h8.561v2.136h-5.924v3.05h5.063Zm5.871-7.233,3.287,9.281,3.27-9.281h3.463V0H148V-3.5l.264-6.038L144.809,0H143l-3.445-9.527.264,6.029V0H137.18V-12.8Zm20.021,7.233h-5.062v3.445h5.941V0h-8.578V-12.8h8.561v2.136h-5.924v3.05h5.063ZM173.479,0h-2.637l-5.133-8.42V0h-2.637V-12.8h2.637l5.142,8.438V-12.8h2.628Zm11.681-10.661h-3.92V0H178.6V-10.661h-3.867V-12.8h10.424Zm11.769,4.553a7.725,7.725,0,0,1-.668,3.313,5.03,5.03,0,0,1-1.912,2.2A5.288,5.288,0,0,1,191.5.176a5.324,5.324,0,0,1-2.839-.765,5.08,5.08,0,0,1-1.934-2.184,7.5,7.5,0,0,1-.694-3.265v-.633A7.685,7.685,0,0,1,186.71-10a5.072,5.072,0,0,1,1.925-2.206,5.3,5.3,0,0,1,2.843-.769,5.3,5.3,0,0,1,2.843.769A5.072,5.072,0,0,1,196.247-10a7.663,7.663,0,0,1,.681,3.318Zm-2.672-.58a5.385,5.385,0,0,0-.721-3.059,2.349,2.349,0,0,0-2.057-1.046,2.349,2.349,0,0,0-2.048,1.033,5.324,5.324,0,0,0-.729,3.028v.624a5.453,5.453,0,0,0,.721,3.041A2.342,2.342,0,0,0,191.5-1.986a2.321,2.321,0,0,0,2.039-1.042,5.421,5.421,0,0,0,.721-3.037Zm11.224,3.331a1.353,1.353,0,0,0-.527-1.147,6.917,6.917,0,0,0-1.9-.844,13.458,13.458,0,0,1-2.171-.875A3.547,3.547,0,0,1,198.7-9.4a3.09,3.09,0,0,1,.584-1.85,3.812,3.812,0,0,1,1.679-1.27,6.318,6.318,0,0,1,2.457-.457,5.751,5.751,0,0,1,2.443.5,3.891,3.891,0,0,1,1.666,1.4,3.668,3.668,0,0,1,.593,2.057h-2.637a1.726,1.726,0,0,0-.554-1.367,2.276,2.276,0,0,0-1.556-.488,2.432,2.432,0,0,0-1.5.409,1.289,1.289,0,0,0-.536,1.077,1.235,1.235,0,0,0,.628,1.046,7.1,7.1,0,0,0,1.85.791A7.994,7.994,0,0,1,207.1-5.871a3.343,3.343,0,0,1,1.028,2.5,3.08,3.08,0,0,1-1.257,2.606,5.5,5.5,0,0,1-3.384.945,6.534,6.534,0,0,1-2.689-.541,4.256,4.256,0,0,1-1.85-1.481,3.793,3.793,0,0,1-.637-2.18h2.646q0,2.118,2.531,2.118a2.462,2.462,0,0,0,1.468-.382A1.244,1.244,0,0,0,205.479-3.357Z" transform="translate(371 825)" fill="#fff"/>
    <path id="Trazado_595301" data-name="Trazado 595301" d="M8.842-5.563H3.779v3.445H9.721V0H1.143V-12.8H9.7v2.136H3.779v3.05H8.842ZM13.9-2.118h5.6V0H11.268V-12.8H13.9Zm16.33-2.566h-2.1V0H25.5V-12.8h4.755a5.375,5.375,0,0,1,3.5,1.011A3.488,3.488,0,0,1,34.98-8.93a3.937,3.937,0,0,1-.567,2.184A3.866,3.866,0,0,1,32.7-5.353L35.464-.123V0h-2.83Zm-2.1-2.136h2.127A2.178,2.178,0,0,0,31.8-7.326a1.806,1.806,0,0,0,.545-1.393,1.933,1.933,0,0,0-.514-1.424,2.137,2.137,0,0,0-1.578-.519H28.134Zm16.55,1.257H39.621v3.445h5.941V0H36.984V-12.8h8.561v2.136H39.621v3.05h5.063Zm12.472,1.3A4.528,4.528,0,0,1,55.63-1.011,5.355,5.355,0,0,1,52,.176a4.816,4.816,0,0,1-3.872-1.657,6.793,6.793,0,0,1-1.411-4.548v-.782a7.671,7.671,0,0,1,.65-3.252,4.874,4.874,0,0,1,1.859-2.158,5.207,5.207,0,0,1,2.808-.751,5.217,5.217,0,0,1,3.568,1.187,4.866,4.866,0,0,1,1.564,3.331H54.536a2.673,2.673,0,0,0-.69-1.8,2.555,2.555,0,0,0-1.806-.558,2.24,2.24,0,0,0-1.973.945,5.3,5.3,0,0,0-.672,2.931v.967a5.667,5.667,0,0,0,.628,3.032A2.2,2.2,0,0,0,52-1.978a2.6,2.6,0,0,0,1.824-.558,2.521,2.521,0,0,0,.69-1.727ZM61.69,0H59.054V-12.8H61.69ZM74.18-4.263a4.528,4.528,0,0,1-1.525,3.252A5.355,5.355,0,0,1,69.029.176a4.816,4.816,0,0,1-3.872-1.657,6.793,6.793,0,0,1-1.411-4.548v-.782a7.671,7.671,0,0,1,.65-3.252,4.874,4.874,0,0,1,1.859-2.158,5.207,5.207,0,0,1,2.808-.751,5.217,5.217,0,0,1,3.568,1.187A4.866,4.866,0,0,1,74.2-8.455H71.561a2.673,2.673,0,0,0-.69-1.8,2.555,2.555,0,0,0-1.806-.558,2.24,2.24,0,0,0-1.973.945,5.3,5.3,0,0,0-.672,2.931v.967a5.667,5.667,0,0,0,.628,3.032,2.2,2.2,0,0,0,1.982.958,2.6,2.6,0,0,0,1.824-.558,2.521,2.521,0,0,0,.69-1.727Zm4.368,2.145h5.6V0H75.911V-12.8h2.637Zm14.5-.519H88.427L87.548,0h-2.8l4.764-12.8h2.443L96.741,0h-2.8ZM89.139-4.772h3.2l-1.608-4.79ZM103.1-12.8h2.637v8.859a4.237,4.237,0,0,1-.541,2.158,3.668,3.668,0,0,1-1.525,1.446,4.764,4.764,0,0,1-2.224.51A4.528,4.528,0,0,1,98.279-.857a3.752,3.752,0,0,1-1.134-2.922H99.8a2.057,2.057,0,0,0,.4,1.389,1.582,1.582,0,0,0,1.248.448,1.511,1.511,0,0,0,1.2-.519,2.191,2.191,0,0,0,.448-1.477ZM115.69-5.563h-5.062v3.445h5.941V0h-8.578V-12.8h8.561v2.136h-5.924v3.05h5.063Z" transform="translate(992 825)" fill="#fff"/>
    <path id="Trazado_595299" data-name="Trazado 595299" d="M11.188-4.263A4.528,4.528,0,0,1,9.664-1.011,5.355,5.355,0,0,1,6.038.176,4.816,4.816,0,0,1,2.167-1.481,6.793,6.793,0,0,1,.756-6.029v-.782a7.671,7.671,0,0,1,.65-3.252,4.874,4.874,0,0,1,1.859-2.158,5.207,5.207,0,0,1,2.808-.751,5.217,5.217,0,0,1,3.568,1.187,4.866,4.866,0,0,1,1.564,3.331H8.569a2.673,2.673,0,0,0-.69-1.8,2.555,2.555,0,0,0-1.806-.558A2.24,2.24,0,0,0,4.1-9.866a5.3,5.3,0,0,0-.672,2.931v.967a5.667,5.667,0,0,0,.628,3.032,2.2,2.2,0,0,0,1.982.958,2.6,2.6,0,0,0,1.824-.558,2.521,2.521,0,0,0,.69-1.727ZM23.432-6.108a7.725,7.725,0,0,1-.668,3.313A5.03,5.03,0,0,1,20.852-.6,5.288,5.288,0,0,1,18,.176a5.324,5.324,0,0,1-2.839-.765,5.08,5.08,0,0,1-1.934-2.184,7.5,7.5,0,0,1-.694-3.265v-.633A7.685,7.685,0,0,1,13.214-10,5.072,5.072,0,0,1,15.139-12.2a5.3,5.3,0,0,1,2.843-.769,5.3,5.3,0,0,1,2.843.769A5.072,5.072,0,0,1,22.75-10a7.663,7.663,0,0,1,.681,3.318Zm-2.672-.58a5.385,5.385,0,0,0-.721-3.059,2.349,2.349,0,0,0-2.057-1.046A2.349,2.349,0,0,0,15.935-9.76a5.324,5.324,0,0,0-.729,3.028v.624a5.453,5.453,0,0,0,.721,3.041A2.342,2.342,0,0,0,18-1.986a2.321,2.321,0,0,0,2.039-1.042,5.421,5.421,0,0,0,.721-3.037ZM28.793-12.8,32.08-3.516,35.35-12.8h3.463V0H36.167V-3.5l.264-6.038L32.977,0H31.166L27.721-9.527,27.984-3.5V0H25.348V-12.8ZM43.752-4.509V0H41.115V-12.8h4.992a5.776,5.776,0,0,1,2.536.527,3.886,3.886,0,0,1,1.683,1.5,4.178,4.178,0,0,1,.589,2.21,3.674,3.674,0,0,1-1.288,2.966,5.363,5.363,0,0,1-3.564,1.085Zm0-2.136h2.355a2.316,2.316,0,0,0,1.6-.492,1.79,1.79,0,0,0,.549-1.406,2.111,2.111,0,0,0-.554-1.521,2.068,2.068,0,0,0-1.529-.6H43.752Zm13.711,1.96h-2.1V0H52.726V-12.8H57.48a5.375,5.375,0,0,1,3.5,1.011,3.488,3.488,0,0,1,1.23,2.856,3.937,3.937,0,0,1-.567,2.184,3.866,3.866,0,0,1-1.718,1.393L62.692-.123V0h-2.83Zm-2.1-2.136h2.127a2.178,2.178,0,0,0,1.538-.505,1.806,1.806,0,0,0,.545-1.393,1.933,1.933,0,0,0-.514-1.424,2.137,2.137,0,0,0-1.578-.519H55.362Zm16.55,1.257H66.85v3.445h5.941V0H64.213V-12.8h8.561v2.136H66.85v3.05h5.063ZM84.744,0H82.107L76.975-8.42V0H74.338V-12.8h2.637l5.142,8.438V-12.8h2.628Zm2.3,0V-12.8h3.938a5.98,5.98,0,0,1,3.019.76,5.3,5.3,0,0,1,2.079,2.162,6.669,6.669,0,0,1,.747,3.186V-6.1A6.688,6.688,0,0,1,96.1-2.927a5.256,5.256,0,0,1-2.07,2.153A6.025,6.025,0,0,1,91.011,0Zm2.637-10.661v8.543h1.274a2.863,2.863,0,0,0,2.364-1.011,4.567,4.567,0,0,0,.835-2.892V-6.7a4.64,4.64,0,0,0-.809-2.958,2.854,2.854,0,0,0-2.364-1.006Zm16.761,5.1h-5.062v3.445h5.941V0H98.745V-12.8h8.561v2.136h-5.924v3.05h5.063Zm7.163.879h-2.1V0H108.87V-12.8h4.755a5.375,5.375,0,0,1,3.5,1.011,3.488,3.488,0,0,1,1.23,2.856,3.937,3.937,0,0,1-.567,2.184,3.866,3.866,0,0,1-1.718,1.393l2.769,5.229V0h-2.83Zm-2.1-2.136h2.127a2.178,2.178,0,0,0,1.538-.505,1.806,1.806,0,0,0,.545-1.393,1.933,1.933,0,0,0-.514-1.424,2.137,2.137,0,0,0-1.578-.519h-2.118Zm15.97,4.7h5.6V0H124.84V-12.8h2.637Zm14.5-.519h-4.623L136.477,0h-2.8l4.764-12.8h2.443L145.67,0h-2.8Zm-3.911-2.136h3.2l-1.608-4.79ZM153.5-3.357a1.353,1.353,0,0,0-.527-1.147,6.917,6.917,0,0,0-1.9-.844,13.458,13.458,0,0,1-2.171-.875,3.547,3.547,0,0,1-2.18-3.173,3.09,3.09,0,0,1,.584-1.85,3.812,3.812,0,0,1,1.679-1.27,6.318,6.318,0,0,1,2.457-.457,5.751,5.751,0,0,1,2.443.5,3.891,3.891,0,0,1,1.666,1.4,3.668,3.668,0,0,1,.593,2.057H153.51a1.726,1.726,0,0,0-.554-1.367,2.276,2.276,0,0,0-1.556-.488,2.432,2.432,0,0,0-1.5.409,1.289,1.289,0,0,0-.536,1.077,1.235,1.235,0,0,0,.628,1.046,7.1,7.1,0,0,0,1.85.791,7.994,7.994,0,0,1,3.278,1.679,3.343,3.343,0,0,1,1.028,2.5A3.08,3.08,0,0,1,154.89-.769a5.5,5.5,0,0,1-3.384.945,6.534,6.534,0,0,1-2.689-.541,4.256,4.256,0,0,1-1.85-1.481,3.793,3.793,0,0,1-.637-2.18h2.646q0,2.118,2.531,2.118a2.462,2.462,0,0,0,1.468-.382A1.244,1.244,0,0,0,153.5-3.357ZM1.143,20V7.2H5.08a5.98,5.98,0,0,1,3.019.76,5.3,5.3,0,0,1,2.079,2.162,6.669,6.669,0,0,1,.747,3.186V13.9a6.688,6.688,0,0,1-.734,3.173,5.256,5.256,0,0,1-2.07,2.153A6.025,6.025,0,0,1,5.106,20ZM3.779,9.339v8.543H5.054a2.863,2.863,0,0,0,2.364-1.011,4.567,4.567,0,0,0,.835-2.892V13.3a4.64,4.64,0,0,0-.809-2.958A2.854,2.854,0,0,0,5.08,9.339ZM15.645,20H13.008V7.2h2.637Zm12.85,0H25.857l-5.133-8.42V20H18.088V7.2h2.637l5.142,8.438V7.2h2.628Zm9.686-2.637H33.557L32.678,20h-2.8L34.638,7.2h2.443L41.871,20h-2.8Zm-3.911-2.136h3.2l-1.608-4.79ZM36.4,3.775h2.769L36.738,6.5H34.673ZM46.512,7.2,49.8,16.484,53.068,7.2h3.463V20H53.886V16.5l.264-6.038L50.7,20H48.885l-3.445-9.527L45.7,16.5V20H43.066V7.2ZM61.638,20H59V7.2h2.637Zm12.489-4.263A4.528,4.528,0,0,1,72.6,18.989a5.355,5.355,0,0,1-3.625,1.187A4.816,4.816,0,0,1,65.1,18.519a6.793,6.793,0,0,1-1.411-4.548v-.782a7.671,7.671,0,0,1,.65-3.252A4.874,4.874,0,0,1,66.2,7.779a5.809,5.809,0,0,1,6.376.435,4.866,4.866,0,0,1,1.564,3.331H71.508a2.673,2.673,0,0,0-.69-1.8,2.555,2.555,0,0,0-1.806-.558,2.24,2.24,0,0,0-1.973.945,5.3,5.3,0,0,0-.672,2.931v.967a5.667,5.667,0,0,0,.628,3.032,2.2,2.2,0,0,0,1.982.958,2.6,2.6,0,0,0,1.824-.558,2.521,2.521,0,0,0,.69-1.727Zm8.956,1.626H78.46L77.581,20h-2.8L79.541,7.2h2.443L86.774,20h-2.8Zm-3.911-2.136h3.2l-1.608-4.79Zm15.434,1.415a1.353,1.353,0,0,0-.527-1.147,6.917,6.917,0,0,0-1.9-.844,13.458,13.458,0,0,1-2.171-.875,3.547,3.547,0,0,1-2.18-3.173,3.09,3.09,0,0,1,.584-1.85,3.812,3.812,0,0,1,1.679-1.27,6.318,6.318,0,0,1,2.457-.457,5.751,5.751,0,0,1,2.443.5,3.891,3.891,0,0,1,1.666,1.4,3.668,3.668,0,0,1,.593,2.057H94.614a1.726,1.726,0,0,0-.554-1.367A2.276,2.276,0,0,0,92.5,9.128a2.432,2.432,0,0,0-1.5.409,1.289,1.289,0,0,0-.536,1.077,1.235,1.235,0,0,0,.628,1.046,7.1,7.1,0,0,0,1.85.791,7.994,7.994,0,0,1,3.278,1.679,3.343,3.343,0,0,1,1.028,2.5,3.08,3.08,0,0,1-1.257,2.606,5.5,5.5,0,0,1-3.384.945,6.534,6.534,0,0,1-2.689-.541,4.256,4.256,0,0,1-1.85-1.481,3.793,3.793,0,0,1-.637-2.18h2.646q0,2.118,2.531,2.118a2.462,2.462,0,0,0,1.468-.382A1.244,1.244,0,0,0,94.605,16.643Z" transform="translate(371 892)" fill="#12263f"/>
    <path id="Trazado_595302" data-name="Trazado 595302" d="M7.778-3.357A1.353,1.353,0,0,0,7.251-4.5a6.917,6.917,0,0,0-1.9-.844,13.458,13.458,0,0,1-2.171-.875A3.547,3.547,0,0,1,1-9.4a3.09,3.09,0,0,1,.584-1.85,3.812,3.812,0,0,1,1.679-1.27,6.318,6.318,0,0,1,2.457-.457,5.751,5.751,0,0,1,2.443.5,3.891,3.891,0,0,1,1.666,1.4,3.668,3.668,0,0,1,.593,2.057H7.787a1.726,1.726,0,0,0-.554-1.367,2.276,2.276,0,0,0-1.556-.488,2.432,2.432,0,0,0-1.5.409,1.289,1.289,0,0,0-.536,1.077,1.235,1.235,0,0,0,.628,1.046,7.1,7.1,0,0,0,1.85.791A7.994,7.994,0,0,1,9.4-5.871a3.343,3.343,0,0,1,1.028,2.5A3.08,3.08,0,0,1,9.167-.769,5.5,5.5,0,0,1,5.783.176,6.534,6.534,0,0,1,3.094-.365a4.256,4.256,0,0,1-1.85-1.481,3.793,3.793,0,0,1-.637-2.18H3.252q0,2.118,2.531,2.118A2.462,2.462,0,0,0,7.251-2.29,1.244,1.244,0,0,0,7.778-3.357ZM19.907-5.563H14.845v3.445h5.941V0H12.208V-12.8h8.561v2.136H14.845v3.05h5.063ZM24.97-4.509V0H22.333V-12.8h4.992a5.776,5.776,0,0,1,2.536.527,3.886,3.886,0,0,1,1.683,1.5,4.178,4.178,0,0,1,.589,2.21,3.674,3.674,0,0,1-1.288,2.966,5.363,5.363,0,0,1-3.564,1.085Zm0-2.136h2.355a2.316,2.316,0,0,0,1.6-.492,1.79,1.79,0,0,0,.549-1.406,2.111,2.111,0,0,0-.554-1.521,2.068,2.068,0,0,0-1.529-.6H24.97ZM39.6-2.637H34.98L34.1,0H31.3l4.764-12.8H38.5L43.295,0h-2.8ZM35.692-4.772h3.2l-1.608-4.79Zm13.535.088h-2.1V0H44.49V-12.8h4.755a5.375,5.375,0,0,1,3.5,1.011,3.488,3.488,0,0,1,1.23,2.856,3.937,3.937,0,0,1-.567,2.184,3.866,3.866,0,0,1-1.718,1.393L54.457-.123V0h-2.83Zm-2.1-2.136h2.127a2.178,2.178,0,0,0,1.538-.505,1.806,1.806,0,0,0,.545-1.393,1.933,1.933,0,0,0-.514-1.424,2.137,2.137,0,0,0-1.578-.519H47.127ZM63.2-2.637H58.579L57.7,0H54.9L59.66-12.8H62.1L66.894,0h-2.8ZM59.291-4.772h3.2l-1.608-4.79Zm13.535.088h-2.1V0H68.089V-12.8h4.755a5.375,5.375,0,0,1,3.5,1.011,3.488,3.488,0,0,1,1.23,2.856,3.937,3.937,0,0,1-.567,2.184,3.866,3.866,0,0,1-1.718,1.393L78.056-.123V0h-2.83Zm-2.1-2.136h2.127a2.178,2.178,0,0,0,1.538-.505,1.806,1.806,0,0,0,.545-1.393,1.933,1.933,0,0,0-.514-1.424,2.137,2.137,0,0,0-1.578-.519H70.726ZM84.059,0V-12.8H88a5.98,5.98,0,0,1,3.019.76,5.3,5.3,0,0,1,2.079,2.162,6.669,6.669,0,0,1,.747,3.186V-6.1a6.688,6.688,0,0,1-.734,3.173,5.256,5.256,0,0,1-2.07,2.153A6.025,6.025,0,0,1,88.022,0ZM86.7-10.661v8.543H87.97a2.863,2.863,0,0,0,2.364-1.011,4.567,4.567,0,0,0,.835-2.892V-6.7a4.64,4.64,0,0,0-.809-2.958A2.854,2.854,0,0,0,88-10.661Zm16.761,5.1H98.394v3.445h5.941V0H95.757V-12.8h8.561v2.136H98.394v3.05h5.063Zm9.062,2.206A1.353,1.353,0,0,0,111.99-4.5a6.917,6.917,0,0,0-1.9-.844,13.458,13.458,0,0,1-2.171-.875,3.547,3.547,0,0,1-2.18-3.173,3.09,3.09,0,0,1,.584-1.85A3.812,3.812,0,0,1,108-12.516a6.318,6.318,0,0,1,2.457-.457,5.751,5.751,0,0,1,2.443.5,3.891,3.891,0,0,1,1.666,1.4,3.668,3.668,0,0,1,.593,2.057h-2.637a1.726,1.726,0,0,0-.554-1.367,2.276,2.276,0,0,0-1.556-.488,2.432,2.432,0,0,0-1.5.409,1.289,1.289,0,0,0-.536,1.077,1.235,1.235,0,0,0,.628,1.046,7.1,7.1,0,0,0,1.85.791,7.994,7.994,0,0,1,3.278,1.679,3.343,3.343,0,0,1,1.028,2.5,3.08,3.08,0,0,1-1.257,2.606,5.5,5.5,0,0,1-3.384.945,6.534,6.534,0,0,1-2.689-.541,4.256,4.256,0,0,1-1.85-1.481,3.793,3.793,0,0,1-.637-2.18h2.646q0,2.118,2.531,2.118a2.462,2.462,0,0,0,1.468-.382A1.244,1.244,0,0,0,112.518-3.357Zm12.129-2.206h-5.062v3.445h5.941V0h-8.578V-12.8h8.561v2.136h-5.924v3.05h5.063Zm12.472,1.3a4.528,4.528,0,0,1-1.525,3.252A5.355,5.355,0,0,1,131.968.176,4.816,4.816,0,0,1,128.1-1.481a6.793,6.793,0,0,1-1.411-4.548v-.782a7.671,7.671,0,0,1,.65-3.252,4.874,4.874,0,0,1,1.859-2.158A5.207,5.207,0,0,1,132-12.973a5.217,5.217,0,0,1,3.568,1.187,4.866,4.866,0,0,1,1.564,3.331H134.5a2.673,2.673,0,0,0-.69-1.8A2.555,2.555,0,0,0,132-10.811a2.24,2.24,0,0,0-1.973.945,5.3,5.3,0,0,0-.672,2.931v.967a5.667,5.667,0,0,0,.628,3.032,2.2,2.2,0,0,0,1.982.958,2.6,2.6,0,0,0,1.824-.558,2.521,2.521,0,0,0,.69-1.727ZM149.265,0h-2.637V-5.484h-5.142V0H138.85V-12.8h2.637v5.186h5.142V-12.8h2.637Zm12.814-6.108a7.725,7.725,0,0,1-.668,3.313A5.03,5.03,0,0,1,159.5-.6a5.288,5.288,0,0,1-2.852.773,5.324,5.324,0,0,1-2.839-.765,5.08,5.08,0,0,1-1.934-2.184,7.5,7.5,0,0,1-.694-3.265v-.633A7.685,7.685,0,0,1,151.862-10a5.072,5.072,0,0,1,1.925-2.206,5.3,5.3,0,0,1,2.843-.769,5.3,5.3,0,0,1,2.843.769A5.072,5.072,0,0,1,161.4-10a7.663,7.663,0,0,1,.681,3.318Zm-2.672-.58a5.385,5.385,0,0,0-.721-3.059,2.349,2.349,0,0,0-2.057-1.046,2.349,2.349,0,0,0-2.048,1.033,5.324,5.324,0,0,0-.729,3.028v.624a5.453,5.453,0,0,0,.721,3.041,2.342,2.342,0,0,0,2.074,1.081,2.321,2.321,0,0,0,2.039-1.042,5.421,5.421,0,0,0,.721-3.037Zm11.224,3.331A1.353,1.353,0,0,0,170.1-4.5a6.917,6.917,0,0,0-1.9-.844,13.458,13.458,0,0,1-2.171-.875,3.547,3.547,0,0,1-2.18-3.173,3.09,3.09,0,0,1,.584-1.85,3.812,3.812,0,0,1,1.679-1.27,6.318,6.318,0,0,1,2.457-.457,5.751,5.751,0,0,1,2.443.5,3.891,3.891,0,0,1,1.666,1.4,3.668,3.668,0,0,1,.593,2.057H170.64a1.726,1.726,0,0,0-.554-1.367,2.276,2.276,0,0,0-1.556-.488,2.432,2.432,0,0,0-1.5.409,1.289,1.289,0,0,0-.536,1.077,1.235,1.235,0,0,0,.628,1.046,7.1,7.1,0,0,0,1.85.791,7.994,7.994,0,0,1,3.278,1.679,3.343,3.343,0,0,1,1.028,2.5A3.08,3.08,0,0,1,172.02-.769a5.5,5.5,0,0,1-3.384.945,6.534,6.534,0,0,1-2.689-.541,4.256,4.256,0,0,1-1.85-1.481,3.793,3.793,0,0,1-.637-2.18H166.1q0,2.118,2.531,2.118A2.462,2.462,0,0,0,170.1-2.29,1.244,1.244,0,0,0,170.631-3.357Z" transform="translate(992 900)" fill="#12263f"/>
    <path id="Trazado_595303" data-name="Trazado 595303" d="M1.143,0V-12.8H5.625a5.886,5.886,0,0,1,3.533.892,3.05,3.05,0,0,1,1.2,2.615,2.891,2.891,0,0,1-.483,1.657,2.792,2.792,0,0,1-1.345,1.05,2.7,2.7,0,0,1,1.551.993,2.936,2.936,0,0,1,.567,1.828A3.377,3.377,0,0,1,9.475-.967,5.3,5.3,0,0,1,6.117,0ZM3.779-5.572v3.454H6.038a2.18,2.18,0,0,0,1.455-.444,1.522,1.522,0,0,0,.523-1.226A1.607,1.607,0,0,0,6.2-5.572Zm0-1.863H5.73q2-.035,2-1.591a1.47,1.47,0,0,0-.505-1.252,2.658,2.658,0,0,0-1.6-.382H3.779ZM15.434,0H12.8V-12.8h2.637ZM25.576-5.563H20.514v3.445h5.941V0H17.877V-12.8h8.561v2.136H20.514v3.05h5.063ZM38.408,0H35.771L30.639-8.42V0H28V-12.8h2.637L35.78-4.359V-12.8h2.628Zm10-5.563H43.348v3.445h5.941V0H40.711V-12.8h8.561v2.136H43.348v3.05H48.41Zm9.062,2.206A1.353,1.353,0,0,0,56.944-4.5a6.917,6.917,0,0,0-1.9-.844,13.458,13.458,0,0,1-2.171-.875A3.547,3.547,0,0,1,50.7-9.4a3.09,3.09,0,0,1,.584-1.85,3.812,3.812,0,0,1,1.679-1.27,6.318,6.318,0,0,1,2.457-.457,5.751,5.751,0,0,1,2.443.5,3.891,3.891,0,0,1,1.666,1.4,3.668,3.668,0,0,1,.593,2.057H57.48a1.726,1.726,0,0,0-.554-1.367,2.276,2.276,0,0,0-1.556-.488,2.432,2.432,0,0,0-1.5.409,1.289,1.289,0,0,0-.536,1.077,1.235,1.235,0,0,0,.628,1.046,7.1,7.1,0,0,0,1.85.791,7.994,7.994,0,0,1,3.278,1.679,3.343,3.343,0,0,1,1.028,2.5A3.08,3.08,0,0,1,58.86-.769a5.5,5.5,0,0,1-3.384.945,6.534,6.534,0,0,1-2.689-.541,4.256,4.256,0,0,1-1.85-1.481,3.793,3.793,0,0,1-.637-2.18h2.646q0,2.118,2.531,2.118a2.462,2.462,0,0,0,1.468-.382A1.244,1.244,0,0,0,57.472-3.357Zm14.063-7.3h-3.92V0H64.978V-10.661H61.11V-12.8H71.534Zm7.673,8.024H74.584L73.705,0H70.9l4.764-12.8h2.443L82.9,0h-2.8ZM75.3-4.772h3.2l-1.608-4.79Zm13.535.088h-2.1V0H84.094V-12.8h4.755a5.375,5.375,0,0,1,3.5,1.011,3.488,3.488,0,0,1,1.23,2.856,3.937,3.937,0,0,1-.567,2.184,3.866,3.866,0,0,1-1.718,1.393L94.061-.123V0H91.23ZM86.73-6.82h2.127A2.178,2.178,0,0,0,90.4-7.326a1.806,1.806,0,0,0,.545-1.393,1.933,1.933,0,0,0-.514-1.424,2.137,2.137,0,0,0-1.578-.519H86.73ZM106.7-3.357a1.353,1.353,0,0,0-.527-1.147,6.917,6.917,0,0,0-1.9-.844,13.458,13.458,0,0,1-2.171-.875A3.547,3.547,0,0,1,99.923-9.4a3.09,3.09,0,0,1,.584-1.85,3.812,3.812,0,0,1,1.679-1.27,6.318,6.318,0,0,1,2.457-.457,5.751,5.751,0,0,1,2.443.5,3.891,3.891,0,0,1,1.666,1.4,3.668,3.668,0,0,1,.593,2.057h-2.637a1.726,1.726,0,0,0-.554-1.367,2.276,2.276,0,0,0-1.556-.488,2.432,2.432,0,0,0-1.5.409,1.289,1.289,0,0,0-.536,1.077,1.235,1.235,0,0,0,.628,1.046,7.1,7.1,0,0,0,1.85.791,7.994,7.994,0,0,1,3.278,1.679,3.343,3.343,0,0,1,1.028,2.5,3.08,3.08,0,0,1-1.257,2.606A5.5,5.5,0,0,1,104.7.176a6.534,6.534,0,0,1-2.689-.541,4.256,4.256,0,0,1-1.85-1.481,3.793,3.793,0,0,1-.637-2.18h2.646q0,2.118,2.531,2.118a2.462,2.462,0,0,0,1.468-.382A1.244,1.244,0,0,0,106.7-3.357Zm14.941-2.751a7.725,7.725,0,0,1-.668,3.313,5.03,5.03,0,0,1-1.912,2.2,5.288,5.288,0,0,1-2.852.773,5.324,5.324,0,0,1-2.839-.765,5.08,5.08,0,0,1-1.934-2.184,7.5,7.5,0,0,1-.694-3.265v-.633A7.685,7.685,0,0,1,111.423-10a5.072,5.072,0,0,1,1.925-2.206,5.3,5.3,0,0,1,2.843-.769,5.3,5.3,0,0,1,2.843.769A5.072,5.072,0,0,1,120.959-10a7.663,7.663,0,0,1,.681,3.318Zm-2.672-.58a5.385,5.385,0,0,0-.721-3.059,2.349,2.349,0,0,0-2.057-1.046,2.349,2.349,0,0,0-2.048,1.033,5.324,5.324,0,0,0-.729,3.028v.624a5.453,5.453,0,0,0,.721,3.041,2.342,2.342,0,0,0,2.074,1.081,2.321,2.321,0,0,0,2.039-1.042,5.421,5.421,0,0,0,.721-3.037ZM133.6-4.263a4.528,4.528,0,0,1-1.525,3.252A5.355,5.355,0,0,1,128.452.176a4.816,4.816,0,0,1-3.872-1.657,6.793,6.793,0,0,1-1.411-4.548v-.782a7.671,7.671,0,0,1,.65-3.252,4.874,4.874,0,0,1,1.859-2.158,5.207,5.207,0,0,1,2.808-.751,5.217,5.217,0,0,1,3.568,1.187,4.866,4.866,0,0,1,1.564,3.331h-2.637a2.673,2.673,0,0,0-.69-1.8,2.555,2.555,0,0,0-1.806-.558,2.24,2.24,0,0,0-1.973.945,5.3,5.3,0,0,0-.672,2.931v.967a5.667,5.667,0,0,0,.628,3.032,2.2,2.2,0,0,0,1.982.958,2.6,2.6,0,0,0,1.824-.558,2.521,2.521,0,0,0,.69-1.727ZM138.138,0H135.5V-12.8h2.637Zm9.826-2.637h-4.623L142.462,0h-2.8l4.764-12.8h2.443L151.655,0h-2.8Zm-3.911-2.136h3.2l-1.608-4.79Zm11.435,2.654h5.6V0h-8.235V-12.8h2.637Zm16-4.913,2.663-5.766h2.883l-4.2,8.156V0h-2.681V-4.641l-4.2-8.156h2.892ZM8.842,14.437H3.779v3.445H9.721V20H1.143V7.2H9.7V9.339H3.779v3.05H8.842Zm12.472,1.3a4.528,4.528,0,0,1-1.525,3.252,5.355,5.355,0,0,1-3.625,1.187,4.816,4.816,0,0,1-3.872-1.657,6.793,6.793,0,0,1-1.411-4.548v-.782a7.671,7.671,0,0,1,.65-3.252A4.874,4.874,0,0,1,13.39,7.779,5.207,5.207,0,0,1,16.2,7.027a5.217,5.217,0,0,1,3.568,1.187,4.866,4.866,0,0,1,1.564,3.331H18.694a2.673,2.673,0,0,0-.69-1.8A2.555,2.555,0,0,0,16.2,9.189a2.24,2.24,0,0,0-1.973.945,5.3,5.3,0,0,0-.672,2.931v.967a5.667,5.667,0,0,0,.628,3.032,2.2,2.2,0,0,0,1.982.958,2.6,2.6,0,0,0,1.824-.558,2.521,2.521,0,0,0,.69-1.727Zm12.243-1.846a7.725,7.725,0,0,1-.668,3.313,5.03,5.03,0,0,1-1.912,2.2,5.649,5.649,0,0,1-5.691.009,5.08,5.08,0,0,1-1.934-2.184,7.5,7.5,0,0,1-.694-3.265v-.633A7.685,7.685,0,0,1,23.339,10,5.072,5.072,0,0,1,25.264,7.8a5.64,5.64,0,0,1,5.687,0A5.072,5.072,0,0,1,32.875,10a7.663,7.663,0,0,1,.681,3.318Zm-2.672-.58a5.385,5.385,0,0,0-.721-3.059,2.546,2.546,0,0,0-4.1-.013,5.324,5.324,0,0,0-.729,3.028v.624a5.453,5.453,0,0,0,.721,3.041,2.524,2.524,0,0,0,4.113.04,5.421,5.421,0,0,0,.721-3.037ZM45.879,20H43.242l-5.133-8.42V20H35.473V7.2h2.637l5.142,8.438V7.2h2.628Zm12.814-6.108a7.725,7.725,0,0,1-.668,3.313,5.03,5.03,0,0,1-1.912,2.2,5.649,5.649,0,0,1-5.691.009,5.08,5.08,0,0,1-1.934-2.184,7.5,7.5,0,0,1-.694-3.265v-.633A7.685,7.685,0,0,1,48.476,10,5.072,5.072,0,0,1,50.4,7.8a5.64,5.64,0,0,1,5.687,0A5.072,5.072,0,0,1,58.012,10a7.663,7.663,0,0,1,.681,3.318Zm-2.672-.58a5.385,5.385,0,0,0-.721-3.059,2.546,2.546,0,0,0-4.1-.013,5.324,5.324,0,0,0-.729,3.028v.624a5.453,5.453,0,0,0,.721,3.041,2.524,2.524,0,0,0,4.113.04,5.421,5.421,0,0,0,.721-3.037ZM53.754,3.775h2.769L54.088,6.5H52.022ZM64.055,7.2l3.287,9.281L70.611,7.2h3.463V20H71.429V16.5l.264-6.038L68.238,20H66.428l-3.445-9.527.264,6.029V20H60.609V7.2ZM79.181,20H76.544V7.2h2.637ZM91.67,15.737a4.528,4.528,0,0,1-1.525,3.252,5.355,5.355,0,0,1-3.625,1.187,4.816,4.816,0,0,1-3.872-1.657,6.793,6.793,0,0,1-1.411-4.548v-.782a7.671,7.671,0,0,1,.65-3.252,4.874,4.874,0,0,1,1.859-2.158,5.809,5.809,0,0,1,6.376.435,4.866,4.866,0,0,1,1.564,3.331H89.051a2.673,2.673,0,0,0-.69-1.8,2.555,2.555,0,0,0-1.806-.558,2.24,2.24,0,0,0-1.973.945,5.3,5.3,0,0,0-.672,2.931v.967a5.667,5.667,0,0,0,.628,3.032,2.2,2.2,0,0,0,1.982.958,2.6,2.6,0,0,0,1.824-.558,2.521,2.521,0,0,0,.69-1.727Zm12.243-1.846a7.725,7.725,0,0,1-.668,3.313,5.03,5.03,0,0,1-1.912,2.2,5.649,5.649,0,0,1-5.691.009,5.08,5.08,0,0,1-1.934-2.184,7.5,7.5,0,0,1-.694-3.265v-.633A7.685,7.685,0,0,1,93.7,10,5.072,5.072,0,0,1,95.621,7.8a5.64,5.64,0,0,1,5.687,0A5.072,5.072,0,0,1,103.232,10a7.663,7.663,0,0,1,.681,3.318Zm-2.672-.58a5.385,5.385,0,0,0-.721-3.059,2.546,2.546,0,0,0-4.1-.013,5.324,5.324,0,0,0-.729,3.028v.624a5.453,5.453,0,0,0,.721,3.041,2.524,2.524,0,0,0,4.113.04,5.421,5.421,0,0,0,.721-3.037Z" transform="translate(992 588)" fill="#fff"/>
    <path id="Trazado_595304" data-name="Trazado 595304" d="M4.588-12.8,7.875-3.516l3.27-9.281h3.463V0H11.962V-3.5l.264-6.038L8.771,0H6.961L3.516-9.527,3.779-3.5V0H1.143V-12.8ZM24.609-5.563H19.547v3.445h5.941V0H16.91V-12.8h8.561v2.136H19.547v3.05h5.063ZM37.441,0H34.8L29.672-8.42V0H27.035V-12.8h2.637l5.142,8.438V-12.8h2.628ZM46.38-3.357A1.353,1.353,0,0,0,45.853-4.5a6.917,6.917,0,0,0-1.9-.844,13.458,13.458,0,0,1-2.171-.875A3.547,3.547,0,0,1,39.6-9.4a3.09,3.09,0,0,1,.584-1.85,3.812,3.812,0,0,1,1.679-1.27,6.318,6.318,0,0,1,2.457-.457,5.751,5.751,0,0,1,2.443.5,3.891,3.891,0,0,1,1.666,1.4,3.668,3.668,0,0,1,.593,2.057H46.389a1.726,1.726,0,0,0-.554-1.367,2.276,2.276,0,0,0-1.556-.488,2.432,2.432,0,0,0-1.5.409,1.289,1.289,0,0,0-.536,1.077,1.235,1.235,0,0,0,.628,1.046,7.1,7.1,0,0,0,1.85.791A7.994,7.994,0,0,1,48-5.871a3.343,3.343,0,0,1,1.028,2.5A3.08,3.08,0,0,1,47.769-.769a5.5,5.5,0,0,1-3.384.945A6.534,6.534,0,0,1,41.7-.365a4.256,4.256,0,0,1-1.85-1.481,3.793,3.793,0,0,1-.637-2.18h2.646q0,2.118,2.531,2.118a2.462,2.462,0,0,0,1.468-.382A1.244,1.244,0,0,0,46.38-3.357Zm11.654.721H53.411L52.532,0h-2.8l4.764-12.8h2.443L61.726,0h-2.8ZM54.123-4.772h3.2l-1.608-4.79ZM68.08-12.8h2.637v8.859a4.237,4.237,0,0,1-.541,2.158A3.668,3.668,0,0,1,68.651-.334a4.764,4.764,0,0,1-2.224.51A4.528,4.528,0,0,1,63.264-.857,3.752,3.752,0,0,1,62.13-3.779h2.654a2.057,2.057,0,0,0,.4,1.389,1.582,1.582,0,0,0,1.248.448,1.511,1.511,0,0,0,1.2-.519,2.191,2.191,0,0,0,.448-1.477ZM80.675-5.563H75.612v3.445h5.941V0H72.976V-12.8h8.561v2.136H75.612v3.05h5.063Zm17.42-.545a7.725,7.725,0,0,1-.668,3.313A5.03,5.03,0,0,1,95.515-.6a5.288,5.288,0,0,1-2.852.773,5.324,5.324,0,0,1-2.839-.765,5.08,5.08,0,0,1-1.934-2.184A7.5,7.5,0,0,1,87.2-6.038v-.633A7.685,7.685,0,0,1,87.877-10,5.072,5.072,0,0,1,89.8-12.2a5.3,5.3,0,0,1,2.843-.769,5.3,5.3,0,0,1,2.843.769A5.072,5.072,0,0,1,97.414-10a7.663,7.663,0,0,1,.681,3.318Zm-2.672-.58A5.385,5.385,0,0,0,94.7-9.747a2.349,2.349,0,0,0-2.057-1.046A2.349,2.349,0,0,0,90.6-9.76a5.324,5.324,0,0,0-.729,3.028v.624a5.453,5.453,0,0,0,.721,3.041,2.342,2.342,0,0,0,2.074,1.081A2.321,2.321,0,0,0,94.7-3.028a5.421,5.421,0,0,0,.721-3.037Zm9.325,2h-2.1V0h-2.637V-12.8h4.755a5.375,5.375,0,0,1,3.5,1.011,3.488,3.488,0,0,1,1.23,2.856,3.937,3.937,0,0,1-.567,2.184,3.866,3.866,0,0,1-1.718,1.393l2.769,5.229V0h-2.83Zm-2.1-2.136h2.127a2.178,2.178,0,0,0,1.538-.505,1.806,1.806,0,0,0,.545-1.393,1.933,1.933,0,0,0-.514-1.424,2.137,2.137,0,0,0-1.578-.519h-2.118ZM114.3,0h-2.637V-12.8H114.3ZM126.87-1.617a4.577,4.577,0,0,1-2.013,1.323,8.429,8.429,0,0,1-2.883.47,5.711,5.711,0,0,1-2.914-.725,4.836,4.836,0,0,1-1.934-2.1,7.408,7.408,0,0,1-.7-3.243v-.87a7.868,7.868,0,0,1,.646-3.318,4.779,4.779,0,0,1,1.863-2.145,5.367,5.367,0,0,1,2.852-.743,5.345,5.345,0,0,1,3.56,1.085,4.639,4.639,0,0,1,1.521,3.16H124.3a2.552,2.552,0,0,0-.778-1.608,2.484,2.484,0,0,0-1.657-.51,2.338,2.338,0,0,0-2.048,1.011,5.315,5.315,0,0,0-.712,3.006v.817a5.06,5.06,0,0,0,.765,3.041,2.618,2.618,0,0,0,2.241,1.028,2.925,2.925,0,0,0,2.118-.633V-4.781h-2.4V-6.724h5.036ZM131.81,0h-2.637V-12.8h2.637Zm12.85,0h-2.637L136.89-8.42V0h-2.637V-12.8h2.637l5.142,8.438V-12.8h2.628Zm9.686-2.637h-4.623L148.843,0h-2.8L150.8-12.8h2.443L158.036,0h-2.8Zm-3.911-2.136h3.2l-1.608-4.79Zm11.435,2.654h5.6V0h-8.235V-12.8h2.637ZM5.555,12.969,8.218,7.2H11.1L6.9,15.359V20H4.219V15.359L.018,7.2H2.909Zm21.322,5.414a4.577,4.577,0,0,1-2.013,1.323,8.429,8.429,0,0,1-2.883.47,5.711,5.711,0,0,1-2.914-.725,4.836,4.836,0,0,1-1.934-2.1,7.408,7.408,0,0,1-.7-3.243v-.87a7.868,7.868,0,0,1,.646-3.318A4.779,4.779,0,0,1,18.945,7.77,5.367,5.367,0,0,1,21.8,7.027a5.345,5.345,0,0,1,3.56,1.085,4.639,4.639,0,0,1,1.521,3.16H24.311a2.552,2.552,0,0,0-.778-1.608,2.484,2.484,0,0,0-1.657-.51,2.338,2.338,0,0,0-2.048,1.011,5.315,5.315,0,0,0-.712,3.006v.817a5.06,5.06,0,0,0,.765,3.041,2.618,2.618,0,0,0,2.241,1.028,2.925,2.925,0,0,0,2.118-.633V15.219h-2.4V13.276h5.036Zm6.873-3.067h-2.1V20H29.013V7.2h4.755a5.375,5.375,0,0,1,3.5,1.011A3.488,3.488,0,0,1,38.5,11.07a3.937,3.937,0,0,1-.567,2.184,3.866,3.866,0,0,1-1.718,1.393l2.769,5.229V20h-2.83Zm-2.1-2.136h2.127a2.178,2.178,0,0,0,1.538-.505,1.806,1.806,0,0,0,.545-1.393,1.933,1.933,0,0,0-.514-1.424,2.137,2.137,0,0,0-1.578-.519H31.649Zm16.075,4.184H43.1L42.223,20h-2.8L44.183,7.2h2.443L51.416,20h-2.8Zm-3.911-2.136h3.2L45.4,10.438ZM45.949,3.775h2.769L46.283,6.5H44.218Zm14.361,11H55.248V20H52.611V7.2h8.332V9.339h-5.7v3.3h5.063ZM65.276,20H62.64V7.2h2.637Zm12.489-4.263a4.528,4.528,0,0,1-1.525,3.252,5.355,5.355,0,0,1-3.625,1.187,4.816,4.816,0,0,1-3.872-1.657,6.793,6.793,0,0,1-1.411-4.548v-.782a7.671,7.671,0,0,1,.65-3.252,4.874,4.874,0,0,1,1.859-2.158,5.809,5.809,0,0,1,6.376.435,4.866,4.866,0,0,1,1.564,3.331H75.146a2.673,2.673,0,0,0-.69-1.8,2.555,2.555,0,0,0-1.806-.558,2.24,2.24,0,0,0-1.973.945A5.3,5.3,0,0,0,70,13.065v.967a5.667,5.667,0,0,0,.628,3.032,2.2,2.2,0,0,0,1.982.958,2.6,2.6,0,0,0,1.824-.558,2.521,2.521,0,0,0,.69-1.727Zm12.243-1.846a7.725,7.725,0,0,1-.668,3.313,5.03,5.03,0,0,1-1.912,2.2,5.649,5.649,0,0,1-5.691.009A5.08,5.08,0,0,1,79.8,17.227a7.5,7.5,0,0,1-.694-3.265v-.633A7.685,7.685,0,0,1,79.792,10,5.072,5.072,0,0,1,81.716,7.8a5.64,5.64,0,0,1,5.687,0A5.072,5.072,0,0,1,89.328,10a7.663,7.663,0,0,1,.681,3.318Zm-2.672-.58a5.385,5.385,0,0,0-.721-3.059,2.546,2.546,0,0,0-4.1-.013,5.324,5.324,0,0,0-.729,3.028v.624a5.453,5.453,0,0,0,.721,3.041,2.524,2.524,0,0,0,4.113.04,5.421,5.421,0,0,0,.721-3.037Z" transform="translate(992 665)" fill="#fff"/>
    <path id="Trazado_595305" data-name="Trazado 595305" d="M11.188-4.263A4.528,4.528,0,0,1,9.664-1.011,5.355,5.355,0,0,1,6.038.176,4.816,4.816,0,0,1,2.167-1.481,6.793,6.793,0,0,1,.756-6.029v-.782a7.671,7.671,0,0,1,.65-3.252,4.874,4.874,0,0,1,1.859-2.158,5.207,5.207,0,0,1,2.808-.751,5.217,5.217,0,0,1,3.568,1.187,4.866,4.866,0,0,1,1.564,3.331H8.569a2.673,2.673,0,0,0-.69-1.8,2.555,2.555,0,0,0-1.806-.558A2.24,2.24,0,0,0,4.1-9.866a5.3,5.3,0,0,0-.672,2.931v.967a5.667,5.667,0,0,0,.628,3.032,2.2,2.2,0,0,0,1.982.958,2.6,2.6,0,0,0,1.824-.558,2.521,2.521,0,0,0,.69-1.727ZM22.605-12.8v8.429a4.315,4.315,0,0,1-1.314,3.322A5.066,5.066,0,0,1,17.7.176a5.123,5.123,0,0,1-3.56-1.187A4.242,4.242,0,0,1,12.8-4.271V-12.8h2.637v8.446a2.438,2.438,0,0,0,.6,1.833,2.311,2.311,0,0,0,1.666.576q2.224,0,2.259-2.338V-12.8ZM27.571,0H24.935V-12.8h2.637Zm2.443,0V-12.8h3.938a5.98,5.98,0,0,1,3.019.76A5.3,5.3,0,0,1,39.05-9.875,6.669,6.669,0,0,1,39.8-6.688V-6.1a6.688,6.688,0,0,1-.734,3.173,5.256,5.256,0,0,1-2.07,2.153A6.025,6.025,0,0,1,33.979,0Zm2.637-10.661v8.543h1.274A2.863,2.863,0,0,0,36.29-3.129a4.567,4.567,0,0,0,.835-2.892V-6.7a4.64,4.64,0,0,0-.809-2.958,2.854,2.854,0,0,0-2.364-1.006Zm16.1,8.024H44.13L43.251,0h-2.8l4.764-12.8h2.443L52.444,0h-2.8ZM44.842-4.772h3.2l-1.608-4.79ZM53.64,0V-12.8h3.938a5.98,5.98,0,0,1,3.019.76,5.3,5.3,0,0,1,2.079,2.162,6.669,6.669,0,0,1,.747,3.186V-6.1a6.688,6.688,0,0,1-.734,3.173,5.256,5.256,0,0,1-2.07,2.153A6.025,6.025,0,0,1,57.6,0Zm2.637-10.661v8.543h1.274a2.863,2.863,0,0,0,2.364-1.011,4.567,4.567,0,0,0,.835-2.892V-6.7a4.64,4.64,0,0,0-.809-2.958,2.854,2.854,0,0,0-2.364-1.006ZM75.85-6.108a7.725,7.725,0,0,1-.668,3.313A5.03,5.03,0,0,1,73.27-.6a5.288,5.288,0,0,1-2.852.773,5.324,5.324,0,0,1-2.839-.765,5.08,5.08,0,0,1-1.934-2.184,7.5,7.5,0,0,1-.694-3.265v-.633A7.685,7.685,0,0,1,65.632-10,5.072,5.072,0,0,1,67.557-12.2a5.3,5.3,0,0,1,2.843-.769,5.3,5.3,0,0,1,2.843.769A5.072,5.072,0,0,1,75.168-10,7.663,7.663,0,0,1,75.85-6.68Zm-2.672-.58a5.385,5.385,0,0,0-.721-3.059A2.349,2.349,0,0,0,70.4-10.793,2.349,2.349,0,0,0,68.353-9.76a5.324,5.324,0,0,0-.729,3.028v.624a5.453,5.453,0,0,0,.721,3.041,2.342,2.342,0,0,0,2.074,1.081,2.321,2.321,0,0,0,2.039-1.042,5.421,5.421,0,0,0,.721-3.037ZM82.248,0V-12.8h3.938a5.98,5.98,0,0,1,3.019.76,5.3,5.3,0,0,1,2.079,2.162,6.669,6.669,0,0,1,.747,3.186V-6.1A6.688,6.688,0,0,1,91.3-2.927a5.256,5.256,0,0,1-2.07,2.153A6.025,6.025,0,0,1,86.212,0Zm2.637-10.661v8.543h1.274a2.863,2.863,0,0,0,2.364-1.011,4.567,4.567,0,0,0,.835-2.892V-6.7a4.64,4.64,0,0,0-.809-2.958,2.854,2.854,0,0,0-2.364-1.006Zm16.761,5.1H96.583v3.445h5.941V0H93.946V-12.8h8.561v2.136H96.583v3.05h5.063Zm5.063,3.445h5.6V0h-8.235V-12.8h2.637ZM121.746-12.8l3.287,9.281L128.3-12.8h3.463V0H129.12V-3.5l.264-6.038L125.93,0h-1.811l-3.445-9.527.264,6.029V0H118.3V-12.8Zm20.021,7.233h-5.062v3.445h5.941V0h-8.578V-12.8h8.561v2.136h-5.924v3.05h5.063ZM144.193,0V-12.8h3.938a5.98,5.98,0,0,1,3.019.76,5.3,5.3,0,0,1,2.079,2.162,6.669,6.669,0,0,1,.747,3.186V-6.1a6.688,6.688,0,0,1-.734,3.173,5.256,5.256,0,0,1-2.07,2.153A6.025,6.025,0,0,1,148.157,0Zm2.637-10.661v8.543H148.1a2.863,2.863,0,0,0,2.364-1.011,4.567,4.567,0,0,0,.835-2.892V-6.7a4.64,4.64,0,0,0-.809-2.958,2.854,2.854,0,0,0-2.364-1.006ZM158.7,0h-2.637V-12.8H158.7ZM171.65-6.108a7.725,7.725,0,0,1-.668,3.313,5.03,5.03,0,0,1-1.912,2.2,5.288,5.288,0,0,1-2.852.773,5.324,5.324,0,0,1-2.839-.765,5.08,5.08,0,0,1-1.934-2.184,7.5,7.5,0,0,1-.694-3.265v-.633A7.685,7.685,0,0,1,161.433-10a5.072,5.072,0,0,1,1.925-2.206,5.3,5.3,0,0,1,2.843-.769,5.3,5.3,0,0,1,2.843.769A5.072,5.072,0,0,1,170.969-10a7.663,7.663,0,0,1,.681,3.318Zm-2.672-.58a5.385,5.385,0,0,0-.721-3.059,2.349,2.349,0,0,0-2.057-1.046,2.349,2.349,0,0,0-2.048,1.033,5.324,5.324,0,0,0-.729,3.028v.624a5.453,5.453,0,0,0,.721,3.041,2.342,2.342,0,0,0,2.074,1.081,2.321,2.321,0,0,0,2.039-1.042,5.421,5.421,0,0,0,.721-3.037ZM8.367,17.363H3.744L2.865,20H.062L4.825,7.2H7.269L12.059,20h-2.8ZM4.456,15.228h3.2l-1.608-4.79ZM16.7,7.2l3.287,9.281L23.256,7.2h3.463V20H24.073V16.5l.264-6.038L20.883,20H19.072l-3.445-9.527.264,6.029V20H13.254V7.2ZM29.021,20V7.2H33.5a5.886,5.886,0,0,1,3.533.892,3.05,3.05,0,0,1,1.2,2.615,2.891,2.891,0,0,1-.483,1.657,2.792,2.792,0,0,1-1.345,1.05,2.7,2.7,0,0,1,1.551.993,2.936,2.936,0,0,1,.567,1.828,3.377,3.377,0,0,1-1.178,2.795A5.3,5.3,0,0,1,34,20Zm2.637-5.572v3.454h2.259a2.18,2.18,0,0,0,1.455-.444,1.522,1.522,0,0,0,.523-1.226,1.607,1.607,0,0,0-1.819-1.784Zm0-1.863h1.951q2-.035,2-1.591A1.47,1.47,0,0,0,35.1,9.721a2.658,2.658,0,0,0-1.6-.382H31.658ZM43.313,20H40.676V7.2h2.637Zm10.143-5.563H48.393v3.445h5.941V20H45.756V7.2h8.561V9.339H48.393v3.05h5.063ZM66.287,20H63.65l-5.133-8.42V20H55.881V7.2h2.637l5.142,8.438V7.2h2.628ZM77.968,9.339h-3.92V20H71.411V9.339H67.544V7.2H77.968Zm9.2,5.1H82.107v3.445h5.941V20H79.471V7.2h8.561V9.339H82.107v3.05H87.17Z" transform="translate(371 966)" fill="#12263f"/>
    <path id="Trazado_595306" data-name="Trazado 595306" d="M11.188-4.263A4.528,4.528,0,0,1,9.664-1.011,5.355,5.355,0,0,1,6.038.176,4.816,4.816,0,0,1,2.167-1.481,6.793,6.793,0,0,1,.756-6.029v-.782a7.671,7.671,0,0,1,.65-3.252,4.874,4.874,0,0,1,1.859-2.158,5.207,5.207,0,0,1,2.808-.751,5.217,5.217,0,0,1,3.568,1.187,4.866,4.866,0,0,1,1.564,3.331H8.569a2.673,2.673,0,0,0-.69-1.8,2.555,2.555,0,0,0-1.806-.558A2.24,2.24,0,0,0,4.1-9.866a5.3,5.3,0,0,0-.672,2.931v.967a5.667,5.667,0,0,0,.628,3.032,2.2,2.2,0,0,0,1.982.958,2.6,2.6,0,0,0,1.824-.558,2.521,2.521,0,0,0,.69-1.727ZM23.432-6.108a7.725,7.725,0,0,1-.668,3.313A5.03,5.03,0,0,1,20.852-.6,5.288,5.288,0,0,1,18,.176a5.324,5.324,0,0,1-2.839-.765,5.08,5.08,0,0,1-1.934-2.184,7.5,7.5,0,0,1-.694-3.265v-.633A7.685,7.685,0,0,1,13.214-10,5.072,5.072,0,0,1,15.139-12.2a5.3,5.3,0,0,1,2.843-.769,5.3,5.3,0,0,1,2.843.769A5.072,5.072,0,0,1,22.75-10a7.663,7.663,0,0,1,.681,3.318Zm-2.672-.58a5.385,5.385,0,0,0-.721-3.059,2.349,2.349,0,0,0-2.057-1.046A2.349,2.349,0,0,0,15.935-9.76a5.324,5.324,0,0,0-.729,3.028v.624a5.453,5.453,0,0,0,.721,3.041A2.342,2.342,0,0,0,18-1.986a2.321,2.321,0,0,0,2.039-1.042,5.421,5.421,0,0,0,.721-3.037ZM35.754,0H33.117L27.984-8.42V0H25.348V-12.8h2.637l5.142,8.438V-12.8h2.628ZM47.435-10.661h-3.92V0H40.878V-10.661H37.011V-12.8H47.435Zm9.2,5.1H51.574v3.445h5.941V0H48.938V-12.8H57.5v2.136H51.574v3.05h5.063ZM69.469,0H66.832L61.7-8.42V0H59.063V-12.8H61.7l5.142,8.438V-12.8h2.628Zm10-5.563H74.408v3.445H80.35V0H71.771V-12.8h8.561v2.136H74.408v3.05h5.063ZM81.9,0V-12.8h3.938a5.98,5.98,0,0,1,3.019.76,5.3,5.3,0,0,1,2.079,2.162,6.669,6.669,0,0,1,.747,3.186V-6.1a6.688,6.688,0,0,1-.734,3.173,5.256,5.256,0,0,1-2.07,2.153A6.025,6.025,0,0,1,85.86,0Zm2.637-10.661v8.543h1.274a2.863,2.863,0,0,0,2.364-1.011,4.567,4.567,0,0,0,.835-2.892V-6.7A4.64,4.64,0,0,0,88.2-9.655a2.854,2.854,0,0,0-2.364-1.006Zm19.573,4.553a7.725,7.725,0,0,1-.668,3.313,5.03,5.03,0,0,1-1.912,2.2,5.288,5.288,0,0,1-2.852.773,5.324,5.324,0,0,1-2.839-.765A5.08,5.08,0,0,1,93.9-2.773a7.5,7.5,0,0,1-.694-3.265v-.633A7.685,7.685,0,0,1,93.889-10,5.072,5.072,0,0,1,95.814-12.2a5.3,5.3,0,0,1,2.843-.769,5.3,5.3,0,0,1,2.843.769A5.072,5.072,0,0,1,103.425-10a7.663,7.663,0,0,1,.681,3.318Zm-2.672-.58a5.385,5.385,0,0,0-.721-3.059,2.349,2.349,0,0,0-2.057-1.046A2.349,2.349,0,0,0,96.609-9.76a5.324,5.324,0,0,0-.729,3.028v.624A5.453,5.453,0,0,0,96.6-3.067a2.342,2.342,0,0,0,2.074,1.081,2.321,2.321,0,0,0,2.039-1.042,5.421,5.421,0,0,0,.721-3.037Zm9.325,2h-2.1V0h-2.637V-12.8h4.755a5.375,5.375,0,0,1,3.5,1.011,3.488,3.488,0,0,1,1.23,2.856,3.937,3.937,0,0,1-.567,2.184,3.866,3.866,0,0,1-1.718,1.393l2.769,5.229V0h-2.83Zm-2.1-2.136h2.127a2.178,2.178,0,0,0,1.538-.505,1.806,1.806,0,0,0,.545-1.393,1.933,1.933,0,0,0-.514-1.424,2.137,2.137,0,0,0-1.578-.519h-2.118Zm16.55,1.257h-5.062v3.445h5.941V0H117.51V-12.8h8.561v2.136h-5.924v3.05h5.063Zm9.062,2.206a1.353,1.353,0,0,0-.527-1.147,6.917,6.917,0,0,0-1.9-.844,13.458,13.458,0,0,1-2.171-.875,3.547,3.547,0,0,1-2.18-3.173,3.09,3.09,0,0,1,.584-1.85,3.812,3.812,0,0,1,1.679-1.27,6.318,6.318,0,0,1,2.457-.457,5.751,5.751,0,0,1,2.443.5,3.891,3.891,0,0,1,1.666,1.4,3.668,3.668,0,0,1,.593,2.057h-2.637a1.726,1.726,0,0,0-.554-1.367,2.276,2.276,0,0,0-1.556-.488,2.432,2.432,0,0,0-1.5.409,1.289,1.289,0,0,0-.536,1.077,1.235,1.235,0,0,0,.628,1.046,7.1,7.1,0,0,0,1.85.791,7.994,7.994,0,0,1,3.278,1.679,3.343,3.343,0,0,1,1.028,2.5,3.08,3.08,0,0,1-1.257,2.606,5.5,5.5,0,0,1-3.384.945,6.534,6.534,0,0,1-2.689-.541,4.256,4.256,0,0,1-1.85-1.481,3.793,3.793,0,0,1-.637-2.18h2.646q0,2.118,2.531,2.118a2.462,2.462,0,0,0,1.468-.382A1.244,1.244,0,0,0,134.271-3.357Zm11.549-1.151V0h-2.637V-12.8h4.992a5.776,5.776,0,0,1,2.536.527,3.886,3.886,0,0,1,1.683,1.5,4.178,4.178,0,0,1,.589,2.21,3.674,3.674,0,0,1-1.288,2.966,5.363,5.363,0,0,1-3.564,1.085Zm0-2.136h2.355a2.316,2.316,0,0,0,1.6-.492,1.79,1.79,0,0,0,.549-1.406,2.111,2.111,0,0,0-.554-1.521,2.068,2.068,0,0,0-1.529-.6h-2.417Zm14.634,4.008H155.83L154.951,0h-2.8l4.764-12.8h2.443L164.145,0h-2.8Zm-3.911-2.136h3.2l-1.608-4.79Zm13.535.088h-2.1V0H165.34V-12.8h4.755a5.375,5.375,0,0,1,3.5,1.011,3.488,3.488,0,0,1,1.23,2.856,3.937,3.937,0,0,1-.567,2.184,3.866,3.866,0,0,1-1.718,1.393l2.769,5.229V0h-2.83Zm-2.1-2.136H170.1a2.178,2.178,0,0,0,1.538-.505,1.806,1.806,0,0,0,.545-1.393,1.933,1.933,0,0,0-.514-1.424,2.137,2.137,0,0,0-1.578-.519h-2.118Zm16.075,4.184h-4.623L178.55,0h-2.8l4.764-12.8h2.443L187.743,0h-2.8Zm-3.911-2.136h3.2l-1.608-4.79ZM5.88,15.315h-2.1V20H1.143V7.2H5.9A5.375,5.375,0,0,1,9.4,8.214a3.488,3.488,0,0,1,1.23,2.856,3.937,3.937,0,0,1-.567,2.184,3.866,3.866,0,0,1-1.718,1.393l2.769,5.229V20H8.279Zm-2.1-2.136H5.906a2.178,2.178,0,0,0,1.538-.505,1.806,1.806,0,0,0,.545-1.393,1.933,1.933,0,0,0-.514-1.424A2.137,2.137,0,0,0,5.9,9.339H3.779Zm16.55,1.257H15.267v3.445h5.941V20H12.63V7.2H21.19V9.339H15.267v3.05h5.063Zm12.472,1.3a4.528,4.528,0,0,1-1.525,3.252,5.355,5.355,0,0,1-3.625,1.187,4.816,4.816,0,0,1-3.872-1.657,6.793,6.793,0,0,1-1.411-4.548v-.782a7.671,7.671,0,0,1,.65-3.252,4.874,4.874,0,0,1,1.859-2.158,5.207,5.207,0,0,1,2.808-.751,5.217,5.217,0,0,1,3.568,1.187,4.866,4.866,0,0,1,1.564,3.331H30.182a2.673,2.673,0,0,0-.69-1.8,2.555,2.555,0,0,0-1.806-.558,2.24,2.24,0,0,0-1.973.945,5.3,5.3,0,0,0-.672,2.931v.967a5.667,5.667,0,0,0,.628,3.032,2.2,2.2,0,0,0,1.982.958,2.6,2.6,0,0,0,1.824-.558,2.521,2.521,0,0,0,.69-1.727ZM37.336,20H34.7V7.2h2.637Zm12.489-4.263A4.528,4.528,0,0,1,48.3,18.989a5.355,5.355,0,0,1-3.625,1.187A4.816,4.816,0,0,1,40.8,18.519a6.793,6.793,0,0,1-1.411-4.548v-.782a7.671,7.671,0,0,1,.65-3.252A4.874,4.874,0,0,1,41.9,7.779a5.809,5.809,0,0,1,6.376.435,4.866,4.866,0,0,1,1.564,3.331H47.206a2.673,2.673,0,0,0-.69-1.8,2.555,2.555,0,0,0-1.806-.558,2.24,2.24,0,0,0-1.973.945,5.3,5.3,0,0,0-.672,2.931v.967a5.667,5.667,0,0,0,.628,3.032,2.2,2.2,0,0,0,1.982.958,2.6,2.6,0,0,0,1.824-.558,2.521,2.521,0,0,0,.69-1.727Zm4.368,2.145h5.6V20H51.557V7.2h2.637Zm14.5-.519H64.072L63.193,20h-2.8L65.153,7.2H67.6L72.387,20h-2.8Zm-3.911-2.136h3.2l-1.608-4.79Zm13.535.088h-2.1V20H73.582V7.2h4.755a5.375,5.375,0,0,1,3.5,1.011,3.488,3.488,0,0,1,1.23,2.856,3.937,3.937,0,0,1-.567,2.184,3.866,3.866,0,0,1-1.718,1.393l2.769,5.229V20h-2.83Zm-2.1-2.136h2.127a2.178,2.178,0,0,0,1.538-.505,1.806,1.806,0,0,0,.545-1.393,1.933,1.933,0,0,0-.514-1.424,2.137,2.137,0,0,0-1.578-.519H76.219Z" transform="translate(992 966)" fill="#12263f"/>
    <g id="Grupo_874551" data-name="Grupo 874551" transform="translate(742.035 639.314)">
      <g id="Grupo_874550" data-name="Grupo 874550" transform="translate(0 0)" clip-path="url(#clip-path-31)">
        <path id="Trazado_595207" data-name="Trazado 595207" d="M112.075,79.366a12.959,12.959,0,0,1-7.11-4.074c-5.606,16.647-16.888,26.843-34.048,30.671.236.205.436.376.632.55,2.5,2.211,5.011,4.407,7.484,6.646a1.374,1.374,0,0,1,.131,2.061c-5.074,5.745-10.805,10.452-18.82,11.22a12.107,12.107,0,0,1-13.24-10.589c-.1-.781-.532-.906-1.091-1.1A54.053,54.053,0,0,1,16.369,90.6c-1.054-1.779-1.93-3.667-2.83-5.533-.551-1.142-.315-1.978.527-2.334.869-.368,1.6.034,2.106,1.147a50.864,50.864,0,0,0,29.6,27.709c1.327.5,1.312.488,1.713-.8a10.888,10.888,0,0,1,3.373-5.365,2.67,2.67,0,0,0,.373-.494C34.521,99.418,24.4,88.042,20.521,70.965c-1.162,1.458-2.254,2.945-3.471,4.322C15.9,76.593,14.626,77.8,13.38,79.02a1.456,1.456,0,0,1-2.158.1C5.93,74.463,1.6,69.161.254,62c-1.395-7.448,3.086-13.773,10.494-14.9.8-.122.865-.631,1.048-1.166A52.786,52.786,0,0,1,30.813,19.779a103.384,103.384,0,0,1,9.815-5.864c1.146-.657,2.026-.408,2.427.453s0,1.582-1.217,2.159A51.04,51.04,0,0,0,14.773,46.189c-.1.267-.166.545-.284.936a12.966,12.966,0,0,1,7.047,4.118C27.1,34.629,38.4,24.492,55.4,20.551c-.385-.335-.729-.638-1.076-.938-1.838-1.59-3.7-3.155-5.5-4.781a6.3,6.3,0,0,1-1.487-1.854,1.88,1.88,0,0,1,.046-1.664C52.141,6.043,57.5,1.62,64.717.246a12.2,12.2,0,0,1,14.7,10.484c.107.713.515.847,1.043,1.028a54.06,54.06,0,0,1,26.3,19.026,50.079,50.079,0,0,1,6.355,11.037,2.369,2.369,0,0,1-.022,1.813c-.586,1.049-1.889.709-2.535-.509-1.515-2.856-2.876-5.82-4.656-8.5a50.177,50.177,0,0,0-25.989-20,4.638,4.638,0,0,0-.556-.1,13.108,13.108,0,0,1-4.107,7.019c16.664,5.57,26.81,16.863,30.7,33.847,1.132-1.4,2.206-2.857,3.414-4.191,1.169-1.291,2.465-2.47,3.727-3.675a1.491,1.491,0,0,1,2.243-.085c4.7,4.309,8.681,9.139,10.517,15.388,1.765,6.008-.023,11.523-4.845,14.625a18.134,18.134,0,0,1-4.931,1.912,1.673,1.673,0,0,0-1.377,1.224,53.935,53.935,0,0,1-18.991,26.19,53.163,53.163,0,0,1-10.827,6.293c-1.37.594-2.173.476-2.575-.364-.441-.922.013-1.662,1.368-2.273a51.636,51.636,0,0,0,27.546-28.692c.3-.733.539-1.488.857-2.371M24.921,50.325c-.419,1.577-.767,2.837-1.08,4.1a1.587,1.587,0,0,0,0,.853,14.152,14.152,0,0,1-.136,8.586,10.049,10.049,0,0,0-.589,4.362,43.417,43.417,0,0,0,2.612,10c5.2,12.42,14.369,20.389,27.248,24.146a4.594,4.594,0,0,0,2.334.253,16.07,16.07,0,0,1,10.161.615,3.761,3.761,0,0,0,1.587.213,35.814,35.814,0,0,0,12.386-3.211c2.386-1.138,4.681-2.465,7.085-3.742-.284-.418-.413-.631-.564-.828a10.867,10.867,0,0,1-2.244-7.885,16.323,16.323,0,0,1,4.1-9.446,8.129,8.129,0,0,0,2.057-6.137,4.8,4.8,0,0,0-3.775-4.625c-.49-.139-.985-.262-1.465-.43A8.641,8.641,0,0,1,78.5,59.333c-.117-4.364,2.171-7.39,5.872-9.34,3.654-1.925,7.646-1.879,11.631-1.472,1.678.171,3.341.491,5.375.8-1.232-2.426-2.358-4.574-3.418-6.755a4.417,4.417,0,0,0-3.42-2.683c-1.4-.233-2.762-.637-4.147-.935a10.348,10.348,0,0,0-9.327,2.006,22.6,22.6,0,0,1-5.374,3.059c-2.283.986-4.245.366-5.9-1.481-2.345-2.614-2.123-5.506-.834-8.46a28.56,28.56,0,0,1,6.093-8.316c.257-.265.5-.541.827-.892-2.194-.684-4.188-1.568-6.364-.595a2.23,2.23,0,0,1-.643.087,17.072,17.072,0,0,1-7.906-1.064,4.389,4.389,0,0,0-2.972.012c.222.511.389.911.569,1.305.09.2.209.382.305.577a29.152,29.152,0,0,1,3.384,11.868c.169,4.622-1.418,8.382-5.664,10.611a39.476,39.476,0,0,1-4.494,1.625,19.124,19.124,0,0,0-3.173,1.376,1.976,1.976,0,0,0-.772,2.674c.914,2.445,2.564,3.2,4.994,2.286,1.5-.564,2.955-1.259,4.49-1.679,4.116-1.124,8.859,2,9.626,6.214A6.744,6.744,0,0,1,65.945,65.2c-1.019,1.548-2.171,3.007-3.219,4.538a6.83,6.83,0,0,0-1.093,6.207,8.305,8.305,0,0,1,.317,2.478c-.005,5.016-2.156,9.209-5.17,13.027A15.468,15.468,0,0,1,49.7,96.9c-4.344,1.476-7.666-1.029-7.418-5.569a8.946,8.946,0,0,1,.152-1.3c.466-2.279.976-4.549,1.42-6.833a6.26,6.26,0,0,0-2.217-6.258c-1.149-1.006-2.325-1.986-3.411-3.057a6.453,6.453,0,0,1-2.063-5.618c.143-1.115.371-2.22.563-3.329.725-4.188-.533-6.382-4.511-7.872-.34-.127-.683-.252-1.017-.394a10.969,10.969,0,0,1-5.646-5.223c-.144-.28-.306-.551-.63-1.129M54.759,23.51c-2.726.977-5.418,1.75-7.949,2.883A39.8,39.8,0,0,0,27.554,44.372,3.438,3.438,0,0,0,27.1,45.91a8.667,8.667,0,0,0,5.956,8.405,13.94,13.94,0,0,1,3.632,1.935,6.634,6.634,0,0,1,2.946,5.457A48.032,48.032,0,0,1,39.1,67.76a4.346,4.346,0,0,0,1.254,4.16c.9.85,1.826,1.669,2.773,2.463a9.376,9.376,0,0,1,3.556,9.495c-.239,1.249-.554,2.484-.783,3.735a46.018,46.018,0,0,0-.729,4.62c-.1,1.28.491,1.845,1.742,2.08a4.884,4.884,0,0,0,3.678-1.04,20.275,20.275,0,0,0,7.226-9.1,12.141,12.141,0,0,0,.82-8.5,7.113,7.113,0,0,1,.445-5.118,36.586,36.586,0,0,1,2.3-3.941c.8-1.253,1.829-2.381,2.5-3.7a4.012,4.012,0,0,0,.351-2.686,5.1,5.1,0,0,0-6.729-3.266c-1.4.516-2.743,1.19-4.162,1.631a6.461,6.461,0,0,1-8.283-6.382c.082-2.738,1.879-4.153,4.168-5.042,1.485-.577,3.076-.877,4.581-1.407a7.687,7.687,0,0,0,5.538-7.554c.149-5.3-2.058-9.879-4.593-14.7M88.767,94.458a1.879,1.879,0,0,0,.3-.144,40.117,40.117,0,0,0,13.609-22.2,1.65,1.65,0,0,0,.005-.854c-1.14-3.382-.574-6.668.479-9.944a4.308,4.308,0,0,0,.287-1.8c-.278-2.051-.64-4.093-1.044-6.123a1.325,1.325,0,0,0-.783-.854,29.818,29.818,0,0,0-12.627-1.053c-3.238.531-5.836,2.052-7.166,5.207a5.379,5.379,0,0,0,1.1,6.062A8.278,8.278,0,0,0,87.2,64.971a6.765,6.765,0,0,1,4.767,3.977A10.423,10.423,0,0,1,90,80.24a14.133,14.133,0,0,0-3.068,5.836c-.759,3.056-.47,5.917,1.835,8.381M10.606,50.007c-.568.15-1.034.235-1.471.4a9.312,9.312,0,0,0-6.216,9.2,18.032,18.032,0,0,0,2.936,8.914A33.216,33.216,0,0,0,12.328,76.2l1.659-1.838c3.467-3.842,6.526-7.918,7.454-13.189a9.488,9.488,0,0,0-1.058-6.533,8.677,8.677,0,0,0-6.777-4.5,2.777,2.777,0,0,0,.472,1.582c1.128,1.283,2.346,2.487,3.528,3.723a6.965,6.965,0,0,1,.592.64,1.379,1.379,0,0,1-.094,1.97A1.252,1.252,0,0,1,16.176,58c-.946-.9-1.885-1.817-2.975-2.87,0,2.321-.022,4.383.009,6.444.017,1.161.2,2.326.142,3.48a1.781,1.781,0,0,1-.812,1.262,1.536,1.536,0,0,1-1.374-.192,2.065,2.065,0,0,1-.559-1.319c-.144-1.427-.193-2.863-.291-4.508-.584.413-.964.677-1.338.948-.411.3-.81.614-1.228.9-1,.688-1.884.632-2.388-.136-.483-.737-.238-1.558.7-2.209C7.219,59,8.415,58.233,9.56,57.4a1.523,1.523,0,0,0,.629-.922c.178-2.094.28-4.2.417-6.472m65.946-39.3c-.192-.653-.328-1.289-.564-1.885C74.164,4.21,69.424,1.96,64.2,3.294,58.834,4.668,54.682,8,50.823,11.784c-.534.523-.259.887.154,1.262a39.45,39.45,0,0,0,8.855,6.635,15.068,15.068,0,0,0,10.125,1.567c2.89-.617,6.067-3.939,6.385-6.785a.975.975,0,0,0-.472-.773,1.882,1.882,0,0,0-2.366.39c-1.234,1.278-2.575,2.453-3.9,3.645a1.775,1.775,0,0,1-2.385.164c-.571-.588-.409-1.5.411-2.285s1.666-1.573,2.5-2.36l-.078-.329c-1.4,0-2.8-.027-4.195.007-1.709.042-3.417.14-5.126.2-1.058.04-1.733-.472-1.786-1.332s.531-1.44,1.6-1.551c.506-.052,1.017-.05,1.526-.076.922-.048,1.845-.1,2.957-.157C64.35,8.986,63.772,8.156,63.23,7.3a1.473,1.473,0,0,1,.285-2.2,1.524,1.524,0,0,1,2.142.627c.827,1.2,1.6,2.433,2.461,3.6a1.808,1.808,0,0,0,1.089.706c2.379.263,4.768.444,7.345.669M115.911,76.5c.426-.109.879-.193,1.311-.34,4.77-1.618,7.289-6.315,6.083-11.568-1.323-5.76-4.934-10.1-9.088-14.286-1.09,1.151-2.175,2.17-3.113,3.309-2.858,3.472-5.464,7.078-6.052,11.74a9.758,9.758,0,0,0,2.377,8.3,9.011,9.011,0,0,0,5.189,2.837,2.8,2.8,0,0,0-.729-3.775,37.844,37.844,0,0,1-3.413-3.506,1.318,1.318,0,0,1-.026-1.957,1.336,1.336,0,0,1,1.873-.178,5.2,5.2,0,0,1,.707.677c.739.746,1.475,1.494,2.376,2.406.043-.513.083-.722.074-.93-.119-2.938-.248-5.876-.364-8.815a1.433,1.433,0,0,1,1.3-1.688c.822-.059,1.348.5,1.454,1.5.154,1.47.319,2.939.492,4.525.876-.62,1.688-1.211,2.516-1.779.943-.646,1.8-.581,2.3.15s.272,1.565-.643,2.225c-1.15.83-2.326,1.624-3.462,2.471-.3.22-.671.567-.7.881-.2,2.56-.323,5.125-.476,7.8M61.849,116.085c.725.969,1.32,1.742,1.891,2.531a1.473,1.473,0,1,1-2.3,1.758c-.844-1.094-1.7-2.18-2.493-3.311a1.775,1.775,0,0,0-1.62-.819c-2.106-.039-4.21-.2-6.315-.312-.3-.016-.607,0-.991,0,.112.463.176.82.285,1.162a9.266,9.266,0,0,0,8.772,6.5c4.522.036,8.312-1.916,11.79-4.542,1.863-1.406,3.55-3.046,5.324-4.586a10.251,10.251,0,0,0-.84-1.06c-3.695-3.422-7.535-6.612-12.534-8-4.558-1.266-8.576-.266-11.385,3.643a18.369,18.369,0,0,0-1.577,3.594l.315.432a12.733,12.733,0,0,0,2.707-.334c.513-.172.843-.862,1.278-1.3,1.054-1.051,2.078-2.139,3.209-3.1a1.563,1.563,0,0,1,1.444-.207,1.989,1.989,0,0,1,.66,1.43,2.051,2.051,0,0,1-.639,1.186c-.731.827-1.522,1.6-2.5,2.612.783,0,1.244.026,1.7,0,2.749-.181,5.5-.385,8.245-.548a1.262,1.262,0,0,1,.967.284c.275.4.6,1.052.451,1.4a2.072,2.072,0,0,1-1.3,1.07c-1.418.274-2.874.348-4.552.526M93.3,36.367a2.517,2.517,0,0,0-.247-.374,38.98,38.98,0,0,0-13.445-9.636,1.448,1.448,0,0,0-1.284.293c-1.54,1.589-3.074,3.194-4.47,4.909A13.014,13.014,0,0,0,71,37.13a3.716,3.716,0,0,0,1.489,3.946c1.147.871,2.319.388,3.364-.234,1.715-1.02,3.417-2.075,5.035-3.239a9.2,9.2,0,0,1,5.921-1.832c2.163.1,4.318.388,6.5.6" transform="translate(0 0)" fill="#677987"/>
      </g>
    </g>
  </g>
</svg>
