<svg id="Grupo_874461" data-name="Grupo 874461" xmlns="http://www.w3.org/2000/svg" xmlns:xlink="http://www.w3.org/1999/xlink" width="1328" height="741.582" viewBox="0 0 1328 741.582">
  <defs>
    <linearGradient id="linear-gradient" x1="0.5" x2="0.5" y2="1" gradientUnits="objectBoundingBox">
      <stop offset="0" stop-color="#fff"/>
      <stop offset="1" stop-color="#fff0f8"/>
    </linearGradient>
    <linearGradient id="linear-gradient-2" y1="1" y2="0" xlink:href="#linear-gradient"/>
    <clipPath id="clip-path">
      <rect id="Rectángulo_42710" data-name="Rectángulo 42710" width="466.305" height="376.981" fill="#fff"/>
    </clipPath>
  </defs>
  <g id="Grupo_870592" data-name="Grupo 870592">
    <path id="Trazado_217912" data-name="Trazado 217912" d="M1328,0H0V741.582H1328Z" fill="#fff0f8"/>
    <rect id="Rectángulo_42708" data-name="Rectángulo 42708" width="1328" height="77" fill="url(#linear-gradient)"/>
    <rect id="Rectángulo_42709" data-name="Rectángulo 42709" width="1328" height="77" transform="translate(0 664.426)" fill="url(#linear-gradient-2)"/>
  </g>
  <g id="Grupo_870594" data-name="Grupo 870594" transform="translate(861.695)">
    <g id="Grupo_870593" data-name="Grupo 870593" clip-path="url(#clip-path)">
      <path id="Trazado_212654" data-name="Trazado 212654" d="M6.429,11.461C2.879,11.461,0,8.926,0,5.8S2.879.139,6.429.139,12.857,2.674,12.857,5.8s-2.879,5.661-6.429,5.661" transform="translate(453.448 -0.045)" fill="#fff"/>
      <path id="Trazado_212655" data-name="Trazado 212655" d="M28.41,11.51c-3.609,0-6.535-2.577-6.535-5.755S24.8,0,28.41,0s6.535,2.576,6.535,5.755S32.019,11.51,28.41,11.51" transform="translate(412.308 0)" fill="#fff"/>
      <path id="Trazado_212656" data-name="Trazado 212656" d="M50.424,11.461C46.874,11.461,44,8.926,44,5.8S46.874.139,50.424.139,56.852,2.674,56.852,5.8s-2.879,5.661-6.429,5.661" transform="translate(371.134 -0.045)" fill="#fff"/>
      <path id="Trazado_212657" data-name="Trazado 212657" d="M72.452,9.133c-3.433,0-6.216-1.952-6.216-4.359S69.02.414,72.452.414s6.216,1.952,6.216,4.36-2.783,4.359-6.216,4.359" transform="translate(329.947 -0.133)" fill="#fff"/>
      <path id="Trazado_212658" data-name="Trazado 212658" d="M94.49,11.239c-3.286,0-5.951-2.346-5.951-5.24S91.2.759,94.49.759,100.44,3.1,100.44,6s-2.664,5.24-5.951,5.24" transform="translate(288.75 -0.244)" fill="#fff"/>
      <path id="Trazado_212659" data-name="Trazado 212659" d="M116.534,11.091c-3.11,0-5.632-2.22-5.632-4.959s2.521-4.959,5.632-4.959,5.632,2.22,5.632,4.959-2.521,4.959-5.632,4.959" transform="translate(247.546 -0.377)" fill="#fff"/>
      <path id="Trazado_212660" data-name="Trazado 212660" d="M138.571,10.968c-2.963,0-5.366-2.115-5.366-4.725s2.4-4.726,5.366-4.726,5.366,2.116,5.366,4.726-2.4,4.725-5.366,4.725" transform="translate(206.349 -0.488)" fill="#fff"/>
      <path id="Trazado_212661" data-name="Trazado 212661" d="M160.615,10.82c-2.787,0-5.047-1.99-5.047-4.444s2.26-4.445,5.047-4.445,5.047,1.99,5.047,4.445-2.26,4.444-5.047,4.444" transform="translate(165.146 -0.621)" fill="#fff"/>
      <path id="Trazado_212662" data-name="Trazado 212662" d="M182.653,10.7a4.523,4.523,0,0,1-4.782-4.211,4.82,4.82,0,0,1,9.563,0,4.524,4.524,0,0,1-4.782,4.211" transform="translate(123.949 -0.731)" fill="#fff"/>
      <path id="Trazado_212663" data-name="Trazado 212663" d="M204.7,10.55a4.222,4.222,0,0,1-4.463-3.93,4.5,4.5,0,0,1,8.926,0,4.222,4.222,0,0,1-4.463,3.93" transform="translate(82.746 -0.865)" fill="#fff"/>
      <path id="Trazado_212664" data-name="Trazado 212664" d="M226.734,10.426a3.971,3.971,0,0,1-4.2-3.7,4.231,4.231,0,0,1,8.395,0,3.971,3.971,0,0,1-4.2,3.7" transform="translate(41.549 -0.975)" fill="#fff"/>
      <path id="Trazado_212665" data-name="Trazado 212665" d="M248.778,10.278A3.669,3.669,0,0,1,244.9,6.862a3.91,3.91,0,0,1,7.757,0,3.669,3.669,0,0,1-3.878,3.415" transform="translate(0.346 -1.108)" fill="#fff"/>
      <path id="Trazado_212666" data-name="Trazado 212666" d="M270.816,10.156A3.418,3.418,0,0,1,267.2,6.974a3.642,3.642,0,0,1,7.226,0,3.418,3.418,0,0,1-3.613,3.181" transform="translate(-40.851 -1.219)" fill="#fff"/>
      <path id="Trazado_212667" data-name="Trazado 212667" d="M292.86,10.007a3.116,3.116,0,0,1-3.294-2.9,3.321,3.321,0,0,1,6.588,0,3.116,3.116,0,0,1-3.294,2.9" transform="translate(-82.055 -1.352)" fill="#fff"/>
      <path id="Trazado_212668" data-name="Trazado 212668" d="M314.9,9.884a2.865,2.865,0,0,1-3.028-2.667,3.053,3.053,0,0,1,6.057,0A2.865,2.865,0,0,1,314.9,9.884" transform="translate(-123.25 -1.462)" fill="#fff"/>
      <path id="Trazado_212669" data-name="Trazado 212669" d="M336.942,9.737a2.563,2.563,0,0,1-2.71-2.386,2.732,2.732,0,0,1,5.419,0,2.563,2.563,0,0,1-2.71,2.386" transform="translate(-164.455 -1.596)" fill="#fff"/>
      <path id="Trazado_212670" data-name="Trazado 212670" d="M358.978,9.613a2.312,2.312,0,0,1-2.444-2.152,2.464,2.464,0,0,1,4.888,0,2.312,2.312,0,0,1-2.444,2.152" transform="translate(-205.65 -1.706)" fill="#fff"/>
      <path id="Trazado_212671" data-name="Trazado 212671" d="M381.023,9.465A2.01,2.01,0,0,1,378.9,7.594a2.142,2.142,0,0,1,4.25,0,2.01,2.01,0,0,1-2.125,1.872" transform="translate(-246.855 -1.839)" fill="#fff"/>
      <path id="Trazado_212672" data-name="Trazado 212672" d="M403.067,9.317a1.709,1.709,0,0,1-1.806-1.591,1.821,1.821,0,0,1,3.613,0,1.708,1.708,0,0,1-1.806,1.591" transform="translate(-288.058 -1.972)" fill="#fff"/>
      <path id="Trazado_212673" data-name="Trazado 212673" d="M425.1,9.195a1.457,1.457,0,0,1-1.541-1.357,1.553,1.553,0,0,1,3.082,0A1.457,1.457,0,0,1,425.1,9.195" transform="translate(-329.255 -2.083)" fill="#fff"/>
      <path id="Trazado_212674" data-name="Trazado 212674" d="M447.149,9.047a1.156,1.156,0,0,1-1.222-1.076,1.232,1.232,0,0,1,2.444,0,1.156,1.156,0,0,1-1.222,1.076" transform="translate(-370.458 -2.216)" fill="#fff"/>
      <path id="Trazado_212675" data-name="Trazado 212675" d="M469.186,8.923a.905.905,0,0,1-.956-.842.964.964,0,0,1,1.913,0,.905.905,0,0,1-.956.842" transform="translate(-411.656 -2.327)" fill="#fff"/>
      <path id="Trazado_212676" data-name="Trazado 212676" d="M491.23,8.776a.566.566,0,1,1,.638-.561.6.6,0,0,1-.638.561" transform="translate(-452.859 -2.46)" fill="#fff"/>
      <path id="Trazado_212677" data-name="Trazado 212677" d="M513.268,8.653a.33.33,0,1,1,.372-.328.352.352,0,0,1-.372.328" transform="translate(-494.056 -2.571)" fill="#fff"/>
      <path id="Trazado_212678" data-name="Trazado 212678" d="M535.312,8.5a.05.05,0,0,1-.053-.046.054.054,0,1,1,.053.046" transform="translate(-535.259 -2.704)" fill="#fff"/>
      <path id="Trazado_212679" data-name="Trazado 212679" d="M6.468,36.2c-3.4,0-6.163-2.43-6.163-5.427s2.759-5.427,6.163-5.427,6.163,2.43,6.163,5.427S9.872,36.2,6.468,36.2" transform="translate(453.408 -8.146)" fill="#fff"/>
      <path id="Trazado_212680" data-name="Trazado 212680" d="M28.449,36.249c-3.462,0-6.269-2.471-6.269-5.52s2.807-5.521,6.269-5.521,6.269,2.472,6.269,5.521-2.807,5.52-6.269,5.52" transform="translate(412.268 -8.102)" fill="#fff"/>
      <path id="Trazado_212681" data-name="Trazado 212681" d="M50.455,36.225c-3.433,0-6.216-2.451-6.216-5.474s2.784-5.474,6.216-5.474,6.216,2.451,6.216,5.474-2.783,5.474-6.216,5.474" transform="translate(371.103 -8.124)" fill="#fff"/>
      <path id="Trazado_212682" data-name="Trazado 212682" d="M72.484,36.126c-3.316,0-6-2.367-6-5.287s2.688-5.286,6-5.286,6,2.366,6,5.286-2.688,5.287-6,5.287" transform="translate(329.915 -8.213)" fill="#fff"/>
      <path id="Trazado_212683" data-name="Trazado 212683" d="M94.513,36.028c-3.2,0-5.791-2.283-5.791-5.1s2.593-5.1,5.791-5.1,5.791,2.283,5.791,5.1-2.593,5.1-5.791,5.1" transform="translate(288.726 -8.301)" fill="#fff"/>
      <path id="Trazado_212684" data-name="Trazado 212684" d="M116.549,35.9c-3.052,0-5.525-2.178-5.525-4.866s2.474-4.866,5.525-4.866,5.525,2.178,5.525,4.866S119.6,35.9,116.549,35.9" transform="translate(247.531 -8.412)" fill="#fff"/>
      <path id="Trazado_212685" data-name="Trazado 212685" d="M138.587,35.782c-2.9,0-5.26-2.074-5.26-4.631s2.355-4.632,5.26-4.632,5.26,2.074,5.26,4.632-2.355,4.631-5.26,4.631" transform="translate(206.334 -8.523)" fill="#fff"/>
      <path id="Trazado_212686" data-name="Trazado 212686" d="M160.623,35.658c-2.758,0-4.994-1.969-4.994-4.4s2.236-4.4,4.994-4.4,4.994,1.969,4.994,4.4-2.236,4.4-4.994,4.4" transform="translate(165.138 -8.633)" fill="#fff"/>
      <path id="Trazado_212687" data-name="Trazado 212687" d="M182.661,35.535a4.473,4.473,0,0,1-4.729-4.164,4.767,4.767,0,0,1,9.457,0,4.473,4.473,0,0,1-4.729,4.164" transform="translate(123.941 -8.744)" fill="#fff"/>
      <path id="Trazado_212688" data-name="Trazado 212688" d="M204.7,35.387a4.172,4.172,0,0,1-4.41-3.883,4.445,4.445,0,0,1,8.82,0,4.172,4.172,0,0,1-4.41,3.883" transform="translate(82.738 -8.877)" fill="#fff"/>
      <path id="Trazado_212689" data-name="Trazado 212689" d="M226.742,35.264a3.92,3.92,0,0,1-4.144-3.65,4.178,4.178,0,0,1,8.288,0,3.92,3.92,0,0,1-4.144,3.65" transform="translate(41.541 -8.988)" fill="#fff"/>
      <path id="Trazado_212690" data-name="Trazado 212690" d="M248.786,35.116a3.619,3.619,0,0,1-3.825-3.369,3.856,3.856,0,0,1,7.651,0,3.619,3.619,0,0,1-3.825,3.369" transform="translate(0.338 -9.121)" fill="#fff"/>
      <path id="Trazado_212691" data-name="Trazado 212691" d="M270.824,34.993a3.368,3.368,0,0,1-3.56-3.134,3.589,3.589,0,0,1,7.119,0,3.368,3.368,0,0,1-3.56,3.134" transform="translate(-40.859 -9.232)" fill="#fff"/>
      <path id="Trazado_212692" data-name="Trazado 212692" d="M292.868,34.846a3.066,3.066,0,0,1-3.241-2.854,3.267,3.267,0,0,1,6.482,0,3.066,3.066,0,0,1-3.241,2.854" transform="translate(-82.062 -9.365)" fill="#fff"/>
      <path id="Trazado_212693" data-name="Trazado 212693" d="M314.9,34.722a2.815,2.815,0,0,1-2.975-2.62,3,3,0,0,1,5.951,0,2.815,2.815,0,0,1-2.975,2.62" transform="translate(-123.258 -9.476)" fill="#fff"/>
      <path id="Trazado_212694" data-name="Trazado 212694" d="M336.942,34.6a2.563,2.563,0,0,1-2.71-2.386,2.732,2.732,0,0,1,5.419,0,2.563,2.563,0,0,1-2.71,2.386" transform="translate(-164.455 -9.586)" fill="#fff"/>
      <path id="Trazado_212695" data-name="Trazado 212695" d="M358.986,34.452a2.122,2.122,0,1,1,2.391-2.106,2.262,2.262,0,0,1-2.391,2.106" transform="translate(-205.658 -9.719)" fill="#fff"/>
      <path id="Trazado_212696" data-name="Trazado 212696" d="M381.031,34.3a1.84,1.84,0,1,1,2.072-1.825,1.96,1.96,0,0,1-2.072,1.825" transform="translate(-246.863 -9.852)" fill="#fff"/>
      <path id="Trazado_212697" data-name="Trazado 212697" d="M403.067,34.18a1.6,1.6,0,1,1,1.806-1.591,1.709,1.709,0,0,1-1.806,1.591" transform="translate(-288.058 -9.963)" fill="#fff"/>
      <path id="Trazado_212698" data-name="Trazado 212698" d="M425.113,34.032a1.321,1.321,0,1,1,1.488-1.31,1.407,1.407,0,0,1-1.488,1.31" transform="translate(-329.263 -10.096)" fill="#fff"/>
      <path id="Trazado_212699" data-name="Trazado 212699" d="M447.149,33.91a1.085,1.085,0,1,1,1.222-1.076,1.156,1.156,0,0,1-1.222,1.076" transform="translate(-370.458 -10.207)" fill="#fff"/>
      <path id="Trazado_212700" data-name="Trazado 212700" d="M469.194,33.762a.8.8,0,1,1,.9-.8.854.854,0,0,1-.9.8" transform="translate(-411.663 -10.34)" fill="#fff"/>
      <path id="Trazado_212701" data-name="Trazado 212701" d="M491.23,33.638a.566.566,0,1,1,.638-.561.6.6,0,0,1-.638.561" transform="translate(-452.859 -10.451)" fill="#fff"/>
      <path id="Trazado_212702" data-name="Trazado 212702" d="M513.276,33.491a.283.283,0,1,1,.319-.281.3.3,0,0,1-.319.281" transform="translate(-494.064 -10.584)" fill="#fff"/>
      <path id="Trazado_212703" data-name="Trazado 212703" d="M535.312,33.368a.047.047,0,1,1,.053-.047.05.05,0,0,1-.053.047" transform="translate(-535.259 -10.694)" fill="#fff"/>
      <path id="Trazado_212704" data-name="Trazado 212704" d="M6.507,60.94c-3.257,0-5.9-2.325-5.9-5.193s2.641-5.193,5.9-5.193,5.9,2.325,5.9,5.193-2.64,5.193-5.9,5.193" transform="translate(453.369 -16.248)" fill="#fff"/>
      <path id="Trazado_212705" data-name="Trazado 212705" d="M28.5,60.965c-3.286,0-5.951-2.346-5.951-5.24s2.664-5.239,5.951-5.239,5.951,2.346,5.951,5.239-2.664,5.24-5.951,5.24" transform="translate(412.221 -16.226)" fill="#fff"/>
      <path id="Trazado_212706" data-name="Trazado 212706" d="M50.495,60.965c-3.286,0-5.951-2.346-5.951-5.24s2.664-5.239,5.951-5.239,5.951,2.346,5.951,5.239-2.664,5.24-5.951,5.24" transform="translate(371.063 -16.226)" fill="#fff"/>
      <path id="Trazado_212707" data-name="Trazado 212707" d="M72.515,60.89c-3.2,0-5.791-2.283-5.791-5.1s2.593-5.1,5.791-5.1,5.791,2.283,5.791,5.1-2.593,5.1-5.791,5.1" transform="translate(329.884 -16.292)" fill="#fff"/>
      <path id="Trazado_212708" data-name="Trazado 212708" d="M94.537,60.816c-3.11,0-5.632-2.22-5.632-4.959S91.426,50.9,94.537,50.9s5.632,2.22,5.632,4.959-2.521,4.959-5.632,4.959" transform="translate(288.702 -16.359)" fill="#fff"/>
      <path id="Trazado_212709" data-name="Trazado 212709" d="M116.565,60.717c-2.993,0-5.419-2.136-5.419-4.772s2.427-4.773,5.419-4.773,5.419,2.137,5.419,4.773-2.427,4.772-5.419,4.772" transform="translate(247.515 -16.447)" fill="#fff"/>
      <path id="Trazado_212710" data-name="Trazado 212710" d="M138.6,60.594c-2.846,0-5.154-2.032-5.154-4.538s2.307-4.538,5.154-4.538,5.154,2.032,5.154,4.538-2.307,4.538-5.154,4.538" transform="translate(206.318 -16.558)" fill="#fff"/>
      <path id="Trazado_212711" data-name="Trazado 212711" d="M160.639,60.472a4.624,4.624,0,0,1-4.888-4.3,4.927,4.927,0,0,1,9.776,0,4.624,4.624,0,0,1-4.888,4.3" transform="translate(165.123 -16.669)" fill="#fff"/>
      <path id="Trazado_212712" data-name="Trazado 212712" d="M182.676,60.348a4.372,4.372,0,0,1-4.622-4.07,4.66,4.66,0,0,1,9.245,0,4.372,4.372,0,0,1-4.622,4.07" transform="translate(123.925 -16.78)" fill="#fff"/>
      <path id="Trazado_212713" data-name="Trazado 212713" d="M204.721,60.2a3.82,3.82,0,1,1,4.3-3.789,4.071,4.071,0,0,1-4.3,3.789" transform="translate(82.722 -16.912)" fill="#fff"/>
      <path id="Trazado_212714" data-name="Trazado 212714" d="M226.758,60.078a3.585,3.585,0,1,1,4.038-3.556,3.82,3.82,0,0,1-4.038,3.556" transform="translate(41.525 -17.023)" fill="#fff"/>
      <path id="Trazado_212715" data-name="Trazado 212715" d="M248.794,59.954a3.349,3.349,0,1,1,3.772-3.322,3.568,3.568,0,0,1-3.772,3.322" transform="translate(0.33 -17.134)" fill="#fff"/>
      <path id="Trazado_212716" data-name="Trazado 212716" d="M270.832,59.831a3.113,3.113,0,1,1,3.507-3.088,3.317,3.317,0,0,1-3.507,3.088" transform="translate(-40.867 -17.245)" fill="#fff"/>
      <path id="Trazado_212717" data-name="Trazado 212717" d="M292.876,59.683a2.83,2.83,0,1,1,3.188-2.807,3.016,3.016,0,0,1-3.188,2.807" transform="translate(-82.07 -17.378)" fill="#fff"/>
      <path id="Trazado_212718" data-name="Trazado 212718" d="M314.912,59.561a2.594,2.594,0,1,1,2.922-2.573,2.764,2.764,0,0,1-2.922,2.573" transform="translate(-123.266 -17.489)" fill="#fff"/>
      <path id="Trazado_212719" data-name="Trazado 212719" d="M336.957,59.413a2.311,2.311,0,1,1,2.6-2.292,2.463,2.463,0,0,1-2.6,2.292" transform="translate(-164.471 -17.622)" fill="#fff"/>
      <path id="Trazado_212720" data-name="Trazado 212720" d="M358.994,59.289a2.075,2.075,0,1,1,2.338-2.059,2.212,2.212,0,0,1-2.338,2.059" transform="translate(-205.666 -17.732)" fill="#fff"/>
      <path id="Trazado_212721" data-name="Trazado 212721" d="M381.039,59.142a1.792,1.792,0,1,1,2.019-1.778,1.91,1.91,0,0,1-2.019,1.778" transform="translate(-246.871 -17.865)" fill="#fff"/>
      <path id="Trazado_212722" data-name="Trazado 212722" d="M403.075,59.018a1.557,1.557,0,1,1,1.753-1.544,1.659,1.659,0,0,1-1.753,1.544" transform="translate(-288.066 -17.976)" fill="#fff"/>
      <path id="Trazado_212723" data-name="Trazado 212723" d="M425.12,58.87a1.273,1.273,0,1,1,1.435-1.263,1.357,1.357,0,0,1-1.435,1.263" transform="translate(-329.271 -18.109)" fill="#fff"/>
      <path id="Trazado_212724" data-name="Trazado 212724" d="M447.157,58.748a1.038,1.038,0,1,1,1.169-1.029,1.106,1.106,0,0,1-1.169,1.029" transform="translate(-370.466 -18.22)" fill="#fff"/>
      <path id="Trazado_212725" data-name="Trazado 212725" d="M469.194,58.625a.8.8,0,1,1,.9-.8.854.854,0,0,1-.9.8" transform="translate(-411.663 -18.331)" fill="#fff"/>
      <path id="Trazado_212726" data-name="Trazado 212726" d="M491.238,58.476a.519.519,0,1,1,.584-.514.552.552,0,0,1-.584.514" transform="translate(-452.867 -18.464)" fill="#fff"/>
      <path id="Trazado_212727" data-name="Trazado 212727" d="M513.276,58.354a.283.283,0,1,1,.319-.281.3.3,0,0,1-.319.281" transform="translate(-494.064 -18.575)" fill="#fff"/>
      <path id="Trazado_212728" data-name="Trazado 212728" d="M535.312,58.231a.047.047,0,1,1,.053-.047.05.05,0,0,1-.053.047" transform="translate(-535.259 -18.685)" fill="#fff"/>
      <path id="Trazado_212729" data-name="Trazado 212729" d="M6.547,85.679c-3.11,0-5.632-2.22-5.632-4.959s2.521-4.959,5.632-4.959,5.632,2.22,5.632,4.959-2.521,4.959-5.632,4.959" transform="translate(453.33 -24.35)" fill="#fff"/>
      <path id="Trazado_212730" data-name="Trazado 212730" d="M28.536,85.7c-3.14,0-5.685-2.241-5.685-5.006s2.545-5.006,5.685-5.006,5.685,2.241,5.685,5.006S31.676,85.7,28.536,85.7" transform="translate(412.182 -24.327)" fill="#fff"/>
      <path id="Trazado_212731" data-name="Trazado 212731" d="M50.542,85.679c-3.11,0-5.632-2.22-5.632-4.959s2.521-4.959,5.632-4.959,5.632,2.22,5.632,4.959-2.521,4.959-5.632,4.959" transform="translate(371.016 -24.35)" fill="#fff"/>
      <path id="Trazado_212732" data-name="Trazado 212732" d="M72.554,85.63c-3.052,0-5.525-2.178-5.525-4.866S69.5,75.9,72.554,75.9s5.525,2.178,5.525,4.866-2.474,4.866-5.525,4.866" transform="translate(329.844 -24.394)" fill="#fff"/>
      <path id="Trazado_212733" data-name="Trazado 212733" d="M94.568,85.581c-2.993,0-5.419-2.136-5.419-4.772s2.427-4.773,5.419-4.773,5.419,2.137,5.419,4.773-2.427,4.772-5.419,4.772" transform="translate(288.671 -24.438)" fill="#fff"/>
      <path id="Trazado_212734" data-name="Trazado 212734" d="M116.6,85.482c-2.876,0-5.207-2.053-5.207-4.585s2.331-4.585,5.207-4.585S121.8,78.365,121.8,80.9s-2.331,4.585-5.207,4.585" transform="translate(247.484 -24.527)" fill="#fff"/>
      <path id="Trazado_212735" data-name="Trazado 212735" d="M138.626,85.383c-2.758,0-4.994-1.969-4.994-4.4s2.236-4.4,4.994-4.4,4.994,1.969,4.994,4.4-2.236,4.4-4.994,4.4" transform="translate(206.294 -24.615)" fill="#fff"/>
      <path id="Trazado_212736" data-name="Trazado 212736" d="M160.663,85.26a4.2,4.2,0,1,1,4.729-4.164,4.473,4.473,0,0,1-4.729,4.164" transform="translate(165.099 -24.726)" fill="#fff"/>
      <path id="Trazado_212737" data-name="Trazado 212737" d="M182.7,85.138a3.962,3.962,0,1,1,4.463-3.93,4.222,4.222,0,0,1-4.463,3.93" transform="translate(123.902 -24.837)" fill="#fff"/>
      <path id="Trazado_212738" data-name="Trazado 212738" d="M204.736,85.014a3.726,3.726,0,1,1,4.2-3.7,3.971,3.971,0,0,1-4.2,3.7" transform="translate(82.707 -24.948)" fill="#fff"/>
      <path id="Trazado_212739" data-name="Trazado 212739" d="M226.774,84.89a3.49,3.49,0,1,1,3.932-3.462,3.719,3.719,0,0,1-3.932,3.462" transform="translate(41.509 -25.058)" fill="#fff"/>
      <path id="Trazado_212740" data-name="Trazado 212740" d="M248.81,84.768a3.254,3.254,0,1,1,3.666-3.228,3.468,3.468,0,0,1-3.666,3.228" transform="translate(0.314 -25.17)" fill="#fff"/>
      <path id="Trazado_212741" data-name="Trazado 212741" d="M270.847,84.645a3.019,3.019,0,1,1,3.4-2.994,3.217,3.217,0,0,1-3.4,2.994" transform="translate(-40.883 -25.28)" fill="#fff"/>
      <path id="Trazado_212742" data-name="Trazado 212742" d="M292.884,84.521a2.783,2.783,0,1,1,3.135-2.761,2.966,2.966,0,0,1-3.135,2.761" transform="translate(-82.078 -25.391)" fill="#fff"/>
      <path id="Trazado_212743" data-name="Trazado 212743" d="M314.928,84.374a2.5,2.5,0,1,1,2.816-2.48,2.664,2.664,0,0,1-2.816,2.48" transform="translate(-123.281 -25.524)" fill="#fff"/>
      <path id="Trazado_212744" data-name="Trazado 212744" d="M336.965,84.251a2.264,2.264,0,1,1,2.55-2.245,2.413,2.413,0,0,1-2.55,2.245" transform="translate(-164.478 -25.635)" fill="#fff"/>
      <path id="Trazado_212745" data-name="Trazado 212745" d="M359,84.127a2.028,2.028,0,1,1,2.285-2.012A2.161,2.161,0,0,1,359,84.127" transform="translate(-205.674 -25.746)" fill="#fff"/>
      <path id="Trazado_212746" data-name="Trazado 212746" d="M381.047,83.98a1.745,1.745,0,1,1,1.966-1.731,1.86,1.86,0,0,1-1.966,1.731" transform="translate(-246.879 -25.879)" fill="#fff"/>
      <path id="Trazado_212747" data-name="Trazado 212747" d="M403.083,83.857a1.509,1.509,0,1,1,1.7-1.5,1.608,1.608,0,0,1-1.7,1.5" transform="translate(-288.074 -25.989)" fill="#fff"/>
      <path id="Trazado_212748" data-name="Trazado 212748" d="M425.128,83.709a1.226,1.226,0,1,1,1.381-1.217,1.307,1.307,0,0,1-1.381,1.217" transform="translate(-329.279 -26.122)" fill="#fff"/>
      <path id="Trazado_212749" data-name="Trazado 212749" d="M447.165,83.585a.991.991,0,1,1,1.116-.983,1.056,1.056,0,0,1-1.116.983" transform="translate(-370.474 -26.233)" fill="#fff"/>
      <path id="Trazado_212750" data-name="Trazado 212750" d="M469.2,83.463a.755.755,0,1,1,.85-.748.8.8,0,0,1-.85.748" transform="translate(-411.671 -26.344)" fill="#fff"/>
      <path id="Trazado_212751" data-name="Trazado 212751" d="M491.246,83.315a.472.472,0,1,1,.531-.468.5.5,0,0,1-.531.468" transform="translate(-452.874 -26.477)" fill="#fff"/>
      <path id="Trazado_212752" data-name="Trazado 212752" d="M513.284,83.192a.236.236,0,1,1,.266-.234.251.251,0,0,1-.266.234" transform="translate(-494.072 -26.588)" fill="#fff"/>
      <path id="Trazado_212753" data-name="Trazado 212753" d="M6.586,110.418c-2.963,0-5.366-2.115-5.366-4.725s2.4-4.726,5.366-4.726,5.366,2.116,5.366,4.726-2.4,4.725-5.366,4.725" transform="translate(453.29 -32.451)" fill="#fff"/>
      <path id="Trazado_212754" data-name="Trazado 212754" d="M28.583,110.418c-2.963,0-5.366-2.115-5.366-4.725s2.4-4.726,5.366-4.726,5.366,2.116,5.366,4.726-2.4,4.725-5.366,4.725" transform="translate(412.134 -32.451)" fill="#fff"/>
      <path id="Trazado_212755" data-name="Trazado 212755" d="M50.581,110.418c-2.963,0-5.366-2.115-5.366-4.725s2.4-4.726,5.366-4.726,5.366,2.116,5.366,4.726-2.4,4.725-5.366,4.725" transform="translate(370.977 -32.451)" fill="#fff"/>
      <path id="Trazado_212756" data-name="Trazado 212756" d="M72.594,110.37c-2.9,0-5.26-2.074-5.26-4.631s2.355-4.632,5.26-4.632,5.26,2.074,5.26,4.632-2.355,4.631-5.26,4.631" transform="translate(329.805 -32.496)" fill="#fff"/>
      <path id="Trazado_212757" data-name="Trazado 212757" d="M94.608,110.32c-2.846,0-5.154-2.032-5.154-4.538s2.307-4.538,5.154-4.538,5.154,2.032,5.154,4.538-2.307,4.538-5.154,4.538" transform="translate(288.632 -32.54)" fill="#fff"/>
      <path id="Trazado_212758" data-name="Trazado 212758" d="M116.628,110.246c-2.758,0-4.994-1.969-4.994-4.4s2.236-4.4,4.994-4.4,4.994,1.969,4.994,4.4-2.236,4.4-4.994,4.4" transform="translate(247.452 -32.606)" fill="#fff"/>
      <path id="Trazado_212759" data-name="Trazado 212759" d="M138.658,110.147a4.245,4.245,0,1,1,4.782-4.211,4.524,4.524,0,0,1-4.782,4.211" transform="translate(206.263 -32.695)" fill="#fff"/>
      <path id="Trazado_212760" data-name="Trazado 212760" d="M160.686,110.05a4.056,4.056,0,1,1,4.569-4.023,4.323,4.323,0,0,1-4.569,4.023" transform="translate(165.075 -32.784)" fill="#fff"/>
      <path id="Trazado_212761" data-name="Trazado 212761" d="M182.724,109.926a3.82,3.82,0,1,1,4.3-3.789,4.071,4.071,0,0,1-4.3,3.789" transform="translate(123.878 -32.894)" fill="#fff"/>
      <path id="Trazado_212762" data-name="Trazado 212762" d="M204.752,109.828a3.632,3.632,0,1,1,4.091-3.6,3.87,3.87,0,0,1-4.091,3.6" transform="translate(82.691 -32.983)" fill="#fff"/>
      <path id="Trazado_212763" data-name="Trazado 212763" d="M226.789,109.7a3.4,3.4,0,1,1,3.825-3.369,3.619,3.619,0,0,1-3.825,3.369" transform="translate(41.494 -33.094)" fill="#fff"/>
      <path id="Trazado_212764" data-name="Trazado 212764" d="M248.826,109.582a3.16,3.16,0,1,1,3.56-3.134,3.368,3.368,0,0,1-3.56,3.134" transform="translate(0.298 -33.205)" fill="#fff"/>
      <path id="Trazado_212765" data-name="Trazado 212765" d="M270.863,109.458a2.924,2.924,0,1,1,3.294-2.9,3.116,3.116,0,0,1-3.294,2.9" transform="translate(-40.899 -33.315)" fill="#fff"/>
      <path id="Trazado_212766" data-name="Trazado 212766" d="M292.9,109.335a2.688,2.688,0,1,1,3.028-2.667,2.865,2.865,0,0,1-3.028,2.667" transform="translate(-82.094 -33.426)" fill="#fff"/>
      <path id="Trazado_212767" data-name="Trazado 212767" d="M314.936,109.212a2.452,2.452,0,1,1,2.763-2.433,2.613,2.613,0,0,1-2.763,2.433" transform="translate(-123.289 -33.537)" fill="#fff"/>
      <path id="Trazado_212768" data-name="Trazado 212768" d="M336.973,109.088a2.216,2.216,0,1,1,2.5-2.2,2.363,2.363,0,0,1-2.5,2.2" transform="translate(-164.486 -33.648)" fill="#fff"/>
      <path id="Trazado_212769" data-name="Trazado 212769" d="M359.017,108.941a1.934,1.934,0,1,1,2.178-1.918,2.061,2.061,0,0,1-2.178,1.918" transform="translate(-205.689 -33.781)" fill="#fff"/>
      <path id="Trazado_212770" data-name="Trazado 212770" d="M381.055,108.818a1.7,1.7,0,1,1,1.913-1.684,1.809,1.809,0,0,1-1.913,1.684" transform="translate(-246.887 -33.891)" fill="#fff"/>
      <path id="Trazado_212771" data-name="Trazado 212771" d="M403.1,108.67a1.415,1.415,0,1,1,1.594-1.4,1.508,1.508,0,0,1-1.594,1.4" transform="translate(-288.09 -34.024)" fill="#fff"/>
      <path id="Trazado_212772" data-name="Trazado 212772" d="M425.136,108.547a1.179,1.179,0,1,1,1.328-1.17,1.257,1.257,0,0,1-1.328,1.17" transform="translate(-329.287 -34.135)" fill="#fff"/>
      <path id="Trazado_212773" data-name="Trazado 212773" d="M447.173,108.424a.943.943,0,1,1,1.063-.936,1.005,1.005,0,0,1-1.063.936" transform="translate(-370.482 -34.246)" fill="#fff"/>
      <path id="Trazado_212774" data-name="Trazado 212774" d="M469.218,108.276a.66.66,0,1,1,.744-.655.7.7,0,0,1-.744.655" transform="translate(-411.687 -34.379)" fill="#fff"/>
      <path id="Trazado_212775" data-name="Trazado 212775" d="M491.254,108.153a.424.424,0,1,1,.478-.421.452.452,0,0,1-.478.421" transform="translate(-452.882 -34.49)" fill="#fff"/>
      <path id="Trazado_212776" data-name="Trazado 212776" d="M513.292,108.03a.189.189,0,1,1,.213-.187.2.2,0,0,1-.213.187" transform="translate(-494.079 -34.601)" fill="#fff"/>
      <path id="Trazado_212777" data-name="Trazado 212777" d="M6.633,135.134c-2.787,0-5.047-1.99-5.047-4.444s2.26-4.445,5.047-4.445,5.047,1.99,5.047,4.445-2.26,4.444-5.047,4.444" transform="translate(453.243 -40.575)" fill="#fff"/>
      <path id="Trazado_212778" data-name="Trazado 212778" d="M28.622,135.159c-2.817,0-5.1-2.011-5.1-4.491s2.284-4.492,5.1-4.492,5.1,2.011,5.1,4.492-2.284,4.491-5.1,4.491" transform="translate(412.095 -40.553)" fill="#fff"/>
      <path id="Trazado_212779" data-name="Trazado 212779" d="M50.628,135.134c-2.787,0-5.047-1.99-5.047-4.444s2.26-4.445,5.047-4.445,5.047,1.99,5.047,4.445-2.26,4.444-5.047,4.444" transform="translate(370.929 -40.575)" fill="#fff"/>
      <path id="Trazado_212780" data-name="Trazado 212780" d="M72.633,135.109c-2.758,0-4.994-1.969-4.994-4.4s2.236-4.4,4.994-4.4,4.994,1.969,4.994,4.4-2.236,4.4-4.994,4.4" transform="translate(329.766 -40.597)" fill="#fff"/>
      <path id="Trazado_212781" data-name="Trazado 212781" d="M94.647,135.06a4.339,4.339,0,1,1,4.888-4.3,4.624,4.624,0,0,1-4.888,4.3" transform="translate(288.592 -40.641)" fill="#fff"/>
      <path id="Trazado_212782" data-name="Trazado 212782" d="M116.668,134.986a4.2,4.2,0,1,1,4.729-4.164,4.473,4.473,0,0,1-4.729,4.164" transform="translate(247.413 -40.708)" fill="#fff"/>
      <path id="Trazado_212783" data-name="Trazado 212783" d="M138.689,134.912a4.056,4.056,0,1,1,4.569-4.023,4.323,4.323,0,0,1-4.569,4.023" transform="translate(206.231 -40.775)" fill="#fff"/>
      <path id="Trazado_212784" data-name="Trazado 212784" d="M160.718,134.813a3.867,3.867,0,1,1,4.357-3.836,4.121,4.121,0,0,1-4.357,3.836" transform="translate(165.044 -40.863)" fill="#fff"/>
      <path id="Trazado_212785" data-name="Trazado 212785" d="M182.747,134.715a3.678,3.678,0,1,1,4.144-3.65,3.92,3.92,0,0,1-4.144,3.65" transform="translate(123.855 -40.952)" fill="#fff"/>
      <path id="Trazado_212786" data-name="Trazado 212786" d="M204.783,134.592a3.443,3.443,0,1,1,3.878-3.415,3.669,3.669,0,0,1-3.878,3.415" transform="translate(82.659 -41.062)" fill="#fff"/>
      <path id="Trazado_212787" data-name="Trazado 212787" d="M226.813,134.493a3.254,3.254,0,1,1,3.666-3.228,3.468,3.468,0,0,1-3.666,3.228" transform="translate(41.47 -41.151)" fill="#fff"/>
      <path id="Trazado_212788" data-name="Trazado 212788" d="M248.849,134.37a3.019,3.019,0,1,1,3.4-2.994,3.217,3.217,0,0,1-3.4,2.994" transform="translate(0.275 -41.262)" fill="#fff"/>
      <path id="Trazado_212789" data-name="Trazado 212789" d="M270.879,134.272a2.83,2.83,0,1,1,3.188-2.807,3.016,3.016,0,0,1-3.188,2.807" transform="translate(-40.914 -41.351)" fill="#fff"/>
      <path id="Trazado_212790" data-name="Trazado 212790" d="M292.915,134.148a2.594,2.594,0,1,1,2.922-2.573,2.764,2.764,0,0,1-2.922,2.573" transform="translate(-82.11 -41.461)" fill="#fff"/>
      <path id="Trazado_212791" data-name="Trazado 212791" d="M314.951,134.025a2.358,2.358,0,1,1,2.656-2.339,2.513,2.513,0,0,1-2.656,2.339" transform="translate(-123.305 -41.572)" fill="#fff"/>
      <path id="Trazado_212792" data-name="Trazado 212792" d="M337,133.878a2.075,2.075,0,1,1,2.338-2.059A2.212,2.212,0,0,1,337,133.878" transform="translate(-164.51 -41.705)" fill="#fff"/>
      <path id="Trazado_212793" data-name="Trazado 212793" d="M359.033,133.755a1.84,1.84,0,1,1,2.072-1.825,1.96,1.96,0,0,1-2.072,1.825" transform="translate(-205.705 -41.816)" fill="#fff"/>
      <path id="Trazado_212794" data-name="Trazado 212794" d="M381.07,133.631a1.6,1.6,0,1,1,1.806-1.591,1.709,1.709,0,0,1-1.806,1.591" transform="translate(-246.902 -41.927)" fill="#fff"/>
      <path id="Trazado_212795" data-name="Trazado 212795" d="M403.107,133.508a1.368,1.368,0,1,1,1.541-1.357,1.457,1.457,0,0,1-1.541,1.357" transform="translate(-288.098 -42.037)" fill="#fff"/>
      <path id="Trazado_212796" data-name="Trazado 212796" d="M425.152,133.361a1.085,1.085,0,1,1,1.222-1.076,1.156,1.156,0,0,1-1.222,1.076" transform="translate(-329.303 -42.171)" fill="#fff"/>
      <path id="Trazado_212797" data-name="Trazado 212797" d="M447.188,133.237a.849.849,0,1,1,.956-.842.905.905,0,0,1-.956.842" transform="translate(-370.498 -42.281)" fill="#fff"/>
      <path id="Trazado_212798" data-name="Trazado 212798" d="M469.226,133.114a.613.613,0,1,1,.691-.608.653.653,0,0,1-.691.608" transform="translate(-411.695 -42.392)" fill="#fff"/>
      <path id="Trazado_212799" data-name="Trazado 212799" d="M491.262,132.992a.377.377,0,1,1,.425-.375.4.4,0,0,1-.425.375" transform="translate(-452.89 -42.503)" fill="#fff"/>
      <path id="Trazado_212800" data-name="Trazado 212800" d="M513.307,132.843a.094.094,0,1,1,.106-.094.1.1,0,0,1-.106.094" transform="translate(-494.095 -42.636)" fill="#fff"/>
      <path id="Trazado_212801" data-name="Trazado 212801" d="M6.673,159.873a4.244,4.244,0,1,1,0-8.421,4.244,4.244,0,1,1,0,8.421" transform="translate(453.204 -48.677)" fill="#fff"/>
      <path id="Trazado_212802" data-name="Trazado 212802" d="M28.67,159.873a4.244,4.244,0,1,1,0-8.421,4.244,4.244,0,1,1,0,8.421" transform="translate(412.048 -48.677)" fill="#fff"/>
      <path id="Trazado_212803" data-name="Trazado 212803" d="M50.668,159.873a4.244,4.244,0,1,1,0-8.421,4.244,4.244,0,1,1,0,8.421" transform="translate(370.89 -48.677)" fill="#fff"/>
      <path id="Trazado_212804" data-name="Trazado 212804" d="M72.673,159.848a4.2,4.2,0,1,1,4.729-4.164,4.473,4.473,0,0,1-4.729,4.164" transform="translate(329.726 -48.699)" fill="#fff"/>
      <path id="Trazado_212805" data-name="Trazado 212805" d="M94.686,159.8a4.1,4.1,0,1,1,4.622-4.07,4.373,4.373,0,0,1-4.622,4.07" transform="translate(288.553 -48.743)" fill="#fff"/>
      <path id="Trazado_212806" data-name="Trazado 212806" d="M116.707,159.726a3.962,3.962,0,1,1,4.463-3.93,4.222,4.222,0,0,1-4.463,3.93" transform="translate(247.373 -48.81)" fill="#fff"/>
      <path id="Trazado_212807" data-name="Trazado 212807" d="M138.729,159.651a3.82,3.82,0,1,1,4.3-3.789,4.071,4.071,0,0,1-4.3,3.789" transform="translate(206.192 -48.876)" fill="#fff"/>
      <path id="Trazado_212808" data-name="Trazado 212808" d="M160.749,159.577a3.679,3.679,0,1,1,4.144-3.65,3.92,3.92,0,0,1-4.144,3.65" transform="translate(165.012 -48.943)" fill="#fff"/>
      <path id="Trazado_212809" data-name="Trazado 212809" d="M182.779,159.479a3.49,3.49,0,1,1,3.932-3.462,3.719,3.719,0,0,1-3.932,3.462" transform="translate(123.823 -49.031)" fill="#fff"/>
      <path id="Trazado_212810" data-name="Trazado 212810" d="M204.807,159.381a3.3,3.3,0,1,1,3.719-3.275,3.519,3.519,0,0,1-3.719,3.275" transform="translate(82.636 -49.12)" fill="#fff"/>
      <path id="Trazado_212811" data-name="Trazado 212811" d="M226.837,159.282a3.113,3.113,0,1,1,3.507-3.088,3.317,3.317,0,0,1-3.507,3.088" transform="translate(41.447 -49.209)" fill="#fff"/>
      <path id="Trazado_212812" data-name="Trazado 212812" d="M248.873,159.159a2.877,2.877,0,1,1,3.241-2.854,3.066,3.066,0,0,1-3.241,2.854" transform="translate(0.251 -49.319)" fill="#fff"/>
      <path id="Trazado_212813" data-name="Trazado 212813" d="M270.9,159.061a2.688,2.688,0,1,1,3.028-2.667,2.865,2.865,0,0,1-3.028,2.667" transform="translate(-40.938 -49.408)" fill="#fff"/>
      <path id="Trazado_212814" data-name="Trazado 212814" d="M292.939,158.938A2.452,2.452,0,1,1,295.7,156.5a2.613,2.613,0,0,1-2.763,2.433" transform="translate(-82.133 -49.519)" fill="#fff"/>
      <path id="Trazado_212815" data-name="Trazado 212815" d="M314.975,158.814a2.217,2.217,0,1,1,2.5-2.2,2.363,2.363,0,0,1-2.5,2.2" transform="translate(-123.329 -49.63)" fill="#fff"/>
      <path id="Trazado_212816" data-name="Trazado 212816" d="M337.012,158.691a1.981,1.981,0,1,1,2.231-1.965,2.111,2.111,0,0,1-2.231,1.965" transform="translate(-164.526 -49.74)" fill="#fff"/>
      <path id="Trazado_212817" data-name="Trazado 212817" d="M359.049,158.568a1.745,1.745,0,1,1,1.966-1.731,1.86,1.86,0,0,1-1.966,1.731" transform="translate(-205.721 -49.851)" fill="#fff"/>
      <path id="Trazado_212818" data-name="Trazado 212818" d="M381.086,158.445a1.509,1.509,0,1,1,1.7-1.5,1.609,1.609,0,0,1-1.7,1.5" transform="translate(-246.918 -49.962)" fill="#fff"/>
      <path id="Trazado_212819" data-name="Trazado 212819" d="M403.122,158.321a1.273,1.273,0,1,1,1.435-1.263,1.357,1.357,0,0,1-1.435,1.263" transform="translate(-288.113 -50.073)" fill="#fff"/>
      <path id="Trazado_212820" data-name="Trazado 212820" d="M425.16,158.2a1.038,1.038,0,1,1,1.169-1.029,1.106,1.106,0,0,1-1.169,1.029" transform="translate(-329.31 -50.183)" fill="#fff"/>
      <path id="Trazado_212821" data-name="Trazado 212821" d="M447.2,158.051a.755.755,0,1,1,.85-.748.8.8,0,0,1-.85.748" transform="translate(-370.514 -50.317)" fill="#fff"/>
      <path id="Trazado_212822" data-name="Trazado 212822" d="M469.241,157.927a.519.519,0,1,1,.584-.514.552.552,0,0,1-.584.514" transform="translate(-411.711 -50.427)" fill="#fff"/>
      <path id="Trazado_212823" data-name="Trazado 212823" d="M491.278,157.8a.283.283,0,1,1,.319-.281.3.3,0,0,1-.319.281" transform="translate(-452.906 -50.538)" fill="#fff"/>
      <path id="Trazado_212824" data-name="Trazado 212824" d="M513.315,157.682a.047.047,0,1,1,.053-.047.05.05,0,0,1-.053.047" transform="translate(-494.103 -50.649)" fill="#fff"/>
      <path id="Trazado_212825" data-name="Trazado 212825" d="M6.72,184.589a3.962,3.962,0,1,1,0-7.86,3.962,3.962,0,1,1,0,7.86" transform="translate(453.157 -56.801)" fill="#fff"/>
      <path id="Trazado_212826" data-name="Trazado 212826" d="M28.709,184.613a4.009,4.009,0,1,1,0-7.953,4.009,4.009,0,1,1,0,7.953" transform="translate(412.009 -56.779)" fill="#fff"/>
      <path id="Trazado_212827" data-name="Trazado 212827" d="M50.715,184.589a3.962,3.962,0,1,1,4.463-3.93,4.222,4.222,0,0,1-4.463,3.93" transform="translate(370.843 -56.801)" fill="#fff"/>
      <path id="Trazado_212828" data-name="Trazado 212828" d="M72.72,184.564a3.915,3.915,0,1,1,4.41-3.883,4.172,4.172,0,0,1-4.41,3.883" transform="translate(329.679 -56.823)" fill="#fff"/>
      <path id="Trazado_212829" data-name="Trazado 212829" d="M94.734,184.514a3.82,3.82,0,1,1,4.3-3.789,4.071,4.071,0,0,1-4.3,3.789" transform="translate(288.506 -56.867)" fill="#fff"/>
      <path id="Trazado_212830" data-name="Trazado 212830" d="M116.746,184.465a3.726,3.726,0,1,1,4.2-3.7,3.971,3.971,0,0,1-4.2,3.7" transform="translate(247.334 -56.911)" fill="#fff"/>
      <path id="Trazado_212831" data-name="Trazado 212831" d="M138.76,184.416a3.632,3.632,0,1,1,4.091-3.6,3.87,3.87,0,0,1-4.091,3.6" transform="translate(206.16 -56.956)" fill="#fff"/>
      <path id="Trazado_212832" data-name="Trazado 212832" d="M160.788,184.317a3.443,3.443,0,1,1,3.878-3.415,3.669,3.669,0,0,1-3.878,3.415" transform="translate(164.973 -57.044)" fill="#fff"/>
      <path id="Trazado_212833" data-name="Trazado 212833" d="M182.81,184.244a3.3,3.3,0,1,1,3.719-3.275,3.519,3.519,0,0,1-3.719,3.275" transform="translate(123.792 -57.111)" fill="#fff"/>
      <path id="Trazado_212834" data-name="Trazado 212834" d="M204.839,184.145a3.113,3.113,0,1,1,3.507-3.088,3.317,3.317,0,0,1-3.507,3.088" transform="translate(82.604 -57.2)" fill="#fff"/>
      <path id="Trazado_212835" data-name="Trazado 212835" d="M226.868,184.046a2.924,2.924,0,1,1,3.294-2.9,3.116,3.116,0,0,1-3.294,2.9" transform="translate(41.415 -57.288)" fill="#fff"/>
      <path id="Trazado_212836" data-name="Trazado 212836" d="M248.9,183.948a2.735,2.735,0,1,1,3.082-2.714,2.915,2.915,0,0,1-3.082,2.714" transform="translate(0.228 -57.377)" fill="#fff"/>
      <path id="Trazado_212837" data-name="Trazado 212837" d="M270.926,183.849a2.547,2.547,0,1,1,2.869-2.526,2.714,2.714,0,0,1-2.869,2.526" transform="translate(-40.962 -57.465)" fill="#fff"/>
      <path id="Trazado_212838" data-name="Trazado 212838" d="M292.962,183.727a2.311,2.311,0,1,1,2.6-2.292,2.463,2.463,0,0,1-2.6,2.292" transform="translate(-82.157 -57.576)" fill="#fff"/>
      <path id="Trazado_212839" data-name="Trazado 212839" d="M315,183.6a2.075,2.075,0,1,1,2.338-2.059A2.212,2.212,0,0,1,315,183.6" transform="translate(-123.352 -57.687)" fill="#fff"/>
      <path id="Trazado_212840" data-name="Trazado 212840" d="M337.036,183.479a1.84,1.84,0,1,1,2.072-1.825,1.96,1.96,0,0,1-2.072,1.825" transform="translate(-164.549 -57.798)" fill="#fff"/>
      <path id="Trazado_212841" data-name="Trazado 212841" d="M359.072,183.356a1.6,1.6,0,1,1,1.806-1.591,1.709,1.709,0,0,1-1.806,1.591" transform="translate(-205.745 -57.908)" fill="#fff"/>
      <path id="Trazado_212842" data-name="Trazado 212842" d="M381.11,183.234a1.368,1.368,0,1,1,1.541-1.357,1.457,1.457,0,0,1-1.541,1.357" transform="translate(-246.942 -58.019)" fill="#fff"/>
      <path id="Trazado_212843" data-name="Trazado 212843" d="M403.146,183.11a1.132,1.132,0,1,1,1.275-1.123,1.207,1.207,0,0,1-1.275,1.123" transform="translate(-288.137 -58.13)" fill="#fff"/>
      <path id="Trazado_212844" data-name="Trazado 212844" d="M425.183,182.987a.9.9,0,1,1,1.009-.889.955.955,0,0,1-1.009.889" transform="translate(-329.334 -58.241)" fill="#fff"/>
      <path id="Trazado_212845" data-name="Trazado 212845" d="M447.22,182.864a.66.66,0,1,1,.744-.655.7.7,0,0,1-.744.655" transform="translate(-370.529 -58.352)" fill="#fff"/>
      <path id="Trazado_212846" data-name="Trazado 212846" d="M469.257,182.741a.424.424,0,1,1,.478-.421.453.453,0,0,1-.478.421" transform="translate(-411.726 -58.462)" fill="#fff"/>
      <path id="Trazado_212847" data-name="Trazado 212847" d="M491.294,182.618a.188.188,0,1,1,.213-.187.2.2,0,0,1-.213.187" transform="translate(-452.922 -58.573)" fill="#fff"/>
      <path id="Trazado_212848" data-name="Trazado 212848" d="M6.759,209.328a3.726,3.726,0,1,1,0-7.392,3.726,3.726,0,1,1,0,7.392" transform="translate(453.117 -64.902)" fill="#fff"/>
      <path id="Trazado_212849" data-name="Trazado 212849" d="M28.756,209.328a3.726,3.726,0,1,1,0-7.392,3.726,3.726,0,1,1,0,7.392" transform="translate(411.961 -64.902)" fill="#fff"/>
      <path id="Trazado_212850" data-name="Trazado 212850" d="M50.754,209.328a3.726,3.726,0,1,1,4.2-3.7,3.971,3.971,0,0,1-4.2,3.7" transform="translate(370.804 -64.902)" fill="#fff"/>
      <path id="Trazado_212851" data-name="Trazado 212851" d="M72.759,209.3a3.679,3.679,0,1,1,4.144-3.649,3.92,3.92,0,0,1-4.144,3.649" transform="translate(329.64 -64.925)" fill="#fff"/>
      <path id="Trazado_212852" data-name="Trazado 212852" d="M94.773,209.254a3.585,3.585,0,1,1,4.038-3.556,3.82,3.82,0,0,1-4.038,3.556" transform="translate(288.466 -64.969)" fill="#fff"/>
      <path id="Trazado_212853" data-name="Trazado 212853" d="M116.786,209.2a3.49,3.49,0,1,1,3.932-3.462,3.719,3.719,0,0,1-3.932,3.462" transform="translate(247.295 -65.013)" fill="#fff"/>
      <path id="Trazado_212854" data-name="Trazado 212854" d="M138.8,209.155a3.4,3.4,0,1,1,3.825-3.369,3.619,3.619,0,0,1-3.825,3.369" transform="translate(206.121 -65.057)" fill="#fff"/>
      <path id="Trazado_212855" data-name="Trazado 212855" d="M160.82,209.081a3.254,3.254,0,1,1,3.666-3.228,3.468,3.468,0,0,1-3.666,3.228" transform="translate(164.942 -65.124)" fill="#fff"/>
      <path id="Trazado_212856" data-name="Trazado 212856" d="M182.842,209.007a3.113,3.113,0,1,1,3.507-3.088,3.317,3.317,0,0,1-3.507,3.088" transform="translate(123.76 -65.19)" fill="#fff"/>
      <path id="Trazado_212857" data-name="Trazado 212857" d="M204.87,208.909a2.924,2.924,0,1,1,3.294-2.9,3.116,3.116,0,0,1-3.294,2.9" transform="translate(82.573 -65.279)" fill="#fff"/>
      <path id="Trazado_212858" data-name="Trazado 212858" d="M226.9,208.811a2.735,2.735,0,1,1,3.082-2.714,2.915,2.915,0,0,1-3.082,2.714" transform="translate(41.384 -65.368)" fill="#fff"/>
      <path id="Trazado_212859" data-name="Trazado 212859" d="M248.928,208.712a2.547,2.547,0,1,1,2.869-2.526,2.714,2.714,0,0,1-2.869,2.526" transform="translate(0.196 -65.456)" fill="#fff"/>
      <path id="Trazado_212860" data-name="Trazado 212860" d="M270.957,208.613a2.358,2.358,0,1,1,2.656-2.339,2.513,2.513,0,0,1-2.656,2.339" transform="translate(-40.993 -65.545)" fill="#fff"/>
      <path id="Trazado_212861" data-name="Trazado 212861" d="M292.986,208.514a2.17,2.17,0,1,1,2.444-2.152,2.312,2.312,0,0,1-2.444,2.152" transform="translate(-82.18 -65.633)" fill="#fff"/>
      <path id="Trazado_212862" data-name="Trazado 212862" d="M315.022,208.392a1.934,1.934,0,1,1,2.178-1.918,2.061,2.061,0,0,1-2.178,1.918" transform="translate(-123.376 -65.744)" fill="#fff"/>
      <path id="Trazado_212863" data-name="Trazado 212863" d="M337.06,208.269a1.7,1.7,0,1,1,1.913-1.684,1.809,1.809,0,0,1-1.913,1.684" transform="translate(-164.573 -65.855)" fill="#fff"/>
      <path id="Trazado_212864" data-name="Trazado 212864" d="M359.088,208.17a1.509,1.509,0,1,1,1.7-1.5,1.608,1.608,0,0,1-1.7,1.5" transform="translate(-205.76 -65.943)" fill="#fff"/>
      <path id="Trazado_212865" data-name="Trazado 212865" d="M381.125,208.046a1.273,1.273,0,1,1,1.435-1.263,1.357,1.357,0,0,1-1.435,1.263" transform="translate(-246.957 -66.054)" fill="#fff"/>
      <path id="Trazado_212866" data-name="Trazado 212866" d="M403.162,207.924a1.038,1.038,0,1,1,1.169-1.029,1.106,1.106,0,0,1-1.169,1.029" transform="translate(-288.153 -66.165)" fill="#fff"/>
      <path id="Trazado_212867" data-name="Trazado 212867" d="M425.2,207.8a.8.8,0,1,1,.9-.8.854.854,0,0,1-.9.8" transform="translate(-329.35 -66.276)" fill="#fff"/>
      <path id="Trazado_212868" data-name="Trazado 212868" d="M447.236,207.678a.566.566,0,1,1,.638-.561.6.6,0,0,1-.638.561" transform="translate(-370.545 -66.387)" fill="#fff"/>
      <path id="Trazado_212869" data-name="Trazado 212869" d="M469.273,207.555a.33.33,0,1,1,.372-.328.352.352,0,0,1-.372.328" transform="translate(-411.742 -66.498)" fill="#fff"/>
      <path id="Trazado_212870" data-name="Trazado 212870" d="M491.309,207.431a.094.094,0,1,1,.106-.094.1.1,0,0,1-.106.094" transform="translate(-452.937 -66.608)" fill="#fff"/>
      <path id="Trazado_212871" data-name="Trazado 212871" d="M6.806,234.043a3.443,3.443,0,1,1,0-6.831,3.443,3.443,0,1,1,0,6.831" transform="translate(453.07 -73.026)" fill="#fff"/>
      <path id="Trazado_212872" data-name="Trazado 212872" d="M28.8,234.043a3.443,3.443,0,1,1,0-6.831,3.443,3.443,0,1,1,0,6.831" transform="translate(411.914 -73.026)" fill="#fff"/>
      <path id="Trazado_212873" data-name="Trazado 212873" d="M50.8,234.043a3.443,3.443,0,1,1,3.878-3.415,3.669,3.669,0,0,1-3.878,3.415" transform="translate(370.756 -73.026)" fill="#fff"/>
      <path id="Trazado_212874" data-name="Trazado 212874" d="M72.806,234.018a3.4,3.4,0,1,1,3.825-3.369,3.618,3.618,0,0,1-3.825,3.369" transform="translate(329.593 -73.048)" fill="#fff"/>
      <path id="Trazado_212875" data-name="Trazado 212875" d="M94.812,233.993a3.349,3.349,0,1,1,3.772-3.322,3.568,3.568,0,0,1-3.772,3.322" transform="translate(288.427 -73.071)" fill="#fff"/>
      <path id="Trazado_212876" data-name="Trazado 212876" d="M116.825,233.944a3.254,3.254,0,1,1,3.666-3.228,3.468,3.468,0,0,1-3.666,3.228" transform="translate(247.255 -73.115)" fill="#fff"/>
      <path id="Trazado_212877" data-name="Trazado 212877" d="M138.839,233.895a3.16,3.16,0,1,1,3.56-3.134,3.368,3.368,0,0,1-3.56,3.134" transform="translate(206.082 -73.159)" fill="#fff"/>
      <path id="Trazado_212878" data-name="Trazado 212878" d="M160.859,233.821a3.019,3.019,0,1,1,3.4-2.994,3.217,3.217,0,0,1-3.4,2.994" transform="translate(164.902 -73.225)" fill="#fff"/>
      <path id="Trazado_212879" data-name="Trazado 212879" d="M182.881,233.747a2.877,2.877,0,1,1,3.241-2.854,3.066,3.066,0,0,1-3.241,2.854" transform="translate(123.721 -73.292)" fill="#fff"/>
      <path id="Trazado_212880" data-name="Trazado 212880" d="M204.9,233.673a2.735,2.735,0,1,1,3.082-2.714,2.915,2.915,0,0,1-3.082,2.714" transform="translate(82.541 -73.359)" fill="#fff"/>
      <path id="Trazado_212881" data-name="Trazado 212881" d="M226.931,233.575a2.547,2.547,0,1,1,2.869-2.526,2.714,2.714,0,0,1-2.869,2.526" transform="translate(41.352 -73.447)" fill="#fff"/>
      <path id="Trazado_212882" data-name="Trazado 212882" d="M248.959,233.476a2.358,2.358,0,1,1,2.656-2.339,2.513,2.513,0,0,1-2.656,2.339" transform="translate(0.165 -73.536)" fill="#fff"/>
      <path id="Trazado_212883" data-name="Trazado 212883" d="M270.981,233.4a2.217,2.217,0,1,1,2.5-2.2,2.363,2.363,0,0,1-2.5,2.2" transform="translate(-41.017 -73.602)" fill="#fff"/>
      <path id="Trazado_212884" data-name="Trazado 212884" d="M293.017,233.279a1.981,1.981,0,1,1,2.231-1.965,2.111,2.111,0,0,1-2.231,1.965" transform="translate(-82.212 -73.713)" fill="#fff"/>
      <path id="Trazado_212885" data-name="Trazado 212885" d="M315.046,233.181a1.792,1.792,0,1,1,2.019-1.778,1.91,1.91,0,0,1-2.019,1.778" transform="translate(-123.399 -73.802)" fill="#fff"/>
      <path id="Trazado_212886" data-name="Trazado 212886" d="M337.083,233.057a1.557,1.557,0,1,1,1.753-1.544,1.659,1.659,0,0,1-1.753,1.544" transform="translate(-164.596 -73.912)" fill="#fff"/>
      <path id="Trazado_212887" data-name="Trazado 212887" d="M359.112,232.959a1.368,1.368,0,1,1,1.541-1.357,1.457,1.457,0,0,1-1.541,1.357" transform="translate(-205.784 -74.001)" fill="#fff"/>
      <path id="Trazado_212888" data-name="Trazado 212888" d="M381.149,232.836a1.132,1.132,0,1,1,1.275-1.123,1.207,1.207,0,0,1-1.275,1.123" transform="translate(-246.981 -74.112)" fill="#fff"/>
      <path id="Trazado_212889" data-name="Trazado 212889" d="M403.185,232.713a.9.9,0,1,1,1.009-.889.955.955,0,0,1-1.009.889" transform="translate(-288.176 -74.223)" fill="#fff"/>
      <path id="Trazado_212890" data-name="Trazado 212890" d="M425.215,232.614a.707.707,0,1,1,.8-.7.754.754,0,0,1-.8.7" transform="translate(-329.366 -74.311)" fill="#fff"/>
      <path id="Trazado_212891" data-name="Trazado 212891" d="M447.251,232.491a.472.472,0,1,1,.531-.468.5.5,0,0,1-.531.468" transform="translate(-370.561 -74.422)" fill="#fff"/>
      <path id="Trazado_212892" data-name="Trazado 212892" d="M469.289,232.368a.236.236,0,1,1,.266-.233.251.251,0,0,1-.266.233" transform="translate(-411.758 -74.533)" fill="#fff"/>
      <path id="Trazado_212893" data-name="Trazado 212893" d="M491.317,232.27a.047.047,0,1,1,.053-.047.05.05,0,0,1-.053.047" transform="translate(-452.945 -74.622)" fill="#fff"/>
      <path id="Trazado_212894" data-name="Trazado 212894" d="M6.846,258.783a3.207,3.207,0,1,1,0-6.363,3.207,3.207,0,1,1,0,6.363" transform="translate(453.031 -81.128)" fill="#fff"/>
      <path id="Trazado_212895" data-name="Trazado 212895" d="M28.843,258.783a3.207,3.207,0,1,1,0-6.363,3.207,3.207,0,1,1,0,6.363" transform="translate(411.875 -81.128)" fill="#fff"/>
      <path id="Trazado_212896" data-name="Trazado 212896" d="M50.841,258.783a3.207,3.207,0,1,1,3.613-3.181,3.418,3.418,0,0,1-3.613,3.181" transform="translate(370.717 -81.128)" fill="#fff"/>
      <path id="Trazado_212897" data-name="Trazado 212897" d="M72.846,258.758a3.16,3.16,0,1,1,3.56-3.134,3.368,3.368,0,0,1-3.56,3.134" transform="translate(329.553 -81.15)" fill="#fff"/>
      <path id="Trazado_212898" data-name="Trazado 212898" d="M94.852,258.733a3.113,3.113,0,1,1,3.507-3.088,3.317,3.317,0,0,1-3.507,3.088" transform="translate(288.388 -81.172)" fill="#fff"/>
      <path id="Trazado_212899" data-name="Trazado 212899" d="M116.864,258.684a3.019,3.019,0,1,1,3.4-2.994,3.217,3.217,0,0,1-3.4,2.994" transform="translate(247.216 -81.216)" fill="#fff"/>
      <path id="Trazado_212900" data-name="Trazado 212900" d="M138.878,258.634a2.924,2.924,0,1,1,3.294-2.9,3.116,3.116,0,0,1-3.294,2.9" transform="translate(206.042 -81.261)" fill="#fff"/>
      <path id="Trazado_212901" data-name="Trazado 212901" d="M160.891,258.585a2.83,2.83,0,1,1,3.188-2.807,3.016,3.016,0,0,1-3.188,2.807" transform="translate(164.871 -81.305)" fill="#fff"/>
      <path id="Trazado_212902" data-name="Trazado 212902" d="M182.912,258.511a2.688,2.688,0,1,1,3.028-2.667,2.865,2.865,0,0,1-3.028,2.667" transform="translate(123.689 -81.371)" fill="#fff"/>
      <path id="Trazado_212903" data-name="Trazado 212903" d="M204.933,258.437a2.547,2.547,0,1,1,2.869-2.526,2.714,2.714,0,0,1-2.869,2.526" transform="translate(82.51 -81.438)" fill="#fff"/>
      <path id="Trazado_212904" data-name="Trazado 212904" d="M226.963,258.339A2.358,2.358,0,1,1,229.619,256a2.513,2.513,0,0,1-2.656,2.339" transform="translate(41.321 -81.527)" fill="#fff"/>
      <path id="Trazado_212905" data-name="Trazado 212905" d="M248.983,258.265a2.216,2.216,0,1,1,2.5-2.2,2.363,2.363,0,0,1-2.5,2.2" transform="translate(0.141 -81.593)" fill="#fff"/>
      <path id="Trazado_212906" data-name="Trazado 212906" d="M271.013,258.166a2.028,2.028,0,1,1,2.285-2.012,2.161,2.161,0,0,1-2.285,2.012" transform="translate(-41.048 -81.682)" fill="#fff"/>
      <path id="Trazado_212907" data-name="Trazado 212907" d="M293.049,258.043a1.792,1.792,0,1,1,2.019-1.778,1.91,1.91,0,0,1-2.019,1.778" transform="translate(-82.243 -81.792)" fill="#fff"/>
      <path id="Trazado_212908" data-name="Trazado 212908" d="M315.077,257.944a1.6,1.6,0,1,1,1.806-1.591,1.709,1.709,0,0,1-1.806,1.591" transform="translate(-123.431 -81.881)" fill="#fff"/>
      <path id="Trazado_212909" data-name="Trazado 212909" d="M337.107,257.846a1.415,1.415,0,1,1,1.594-1.4,1.508,1.508,0,0,1-1.594,1.4" transform="translate(-164.62 -81.97)" fill="#fff"/>
      <path id="Trazado_212910" data-name="Trazado 212910" d="M359.143,257.723a1.179,1.179,0,1,1,1.328-1.17,1.257,1.257,0,0,1-1.328,1.17" transform="translate(-205.815 -82.081)" fill="#fff"/>
      <path id="Trazado_212911" data-name="Trazado 212911" d="M381.173,257.624a.991.991,0,1,1,1.116-.983,1.055,1.055,0,0,1-1.116.983" transform="translate(-247.005 -82.169)" fill="#fff"/>
      <path id="Trazado_212912" data-name="Trazado 212912" d="M403.209,257.5a.755.755,0,1,1,.85-.749.8.8,0,0,1-.85.749" transform="translate(-288.2 -82.28)" fill="#fff"/>
      <path id="Trazado_212913" data-name="Trazado 212913" d="M425.238,257.4a.566.566,0,1,1,.638-.561.6.6,0,0,1-.638.561" transform="translate(-329.389 -82.369)" fill="#fff"/>
      <path id="Trazado_212914" data-name="Trazado 212914" d="M447.275,257.28a.33.33,0,1,1,.372-.328.352.352,0,0,1-.372.328" transform="translate(-370.584 -82.48)" fill="#fff"/>
      <path id="Trazado_212915" data-name="Trazado 212915" d="M469.312,257.157a.094.094,0,1,1,.106-.093.1.1,0,0,1-.106.093" transform="translate(-411.782 -82.59)" fill="#fff"/>
      <path id="Trazado_212916" data-name="Trazado 212916" d="M6.893,283.5a2.924,2.924,0,1,1,0-5.8,2.924,2.924,0,1,1,0,5.8" transform="translate(452.983 -89.252)" fill="#fff"/>
      <path id="Trazado_212917" data-name="Trazado 212917" d="M28.89,283.5a2.924,2.924,0,1,1,0-5.8,2.924,2.924,0,1,1,0,5.8" transform="translate(411.828 -89.252)" fill="#fff"/>
      <path id="Trazado_212918" data-name="Trazado 212918" d="M50.888,283.5a2.924,2.924,0,1,1,3.294-2.9,3.116,3.116,0,0,1-3.294,2.9" transform="translate(370.67 -89.252)" fill="#fff"/>
      <path id="Trazado_212919" data-name="Trazado 212919" d="M72.893,283.473a2.877,2.877,0,1,1,3.241-2.854,3.066,3.066,0,0,1-3.241,2.854" transform="translate(329.506 -89.274)" fill="#fff"/>
      <path id="Trazado_212920" data-name="Trazado 212920" d="M94.9,283.448a2.83,2.83,0,1,1,3.188-2.807,3.016,3.016,0,0,1-3.188,2.807" transform="translate(288.34 -89.296)" fill="#fff"/>
      <path id="Trazado_212921" data-name="Trazado 212921" d="M116.9,283.423a2.783,2.783,0,1,1,3.135-2.76,2.966,2.966,0,0,1-3.135,2.76" transform="translate(247.177 -89.318)" fill="#fff"/>
      <path id="Trazado_212922" data-name="Trazado 212922" d="M138.917,283.374a2.689,2.689,0,1,1,3.028-2.667,2.865,2.865,0,0,1-3.028,2.667" transform="translate(206.003 -89.362)" fill="#fff"/>
      <path id="Trazado_212923" data-name="Trazado 212923" d="M160.93,283.324a2.594,2.594,0,1,1,2.922-2.573,2.764,2.764,0,0,1-2.922,2.573" transform="translate(164.831 -89.407)" fill="#fff"/>
      <path id="Trazado_212924" data-name="Trazado 212924" d="M182.952,283.251a2.452,2.452,0,1,1,2.763-2.433,2.613,2.613,0,0,1-2.763,2.433" transform="translate(123.65 -89.473)" fill="#fff"/>
      <path id="Trazado_212925" data-name="Trazado 212925" d="M204.972,283.177a2.311,2.311,0,1,1,2.6-2.292,2.462,2.462,0,0,1-2.6,2.292" transform="translate(82.47 -89.54)" fill="#fff"/>
      <path id="Trazado_212926" data-name="Trazado 212926" d="M226.994,283.1a2.17,2.17,0,1,1,2.444-2.152,2.312,2.312,0,0,1-2.444,2.152" transform="translate(41.289 -89.606)" fill="#fff"/>
      <path id="Trazado_212927" data-name="Trazado 212927" d="M249.022,283a1.981,1.981,0,1,1,2.231-1.965A2.111,2.111,0,0,1,249.022,283" transform="translate(0.102 -89.695)" fill="#fff"/>
      <path id="Trazado_212928" data-name="Trazado 212928" d="M271.052,282.906a1.792,1.792,0,1,1,2.019-1.778,1.91,1.91,0,0,1-2.019,1.778" transform="translate(-41.088 -89.783)" fill="#fff"/>
      <path id="Trazado_212929" data-name="Trazado 212929" d="M293.08,282.807a1.6,1.6,0,1,1,1.806-1.591,1.709,1.709,0,0,1-1.806,1.591" transform="translate(-82.275 -89.872)" fill="#fff"/>
      <path id="Trazado_212930" data-name="Trazado 212930" d="M315.109,282.708a1.415,1.415,0,1,1,1.594-1.4,1.508,1.508,0,0,1-1.594,1.4" transform="translate(-123.462 -89.961)" fill="#fff"/>
      <path id="Trazado_212931" data-name="Trazado 212931" d="M337.138,282.611a1.226,1.226,0,1,1,1.381-1.217,1.307,1.307,0,0,1-1.381,1.217" transform="translate(-164.652 -90.05)" fill="#fff"/>
      <path id="Trazado_212932" data-name="Trazado 212932" d="M359.167,282.512a1.038,1.038,0,1,1,1.169-1.029,1.106,1.106,0,0,1-1.169,1.029" transform="translate(-205.839 -90.138)" fill="#fff"/>
      <path id="Trazado_212933" data-name="Trazado 212933" d="M381.2,282.413a.849.849,0,1,1,.956-.842.905.905,0,0,1-.956.842" transform="translate(-247.028 -90.227)" fill="#fff"/>
      <path id="Trazado_212934" data-name="Trazado 212934" d="M403.233,282.291a.613.613,0,1,1,.691-.608.653.653,0,0,1-.691.608" transform="translate(-288.224 -90.337)" fill="#fff"/>
      <path id="Trazado_212935" data-name="Trazado 212935" d="M425.262,282.192a.424.424,0,1,1,.478-.421.452.452,0,0,1-.478.421" transform="translate(-329.413 -90.426)" fill="#fff"/>
      <path id="Trazado_212936" data-name="Trazado 212936" d="M447.3,282.069a.188.188,0,1,1,.213-.187.2.2,0,0,1-.213.187" transform="translate(-370.608 -90.537)" fill="#fff"/>
      <path id="Trazado_212937" data-name="Trazado 212937" d="M6.932,308.237a2.688,2.688,0,1,1,0-5.334,2.688,2.688,0,1,1,0,5.334" transform="translate(452.944 -97.353)" fill="#fff"/>
      <path id="Trazado_212938" data-name="Trazado 212938" d="M28.929,308.237a2.688,2.688,0,1,1,0-5.334,2.688,2.688,0,1,1,0,5.334" transform="translate(411.788 -97.353)" fill="#fff"/>
      <path id="Trazado_212939" data-name="Trazado 212939" d="M50.927,308.237a2.688,2.688,0,1,1,3.028-2.667,2.865,2.865,0,0,1-3.028,2.667" transform="translate(370.63 -97.353)" fill="#fff"/>
      <path id="Trazado_212940" data-name="Trazado 212940" d="M72.932,308.212a2.641,2.641,0,1,1,2.975-2.62,2.815,2.815,0,0,1-2.975,2.62" transform="translate(329.467 -97.376)" fill="#fff"/>
      <path id="Trazado_212941" data-name="Trazado 212941" d="M94.938,308.188a2.594,2.594,0,1,1,2.922-2.573,2.764,2.764,0,0,1-2.922,2.573" transform="translate(288.301 -97.398)" fill="#fff"/>
      <path id="Trazado_212942" data-name="Trazado 212942" d="M116.951,308.138a2.5,2.5,0,1,1,2.816-2.48,2.664,2.664,0,0,1-2.816,2.48" transform="translate(247.129 -97.442)" fill="#fff"/>
      <path id="Trazado_212943" data-name="Trazado 212943" d="M138.957,308.114a2.452,2.452,0,1,1,2.763-2.433,2.613,2.613,0,0,1-2.763,2.433" transform="translate(205.964 -97.464)" fill="#fff"/>
      <path id="Trazado_212944" data-name="Trazado 212944" d="M160.969,308.064a2.358,2.358,0,1,1,2.656-2.339,2.513,2.513,0,0,1-2.656,2.339" transform="translate(164.792 -97.509)" fill="#fff"/>
      <path id="Trazado_212945" data-name="Trazado 212945" d="M182.991,307.99a2.217,2.217,0,1,1,2.5-2.2,2.363,2.363,0,0,1-2.5,2.2" transform="translate(123.611 -97.575)" fill="#fff"/>
      <path id="Trazado_212946" data-name="Trazado 212946" d="M205.012,307.916a2.075,2.075,0,1,1,2.338-2.059,2.212,2.212,0,0,1-2.338,2.059" transform="translate(82.431 -97.641)" fill="#fff"/>
      <path id="Trazado_212947" data-name="Trazado 212947" d="M227.033,307.842a1.934,1.934,0,1,1,2.178-1.918,2.061,2.061,0,0,1-2.178,1.918" transform="translate(41.25 -97.708)" fill="#fff"/>
      <path id="Trazado_212948" data-name="Trazado 212948" d="M249.054,307.769a1.792,1.792,0,1,1,2.019-1.778,1.91,1.91,0,0,1-2.019,1.778" transform="translate(0.07 -97.774)" fill="#fff"/>
      <path id="Trazado_212949" data-name="Trazado 212949" d="M271.083,307.67a1.6,1.6,0,1,1,1.806-1.591,1.709,1.709,0,0,1-1.806,1.591" transform="translate(-41.119 -97.863)" fill="#fff"/>
      <path id="Trazado_212950" data-name="Trazado 212950" d="M293.112,307.571a1.415,1.415,0,1,1,1.594-1.4,1.508,1.508,0,0,1-1.594,1.4" transform="translate(-82.306 -97.951)" fill="#fff"/>
      <path id="Trazado_212951" data-name="Trazado 212951" d="M315.132,307.5a1.273,1.273,0,1,1,1.435-1.263,1.357,1.357,0,0,1-1.435,1.263" transform="translate(-123.486 -98.018)" fill="#fff"/>
      <path id="Trazado_212952" data-name="Trazado 212952" d="M337.162,307.4a1.085,1.085,0,1,1,1.222-1.076,1.156,1.156,0,0,1-1.222,1.076" transform="translate(-164.675 -98.107)" fill="#fff"/>
      <path id="Trazado_212953" data-name="Trazado 212953" d="M359.19,307.3a.9.9,0,1,1,1.009-.889.955.955,0,0,1-1.009.889" transform="translate(-205.863 -98.195)" fill="#fff"/>
      <path id="Trazado_212954" data-name="Trazado 212954" d="M381.228,307.177a.66.66,0,1,1,.744-.655.7.7,0,0,1-.744.655" transform="translate(-247.06 -98.306)" fill="#fff"/>
      <path id="Trazado_212955" data-name="Trazado 212955" d="M403.256,307.079a.472.472,0,1,1,.531-.468.5.5,0,0,1-.531.468" transform="translate(-288.247 -98.395)" fill="#fff"/>
      <path id="Trazado_212956" data-name="Trazado 212956" d="M425.286,306.981a.283.283,0,1,1,.319-.281.3.3,0,0,1-.319.281" transform="translate(-329.436 -98.484)" fill="#fff"/>
      <path id="Trazado_212957" data-name="Trazado 212957" d="M447.322,306.858a.047.047,0,1,1,.053-.047.05.05,0,0,1-.053.047" transform="translate(-370.632 -98.594)" fill="#fff"/>
      <path id="Trazado_212958" data-name="Trazado 212958" d="M6.98,332.952a2.405,2.405,0,1,1,0-4.772,2.405,2.405,0,1,1,0,4.772" transform="translate(452.897 -105.477)" fill="#fff"/>
      <path id="Trazado_212959" data-name="Trazado 212959" d="M28.977,332.952a2.405,2.405,0,1,1,0-4.772,2.405,2.405,0,1,1,0,4.772" transform="translate(411.741 -105.477)" fill="#fff"/>
      <path id="Trazado_212960" data-name="Trazado 212960" d="M50.975,332.952a2.405,2.405,0,1,1,2.71-2.386,2.563,2.563,0,0,1-2.71,2.386" transform="translate(370.583 -105.477)" fill="#fff"/>
      <path id="Trazado_212961" data-name="Trazado 212961" d="M72.972,332.952a2.405,2.405,0,1,1,2.71-2.386,2.563,2.563,0,0,1-2.71,2.386" transform="translate(329.427 -105.477)" fill="#fff"/>
      <path id="Trazado_212962" data-name="Trazado 212962" d="M94.985,332.9a2.311,2.311,0,1,1,2.6-2.292,2.463,2.463,0,0,1-2.6,2.292" transform="translate(288.254 -105.522)" fill="#fff"/>
      <path id="Trazado_212963" data-name="Trazado 212963" d="M116.99,332.878a2.264,2.264,0,1,1,2.55-2.245,2.413,2.413,0,0,1-2.55,2.245" transform="translate(247.09 -105.544)" fill="#fff"/>
      <path id="Trazado_212964" data-name="Trazado 212964" d="M139,332.853a2.217,2.217,0,1,1,2.5-2.2,2.363,2.363,0,0,1-2.5,2.2" transform="translate(205.924 -105.566)" fill="#fff"/>
      <path id="Trazado_212965" data-name="Trazado 212965" d="M161.017,332.779a2.075,2.075,0,1,1,2.338-2.059,2.212,2.212,0,0,1-2.338,2.059" transform="translate(164.745 -105.632)" fill="#fff"/>
      <path id="Trazado_212966" data-name="Trazado 212966" d="M183.03,332.73a1.981,1.981,0,1,1,2.231-1.965,2.111,2.111,0,0,1-2.231,1.965" transform="translate(123.571 -105.677)" fill="#fff"/>
      <path id="Trazado_212967" data-name="Trazado 212967" d="M205.051,332.656a1.84,1.84,0,1,1,2.072-1.825,1.96,1.96,0,0,1-2.072,1.825" transform="translate(82.392 -105.743)" fill="#fff"/>
      <path id="Trazado_212968" data-name="Trazado 212968" d="M227.073,332.583a1.7,1.7,0,1,1,1.913-1.684,1.809,1.809,0,0,1-1.913,1.684" transform="translate(41.21 -105.81)" fill="#fff"/>
      <path id="Trazado_212969" data-name="Trazado 212969" d="M249.093,332.508a1.557,1.557,0,1,1,1.753-1.544,1.659,1.659,0,0,1-1.753,1.544" transform="translate(0.031 -105.876)" fill="#fff"/>
      <path id="Trazado_212970" data-name="Trazado 212970" d="M271.115,332.434a1.415,1.415,0,1,1,1.594-1.4,1.508,1.508,0,0,1-1.594,1.4" transform="translate(-41.15 -105.942)" fill="#fff"/>
      <path id="Trazado_212971" data-name="Trazado 212971" d="M293.143,332.336a1.226,1.226,0,1,1,1.381-1.217,1.307,1.307,0,0,1-1.381,1.217" transform="translate(-82.338 -106.031)" fill="#fff"/>
      <path id="Trazado_212972" data-name="Trazado 212972" d="M315.164,332.262a1.085,1.085,0,1,1,1.222-1.076,1.156,1.156,0,0,1-1.222,1.076" transform="translate(-123.517 -106.098)" fill="#fff"/>
      <path id="Trazado_212973" data-name="Trazado 212973" d="M337.193,332.164a.9.9,0,1,1,1.01-.889.955.955,0,0,1-1.01.889" transform="translate(-164.707 -106.186)" fill="#fff"/>
      <path id="Trazado_212974" data-name="Trazado 212974" d="M359.222,332.065a.707.707,0,1,1,.8-.7.754.754,0,0,1-.8.7" transform="translate(-205.894 -106.275)" fill="#fff"/>
      <path id="Trazado_212975" data-name="Trazado 212975" d="M381.251,331.966a.519.519,0,1,1,.584-.514.552.552,0,0,1-.584.514" transform="translate(-247.083 -106.363)" fill="#fff"/>
      <path id="Trazado_212976" data-name="Trazado 212976" d="M403.28,331.868a.33.33,0,1,1,.372-.328.352.352,0,0,1-.372.328" transform="translate(-288.271 -106.452)" fill="#fff"/>
      <path id="Trazado_212977" data-name="Trazado 212977" d="M425.317,331.745a.094.094,0,1,1,.106-.094.1.1,0,0,1-.106.094" transform="translate(-329.468 -106.563)" fill="#fff"/>
      <path id="Trazado_212978" data-name="Trazado 212978" d="M7.027,357.667a2.122,2.122,0,1,1,0-4.211,2.122,2.122,0,1,1,0,4.211" transform="translate(452.85 -113.601)" fill="#fff"/>
      <path id="Trazado_212979" data-name="Trazado 212979" d="M29.016,357.691a2.17,2.17,0,1,1,2.444-2.152,2.312,2.312,0,0,1-2.444,2.152" transform="translate(411.702 -113.579)" fill="#fff"/>
      <path id="Trazado_212980" data-name="Trazado 212980" d="M51.014,357.691a2.17,2.17,0,1,1,2.444-2.152,2.312,2.312,0,0,1-2.444,2.152" transform="translate(370.544 -113.579)" fill="#fff"/>
      <path id="Trazado_212981" data-name="Trazado 212981" d="M73.019,357.667a2.122,2.122,0,1,1,2.391-2.106,2.262,2.262,0,0,1-2.391,2.106" transform="translate(329.38 -113.601)" fill="#fff"/>
      <path id="Trazado_212982" data-name="Trazado 212982" d="M95.025,357.642a2.075,2.075,0,1,1,2.338-2.059,2.212,2.212,0,0,1-2.338,2.059" transform="translate(288.214 -113.623)" fill="#fff"/>
      <path id="Trazado_212983" data-name="Trazado 212983" d="M117.03,357.617a2.028,2.028,0,1,1,2.285-2.012,2.161,2.161,0,0,1-2.285,2.012" transform="translate(247.051 -113.645)" fill="#fff"/>
      <path id="Trazado_212984" data-name="Trazado 212984" d="M139.043,357.568a1.934,1.934,0,1,1,2.178-1.918,2.061,2.061,0,0,1-2.178,1.918" transform="translate(205.877 -113.69)" fill="#fff"/>
      <path id="Trazado_212985" data-name="Trazado 212985" d="M161.056,357.518a1.84,1.84,0,1,1,2.072-1.825,1.96,1.96,0,0,1-2.072,1.825" transform="translate(164.705 -113.734)" fill="#fff"/>
      <path id="Trazado_212986" data-name="Trazado 212986" d="M183.07,357.469a1.745,1.745,0,1,1,1.966-1.731,1.86,1.86,0,0,1-1.966,1.731" transform="translate(123.532 -113.778)" fill="#fff"/>
      <path id="Trazado_212987" data-name="Trazado 212987" d="M205.09,357.4A1.6,1.6,0,1,1,206.9,355.8a1.709,1.709,0,0,1-1.806,1.591" transform="translate(82.352 -113.845)" fill="#fff"/>
      <path id="Trazado_212988" data-name="Trazado 212988" d="M227.1,357.347a1.509,1.509,0,1,1,1.7-1.5,1.608,1.608,0,0,1-1.7,1.5" transform="translate(41.179 -113.889)" fill="#fff"/>
      <path id="Trazado_212989" data-name="Trazado 212989" d="M249.125,357.273a1.368,1.368,0,1,1,1.541-1.357,1.457,1.457,0,0,1-1.541,1.357" transform="translate(-0.001 -113.956)" fill="#fff"/>
      <path id="Trazado_212990" data-name="Trazado 212990" d="M271.154,357.174a1.179,1.179,0,1,1,1.328-1.17,1.257,1.257,0,0,1-1.328,1.17" transform="translate(-41.19 -114.044)" fill="#fff"/>
      <path id="Trazado_212991" data-name="Trazado 212991" d="M293.175,357.1a1.038,1.038,0,1,1,1.169-1.029,1.106,1.106,0,0,1-1.169,1.029" transform="translate(-82.369 -114.111)" fill="#fff"/>
      <path id="Trazado_212992" data-name="Trazado 212992" d="M315.2,357.026a.9.9,0,1,1,1.009-.889.955.955,0,0,1-1.009.889" transform="translate(-123.549 -114.177)" fill="#fff"/>
      <path id="Trazado_212993" data-name="Trazado 212993" d="M337.225,356.927a.707.707,0,1,1,.8-.7.754.754,0,0,1-.8.7" transform="translate(-164.738 -114.266)" fill="#fff"/>
      <path id="Trazado_212994" data-name="Trazado 212994" d="M359.253,356.829a.519.519,0,1,1,.584-.514.552.552,0,0,1-.584.514" transform="translate(-205.926 -114.355)" fill="#fff"/>
      <path id="Trazado_212995" data-name="Trazado 212995" d="M381.283,356.731a.33.33,0,1,1,.372-.328.352.352,0,0,1-.372.328" transform="translate(-247.115 -114.443)" fill="#fff"/>
      <path id="Trazado_212996" data-name="Trazado 212996" d="M403.311,356.632a.142.142,0,1,1,.159-.141.151.151,0,0,1-.159.141" transform="translate(-288.302 -114.532)" fill="#fff"/>
      <path id="Trazado_212997" data-name="Trazado 212997" d="M7.066,382.406a1.886,1.886,0,1,1,0-3.742,1.886,1.886,0,1,1,0,3.742" transform="translate(452.81 -121.703)" fill="#fff"/>
      <path id="Trazado_212998" data-name="Trazado 212998" d="M29.063,382.406a1.886,1.886,0,1,1,2.125-1.872,2.01,2.01,0,0,1-2.125,1.872" transform="translate(411.654 -121.703)" fill="#fff"/>
      <path id="Trazado_212999" data-name="Trazado 212999" d="M51.061,382.406a1.886,1.886,0,1,1,2.125-1.872,2.01,2.01,0,0,1-2.125,1.872" transform="translate(370.497 -121.703)" fill="#fff"/>
      <path id="Trazado_213000" data-name="Trazado 213000" d="M73.066,382.382a1.839,1.839,0,1,1,2.072-1.825,1.96,1.96,0,0,1-2.072,1.825" transform="translate(329.333 -121.725)" fill="#fff"/>
      <path id="Trazado_213001" data-name="Trazado 213001" d="M95.072,382.357a1.792,1.792,0,1,1,2.019-1.778,1.91,1.91,0,0,1-2.019,1.778" transform="translate(288.167 -121.747)" fill="#fff"/>
      <path id="Trazado_213002" data-name="Trazado 213002" d="M117.077,382.332a1.745,1.745,0,1,1,1.966-1.731,1.86,1.86,0,0,1-1.966,1.731" transform="translate(247.003 -121.769)" fill="#fff"/>
      <path id="Trazado_213003" data-name="Trazado 213003" d="M139.083,382.308A1.7,1.7,0,1,1,141,380.623a1.809,1.809,0,0,1-1.913,1.684" transform="translate(205.838 -121.791)" fill="#fff"/>
      <path id="Trazado_213004" data-name="Trazado 213004" d="M161.1,382.258a1.6,1.6,0,1,1,1.806-1.591,1.709,1.709,0,0,1-1.806,1.591" transform="translate(164.666 -121.836)" fill="#fff"/>
      <path id="Trazado_213005" data-name="Trazado 213005" d="M183.109,382.209a1.509,1.509,0,1,1,1.7-1.5,1.609,1.609,0,0,1-1.7,1.5" transform="translate(123.493 -121.88)" fill="#fff"/>
      <path id="Trazado_213006" data-name="Trazado 213006" d="M205.13,382.135a1.368,1.368,0,1,1,1.541-1.357,1.457,1.457,0,0,1-1.541,1.357" transform="translate(82.313 -121.946)" fill="#fff"/>
      <path id="Trazado_213007" data-name="Trazado 213007" d="M227.143,382.085a1.273,1.273,0,1,1,1.434-1.263,1.357,1.357,0,0,1-1.434,1.263" transform="translate(41.14 -121.991)" fill="#fff"/>
      <path id="Trazado_213008" data-name="Trazado 213008" d="M249.164,382.013a1.132,1.132,0,1,1,1.275-1.123,1.207,1.207,0,0,1-1.275,1.123" transform="translate(-0.04 -122.057)" fill="#fff"/>
      <path id="Trazado_213009" data-name="Trazado 213009" d="M271.186,381.938a.991.991,0,1,1,1.116-.983,1.056,1.056,0,0,1-1.116.983" transform="translate(-41.221 -122.124)" fill="#fff"/>
      <path id="Trazado_213010" data-name="Trazado 213010" d="M293.206,381.864a.849.849,0,1,1,.956-.842.905.905,0,0,1-.956.842" transform="translate(-82.401 -122.19)" fill="#fff"/>
      <path id="Trazado_213011" data-name="Trazado 213011" d="M315.235,381.765a.66.66,0,1,1,.744-.655.7.7,0,0,1-.744.655" transform="translate(-123.588 -122.279)" fill="#fff"/>
      <path id="Trazado_213012" data-name="Trazado 213012" d="M337.256,381.691a.519.519,0,1,1,.584-.514.552.552,0,0,1-.584.514" transform="translate(-164.77 -122.345)" fill="#fff"/>
      <path id="Trazado_213013" data-name="Trazado 213013" d="M359.285,381.594a.33.33,0,1,1,.372-.328.352.352,0,0,1-.372.328" transform="translate(-205.957 -122.434)" fill="#fff"/>
      <path id="Trazado_213014" data-name="Trazado 213014" d="M381.314,381.495a.142.142,0,1,1,.159-.141.151.151,0,0,1-.159.141" transform="translate(-247.146 -122.523)" fill="#fff"/>
      <path id="Trazado_213015" data-name="Trazado 213015" d="M7.113,407.121a1.6,1.6,0,1,1,0-3.181,1.6,1.6,0,1,1,0,3.181" transform="translate(452.763 -129.827)" fill="#fff"/>
      <path id="Trazado_213016" data-name="Trazado 213016" d="M29.11,407.121a1.6,1.6,0,1,1,1.806-1.591,1.709,1.709,0,0,1-1.806,1.591" transform="translate(411.607 -129.827)" fill="#fff"/>
      <path id="Trazado_213017" data-name="Trazado 213017" d="M51.108,407.121a1.6,1.6,0,1,1,1.806-1.591,1.709,1.709,0,0,1-1.806,1.591" transform="translate(370.449 -129.827)" fill="#fff"/>
      <path id="Trazado_213018" data-name="Trazado 213018" d="M73.105,407.121a1.6,1.6,0,1,1,1.806-1.591,1.709,1.709,0,0,1-1.806,1.591" transform="translate(329.293 -129.827)" fill="#fff"/>
      <path id="Trazado_213019" data-name="Trazado 213019" d="M95.111,407.1a1.557,1.557,0,1,1,1.753-1.544,1.659,1.659,0,0,1-1.753,1.544" transform="translate(288.128 -129.849)" fill="#fff"/>
      <path id="Trazado_213020" data-name="Trazado 213020" d="M117.116,407.072a1.509,1.509,0,1,1,1.7-1.5,1.608,1.608,0,0,1-1.7,1.5" transform="translate(246.964 -129.871)" fill="#fff"/>
      <path id="Trazado_213021" data-name="Trazado 213021" d="M139.13,407.022a1.415,1.415,0,1,1,1.594-1.4,1.508,1.508,0,0,1-1.594,1.4" transform="translate(205.791 -129.915)" fill="#fff"/>
      <path id="Trazado_213022" data-name="Trazado 213022" d="M161.135,407a1.368,1.368,0,1,1,1.541-1.357A1.457,1.457,0,0,1,161.135,407" transform="translate(164.627 -129.937)" fill="#fff"/>
      <path id="Trazado_213023" data-name="Trazado 213023" d="M183.149,406.948a1.273,1.273,0,1,1,1.434-1.263,1.357,1.357,0,0,1-1.434,1.263" transform="translate(123.453 -129.982)" fill="#fff"/>
      <path id="Trazado_213024" data-name="Trazado 213024" d="M205.169,406.875a1.132,1.132,0,1,1,1.275-1.123,1.207,1.207,0,0,1-1.275,1.123" transform="translate(82.274 -130.048)" fill="#fff"/>
      <path id="Trazado_213025" data-name="Trazado 213025" d="M227.183,406.825a1.038,1.038,0,1,1,1.169-1.029,1.106,1.106,0,0,1-1.169,1.029" transform="translate(41.1 -130.092)" fill="#fff"/>
      <path id="Trazado_213026" data-name="Trazado 213026" d="M249.2,406.752a.9.9,0,1,1,1.009-.889.955.955,0,0,1-1.009.889" transform="translate(-0.079 -130.159)" fill="#fff"/>
      <path id="Trazado_213027" data-name="Trazado 213027" d="M271.225,406.678a.755.755,0,1,1,.85-.748.8.8,0,0,1-.85.748" transform="translate(-41.261 -130.226)" fill="#fff"/>
      <path id="Trazado_213028" data-name="Trazado 213028" d="M293.246,406.6a.613.613,0,1,1,.691-.608.653.653,0,0,1-.691.608" transform="translate(-82.44 -130.292)" fill="#fff"/>
      <path id="Trazado_213029" data-name="Trazado 213029" d="M315.266,406.53a.472.472,0,1,1,.531-.468.5.5,0,0,1-.531.468" transform="translate(-123.62 -130.358)" fill="#fff"/>
      <path id="Trazado_213030" data-name="Trazado 213030" d="M337.288,406.456a.33.33,0,1,1,.372-.328.352.352,0,0,1-.372.328" transform="translate(-164.801 -130.425)" fill="#fff"/>
      <path id="Trazado_213031" data-name="Trazado 213031" d="M359.316,406.357a.142.142,0,1,1,.159-.14.151.151,0,0,1-.159.14" transform="translate(-205.989 -130.513)" fill="#fff"/>
      <path id="Trazado_213032" data-name="Trazado 213032" d="M7.153,431.861a1.368,1.368,0,1,1,0-2.714,1.368,1.368,0,1,1,0,2.714" transform="translate(452.724 -137.928)" fill="#fff"/>
      <path id="Trazado_213033" data-name="Trazado 213033" d="M29.15,431.861a1.368,1.368,0,1,1,1.541-1.357,1.457,1.457,0,0,1-1.541,1.357" transform="translate(411.568 -137.928)" fill="#fff"/>
      <path id="Trazado_213034" data-name="Trazado 213034" d="M51.148,431.861a1.368,1.368,0,1,1,1.541-1.357,1.457,1.457,0,0,1-1.541,1.357" transform="translate(370.41 -137.928)" fill="#fff"/>
      <path id="Trazado_213035" data-name="Trazado 213035" d="M73.153,431.836a1.321,1.321,0,1,1,1.488-1.31,1.407,1.407,0,0,1-1.488,1.31" transform="translate(329.246 -137.95)" fill="#fff"/>
      <path id="Trazado_213036" data-name="Trazado 213036" d="M95.159,431.811a1.273,1.273,0,1,1,1.435-1.263,1.357,1.357,0,0,1-1.435,1.263" transform="translate(288.081 -137.973)" fill="#fff"/>
      <path id="Trazado_213037" data-name="Trazado 213037" d="M117.163,431.787a1.226,1.226,0,1,1,1.381-1.217,1.307,1.307,0,0,1-1.381,1.217" transform="translate(246.917 -137.995)" fill="#fff"/>
      <path id="Trazado_213038" data-name="Trazado 213038" d="M139.169,431.762a1.179,1.179,0,1,1,1.328-1.17,1.257,1.257,0,0,1-1.328,1.17" transform="translate(205.751 -138.017)" fill="#fff"/>
      <path id="Trazado_213039" data-name="Trazado 213039" d="M161.182,431.713a1.085,1.085,0,1,1,1.222-1.076,1.156,1.156,0,0,1-1.222,1.076" transform="translate(164.58 -138.061)" fill="#fff"/>
      <path id="Trazado_213040" data-name="Trazado 213040" d="M183.188,431.688a1.038,1.038,0,1,1,1.169-1.03,1.106,1.106,0,0,1-1.169,1.03" transform="translate(123.414 -138.083)" fill="#fff"/>
      <path id="Trazado_213041" data-name="Trazado 213041" d="M205.208,431.614a.9.9,0,1,1,1.009-.889.955.955,0,0,1-1.009.889" transform="translate(82.234 -138.15)" fill="#fff"/>
      <path id="Trazado_213042" data-name="Trazado 213042" d="M227.222,431.565a.8.8,0,1,1,.9-.8.854.854,0,0,1-.9.8" transform="translate(41.061 -138.194)" fill="#fff"/>
      <path id="Trazado_213043" data-name="Trazado 213043" d="M249.235,431.515a.707.707,0,1,1,.8-.7.754.754,0,0,1-.8.7" transform="translate(-0.111 -138.238)" fill="#fff"/>
      <path id="Trazado_213044" data-name="Trazado 213044" d="M271.256,431.442a.566.566,0,1,1,.638-.561.6.6,0,0,1-.638.561" transform="translate(-41.292 -138.305)" fill="#fff"/>
      <path id="Trazado_213045" data-name="Trazado 213045" d="M293.277,431.368a.424.424,0,1,1,.478-.421.452.452,0,0,1-.478.421" transform="translate(-82.472 -138.371)" fill="#fff"/>
      <path id="Trazado_213046" data-name="Trazado 213046" d="M315.3,431.294a.283.283,0,1,1,.319-.281.3.3,0,0,1-.319.281" transform="translate(-123.651 -138.438)" fill="#fff"/>
      <path id="Trazado_213047" data-name="Trazado 213047" d="M337.327,431.2a.094.094,0,1,1,.106-.094.1.1,0,0,1-.106.094" transform="translate(-164.84 -138.526)" fill="#fff"/>
      <path id="Trazado_213048" data-name="Trazado 213048" d="M7.2,456.576a1.085,1.085,0,1,1,0-2.152,1.085,1.085,0,1,1,0,2.152" transform="translate(452.677 -146.052)" fill="#fff"/>
      <path id="Trazado_213049" data-name="Trazado 213049" d="M29.2,456.576a1.085,1.085,0,1,1,1.222-1.076,1.156,1.156,0,0,1-1.222,1.076" transform="translate(411.521 -146.052)" fill="#fff"/>
      <path id="Trazado_213050" data-name="Trazado 213050" d="M51.195,456.576a1.085,1.085,0,1,1,1.222-1.076,1.156,1.156,0,0,1-1.222,1.076" transform="translate(370.363 -146.052)" fill="#fff"/>
      <path id="Trazado_213051" data-name="Trazado 213051" d="M73.192,456.576a1.085,1.085,0,1,1,1.222-1.076,1.156,1.156,0,0,1-1.222,1.076" transform="translate(329.207 -146.052)" fill="#fff"/>
      <path id="Trazado_213052" data-name="Trazado 213052" d="M95.2,456.551a1.038,1.038,0,1,1,1.169-1.029,1.106,1.106,0,0,1-1.169,1.029" transform="translate(288.041 -146.074)" fill="#fff"/>
      <path id="Trazado_213053" data-name="Trazado 213053" d="M117.2,456.526a.991.991,0,1,1,1.116-.983,1.056,1.056,0,0,1-1.116.983" transform="translate(246.877 -146.096)" fill="#fff"/>
      <path id="Trazado_213054" data-name="Trazado 213054" d="M139.209,456.5a.943.943,0,1,1,1.063-.936,1.005,1.005,0,0,1-1.063.936" transform="translate(205.712 -146.119)" fill="#fff"/>
      <path id="Trazado_213055" data-name="Trazado 213055" d="M161.221,456.452a.849.849,0,1,1,.956-.842.905.905,0,0,1-.956.842" transform="translate(164.54 -146.163)" fill="#fff"/>
      <path id="Trazado_213056" data-name="Trazado 213056" d="M183.235,456.4a.755.755,0,1,1,.85-.748.8.8,0,0,1-.85.748" transform="translate(123.367 -146.207)" fill="#fff"/>
      <path id="Trazado_213057" data-name="Trazado 213057" d="M205.248,456.353a.66.66,0,1,1,.744-.655.7.7,0,0,1-.744.655" transform="translate(82.195 -146.251)" fill="#fff"/>
      <path id="Trazado_213058" data-name="Trazado 213058" d="M227.262,456.3a.566.566,0,1,1,.638-.561.6.6,0,0,1-.638.561" transform="translate(41.021 -146.296)" fill="#fff"/>
      <path id="Trazado_213059" data-name="Trazado 213059" d="M249.274,456.255a.472.472,0,1,1,.531-.468.5.5,0,0,1-.531.468" transform="translate(-0.15 -146.34)" fill="#fff"/>
      <path id="Trazado_213060" data-name="Trazado 213060" d="M271.3,456.182a.33.33,0,1,1,.372-.328.352.352,0,0,1-.372.328" transform="translate(-41.332 -146.407)" fill="#fff"/>
      <path id="Trazado_213061" data-name="Trazado 213061" d="M293.317,456.108a.188.188,0,1,1,.213-.187.2.2,0,0,1-.213.187" transform="translate(-82.511 -146.473)" fill="#fff"/>
      <path id="Trazado_213062" data-name="Trazado 213062" d="M315.337,456.034a.047.047,0,1,1,.053-.047.05.05,0,0,1-.053.047" transform="translate(-123.691 -146.54)" fill="#fff"/>
      <path id="Trazado_213063" data-name="Trazado 213063" d="M7.239,481.315a.849.849,0,1,1,0-1.684.849.849,0,1,1,0,1.684" transform="translate(452.637 -154.154)" fill="#fff"/>
      <path id="Trazado_213064" data-name="Trazado 213064" d="M29.236,481.315a.849.849,0,1,1,.956-.842.905.905,0,0,1-.956.842" transform="translate(411.481 -154.154)" fill="#fff"/>
      <path id="Trazado_213065" data-name="Trazado 213065" d="M51.234,481.315a.849.849,0,1,1,.956-.842.905.905,0,0,1-.956.842" transform="translate(370.323 -154.154)" fill="#fff"/>
      <path id="Trazado_213066" data-name="Trazado 213066" d="M73.239,481.291a.8.8,0,1,1,.9-.8.854.854,0,0,1-.9.8" transform="translate(329.16 -154.176)" fill="#fff"/>
      <path id="Trazado_213067" data-name="Trazado 213067" d="M95.237,481.291a.8.8,0,1,1,.9-.8.854.854,0,0,1-.9.8" transform="translate(288.002 -154.176)" fill="#fff"/>
      <path id="Trazado_213068" data-name="Trazado 213068" d="M117.242,481.266a.755.755,0,1,1,.85-.749.8.8,0,0,1-.85.749" transform="translate(246.838 -154.198)" fill="#fff"/>
      <path id="Trazado_213069" data-name="Trazado 213069" d="M139.256,481.216a.66.66,0,1,1,.744-.655.7.7,0,0,1-.744.655" transform="translate(205.665 -154.242)" fill="#fff"/>
      <path id="Trazado_213070" data-name="Trazado 213070" d="M161.261,481.192a.613.613,0,1,1,.691-.608.653.653,0,0,1-.691.608" transform="translate(164.501 -154.264)" fill="#fff"/>
      <path id="Trazado_213071" data-name="Trazado 213071" d="M183.274,481.143a.519.519,0,1,1,.584-.514.552.552,0,0,1-.584.514" transform="translate(123.327 -154.309)" fill="#fff"/>
      <path id="Trazado_213072" data-name="Trazado 213072" d="M205.287,481.093a.424.424,0,1,1,.478-.421.452.452,0,0,1-.478.421" transform="translate(82.156 -154.353)" fill="#fff"/>
      <path id="Trazado_213073" data-name="Trazado 213073" d="M227.3,481.044a.33.33,0,1,1,.372-.328.352.352,0,0,1-.372.328" transform="translate(40.982 -154.397)" fill="#fff"/>
      <path id="Trazado_213074" data-name="Trazado 213074" d="M249.314,480.995a.236.236,0,1,1,.266-.234.251.251,0,0,1-.266.234" transform="translate(-0.19 -154.442)" fill="#fff"/>
      <path id="Trazado_213075" data-name="Trazado 213075" d="M271.335,480.921a.094.094,0,1,1,.106-.094.1.1,0,0,1-.106.094" transform="translate(-41.371 -154.508)" fill="#fff"/>
      <path id="Trazado_213076" data-name="Trazado 213076" d="M7.287,506.03a.566.566,0,1,1,.638-.561.6.6,0,0,1-.638.561" transform="translate(452.59 -162.278)" fill="#fff"/>
      <path id="Trazado_213077" data-name="Trazado 213077" d="M29.284,506.03a.566.566,0,1,1,.638-.561.6.6,0,0,1-.638.561" transform="translate(411.434 -162.278)" fill="#fff"/>
      <path id="Trazado_213078" data-name="Trazado 213078" d="M51.282,506.03a.566.566,0,1,1,.638-.561.6.6,0,0,1-.638.561" transform="translate(370.276 -162.278)" fill="#fff"/>
      <path id="Trazado_213079" data-name="Trazado 213079" d="M73.279,506.03a.566.566,0,1,1,.638-.561.6.6,0,0,1-.638.561" transform="translate(329.12 -162.278)" fill="#fff"/>
      <path id="Trazado_213080" data-name="Trazado 213080" d="M95.284,506.005a.519.519,0,1,1,.584-.514.552.552,0,0,1-.584.514" transform="translate(287.955 -162.3)" fill="#fff"/>
      <path id="Trazado_213081" data-name="Trazado 213081" d="M117.289,505.981a.472.472,0,1,1,.531-.468.5.5,0,0,1-.531.468" transform="translate(246.791 -162.322)" fill="#fff"/>
      <path id="Trazado_213082" data-name="Trazado 213082" d="M139.3,505.956a.424.424,0,1,1,.478-.421.453.453,0,0,1-.478.421" transform="translate(205.625 -162.344)" fill="#fff"/>
      <path id="Trazado_213083" data-name="Trazado 213083" d="M161.3,505.932a.377.377,0,1,1,.425-.375.4.4,0,0,1-.425.375" transform="translate(164.461 -162.366)" fill="#fff"/>
      <path id="Trazado_213084" data-name="Trazado 213084" d="M183.314,505.882a.283.283,0,1,1,.319-.281.3.3,0,0,1-.319.281" transform="translate(123.288 -162.411)" fill="#fff"/>
      <path id="Trazado_213085" data-name="Trazado 213085" d="M205.326,505.833a.189.189,0,1,1,.213-.187.2.2,0,0,1-.213.187" transform="translate(82.116 -162.455)" fill="#fff"/>
      <path id="Trazado_213086" data-name="Trazado 213086" d="M227.34,505.784a.094.094,0,1,1,.106-.094.1.1,0,0,1-.106.094" transform="translate(40.943 -162.499)" fill="#fff"/>
      <path id="Trazado_213087" data-name="Trazado 213087" d="M249.345,505.76a.047.047,0,1,1,.053-.047.05.05,0,0,1-.053.047" transform="translate(-0.221 -162.522)" fill="#fff"/>
      <path id="Trazado_213088" data-name="Trazado 213088" d="M7.334,530.745a.283.283,0,1,1,.319-.281.3.3,0,0,1-.319.281" transform="translate(452.543 -170.402)" fill="#fff"/>
      <path id="Trazado_213089" data-name="Trazado 213089" d="M29.323,530.77a.33.33,0,1,1,.372-.328.352.352,0,0,1-.372.328" transform="translate(411.395 -170.38)" fill="#fff"/>
      <path id="Trazado_213090" data-name="Trazado 213090" d="M51.321,530.77a.33.33,0,1,1,.372-.328.352.352,0,0,1-.372.328" transform="translate(370.237 -170.38)" fill="#fff"/>
      <path id="Trazado_213091" data-name="Trazado 213091" d="M73.326,530.745a.283.283,0,1,1,.319-.281.3.3,0,0,1-.319.281" transform="translate(329.073 -170.402)" fill="#fff"/>
      <path id="Trazado_213092" data-name="Trazado 213092" d="M95.324,530.745a.283.283,0,1,1,.319-.281.3.3,0,0,1-.319.281" transform="translate(287.915 -170.402)" fill="#fff"/>
      <path id="Trazado_213093" data-name="Trazado 213093" d="M117.329,530.721a.236.236,0,1,1,.266-.234.251.251,0,0,1-.266.234" transform="translate(246.752 -170.424)" fill="#fff"/>
      <path id="Trazado_213094" data-name="Trazado 213094" d="M139.335,530.7a.188.188,0,1,1,.213-.187.2.2,0,0,1-.213.187" transform="translate(205.586 -170.446)" fill="#fff"/>
      <path id="Trazado_213095" data-name="Trazado 213095" d="M161.347,530.646a.094.094,0,1,1,.106-.094.1.1,0,0,1-.106.094" transform="translate(164.414 -170.49)" fill="#fff"/>
      <path id="Trazado_213096" data-name="Trazado 213096" d="M183.353,530.622a.047.047,0,1,1,.053-.047.05.05,0,0,1-.053.047" transform="translate(123.249 -170.512)" fill="#fff"/>
      <path id="Trazado_213097" data-name="Trazado 213097" d="M7.373,555.485a.047.047,0,1,1,.053-.047.05.05,0,0,1-.053.047" transform="translate(452.503 -178.503)" fill="#fff"/>
      <path id="Trazado_213098" data-name="Trazado 213098" d="M29.37,555.485a.047.047,0,1,1,.053-.047.05.05,0,0,1-.053.047" transform="translate(411.347 -178.503)" fill="#fff"/>
      <path id="Trazado_213099" data-name="Trazado 213099" d="M51.368,555.485a.047.047,0,1,1,.053-.047.05.05,0,0,1-.053.047" transform="translate(370.19 -178.503)" fill="#fff"/>
      <path id="Trazado_213100" data-name="Trazado 213100" d="M73.365,555.485a.047.047,0,1,1,.053-.047.05.05,0,0,1-.053.047" transform="translate(329.034 -178.503)" fill="#fff"/>
      <path id="Trazado_213101" data-name="Trazado 213101" d="M95.363,555.485a.047.047,0,1,1,.053-.047.05.05,0,0,1-.053.047" transform="translate(287.876 -178.503)" fill="#fff"/>
    </g>
  </g>
</svg>
