<svg id="Grupo_845849" data-name="Grupo 845849" xmlns="http://www.w3.org/2000/svg" xmlns:xlink="http://www.w3.org/1999/xlink" width="143.402" height="155.184" viewBox="0 0 143.402 155.184">
  <defs>
    <clipPath id="clip-path">
      <rect id="Rectángulo_37598" data-name="Rectángulo 37598" width="143.402" height="155.184" fill="none"/>
    </clipPath>
  </defs>
  <g id="Grupo_845848" data-name="Grupo 845848" clip-path="url(#clip-path)">
    <path id="Trazado_583938" data-name="Trazado 583938" d="M10.614,69.434c1.36.344,1.279,1.411,1.229,2.46a3.364,3.364,0,0,1,1.229,3.074c0,.579,0,1.159,0,1.738,0,.42-.081.761-.616.722-.347,1.184-.151,2.424-.456,3.639-1.652,6.556,1.374,11.029,8.218,11.88,4.316.537,7.225,2.586,8.722,6.659a16.229,16.229,0,0,1,.585,3.012c1.125,6.85,5.934,9.719,12.566,7.507,6.743-2.245,9.677-1.4,14.2,4.1,3.919,4.764,9.761,4.714,13.867-.4,2.651-3.3,5.716-5.164,10.015-4.781a14.174,14.174,0,0,1,3.821,1.064c6.354,2.413,11.605-.593,12.747-7.267,1.178-6.886,3.018-8.717,9.99-9.94,6.67-1.173,9.671-6.458,7.233-12.733-2.287-5.878-1.352-9.576,3.446-13.607,5.691-4.781,5.534-10.475-.42-15.13-4.022-3.146-5.2-7.5-3.337-12.336,2.875-7.449-.126-12.568-7.964-13.584a9.833,9.833,0,0,1-8.817-8.831c-.35-2.5-.994-4.843-2.866-6.634C91.343,7.5,88.356,6.62,84.737,8.076c-6.925,2.785-9.85,1.945-14.645-3.894a8.906,8.906,0,0,0-13.912.02c-4.84,5.85-7.673,6.6-14.659,3.888-5.346-2.077-10.6,1.072-11.869,7.1-1.593,7.614-3.169,9.165-10.631,10.469a8.831,8.831,0,0,0-6.964,12.025c2.556,7.253,1.853,9.822-4,14.659A8.772,8.772,0,0,0,7.661,65.6a10.247,10.247,0,0,1,2.953,3.832" transform="translate(8.683 1.525)" fill="#ffeeb0"/>
    <path id="Trazado_583939" data-name="Trazado 583939" d="M17.158,70.959c.143-.742,1.078-1.276.369-2.343-6.1-4.465-5.33-4.943-5.285-10.063.1-.165.2-.325.291-.493,1.523-2.922,1.523-2.925,4.61-4.935,1.537-1,3.67-4.761,3.695-6.575.022-1.534.006-3.071.006-4.711-1.43-1.666-1.7-3.9-2.435-5.982.868-1.176.392-2.872,1.316-4.008A25.332,25.332,0,0,1,22.981,28.7c2.108-1.363,4.624-.361,6.836-1.366a11.956,11.956,0,0,0,4.871-3.715,8.23,8.23,0,0,0,2.161-5.579,8.34,8.34,0,0,1,1.735-5.1c1.352-1.971,3.5-2.724,5.624-3.46,1.209-.42,2.237.54,3.393.725,1.058.171,2,1.058,3.143,1.719.851,0,1.867-.056,2.88.008a9.327,9.327,0,0,0,9.013-4.717,7.382,7.382,0,0,1,6.354-3.924c.238-.011.459-.361.7-.563a1.926,1.926,0,0,0,1.246.616c2.279.216,3.765,1.4,5.316,3.393.983,1.262,1.755,2.735,3.376,3.513,1.755.843,3.359,1.917,5.453,1.7a35.45,35.45,0,0,1,3.659-.022C90.066,10.489,92,10.3,93.635,9.6c1.688-.719,3.566.353,4.89,1.218a8.078,8.078,0,0,1,3.983,7.166c-.134,2.942,1.579,4.963,3.1,7.012.795,1.069,2.343,1.621,3.619,2.267a4.51,4.51,0,0,1,1.019.655,24.633,24.633,0,0,0,3.306-.034c1.069-.146,1.735,1.114,2.836.63.722.731,1.444,1.453,2.158,2.186,1.71,1.747,2.013,3.143,1.884,5.8a8.216,8.216,0,0,1-1.232,4.129,4.406,4.406,0,0,0-.7,2.791,42.853,42.853,0,0,1,.036,4.33c.087.451.467.784.663,1.226a9.952,9.952,0,0,0,4.638,5.332c2.43,1.262,3.065,3.331,3.283,5.719.092,1.016.014,2.049.014,3.093a15.272,15.272,0,0,1-4.554,4.857,9.548,9.548,0,0,0-4.09,7.793c-.034,2.418.028,4.784,1.528,6.746.731.957-.311,2.332.938,2.931.227.677-.6.9-.554,1.341.255,2.469-1.386,3.9-2.984,5.2a7.7,7.7,0,0,1-5.1,1.727c-5.011-.137-9.783,4.593-9.758,9.638a9.122,9.122,0,0,1-4.036,7.5,3.284,3.284,0,0,1-2.458.753,24.831,24.831,0,0,0-4.031-.056c-1.223-.63-2.239-1.156-3.575-1.845-1.061,0-2.483.02-3.9,0a9.1,9.1,0,0,0-7.74,4.109,14.315,14.315,0,0,1-4.873,4.5,9.736,9.736,0,0,0-1.884.02c-2.251.406-4.031-.607-5.666-1.9a7.466,7.466,0,0,1-1.749-2.206c-1.761-3.118-4.523-4.426-7.958-4.518-2.161-.056-4.26-.12-6.281,1.164-1.825,1.159-4.081.593-6.127.686-4.308-2.083-5.811-5.64-5.447-9.979a15.242,15.242,0,0,1-1.218-2.169c-1.039-2.931-3.325-4.316-6.057-5.38a6.2,6.2,0,0,0-2.323-.3,9.057,9.057,0,0,1-7.309-3.8,3.132,3.132,0,0,1-.941-2.371c.1-.585.232-1.3-.77-1.467,1.019-1.73.6-3.8,2.01-5.03.078-1.117-1.2-1.218-1.22-2.116-.633-.05-.829.966-1.514.672a18.324,18.324,0,0,0-1.52,2.752c-.353.985.521,2.262-.882,3.183,1.24,1.016.7,2.4.98,3.586.677,2.2,2.315,3.659,3.86,5.19,1.582,1.568,3.924,1.436,5.867,2.581-1.45,2.139-2.824,4.182-4.218,6.211-3.118,4.54-6.225,9.106-9.43,13.573-3.348,4.666-6.363,9.59-10.108,13.968-.389.451-.062,1.288-.845,1.391v3.547c.641,1.316,1.142,2.5,2.57,2.822a9.1,9.1,0,0,0,4.493.067c2.494-.759,5.039-1.176,7.558-1.763,1.971-.462,3.838-1.405,5.976-1.178.879.395.781,1.54,1.394,2.027a136.522,136.522,0,0,0,1.982,15.435c.7.546,1.5,1.17,2.726,2.133H31.63c2.866-2.486,4.691-6.015,7.018-9.145,2.374-3.191,4.655-6.455,6.931-9.722,2.432-3.488,4.792-7.032,7.222-10.522,1.831-2.631,3.659-5.271,5.64-7.787.5-.63.179-1.752,1.646-1.839a12.641,12.641,0,0,0,8.045,5.223c4.966.182,5.523.792,11.418-5.537,5,6.715,9.408,13.848,14.528,20.325H95.8c2.1-1.478.591-2.892-.218-4.118-3.58-5.4-7.432-10.612-11.043-15.989-.381-.574-1.047-1.022-.733-2.136a7.831,7.831,0,0,1,5.2.339c9.537,3.317,15.857-.5,17.467-10.517.417-2.586.789-3.205,2.855-4.745.988-.011,1.366.767,1.831,1.433,7.734,11.018,15.589,21.951,23,33.025-1.187,1.612-2.351.969-3.373.773-3.311-.635-6.589-1.442-9.884-2.164-5.318-1.164-7.983.725-8.641,6.158-.4,3.348-.778,6.7-1.262,10.041-.126.887.014,1.875-.89,2.522-1.4.162-1.9-.977-2.53-1.853-1.078-1.492-2.147-2.992-3.272-4.451-.927-1.2-1.993-2.167-3.591-.941.12.529-.523.577-.6,1.428,2.2,3.337,4.484,7.079,7.566,10.234h4.439c.627-.68,1.318-1.428,2.122-2.3a143.469,143.469,0,0,0,1.948-15.163c.406-.537.507-1.495,1.265-2.038,1.724-.817,3.384.179,4.865.588,2.505.691,5.114.91,7.547,1.763a16.051,16.051,0,0,0,5.584.546c2.782-1.747,2.782-1.747,2.7-6.494-2.021-2.836-4.084-5.657-6.06-8.54-.7-1.022-1.313-2.15-2.024-3.132-3.421-4.705-6.62-9.565-10.015-14.279-2.158-3-3.944-6.27-6.531-8.932a2.641,2.641,0,0,1,1.856-1.078,6.626,6.626,0,0,0,4.109-1.873c1.593-1.467,3.328-2.869,3.787-5.226.3-1.044-.182-2.315.879-3.309-1.061-1-.574-2.273-.7-3.132-.649-1.262-1.173-2.281-1.85-3.594,0-.677-.076-1.7.014-2.7.218-2.469.725-4.686,3.317-6,2.253-1.139,2.8-2.141,5.271-6.452,0-1.31-.017-2.738,0-4.162a8.72,8.72,0,0,0-4.14-7.695,12.213,12.213,0,0,1-4.465-4.957c0-.9.084-2.127-.028-3.339a3.885,3.885,0,0,1,.635-2.209c.705-1.383,1.551-2.718,1.271-4.412-.048-.283.375-.644.571-.96.246-.711-.593-.921-.644-1.6a10.238,10.238,0,0,0-5.307-8.392,12.046,12.046,0,0,0-5.3-1.29,7.225,7.225,0,0,1-7.16-7.135,11.123,11.123,0,0,0-1.268-5.008,8.682,8.682,0,0,0-3.085-3.605,8.584,8.584,0,0,1-1.458-1.422A8.894,8.894,0,0,1,98.3,7.4a8.539,8.539,0,0,0-7.7.16c-2.76,1.416-2.808,1.327-7.2,1.254a12.816,12.816,0,0,1-5.027-4.647A8.722,8.722,0,0,0,71.16.238c-.854-.006-1.612-.487-2.589-.064-.837.361-1.845.266-2.816.6A8.429,8.429,0,0,0,60.868,4.33,10.479,10.479,0,0,1,55.84,8.848c-.484,0-1.391-.02-2.3.006a5.369,5.369,0,0,1-3.9-.974c-1.3-1.08-3.071-1.1-4.613-1.386A7.38,7.38,0,0,0,40.9,7.51a2.872,2.872,0,0,1-1,.123c-4.613,2.7-6.461,6.715-6.133,11.712-.372,1.338-1.447,2.125-1.951,3.3-.21.493-1.212.876-1.856,1.3a4.513,4.513,0,0,1-2.69.938,10.92,10.92,0,0,0-7.583,2.41,10.752,10.752,0,0,0-3.729,6.223c-.16.756.14,1.624-.641,2.186.907,2.2.633,4.829,2.458,6.673v4.708A13.256,13.256,0,0,1,13.136,52.1a8.747,8.747,0,0,0-3.975,7.81c.062,1.327.011,2.659.011,3.975A6.2,6.2,0,0,1,10.5,66.427c.98,2.491,3.334,3.373,5.444,4.507.319.174.806.025,1.218.025" transform="translate(2.139 0)"/>
    <path id="Trazado_583940" data-name="Trazado 583940" d="M47.5,79.471h2C51.57,82.4,53.591,85.248,55.54,88c1.19.12,2.225.35,3.026-.921-.507-2.726.924-5.5.607-8.414,1.352-2.01.21-4.412,1.114-6.609.672-1.629,1.324-2.908,3.152-3.65,2.046-.188,4.174.593,6.379.994,2.474.448,4.882,1.215,7.393,1.545,1.45.19,2.858.725,4.5.423.467-.7.078-1.632.238-2.654-1.85-1.3-2.609-3.524-4.022-5.282-2.186-2.721-4.031-5.71-6.052-8.563-2.349-3.314-4.633-6.684-7-9.993-2.144-2.992-4.207-6.041-6.307-9.064-2.346-.851-2.964,1.092-3.86,2.466a6.754,6.754,0,0,0-.689,2.953C52.925,49.861,45.247,54.673,37.023,51.9c-1.346-.453-2.578-1.335-4.036-1.332-1.12,0-2.71-.249-2.074,1.845A42.406,42.406,0,0,0,35.2,58.885c.955,1.192,1.755,2.516,2.595,3.8,1.786,2.724,3.961,5.184,5.372,8.017.2.719-.711.8-.577,1.388-.025.6.509.82.848,1.12.456.4.375.862.381,1.338a3.907,3.907,0,0,1,2.458,2.46q.613,1.23,1.229,2.46" transform="translate(55.356 64.052)" fill="#636363"/>
    <path id="Trazado_583941" data-name="Trazado 583941" d="M8.179,31.209C6.172,32.827,6.354,35.43,4.955,37.3c-1.36,1.24-3.4,1.749-4.955,3.255A7,7,0,0,0,2.567,42.7c2.015.927,3.575,2.346,3.832,4.761.062.579.551.969.753,1.526a1.394,1.394,0,0,0,2.164.658,34.72,34.72,0,0,1,2.069-5c1.025-1.733,3.135-2.141,4.817-3.026-.246-2.046-.633-2.449-2.76-2.844-.845-.9-1.749-1.867-2.729-2.914a5.89,5.89,0,0,0-2.533-4.649" transform="translate(0 56.15)" fill="#020201"/>
    <path id="Trazado_583942" data-name="Trazado 583942" d="M61.485,40.268a3.039,3.039,0,0,0-2.141-1.444c-2.578-.641-3.3-2.648-3.983-4.745a4.85,4.85,0,0,0-1.736-2.83c-2.029,1.677-2.155,1.909-2.553,4.535L48.3,38.706c-2.108.372-2.5.784-2.766,2.824,1.971,1,4.2,1.646,5.506,3.849-.022,1.506,1.066,2.841,1.36,4.344a1.847,1.847,0,0,0,2.242-.778,3.662,3.662,0,0,0,.392-1.05c.425-2.284,1.873-3.84,3.586-5.313,1.845-.409,1.845-.409,2.869-2.315" transform="translate(81.917 56.222)" fill="#010101"/>
    <path id="Trazado_583943" data-name="Trazado 583943" d="M37.886,52.3a3.889,3.889,0,0,1,.02-.9c.039-.162.277-.277.221-.224-.507-.507-1.022-1.022-1.534-1.537-.364-.809-.535.3-1.164.2V52.3Z" transform="translate(63.742 88.764)" fill="#120807"/>
    <path id="Trazado_583944" data-name="Trazado 583944" d="M8.967,29.3c-.048-.778.624-.521,1-.691.16-2.1.039-2.225-2.228-2.382.073.481-.481.582-.579.915a4.835,4.835,0,0,0-.022,1.22c.582.3,1.206.619,1.831.938" transform="translate(12.788 47.191)" fill="#16140c"/>
    <path id="Trazado_583945" data-name="Trazado 583945" d="M94.258,28.28c-.952-.258-1.324-1.2-2.144-1.791h-3.8a64.257,64.257,0,0,0-8.47-9.226,33.139,33.139,0,0,0-11.27-6.855,44.949,44.949,0,0,0-6.195-2.1c-.341-.078-.689-.4-1.086-.311-1.833.406-3.435-.843-5.274-.661-1.822.176-3.684-.048-5.517.056A39.6,39.6,0,0,0,37.54,10.172a71.788,71.788,0,0,0-9.806,5.212A9.3,9.3,0,0,0,26.17,16.8c-.949.929-1.735,2.178-2.864,2.74-1.26.627-1.456,1.965-2.505,2.676-1.506,1.019-1.9,3.062-3.8,4.168H13.428c-.7,1.069-1.738,1.66-2.281,2.85a2.992,2.992,0,0,0-.395,2.251c1.243,2.7,1.638,5.657,2.623,8.434.854,2.413,1.316,4.96,2.225,7.37a1.214,1.214,0,0,1-.006.9c-1.1,1.957-1.122,4.255-1.937,6.265-1.223,3.009-1.551,6.256-2.886,9.246-.9,2.007,1.615,4.971,4.025,5.153,1.008.076,2.024.011,2.981.011.453.4.381.935.666,1.363,1.993,2.976,4.8,5.176,7.2,7.754a5.407,5.407,0,0,0,1.313,1.279c2.421,1.209,4.434,3.065,6.819,4.291a9.775,9.775,0,0,0,1.537.725c3.079.946,6.119,2.013,9.173,3.037,1.833-.47,3.471.591,5.265.652,16.165.557,28.834-5.783,38.276-19.107,2.242.05,4.826.341,6.228-2.452,1.638-.927,1.321-2.323.932-3.762C94.1,58.6,93,54.556,91.749,50.559a10.356,10.356,0,0,1,.036-6.3q1.671-5.58,3.317-11.166c.532-1.814.582-3.407-.845-4.809" transform="translate(19.045 13.162)" fill="#d6c37d"/>
    <path id="Trazado_583946" data-name="Trazado 583946" d="M64,69.522a8.354,8.354,0,0,0,1.1,3.233,5.4,5.4,0,0,1,.635,3.95c-.439.389-.733.887-1.509.843a20.128,20.128,0,0,0-4.062.467c-2.472.369-4.283,1.763-6.113,3.082-3.306,2.382-4.809,6.043-5.971,9.783A12.06,12.06,0,0,0,48.03,94.4a2.093,2.093,0,0,1-3,.675c-3.664-2.3-7.726-1.582-11.639-1.472-1.6.045-3.171,1.159-4.753,1.789-.585.322.16,1.422-.554,1.36.383.54.845,1.2,1.246,1.763,5.246-2.715,10.27-2.684,15.843-.1h3.272c.411-.442.9-.96,1.386-1.484a3.886,3.886,0,0,0,1.265-3.16c-.389-3.132.915-5.792,2.7-8.084a11.593,11.593,0,0,1,6.953-4.647c.314-.062.574-.462,1.036-.459,1.677.011,3.393.266,4.974-.593.722-.722,1.442-1.447,2.155-2.164.341-2.892.19-3.39-.957-5.867a14.192,14.192,0,0,1-.907-5.783,12.683,12.683,0,0,1,5.061-10.463c1.223-1.011,2.365-2.1,3.552-3.06V48.9c-.266-1.749-1.875-2.284-3.051-2.942-2.788-1.559-3.773-4.23-4.929-6.869-1.145-2.614-.361-5.358-.621-7.888a9.513,9.513,0,0,0,2-6.018,1.961,1.961,0,0,1-.134-1.237c-.017-.535-.574-.736-.893-1.1A5.514,5.514,0,0,0,63.613,20.9a12.047,12.047,0,0,1-8.921-4.23c-2.3-2.57-4.025-5.747-3.619-9.039-.663-.924-1.134-1.576-1.464-2.035-.938-.1-1.05.591-1.481.745-.7,5.123,1.285,9.4,4.672,12.756,3.2,3.174,7.211,5.29,12.053,4.915,1.209.817,1.22,1.819.7,3.107C64.92,28.7,64.512,30.375,64,32.01c-2.195,7.936,1.607,13.528,7.2,18.105a2.907,2.907,0,0,1-1.472,2.511c-5.279,4.49-7.51,10.01-5.73,16.9" transform="translate(50.526 10.048)" fill="#f6e3af"/>
    <path id="Trazado_583948" data-name="Trazado 583948" d="M30.293,39.789c-.431-.5-1.159-.1-1.352-.756-1.691.073-1.861,1.853-2.945,2.612-.132.862.893,1.246.848,2.1h1.3c1.1-.983,2.22-2.046,2.144-3.955" transform="translate(46.752 70.227)" fill="#f5e0a6"/>
    <path id="Trazado_583949" data-name="Trazado 583949" d="M25.58,35.676C22.713,39.807,20,44.056,16.925,48.028c-2.032,2.626-3.843,5.408-5.766,8.092-2.41,3.365-4.952,6.673-7.026,10.265-.487.843-1.363,1.192-1.819,2.724v2c.146.07.314.221.484.227,2.967.126,5.744-.873,8.588-1.475,2.245-.479,4.448-1.156,6.707-1.556,1.735-.305,2.544,0,4.63,1.033.927,1.794,1.931,3.729,1.59,5.94-.216,1.386.694,2.43.7,3.743.008,1.243-.249,2.455.445,3.8.582,1.128.12,2.8.12,4.21.305.308.6.6.9.9H28.3a8.275,8.275,0,0,0,2.183-2.721c3.046-4.588,6.214-9.1,9.419-13.562,3.345-4.658,6.438-9.506,10-14.021a19.5,19.5,0,0,0,3.325-5.344c.647-1.789-.711-1.786-1.772-1.867-1.257-.1-2.346.591-3.482,1.027-8.8,3.379-16.655-1.3-17.878-10.651-.487-3.723-1.755-5.156-4.515-5.114" transform="translate(4.162 64.185)" fill="#a2a7c5"/>
    <path id="Trazado_583950" data-name="Trazado 583950" d="M32.433,53.883v-.96a4.291,4.291,0,0,1,3.908.355,15.954,15.954,0,0,0,6.908,1.859c2.662.126,4.882-1.019,7.046-2.265a11.477,11.477,0,0,0,4.367-4.249c.675-1.17.54-2.69,1.733-3.642,0-.879.036-1.8-.006-2.71-.112-2.377,1.246-3.832,3.088-4.98.146-.092.4-.014.6-.014-.23-.985-1.576-1.276-1.391-2.494-3.169,1.243-4.649,3.309-4.764,6.3A11.836,11.836,0,0,1,47.59,51.3c-.4.238-.988.154-1.271.742-.9,0-1.814-.064-2.718.011a11.115,11.115,0,0,1-6.746-1.5,3.109,3.109,0,0,0-1.7-.344c-1.223-.036-2.446-.011-3.661-.011-.269.728-1.114.417-1.568,1,1.369.411,1.016,2.363,2.511,2.693" transform="translate(53.835 62.583)" fill="#524848"/>
    <path id="Trazado_583951" data-name="Trazado 583951" d="M10.625,37.259A4.941,4.941,0,0,1,14.3,41.64c.042,1.117.008,2.237.008,3.325,1.327,1.069.778,3.093,2.217,4.045,1.335,3.034,4.23,4.246,6.92,5.388,3.477,1.478,7.11.885,10.433-.82a6.141,6.141,0,0,1,4.185-.854c.4.314.129.761.207,1.139,1.495-.333,1.142-2.281,2.514-2.693-.456-.582-1.3-.272-1.556-.966-2.466-.067-4.885-.227-7.194,1.136a6.6,6.6,0,0,1-4.011.7,24.957,24.957,0,0,0-2.978-.022c-3.283-.938-5.05-3.275-7.015-5.209a11.909,11.909,0,0,0-.263-1.551,10.873,10.873,0,0,1-1.025-3.586c-.017-3.463-1.142-5.176-4.3-6.878-.96-.05-.367,1-.927,1.324-.375.218-.913.518-.89,1.139" transform="translate(19.116 62.601)" fill="#626888"/>
    <path id="Trazado_583952" data-name="Trazado 583952" d="M53.908,58.835c1.763-.649,1.624-1.708,1.554-2.92-1.638-1.358-2.654-3.4-3.877-5.26s-2.637-3.558-3.818-5.45c-1.131-1.811-2.153-3.885-4.064-4.868-.649.509-1.265.994-2.007,1.579,4.193,5.7,7.709,11.65,12.213,16.918" transform="translate(75.017 72.575)" fill="#524848"/>
    <path id="Trazado_583953" data-name="Trazado 583953" d="M42.635,38.208a1.945,1.945,0,0,0-2.365.834c-.148,1.279.63,2.181,1.262,3.2a4.135,4.135,0,0,0,2.279.062c.5-1.691-.238-2.911-1.176-4.1" transform="translate(72.42 68.521)" fill="#524848"/>
    <path id="Trazado_583954" data-name="Trazado 583954" d="M4.108,33.758a1.382,1.382,0,0,0-.815,1.321c-.014.666-1.307-.017-1.24.621,1.162,1.153,2.141,2.127,2.92,2.9.157-.854,1.542-1.416,2.239-2.74-.952-.644-1.867-1.265-3.1-2.1" transform="translate(3.69 60.737)" fill="#ea3584"/>
    <path id="Trazado_583955" data-name="Trazado 583955" d="M49.639,38.513c1.061-1.011,1.856-1.763,2.8-2.659.14-.742-1.405.048-1.321-1.016.042-.568-.551-.991-.977-1.122-.868.91-1.671,1.752-2.62,2.752.77.591,1.338,1.811,2.122,2.046" transform="translate(85.492 60.659)" fill="#ea3584"/>
    <path id="Trazado_583956" data-name="Trazado 583956" d="M84.717,64.655c1.747.4,3.309-.314,4.943-.717.395-1.293-.137-2.446-.453-3.684-.985-3.888-2.505-7.633-3.107-11.625-.966-.6-.2-1.982-1.156-2.592.927-1.089.647-2.53,1.092-3.787,1.332-3.759,2.391-7.619,3.527-11.449.375-1.265.655-2.561-.68-3.569H84.367A39.807,39.807,0,0,0,73.341,15.417a36.156,36.156,0,0,0-14.365-6.1c-8.1-1.523-8.9-1.3-16.2-.025a35.912,35.912,0,0,0-14.407,6,36.913,36.913,0,0,0-11.1,11.927h-4.6c-1.352,1.134-.974,2.385-.633,3.653,1.318,4.876,3.239,9.582,4.151,14.575.053.291.375.364.174.89-1.335,3.463-1.769,7.211-3.3,10.62.179,2.4-1.867,4.367-1.229,6.866a9.413,9.413,0,0,0,5.022.859c1.54.966,2.318,2.581,3.247,3.91,2.682,3.843,6.41,6.363,10.063,9.064,3.3,2.441,7.213,3.365,10.9,4.834,1.025.409,2.276.087,3.44.6a6.815,6.815,0,0,0,3.037.056c.929-.067,1.5.77,2.514.677,6.757-.621,13.495-1.45,19.424-5.013,4.546-2.732,8.927-5.738,12.022-10.3a12.882,12.882,0,0,1,3.216-3.863" transform="translate(21.059 14.85)"/>
    <path id="Trazado_583957" data-name="Trazado 583957" d="M25.035,47.1c-.375-1.674-.372-1.68-2.329-2Q17.223,52.89,11.5,61v1.685c.582.607,1.338.154,2.29.383,3.717-5.279,7.493-10.642,11.242-15.969" transform="translate(20.698 81.152)" fill="#626888"/>
    <path id="Trazado_583958" data-name="Trazado 583958" d="M16.57,45v1.976c.364.479,1.111.034,1.3.7.143.232.235.168.437-.045.621-.658,1.285-1.274,1.9-1.875V44.389c-.439-.761-.689-1.2-1.044-1.814-1,.932-1.783,1.666-2.592,2.421" transform="translate(29.812 76.6)" fill="#626888"/>
    <path id="Trazado_583959" data-name="Trazado 583959" d="M43.783,16.125v1.229q-7.6,0-15.222,0h-15.5a19.058,19.058,0,0,0,1.4,5.909c1.1,3.046,1.318,6.357,2.883,9.249a1.46,1.46,0,0,1-.05,1.184c-1.405,2.634-1.7,5.629-2.682,8.409a22.66,22.66,0,0,0-1.579,5.889H83.64a2.864,2.864,0,0,0,.064-.935c-.873-2.914-1.724-5.836-2.7-8.714-.549-1.618-.579-3.393-1.551-4.893-.207-.322.109-.91.255-1.388,1.4-4.649,2.693-9.335,4-14.016.042-.157-.1-.361-.176-.647H53.9c-.28-.526-.932-.649-.9-1.276a2.544,2.544,0,0,0-2.631-.537c-.658.2-1.212.722-1.965.644a14.344,14.344,0,0,1-1.976-.683,2.726,2.726,0,0,0-2.642.577" transform="translate(23.44 27.778)" fill="#ededed"/>
    <path id="Trazado_583960" data-name="Trazado 583960" d="M20.726,30.6c-.09,1.176.787,1.915,1.162,2.948H46.977a4.4,4.4,0,0,0,1.4-2.948c-.288-1.713-1.738-1.548-2.852-1.57q-10.971-.21-21.943,0c-1.114.022-2.561-.143-2.852,1.57" transform="translate(37.279 52.042)" fill="#e8e8e8"/>
    <path id="Trazado_583961" data-name="Trazado 583961" d="M48.37,15.821c.1-1.184-.82-1.9-1.1-2.948H22.119a4.4,4.4,0,0,0-1.4,2.948c.288,1.713,1.738,1.548,2.852,1.57q10.971.21,21.943,0c1.114-.022,2.561.143,2.852-1.57" transform="translate(37.283 23.161)" fill="#e8e8e8"/>
    <path id="Trazado_583962" data-name="Trazado 583962" d="M42.943,16.043c-2.1-2.8-4.081-4.733-6.67-5.738-3.474-1.344-5.677-1.54-9.78.985a22.453,22.453,0,0,0-4.487,4.028,3.317,3.317,0,0,0,.2.515c.056.081.143.2.216.2,6.612.008,13.223.008,20.521.008" transform="translate(39.591 16.788)" fill="#e8e8e8"/>
    <path id="Trazado_583963" data-name="Trazado 583963" d="M22.018,31.757c1.8,3.46,4.77,4.974,8.14,6.083,2.718.893,5.016-.048,7.247-1.29,2-1.114,4.048-2.284,4.873-4.792Z" transform="translate(39.614 57.136)" fill="#e8e8e8"/>
    <path id="Trazado_583964" data-name="Trazado 583964" d="M21.509,31.845a.469.469,0,0,1,.484-.6q13.34-.021,26.679,0a.469.469,0,0,1,.484.6c1.041-.969.938-2.287,1.45-3.611H20.3a4.487,4.487,0,0,0,1.209,3.611" transform="translate(36.495 50.798)" fill="#b9b9b9"/>
    <path id="Trazado_583965" data-name="Trazado 583965" d="M49.552,13.926a.469.469,0,0,1-.484.6q-13.34.021-26.679,0a.469.469,0,0,1-.484-.6c-1.013.619-.507,1.934-1.839,2.833,3.782.467,7,.084,10.189.3.532.479,1.106.938.865,1.791h3.074c1.022-.294,2.046-.683,3.071,0h3.074c.165-.887,1.072-1.159,1.562-1.912h9.075c-.652-1.083-.459-2.262-1.422-3.009" transform="translate(36.101 25.055)" fill="#b9b9b9"/>
    <path id="Trazado_583966" data-name="Trazado 583966" d="M32.756,29.994c.106,1.316-1.089,2.192-1.307,3.569h8.5c.739-.918,1.987-1.663,2.642-2.953.067-.949-.641-1.26-1.321-1.332-2.878-.316-5.789-.871-8.51.717" transform="translate(56.583 52.033)" fill="#e8e8e8"/>
    <path id="Trazado_583967" data-name="Trazado 583967" d="M15.9,30.61c.521,1.276,1.822,1.856,2.575,2.953h8.49c.017-1.43-1.414-2.228-1.234-3.569-2.721-1.587-5.635-1.033-8.51-.717-.68.076-1.388.386-1.321,1.332" transform="translate(28.592 52.033)" fill="#e8e8e8"/>
    <path id="Trazado_583968" data-name="Trazado 583968" d="M25.727,15.824c.294-.983,1.184-1.719,1.262-2.953H18.539c-.739.915-1.987,1.66-2.642,2.953a.96.96,0,0,0,.507,1c2.349,1.226,7.393.677,9.324-1" transform="translate(28.591 23.157)" fill="#e8e8e8"/>
    <path id="Trazado_583969" data-name="Trazado 583969" d="M42.558,15.824c-.571-1.369-2-1.943-2.6-2.953h-8.49c.078,1.234.969,1.971,1.262,2.953,2.609,2.267,7.908,2.267,9.831,0" transform="translate(56.611 23.157)" fill="#e8e8e8"/>
    <path id="Trazado_583970" data-name="Trazado 583970" d="M17.477,31.831c.006-.826.633-.6,1.075-.607,2.92-.014,5.836-.008,8.756-.008.034-.616-.851-.848-.624-1.573.238-.77-.565-.98-.8-1.4-3.6,0-7.132,0-10.662.011-.067,0-.137.137-.2.21-.092.991.736,1.478,1.332,1.839.661.4.109,1.537,1.125,1.528" transform="translate(27.01 50.812)" fill="#b9b9b9"/>
    <path id="Trazado_583971" data-name="Trazado 583971" d="M31.916,31.215c2.92,0,5.836-.008,8.756.008.442,0,1.069-.218,1.075.607.952-.16.635-1.293,1.352-1.727.532-.322,1.218-.778,1.106-1.643-.07-.073-.137-.21-.2-.21-3.53-.008-7.06-.008-10.7-.008-1.117.588-.509,2.144-1.38,2.973" transform="translate(57.423 50.812)" fill="#b9b9b9"/>
    <path id="Trazado_583972" data-name="Trazado 583972" d="M27.334,13.927c-.616-.045-.834.677-1.551.652-2.6-.1-5.206-.028-7.813-.05a.468.468,0,0,1-.467-.6c-1.5.311-1.134,2.284-2.505,2.7a2.089,2.089,0,0,0,.26.272.5.5,0,0,0,.26.1c3.44.006,6.88,0,10.281,0a4.424,4.424,0,0,0,1.534-3.074" transform="translate(26.984 25.054)" fill="#b9b9b9"/>
    <path id="Trazado_583973" data-name="Trazado 583973" d="M41.75,13.927a.468.468,0,0,1-.467.6c-2.6.022-5.212-.045-7.813.05-.714.025-.935-.7-1.551-.652-.076,1.167.745,1.929,1.243,2.948H44.241c-.467-.56-1.075-.98-1.212-1.52a1.747,1.747,0,0,0-1.279-1.428" transform="translate(57.42 25.054)" fill="#b9b9b9"/>
    <path id="Trazado_583974" data-name="Trazado 583974" d="M38.838,31.759H32.674a3.451,3.451,0,0,1-1.509,2c-.677.521-.54,1.45-1.562,2.211,3.757-.33,6.379-2.038,9.235-4.216" transform="translate(53.261 57.14)" fill="#e8e8e8"/>
    <path id="Trazado_583975" data-name="Trazado 583975" d="M18.423,31.759c2.78,2.172,5.4,3.768,8.971,4.294-.529-.907-.882-1.621-1.338-2.259s-1.276-1-1.29-2.035Z" transform="translate(33.146 57.14)" fill="#e8e8e8"/>
    <path id="Trazado_583976" data-name="Trazado 583976" d="M23.267,13.912c.876-1.058,1.755-2.116,2.55-3.076-.3-.708-.767-.736-1.086-.593-1.987.887-4.1,1.551-5.764,3.054,1.218,1.713,2.8.837,4.3.616" transform="translate(34.125 18.304)" fill="#e8e8e8"/>
    <path id="Trazado_583977" data-name="Trazado 583977" d="M36.991,13.231c-2.388-.985-4.5-2.637-7.213-3.02,1.052,1.2,1.226,3.018,2.914,3.636,1.495.221,3.082,1.094,4.3-.616" transform="translate(53.576 18.371)" fill="#e8e8e8"/>
    <path id="Trazado_583978" data-name="Trazado 583978" d="M24.235,11.906H20.682c-.417,0-.789-.053-.747-.616-.607-.034-.731.593-1.506,1.016,2.175.221,3.983.529,5.8-.115.031-.011,0-.188,0-.286" transform="translate(33.157 20.31)" fill="#67b0d3"/>
    <path id="Trazado_583979" data-name="Trazado 583979" d="M35.127,11.29c.042.563-.33.616-.75.616H30.827a.467.467,0,0,0,.453.6c1.654.028,3.309.011,5.069.011-.3-.731-.635-1.114-1.223-1.229" transform="translate(55.441 20.313)" fill="#67b0d3"/>
    <path id="Trazado_583980" data-name="Trazado 583980" d="M33.307,38.4c.655,0,1.363.008,2.069,0a5.6,5.6,0,0,0,5.6-5.556q.034-4.593,0-9.184a5.588,5.588,0,0,0-5.6-5.551c-.708-.008-1.414,0-1.763,0a7.239,7.239,0,0,0-4.3,4.412c0,2.956.106,6.416-.034,9.87a5.8,5.8,0,0,0,3.018,5.358,7.049,7.049,0,0,1,1.016.655" transform="translate(52.658 32.564)" fill="#010101"/>
    <path id="Trazado_583981" data-name="Trazado 583981" d="M28.326,35.246c-.417-.42-.921-.927-1.439-1.45V32c-1.058-1.271-1.31-1.285-3.015-.146v3.074a10.423,10.423,0,0,0,3.412,3.429h3.51a13.652,13.652,0,0,0,3.423-3.381V30.145c-.42-.686-1.374-1.089-1.416-2.1-.921-.014-1.327-.789-1.923-1.31H28.4c-.467-.5-.952-1.022-1.542-1.657.328-1.156-.714-2.721.988-3.835h2.323c1.808.736.171,3,2.2,3.631h1.763c.053-1.055.109-2.133.16-3.135-.784-1.587-1.635-2.99-3.421-3.5-2.976-.414-5.722-.129-7.057,3.631.146,1.727-.574,4,1.243,5.819,1.22,1.22,2.455,2.312,4.683,2.071.221.448.543,1.1.865,1.755.854.49.347,1.416.63,2.245-.862.6-1.218,1.839-2.908,1.486" transform="translate(42.804 32.556)" fill="#020202"/>
    <path id="Trazado_583982" data-name="Trazado 583982" d="M18.737,18.137c-1.285,1.072-1.044,1.982.1,2.967H21.48V35.05c-.781.551-1.853-.059-2.78.322-1.024.882-1.243,1.791.036,2.85h8.77c1.173-1.369,1.156-1.374-.056-2.964H24.758V21.308c.781-.551,1.856.059,2.782-.319,1.025-.885,1.24-1.794-.036-2.852Z" transform="translate(32.122 32.632)" fill="#020202"/>
    <path id="Trazado_583983" data-name="Trazado 583983" d="M28.185,16.945c.23-.952-.425-1.391-1.089-1.962a3.725,3.725,0,0,0-1.982,1.962c-.062.635.663.694.778,1.176h2.035c.437-.372.185-.8.258-1.176" transform="translate(45.179 26.957)" fill="#0d1113"/>
    <path id="Trazado_583984" data-name="Trazado 583984" d="M30.38,31.784l1.654,1.467h2.421c.339-.423.781-.971,1.4-1.741V20.551c-.372-.207-1-.554-1.632-.9.112-.14.221-.28.333-.42H31.836c-.448.448-.949.952-1.456,1.456v11.1" transform="translate(54.659 34.598)" fill="#ececec"/>
  </g>
</svg>
