<svg xmlns="http://www.w3.org/2000/svg" xmlns:xlink="http://www.w3.org/1999/xlink" width="218" height="218" viewBox="0 0 218 218">
  <defs>
    <clipPath id="clip-path">
      <rect id="Rectángulo_55207" data-name="Rectángulo 55207" width="218" height="218" transform="translate(-0.154 -0.154)" fill="#636363"/>
    </clipPath>
  </defs>
  <g id="Grupo_599081" data-name="Grupo 599081" transform="translate(0.154 0.154)">
    <g id="Grupo_599080" data-name="Grupo 599080" clip-path="url(#clip-path)">
      <path id="Trazado_236231" data-name="Trazado 236231" d="M170.225,0H47.663A47.661,47.661,0,0,0,0,47.663V170.225a47.661,47.661,0,0,0,47.663,47.663H170.225a47.661,47.661,0,0,0,47.663-47.663V47.663A47.661,47.661,0,0,0,170.225,0" transform="translate(0 0)" fill="#12263f"/>
      <path id="Trazado_236232" data-name="Trazado 236232" d="M66.014,108.04A44.985,44.985,0,1,0,21.029,63.055,45.039,45.039,0,0,0,66.014,108.04m5.132-85.267,3.868-1.422a42.348,42.348,0,0,1,14.995,6.437c-.384-.039-1.4-.145-1.574-.2-.215-.073-.551,1.377-.551,1.377l1.773.705.484-1.782a43.228,43.228,0,0,1,5.184,4.228L92.717,34.72h-.46l-.375-1.471-1.428-2.566-5.042-1.816-3.483,1.686L83.9,34.838A33.213,33.213,0,0,0,67.167,29.66V23.69l3.553,1.123-1.477-2.6-2.076.887V20.433a41.875,41.875,0,0,1,4.557.369l-1.746.581ZM94.491,55.7l.85-.36.212-2.088A30.862,30.862,0,0,1,97.1,61.9H89.276l.287-1.25,2.212-.194,1.831-3.117-.051-.584-1.876,2.4-1.144.281-.729-.856.856-1.459L88.8,55.75,87.119,57.22a21.757,21.757,0,0,0-1.864-4.648l.911-.333.729-.436-.006-.856.469-.584-.272-.163c-.2.094-1.244.4-1.244.4l-.36,1.177-.521.315a21.788,21.788,0,0,0-2.678-3.668L86.6,44.1l.039.061,1.05-.629-.163-.357L88.8,41.9A31.191,31.191,0,0,1,95.386,52.79L94.312,51.2l-.554.206ZM88.8,84.211l-2.333-2.333-.881-2.333-.454,1-.9-.9.926-2.836-.6-2.061-.042.006A21.96,21.96,0,0,0,86.19,71.61H86.2c.142,0,.672-.672.672-.672l1.3.142,3.353-1.326-1.286-1.223-.76-.675-.587-1.2-1.05-1.831c.015-.2.021-.412.03-.62H97.1a31,31,0,0,1-8.3,20M44.025,82.734l1.156-2.018L42.7,72.028l-1.961-4.839,1.776-.769.481-1.444,1.2-.033A21.824,21.824,0,0,0,49.748,77.69l-5.093,5.093Zm2.778-21.3-.027.469h-.312c.009-.179.012-.357.027-.536ZM76.418,79.648l-.4-.215-5.033,1.946-2.606-1-1.214.336V79.051l1.256-.381.76.185,1.6.626-.968-1.767,2.073,1.737.993.227-.3-1.325.672-2.188L75.6,74.733l.2,1.319-2.863,1.555.551,1.1,2.975-.6.048,1.486-.1.061M64.558,70.98l-.091-.191-.539.03A8.042,8.042,0,0,1,61.971,70l2.009-.245.881-2.367v3.619c-.1-.012-.206-.012-.3-.03m-8.434-4.939-1.961-.3,1-1.531h.587a10.482,10.482,0,0,0,.375,1.834m11.046-7.98.539.163.681.823-1.22,1.223Zm3.638,14.659-.938,1.1-1.559.775-.524-.917L67.472,75.5l-.3.118v-2.3c.218-.024.442-.027.657-.067l.744.935.62-.772-.048-.514a10.739,10.739,0,0,0,1.026-.345Zm-.7-12.123-.024,1.247-.045.057H68.8Zm.741,4.294,1.492-.045.814.678-.272.487-1.138-.651-.623.487.312.935-.012.042L68.8,64.208h1.743Zm-.99,3.634-1.425-.151-1.008,2.612c-.085.015-.173.012-.254.024V65.839ZM62.452,61.9l-.1-.421-1,.421h-.442l.145-.608.648-.626-.514-.118-.533.76-.554.254.067.339H59.58l.351-1.365,1.026-.908L63.23,61.9ZM58.17,64.208l.236.278.16-.278h.826L58.318,65.37a8.191,8.191,0,0,1-.26-1.162Zm1.28,3.51,1.489-2.575-.39-.348.66-.339.082-.248h1.047l-.239.13-.1.345.814-.054-.605.6-.617.13-.127.614-1.891,1.891c-.039-.051-.085-.094-.121-.148m5.411-12.38-.43-.067.333,1.383.1.076v3.541l-1.94-1.94,1.362-.735-1.229-2.037a8,8,0,0,1,1.807-.463Zm-18.206,8.87-.024.439-.1.587c-.036-.339-.051-.684-.07-1.026Zm1.129,2.739,1.434,1.444,1.177-.82L53.167,69.9l2.984.524.832-2.345A10.528,10.528,0,0,0,57.94,69.5l-2.563,2.563.412-1.05-1.525-.248.487,1.792.073.061-3.444,3.444a19.553,19.553,0,0,1-4.573-9.045Zm11.787,4.182a10.256,10.256,0,0,0,5.29,2.191v2.666l-.024.064.024-.009v2l-.672.133-.39,2.5,1.062-.121v.793l-1.68.466-.56.539a19.528,19.528,0,0,1-9.611-4.66ZM79.03,80.646l1.692.36,1.664.051.917.914-2.8-.1-1.8-.981c.112-.079.218-.163.327-.245m1.622-4.588-.505-.505,1.029-.079c-.166.2-.351.39-.524.584M83.3,53.8l-1.613.024a9.74,9.74,0,0,0-1.277.965l-.862,1.12-.26-1.365.611-1.4-.472-.433-2.115,1.347-.448-.227,1.652-1.652.363.121,1.053-.248-.536-.754,1.259-1.256A19.65,19.65,0,0,1,83.3,53.8M77.111,50.33l-.1-.324-.684.109-.427.823-1.879.185c.136.275.723,1.419.775,1.522L72.46,54.981a10.178,10.178,0,0,0-1.592-1.047l.291-.154-.345-1.159-.233-.427-1.041,1.138a10.291,10.291,0,0,0-2.373-.542V43.5A19.493,19.493,0,0,1,79.021,48.42Zm-12.25,2.46a10.364,10.364,0,0,0-2.152.472l.348-.8-1.8,1.413,0,.006a10.633,10.633,0,0,0-1.689,1.1L53.01,48.417A19.507,19.507,0,0,1,64.861,43.5Zm-7.29,3.45-3.1.545.109-1.18-2.572-.887-4.11.859a19.554,19.554,0,0,1,3.483-5.529Zm-9.956.1,1.289.272-1.546.427c.076-.236.172-.466.257-.7M44.158,61.9h-.2l.209-.194c-.006.064-.006.127-.009.194m2.457,22.182,4.763-4.763a21.858,21.858,0,0,0,9.245,4.951l-1.64,1.58,3.532,4.666,2.345.13V94.14A30.93,30.93,0,0,1,48.244,88.6l.763-.5ZM67.17,90.775l2.972.163.079.681L72.03,93.6a31.346,31.346,0,0,1-4.86.536Zm18.9-6.04,1.108,1.108c-.53.493-1.062.981-1.625,1.434Zm1.108-44.467-.675.675-.8-1.749-1.456-.778s-1.359-1.2-2.064-1.934a31.125,31.125,0,0,1,5,3.786m-5.311-3.976,1.02,3.568,2.382,2.073.094.151-4.706,4.706A21.791,21.791,0,0,0,67.17,41.2V31.969a30.875,30.875,0,0,1,14.692,4.321m-17,4.906a21.791,21.791,0,0,0-13.482,5.592l-6.522-6.522a30.967,30.967,0,0,1,20-8.3ZM49.748,48.42a21.848,21.848,0,0,0-5.1,9.829L42.618,61.9h-7.69a30.99,30.99,0,0,1,8.3-20.006Zm-8.24,15.788-2.191,4.709-3.1-1.153-.584,2.064a31.5,31.5,0,0,1-.705-5.62ZM39.2,87.567l.36.315-4.482,4.482a42.763,42.763,0,0,1-7.611-11.124l1.189.7,7.95,7.072Zm2.088,1.849,1.083.962,3.52-.669a33.247,33.247,0,0,0,18.974,6.736v9.227A42.466,42.466,0,0,1,36.7,93.995Zm25.886,7.03a33.372,33.372,0,0,0,5.729-.66l.215,1.419,5.5,4.055L84.8,97.826,86.58,94.08l-.118-2.318,1.171-2.742-.287-.224c.505-.418.977-.875,1.456-1.322l1.065,1.062.324,2.009,1.207-.478,3.928,3.928a42.482,42.482,0,0,1-28.159,11.681Zm24.779-9.091-.221-2.624-.294.012a33.275,33.275,0,0,0,7.974-20.536h9.227A42.466,42.466,0,0,1,96.957,92.364ZM99.408,61.9A33.164,33.164,0,0,0,94.7,45.942l3.922,3.668,3.147-2.705-4.83-7.281-3.187-2.451.009-.233,3.193-3.193A42.466,42.466,0,0,1,108.635,61.9ZM64.861,29.66a33.285,33.285,0,0,0-21.634,8.976L36.7,32.115A42.469,42.469,0,0,1,64.861,20.433ZM41.6,40.267A33.282,33.282,0,0,0,32.622,61.9H23.4A42.451,42.451,0,0,1,35.074,33.746Zm-8.973,23.94a33.212,33.212,0,0,0,1.828,9.82L34.1,75.263l-9.015-.2A42.427,42.427,0,0,1,23.4,64.208Z" transform="translate(42.609 36.614)" fill="#f6f6f6"/>
      <path id="Trazado_236233" data-name="Trazado 236233" d="M40.712,65.816l8.328-1.347a.941.941,0,0,0,.539-1.571A74.177,74.177,0,0,1,41.29,52.552a41.158,41.158,0,0,0-8.758-9.469S33.6,57.358,44.365,62.26c0,0-10.67-2.693-17.495-4.518S18.179,53.9,18.179,53.9s5.326,13.642,22.533,11.911" transform="translate(36.835 87.296)" fill="#f6f6f6"/>
      <path id="Trazado_236234" data-name="Trazado 236234" d="M38.533,58.826c-.287-3.556-2.887-12.65-7.789-20.167,0,0,.006,18.269,6.494,24.455,0,0-9.182-8.806-14.662-12.843a26.959,26.959,0,0,1-7.4-8.074s1.38,11.542,8.846,17.3c5.045,3.895,16.245,6.633,16.245,6.633a30.6,30.6,0,0,1-1.731-7.305" transform="translate(30.746 78.332)" fill="#f6f6f6"/>
      <path id="Trazado_236235" data-name="Trazado 236235" d="M23.136,55.733l5.611,4.851a.909.909,0,0,0,1.507-.666,39.051,39.051,0,0,1,.572-6.782c.672-2.978,1.5-12.656-1.891-19.689,0,0-4.1,12.6-.9,23.1A144.517,144.517,0,0,0,17.85,42.469a20.872,20.872,0,0,1-3.759-6.912S14,48.14,23.136,55.733" transform="translate(28.551 67.773)" fill="#f6f6f6"/>
      <path id="Trazado_236236" data-name="Trazado 236236" d="M22.083,54.825a.916.916,0,0,0,1.6-.227,69.113,69.113,0,0,1,4.067-9.176c3.462-6.346,1.864-13.812,1.864-13.812a65,65,0,0,0-7.166,20.1c-.1-.469-.218-.974-.354-1.552-1.525-6.407-7.457-22.394-7.457-22.394s-2.085,8.779.521,15.733c1.341,3.568,5.084,8.843,6.921,11.324" transform="translate(28.067 56.264)" fill="#f6f6f6"/>
      <path id="Trazado_236237" data-name="Trazado 236237" d="M17.867,52.358a.648.648,0,0,0,1.25.021,15.982,15.982,0,0,1,3.934-6.54,41.054,41.054,0,0,0,9.281-16.045S23.1,37.2,20.192,42.192a60.989,60.989,0,0,0-.7-11.83,15.626,15.626,0,0,1,.947-8.3s-5.85,5.614-4.984,15.9a86.236,86.236,0,0,0,2.412,14.4" transform="translate(31.139 44.696)" fill="#f6f6f6"/>
      <path id="Trazado_236238" data-name="Trazado 236238" d="M18.981,41.363a46.272,46.272,0,0,1,7.774-6c3.925-2.2,7.027-9.306,7.711-10.885,0,0-10.937,8.952-13.912,11.823,0,0,1.8-8,2.957-11.463s1.008-4.612,2.018-6.055c0,0-5.266,4.615-6.706,8.292-1.186,3.02-.959,9.89-1.12,13.682a.763.763,0,0,0,1.277.605" transform="translate(35.87 38.061)" fill="#f6f6f6"/>
      <path id="Trazado_236239" data-name="Trazado 236239" d="M26.672,27.493c3.075-2.5,7.977-9.8,7.977-9.8-1.214.693-6.152,2.4-10.283,6.633a20.211,20.211,0,0,0-5,10s4.231-4.324,7.305-6.824" transform="translate(39.242 35.84)" fill="#f6f6f6"/>
      <path id="Trazado_236240" data-name="Trazado 236240" d="M91.876,52.631c-9.036-1.779-16.774-3.075-25.844-.717-.445.118-.862.251-1.292.375-.433-.124-.847-.26-1.3-.375-9.07-2.357-16.808-1.062-25.844.717a48.823,48.823,0,0,1-15.942.215S27.318,58.59,40.2,58.59c5.62,0,12.68-4.73,17.138-4.981a19.393,19.393,0,0,1,3.253.124c-9.566,3.9-13.984,9.823-14.072,9.938a1.15,1.15,0,0,0,.224,1.613,1.131,1.131,0,0,0,.7.236,1.148,1.148,0,0,0,.917-.454c.354-.466,7.42-7.777,16.387-10.477C73.7,57.288,80.773,64.6,81.124,65.066a1.158,1.158,0,0,0,.92.454,1.137,1.137,0,0,0,.7-.236,1.152,1.152,0,0,0,.221-1.613c-.088-.115-4.5-6.034-14.072-9.938a19.418,19.418,0,0,1,3.253-.124C76.6,53.86,83.663,58.59,89.28,58.59c12.883,0,18.539-5.744,18.539-5.744a48.823,48.823,0,0,1-15.942-.215" transform="translate(43.886 102.596)" fill="#f6f6f6"/>
      <path id="Trazado_236241" data-name="Trazado 236241" d="M48.619,62.26c10.767-4.9,11.833-19.177,11.833-19.177a41.158,41.158,0,0,0-8.758,9.469A74.356,74.356,0,0,1,43.4,62.9a.94.94,0,0,0,.539,1.571l8.328,1.347C69.478,67.547,74.808,53.9,74.808,53.9s-1.87,2.009-8.694,3.837S48.619,62.26,48.619,62.26" transform="translate(87.431 87.296)" fill="#f6f6f6"/>
      <path id="Trazado_236242" data-name="Trazado 236242" d="M66.012,50.271C60.532,54.308,51.35,63.114,51.35,63.114c6.488-6.186,6.494-24.455,6.494-24.455-4.9,7.517-7.5,16.611-7.789,20.167a30.6,30.6,0,0,1-1.731,7.305s11.2-2.739,16.245-6.633c7.466-5.756,8.846-17.3,8.846-17.3a26.959,26.959,0,0,1-7.4,8.074" transform="translate(97.915 78.332)" fill="#f6f6f6"/>
      <path id="Trazado_236243" data-name="Trazado 236243" d="M55.362,56.55c3.208-10.5-.9-23.1-.9-23.1-3.4,7.033-2.566,16.711-1.891,19.689a39.049,39.049,0,0,1,.572,6.782.909.909,0,0,0,1.507.666l5.611-4.851C69.4,48.14,69.31,35.554,69.31,35.554a20.873,20.873,0,0,1-3.759,6.912A144.778,144.778,0,0,0,55.362,56.55" transform="translate(105.297 67.773)" fill="#f6f6f6"/>
      <path id="Trazado_236244" data-name="Trazado 236244" d="M60.139,51.718a64.877,64.877,0,0,0-7.166-20.1s-1.595,7.466,1.861,13.809A69.473,69.473,0,0,1,58.907,54.6a.913.913,0,0,0,1.6.227c1.843-2.482,5.586-7.759,6.921-11.327,2.612-6.954.521-15.733.521-15.733s-5.928,15.988-7.454,22.4c-.136.575-.248,1.08-.354,1.552" transform="translate(106.591 56.264)" fill="#f6f6f6"/>
      <path id="Trazado_236245" data-name="Trazado 236245" d="M63.653,30.363a60.989,60.989,0,0,0-.7,11.83c-2.911-4.993-12.138-12.4-12.138-12.4A41.017,41.017,0,0,0,60.1,45.839a15.917,15.917,0,0,1,3.931,6.54.649.649,0,0,0,1.25-.021,85.906,85.906,0,0,0,2.412-14.4c.866-10.283-4.984-15.9-4.984-15.9a15.619,15.619,0,0,1,.947,8.3" transform="translate(102.965 44.696)" fill="#f6f6f6"/>
      <path id="Trazado_236246" data-name="Trazado 236246" d="M62.461,36.3c-2.978-2.872-13.915-11.823-13.915-11.823.687,1.58,3.789,8.685,7.714,10.885a46.114,46.114,0,0,1,7.774,6,.763.763,0,0,0,1.277-.605c-.163-3.792.064-10.661-1.12-13.682-1.444-3.677-6.706-8.292-6.706-8.292,1.011,1.44.866,2.6,2.018,6.055S62.461,36.3,62.461,36.3" transform="translate(98.365 38.061)" fill="#f6f6f6"/>
      <path id="Trazado_236247" data-name="Trazado 236247" d="M55.348,27.493c3.075,2.5,7.305,6.824,7.305,6.824a20.211,20.211,0,0,0-5-10c-4.131-4.231-9.07-5.94-10.283-6.633,0,0,4.9,7.305,7.977,9.8" transform="translate(95.984 35.84)" fill="#f6f6f6"/>
      <path id="Trazado_236248" data-name="Trazado 236248" d="M45.093,28.785l-1.961,1.292,2.091.327,2.288,2.527,1.277-.823-1.534-3.141Z" transform="translate(87.394 58.325)" fill="#f6f6f6"/>
      <path id="Trazado_236249" data-name="Trazado 236249" d="M44.8,35.923l.726.278,1.837-4.939-.505-.687-.79.4-1.262,4.47Z" transform="translate(90.78 61.954)" fill="#f6f6f6"/>
      <path id="Trazado_236250" data-name="Trazado 236250" d="M39.96,29.985l-.578-.611-1.3,1.658.321.5Z" transform="translate(77.172 59.518)" fill="#f6f6f6"/>
      <path id="Trazado_236251" data-name="Trazado 236251" d="M44.088,29.057l.351-1.129-1.162.236-.327.094-.345.46,1.256,1.456.508-.433Z" transform="translate(86.327 56.589)" fill="#f6f6f6"/>
      <path id="Trazado_236252" data-name="Trazado 236252" d="M35.974,37.5l.018-.7-.884,1.28.254.433Z" transform="translate(71.137 74.566)" fill="#f6f6f6"/>
    </g>
  </g>
</svg>
