<svg xmlns="http://www.w3.org/2000/svg" xmlns:xlink="http://www.w3.org/1999/xlink" width="85" height="85" viewBox="0 0 85 85">
  <defs>
    <clipPath id="clip-path">
      <rect id="Rectángulo_37597" data-name="Rectángulo 37597" width="56.6" height="58.44" fill="none"/>
    </clipPath>
  </defs>
  <g id="Grupo_874635" data-name="Grupo 874635" transform="translate(-291 -8773)">
    <path id="Trazado_586061" data-name="Trazado 586061" d="M42.5,0A42.5,42.5,0,1,1,0,42.5,42.5,42.5,0,0,1,42.5,0Z" transform="translate(291 8773)" fill="#ebe3f9"/>
    <g id="Grupo_845847" data-name="Grupo 845847" transform="translate(305 8786)">
      <g id="Grupo_845843" data-name="Grupo 845843" clip-path="url(#clip-path)">
        <path id="Trazado_583920" data-name="Trazado 583920" d="M50.575,58.44l.6-.6V47.482h4.873l.551-.551V24.263l-5.427-5.428V12.6L38.578,0H6.005L5.481.545V18.753L0,24.236V46.923l.647.568H5.454V57.807l.582.633Z" transform="translate(0 0)"/>
        <path id="Trazado_583921" data-name="Trazado 583921" d="M1.861,45.63h52.9V25.656c-.983-.169-48.774-.241-52.9-.072Z" transform="translate(0 0)" fill="#ffeeb0"/>
        <path id="Trazado_583922" data-name="Trazado 583922" d="M37.445,1.808H7.345V23.694H10V17.928l.628-.6H46.033l.548.788v5.565h2.684V13.7H38.052l-.607-.608Z" transform="translate(0 0)" fill="#fefefe"/>
        <path id="Trazado_583923" data-name="Trazado 583923" d="M49.279,47.5h-2.67v5.76l-.6.614h-35.4l-.594-.619V47.5H7.343v9c.989.174,37.47.247,41.936.075Z" transform="translate(0 0)" fill="#fefefe"/>
        <path id="Trazado_583924" data-name="Trazado 583924" d="M11.89,47.511v4.5H44.671c-.011.01.022-.013.042-.043a.182.182,0,0,0,.037-.1c0-1.44,0-2.88,0-4.356Z" transform="translate(0 0)" fill="#e6ebec"/>
        <path id="Trazado_583925" data-name="Trazado 583925" d="M44.732,23.681V19.188H11.912c-.1,1.457-.013,2.957-.05,4.493Z" transform="translate(0 0)" fill="#e6ebec"/>
        <path id="Trazado_583926" data-name="Trazado 583926" d="M39.309,3.167v8.652h8.547c-.517-.766-6.658-6.986-8.547-8.652" transform="translate(0 0)" fill="#aeb5ba"/>
        <path id="Trazado_583927" data-name="Trazado 583927" d="M5.432,23.736V21.473L3.22,23.686a.354.354,0,1,1,.007-.05,15.72,15.72,0,0,0,2.205.1" transform="translate(0 0)" fill="#7b8185"/>
        <path id="Trazado_583928" data-name="Trazado 583928" d="M51.175,21.35v2.313h2.3c-.374-.4-.73-.741-1.074-1.088-.37-.374-.743-.744-1.224-1.225" transform="translate(0 0)" fill="#7b8185"/>
        <path id="Trazado_583929" data-name="Trazado 583929" d="M26.139,36.511c1.187.753,1.258.884,1.258,2.317a2.032,2.032,0,0,1-1.521,1.319h-2.69a1.96,1.96,0,0,1-1.311-1.782H20.1a3.184,3.184,0,0,0,.785,2.258A3.621,3.621,0,0,0,24.082,42c.53-.034,1.064-.009,1.6-.005a3.7,3.7,0,0,0,3.561-3.542,3.94,3.94,0,0,0-2.792-3.7,1.932,1.932,0,0,0-.657-.058c-.874-.013-1.747-.005-2.49-.005a1.965,1.965,0,0,1-1.365-2.357,2,2,0,0,1,1.5-1.279h2.689a1.956,1.956,0,0,1,1.311,1.781h1.777a3.181,3.181,0,0,0-.785-2.258,3.622,3.622,0,0,0-3.2-1.375c-.53.034-1.064.008-1.6.005a3.7,3.7,0,0,0-3.562,3.542,3.944,3.944,0,0,0,2.792,3.705,1.938,1.938,0,0,0,.658.058c.873.013,1.747.005,2.615.005" transform="translate(0 0)"/>
        <path id="Trazado_583930" data-name="Trazado 583930" d="M40.185,35.537c0-.57-.008-1.139,0-1.709a4.876,4.876,0,0,0-.821-2.626c-.493-.83-1.385-1.113-2.007-1.744-.865-.093-1.739-.517-2.587-.161-.327.137-.681-.022-.936.21-.4.366-1,.532-1.313.908A5.444,5.444,0,0,0,31.255,32.5a21.46,21.46,0,0,0-.2,4.24c-.026.378.039.765-.016,1.137-.058.4.377.634.25,1.049-.11.363.36.438.447.719a3.6,3.6,0,0,0,2.125,2,4.042,4.042,0,0,0,2.663.27,7.459,7.459,0,0,0,2.163-1.1c.365-.215.541-.743.814-1.12a3.61,3.61,0,0,0,.685-2.224c-.007-.645,0-1.291,0-1.936" transform="translate(0 0)"/>
        <path id="Trazado_583931" data-name="Trazado 583931" d="M16.475,41.972h1.749V29.243c-.536-.11-1.126.006-1.749-.062Z" transform="translate(0 0)"/>
        <path id="Trazado_583932" data-name="Trazado 583932" d="M25.548,6.323V4.566H10.068c-.06.545-.009,1.134-.031,1.757Z" transform="translate(0 0)"/>
        <path id="Trazado_583933" data-name="Trazado 583933" d="M18.242,9.977V8.222H10.068c-.06.543-.009,1.132-.031,1.755Z" transform="translate(0 0)"/>
        <path id="Trazado_583934" data-name="Trazado 583934" d="M10.077,13.668h1.764c.063-.576.01-1.162.034-1.787h-1.8a8.887,8.887,0,0,0,0,1.787" transform="translate(0 0)"/>
        <path id="Trazado_583935" data-name="Trazado 583935" d="M13.715,11.88v1.75H15.5c.058-.539.007-1.126.029-1.75Z" transform="translate(0 0)"/>
        <path id="Trazado_583936" data-name="Trazado 583936" d="M19.142,11.841H17.378c-.063.576-.01,1.162-.034,1.787h1.8a8.887,8.887,0,0,0,0-1.787" transform="translate(0 0)"/>
        <path id="Trazado_583937" data-name="Trazado 583937" d="M38.018,38.792a7.006,7.006,0,0,0,.331-3.167,7.626,7.626,0,0,0-.257-3.084l-1.241-1.227a2.847,2.847,0,0,0-2.515.022l-1.251,1.285a18.214,18.214,0,0,0,0,5.9l1.433,1.43c2,.341,2,.341,3.5-1.16" transform="translate(0 0)" fill="#ffeeb0"/>
      </g>
    </g>
  </g>
</svg>
