<svg xmlns="http://www.w3.org/2000/svg" xmlns:xlink="http://www.w3.org/1999/xlink" width="1030" height="423" viewBox="0 0 1030 423">
  <defs>
    <linearGradient id="linear-gradient" x1="0.5" x2="0.5" y2="1" gradientUnits="objectBoundingBox">
      <stop offset="0" stop-color="#ffe8ad"/>
      <stop offset="0.495" stop-color="#fe5083"/>
      <stop offset="1" stop-color="#c13099"/>
    </linearGradient>
    <clipPath id="clip-path">
      <path id="Trazado_594229" data-name="Trazado 594229" d="M133.82.013A135.693,135.693,0,0,0,0,132.616l81.716.374a54,54,0,0,1,107.9.495h.079a135.682,135.682,0,0,0,271.321,1.237h-.064a54.007,54.007,0,0,1,107.911.5h.118a135.677,135.677,0,0,0,271.277-.493h.012a54,54,0,0,1,107.9.495h.078c0,.328.017.655.024.983H1030c-.011-.206-.031-.41-.038-.616h-.07a135.693,135.693,0,0,0-271.331-1.236,54.006,54.006,0,0,1-107.91-.495h-.118a135.677,135.677,0,0,0-271.279.495h.059a54.005,54.005,0,0,1-107.909-.495h-.065A135.7,135.7,0,0,0,135.694,0c-.624,0-1.247,0-1.874.013" fill="url(#linear-gradient)"/>
    </clipPath>
    <clipPath id="clip-path-2">
      <rect id="Rectángulo_42638" data-name="Rectángulo 42638" width="175.96" height="175.96" fill="#fff"/>
    </clipPath>
    <clipPath id="clip-path-3">
      <rect id="Rectángulo_42639" data-name="Rectángulo 42639" width="175.96" height="175.96" fill="none"/>
    </clipPath>
    <clipPath id="clip-path-5">
      <rect id="Rectángulo_42641" data-name="Rectángulo 42641" width="175.959" height="175.96" fill="none"/>
    </clipPath>
    <radialGradient id="radial-gradient" cx="0.747" cy="0.171" r="0.876" gradientTransform="matrix(-0.433, 0.902, -0.902, -0.433, 1.225, -0.428)" gradientUnits="objectBoundingBox">
      <stop offset="0" stop-color="#fff"/>
      <stop offset="0.515" stop-color="#fbfcfd"/>
      <stop offset="1" stop-color="#d2d5e1"/>
    </radialGradient>
    <clipPath id="clip-path-7">
      <rect id="Rectángulo_293492" data-name="Rectángulo 293492" width="61.625" height="85.199" fill="none"/>
    </clipPath>
    <clipPath id="clip-path-8">
      <rect id="Rectángulo_293493" data-name="Rectángulo 293493" width="51.753" height="63.719" fill="none"/>
    </clipPath>
    <clipPath id="clip-path-9">
      <rect id="Rectángulo_293494" data-name="Rectángulo 293494" width="56.44" height="70.921" fill="none"/>
    </clipPath>
    <clipPath id="clip-path-10">
      <rect id="Rectángulo_293495" data-name="Rectángulo 293495" width="73.776" height="65.81" fill="none"/>
    </clipPath>
    <clipPath id="clip-path-11">
      <rect id="Rectángulo_293496" data-name="Rectángulo 293496" width="61.892" height="59.607" fill="none"/>
    </clipPath>
  </defs>
  <g id="Grupo_874633" data-name="Grupo 874633" transform="translate(-285 -5400)">
    <g id="Grupo_874196" data-name="Grupo 874196" transform="translate(285 5480.45)">
      <g id="Grupo_874196-2" data-name="Grupo 874196" clip-path="url(#clip-path)">
        <rect id="Rectángulo_293338" data-name="Rectángulo 293338" width="393.405" height="1055.221" transform="translate(-32.698 265.261) rotate(-82.979)" fill="url(#linear-gradient)"/>
      </g>
    </g>
    <path id="Trazado_595291" data-name="Trazado 595291" d="M31.3,11.771H26.236V17H23.6V4.2h8.332V6.339h-5.7v3.3H31.3ZM38.506,17a2.821,2.821,0,0,1-.255-.853,3.073,3.073,0,0,1-2.4,1.028,3.376,3.376,0,0,1-2.316-.809,2.6,2.6,0,0,1-.918-2.039,2.687,2.687,0,0,1,1.121-2.32,5.529,5.529,0,0,1,3.239-.817h1.169v-.545a1.567,1.567,0,0,0-.338-1.055,1.331,1.331,0,0,0-1.068-.4,1.513,1.513,0,0,0-1.006.308,1.045,1.045,0,0,0-.365.844h-2.54a2.551,2.551,0,0,1,.51-1.529,3.37,3.37,0,0,1,1.441-1.1,5.253,5.253,0,0,1,2.092-.4,4.15,4.15,0,0,1,2.791.883,3.09,3.09,0,0,1,1.033,2.483V14.8a4.546,4.546,0,0,0,.378,2.048V17Zm-2.1-1.767a2.188,2.188,0,0,0,1.037-.25,1.645,1.645,0,0,0,.7-.672V12.676H37.2q-1.907,0-2.03,1.318l-.009.149a1.017,1.017,0,0,0,.334.782A1.3,1.3,0,0,0,36.405,15.233Zm10.2-.105a1.666,1.666,0,0,0,1.143-.387,1.355,1.355,0,0,0,.457-1.028h2.382a3.258,3.258,0,0,1-.527,1.771,3.48,3.48,0,0,1-1.419,1.248,4.442,4.442,0,0,1-1.991.444,4.129,4.129,0,0,1-3.217-1.3A5.13,5.13,0,0,1,42.25,12.3v-.167a5.071,5.071,0,0,1,1.169-3.507,4.08,4.08,0,0,1,3.208-1.31A4,4,0,0,1,49.488,8.33a3.594,3.594,0,0,1,1.094,2.7H48.2a1.745,1.745,0,0,0-.457-1.206,1.7,1.7,0,0,0-2.5.183,3.749,3.749,0,0,0-.453,2.1v.264a3.8,3.8,0,0,0,.448,2.113A1.549,1.549,0,0,0,46.6,15.128Zm8.473-9.976V7.49H56.7V9.354H55.073V14.1a1.133,1.133,0,0,0,.2.756,1.015,1.015,0,0,0,.773.229,4.051,4.051,0,0,0,.747-.062v1.925a5.229,5.229,0,0,1-1.538.229,2.425,2.425,0,0,1-2.725-2.7V9.354H51.145V7.49h1.389V5.152Zm2.382,7A5.64,5.64,0,0,1,58,9.635a3.989,3.989,0,0,1,1.569-1.714,4.577,4.577,0,0,1,2.377-.606,4.33,4.33,0,0,1,3.142,1.178,4.727,4.727,0,0,1,1.358,3.2l.018.65a4.97,4.97,0,0,1-1.222,3.511,4.735,4.735,0,0,1-6.561,0,5.058,5.058,0,0,1-1.226-3.586Zm2.54.18a3.555,3.555,0,0,0,.51,2.073,1.831,1.831,0,0,0,2.9.009,3.89,3.89,0,0,0,.519-2.267,3.519,3.519,0,0,0-.519-2.06,1.686,1.686,0,0,0-1.459-.731,1.658,1.658,0,0,0-1.441.726A3.955,3.955,0,0,0,60,12.338ZM73.372,9.872a6.9,6.9,0,0,0-.914-.07,1.86,1.86,0,0,0-1.89.976V17h-2.54V7.49h2.4l.07,1.134a2.354,2.354,0,0,1,2.118-1.31,2.662,2.662,0,0,1,.791.114Zm5.432,7.3A4.668,4.668,0,0,1,75.4,15.893a4.561,4.561,0,0,1-1.314-3.419v-.246a5.745,5.745,0,0,1,.554-2.562,4.064,4.064,0,0,1,1.569-1.74,4.4,4.4,0,0,1,2.316-.611,3.947,3.947,0,0,1,3.072,1.23,5,5,0,0,1,1.121,3.489v1.037H76.659a2.36,2.36,0,0,0,.743,1.494,2.245,2.245,0,0,0,1.569.563,2.742,2.742,0,0,0,2.294-1.063l1.248,1.4a3.813,3.813,0,0,1-1.547,1.261A5.075,5.075,0,0,1,78.8,17.176Zm-.29-7.813a1.587,1.587,0,0,0-1.226.512,2.651,2.651,0,0,0-.6,1.466h3.533v-.2a1.891,1.891,0,0,0-.457-1.311A1.638,1.638,0,0,0,78.514,9.362Zm10.793,5.01a.818.818,0,0,0-.461-.734,5.241,5.241,0,0,0-1.481-.479q-3.393-.712-3.393-2.883a2.613,2.613,0,0,1,1.05-2.114,4.237,4.237,0,0,1,2.747-.848,4.56,4.56,0,0,1,2.9.853,2.687,2.687,0,0,1,1.085,2.215H89.21a1.229,1.229,0,0,0-.352-.9,1.488,1.488,0,0,0-1.1-.356,1.52,1.52,0,0,0-.993.29.916.916,0,0,0-.352.738.783.783,0,0,0,.4.681,4.114,4.114,0,0,0,1.349.448,11.019,11.019,0,0,1,1.6.426,2.628,2.628,0,0,1,2.013,2.558,2.481,2.481,0,0,1-1.116,2.1,4.815,4.815,0,0,1-2.883.8,5.029,5.029,0,0,1-2.123-.426A3.561,3.561,0,0,1,84.2,15.581a2.716,2.716,0,0,1-.527-1.6h2.408a1.326,1.326,0,0,0,.5,1.037,1.987,1.987,0,0,0,1.248.36,1.839,1.839,0,0,0,1.1-.277A.861.861,0,0,0,89.307,14.372Zm17.147-2.039a5.7,5.7,0,0,1-1,3.52,3.2,3.2,0,0,1-2.694,1.323,2.963,2.963,0,0,1-2.329-1v4.482h-2.54V7.49h2.355l.088.932a2.985,2.985,0,0,1,2.408-1.107,3.22,3.22,0,0,1,2.733,1.3,5.858,5.858,0,0,1,.976,3.586Zm-2.54-.194a3.763,3.763,0,0,0-.47-2.054,1.53,1.53,0,0,0-1.367-.723,1.662,1.662,0,0,0-1.644.917v3.906a1.691,1.691,0,0,0,1.661.943Q103.914,15.128,103.914,12.139ZM113.538,17a2.821,2.821,0,0,1-.255-.853,3.073,3.073,0,0,1-2.4,1.028,3.376,3.376,0,0,1-2.316-.809,2.6,2.6,0,0,1-.918-2.039,2.687,2.687,0,0,1,1.121-2.32,5.529,5.529,0,0,1,3.239-.817h1.169v-.545a1.567,1.567,0,0,0-.338-1.055,1.331,1.331,0,0,0-1.068-.4,1.513,1.513,0,0,0-1.006.308,1.045,1.045,0,0,0-.365.844h-2.54a2.551,2.551,0,0,1,.51-1.529,3.37,3.37,0,0,1,1.441-1.1,5.253,5.253,0,0,1,2.092-.4,4.15,4.15,0,0,1,2.791.883,3.09,3.09,0,0,1,1.033,2.483V14.8a4.546,4.546,0,0,0,.378,2.048V17Zm-2.1-1.767a2.188,2.188,0,0,0,1.037-.25,1.645,1.645,0,0,0,.7-.672V12.676h-.949q-1.907,0-2.03,1.318l-.009.149a1.017,1.017,0,0,0,.334.782A1.3,1.3,0,0,0,111.438,15.233Zm11.584-5.361a6.9,6.9,0,0,0-.914-.07,1.86,1.86,0,0,0-1.89.976V17h-2.54V7.49h2.4l.07,1.134a2.354,2.354,0,0,1,2.118-1.31,2.662,2.662,0,0,1,.791.114ZM129.49,17a2.821,2.821,0,0,1-.255-.853,3.073,3.073,0,0,1-2.4,1.028,3.376,3.376,0,0,1-2.316-.809,2.6,2.6,0,0,1-.918-2.039,2.687,2.687,0,0,1,1.121-2.32,5.529,5.529,0,0,1,3.239-.817h1.169v-.545a1.567,1.567,0,0,0-.338-1.055,1.331,1.331,0,0,0-1.068-.4,1.513,1.513,0,0,0-1.006.308,1.045,1.045,0,0,0-.365.844h-2.54a2.551,2.551,0,0,1,.51-1.529,3.37,3.37,0,0,1,1.441-1.1,5.253,5.253,0,0,1,2.092-.4,4.15,4.15,0,0,1,2.791.883,3.09,3.09,0,0,1,1.033,2.483V14.8a4.546,4.546,0,0,0,.378,2.048V17Zm-2.1-1.767a2.188,2.188,0,0,0,1.037-.25,1.645,1.645,0,0,0,.7-.672V12.676h-.949q-1.907,0-2.03,1.318l-.009.149a1.017,1.017,0,0,0,.334.782A1.3,1.3,0,0,0,127.39,15.233ZM46.3,41.176A4.668,4.668,0,0,1,42.9,39.893a4.561,4.561,0,0,1-1.314-3.419v-.246a5.745,5.745,0,0,1,.554-2.562,4.064,4.064,0,0,1,1.569-1.74,4.4,4.4,0,0,1,2.316-.611,3.947,3.947,0,0,1,3.072,1.23,5,5,0,0,1,1.121,3.489v1.037H44.157a2.36,2.36,0,0,0,.743,1.494,2.245,2.245,0,0,0,1.569.563,2.742,2.742,0,0,0,2.294-1.063l1.248,1.4a3.813,3.813,0,0,1-1.547,1.261A5.075,5.075,0,0,1,46.3,41.176Zm-.29-7.813a1.587,1.587,0,0,0-1.226.512,2.651,2.651,0,0,0-.6,1.466h3.533v-.2a1.891,1.891,0,0,0-.457-1.311A1.638,1.638,0,0,0,46.012,33.362ZM54.335,41H51.786V27.5h2.549Zm10.529-1.872a1.666,1.666,0,0,0,1.143-.387,1.355,1.355,0,0,0,.457-1.028h2.382a3.258,3.258,0,0,1-.527,1.771A3.48,3.48,0,0,1,66.9,40.732a4.442,4.442,0,0,1-1.991.444,4.129,4.129,0,0,1-3.217-1.3A5.13,5.13,0,0,1,60.514,36.3v-.167a5.071,5.071,0,0,1,1.169-3.507,4.08,4.08,0,0,1,3.208-1.31,4,4,0,0,1,2.861,1.015,3.594,3.594,0,0,1,1.094,2.7H66.464a1.745,1.745,0,0,0-.457-1.206,1.7,1.7,0,0,0-2.5.183,3.749,3.749,0,0,0-.453,2.1v.264a3.8,3.8,0,0,0,.448,2.113A1.549,1.549,0,0,0,64.864,39.128Zm11.127.905a3.185,3.185,0,0,1-2.6,1.143,3,3,0,0,1-2.333-.879,3.752,3.752,0,0,1-.822-2.575V31.49h2.54v6.151q0,1.487,1.354,1.487a1.834,1.834,0,0,0,1.775-.9V31.49h2.549V41H76.062ZM83.049,41H80.5V27.5h2.549Zm5.133-11.848V31.49h1.626v1.863H88.182V38.1a1.133,1.133,0,0,0,.2.756,1.015,1.015,0,0,0,.773.229,4.051,4.051,0,0,0,.747-.062v1.925a5.229,5.229,0,0,1-1.538.229,2.425,2.425,0,0,1-2.725-2.7V33.354H84.253V31.49h1.389V29.152ZM93.9,41H91.355V31.49H93.9Zm-2.7-11.971a1.251,1.251,0,0,1,.382-.94,1.648,1.648,0,0,1,2.079,0,1.342,1.342,0,0,1,0,1.89,1.629,1.629,0,0,1-2.065,0A1.247,1.247,0,0,1,91.205,29.029Zm8.35,8.868,1.767-6.407h2.654L100.768,41H98.342l-3.208-9.51h2.654Zm5.01-1.74a5.64,5.64,0,0,1,.545-2.522,3.989,3.989,0,0,1,1.569-1.714,4.577,4.577,0,0,1,2.377-.606,4.33,4.33,0,0,1,3.142,1.178,4.727,4.727,0,0,1,1.358,3.2l.018.65a4.97,4.97,0,0,1-1.222,3.511,4.735,4.735,0,0,1-6.561,0,5.058,5.058,0,0,1-1.226-3.586Zm2.54.18a3.555,3.555,0,0,0,.51,2.073,1.831,1.831,0,0,0,2.9.009,3.89,3.89,0,0,0,.519-2.267,3.519,3.519,0,0,0-.519-2.06,1.686,1.686,0,0,0-1.459-.731,1.658,1.658,0,0,0-1.441.726A3.955,3.955,0,0,0,107.1,36.338Z" transform="translate(343.019 5738.089)" fill="#12263f"/>
    <path id="Trazado_595292" data-name="Trazado 595292" d="M57.6,4.2l3.287,9.281L64.152,4.2h3.463V17H64.97V13.5l.264-6.038L61.779,17H59.969L56.523,7.473l.264,6.029V17H54.15V4.2ZM75.262,17a2.821,2.821,0,0,1-.255-.853,3.073,3.073,0,0,1-2.4,1.028,3.376,3.376,0,0,1-2.316-.809,2.6,2.6,0,0,1-.918-2.039,2.687,2.687,0,0,1,1.121-2.32,5.529,5.529,0,0,1,3.239-.817H74.9v-.545a1.567,1.567,0,0,0-.338-1.055A1.331,1.331,0,0,0,73.5,9.2a1.513,1.513,0,0,0-1.006.308,1.045,1.045,0,0,0-.365.844h-2.54a2.551,2.551,0,0,1,.51-1.529,3.37,3.37,0,0,1,1.441-1.1,5.253,5.253,0,0,1,2.092-.4,4.15,4.15,0,0,1,2.791.883,3.09,3.09,0,0,1,1.033,2.483V14.8a4.546,4.546,0,0,0,.378,2.048V17Zm-2.1-1.767a2.188,2.188,0,0,0,1.037-.25,1.645,1.645,0,0,0,.7-.672V12.676h-.949q-1.907,0-2.03,1.318l-.009.149a1.017,1.017,0,0,0,.334.782A1.3,1.3,0,0,0,73.161,15.233ZM82.082,17H79.533V3.5h2.549Zm7.6,0a2.821,2.821,0,0,1-.255-.853,3.073,3.073,0,0,1-2.4,1.028,3.376,3.376,0,0,1-2.316-.809,2.6,2.6,0,0,1-.918-2.039,2.687,2.687,0,0,1,1.121-2.32,5.529,5.529,0,0,1,3.239-.817h1.169v-.545a1.567,1.567,0,0,0-.338-1.055,1.331,1.331,0,0,0-1.068-.4,1.513,1.513,0,0,0-1.006.308,1.045,1.045,0,0,0-.365.844h-2.54a2.551,2.551,0,0,1,.51-1.529,3.37,3.37,0,0,1,1.441-1.1,5.253,5.253,0,0,1,2.092-.4A4.15,4.15,0,0,1,90.84,8.2a3.09,3.09,0,0,1,1.033,2.483V14.8a4.546,4.546,0,0,0,.378,2.048V17Zm-2.1-1.767a2.188,2.188,0,0,0,1.037-.25,1.645,1.645,0,0,0,.7-.672V12.676h-.949q-1.907,0-2.03,1.318l-.009.149a1.017,1.017,0,0,0,.334.782A1.3,1.3,0,0,0,87.584,15.233Zm11.391-.861a.818.818,0,0,0-.461-.734,5.241,5.241,0,0,0-1.481-.479q-3.393-.712-3.393-2.883a2.613,2.613,0,0,1,1.05-2.114,4.237,4.237,0,0,1,2.747-.848,4.56,4.56,0,0,1,2.9.853,2.687,2.687,0,0,1,1.085,2.215h-2.54a1.229,1.229,0,0,0-.352-.9,1.488,1.488,0,0,0-1.1-.356,1.52,1.52,0,0,0-.993.29.916.916,0,0,0-.352.738.783.783,0,0,0,.4.681,4.114,4.114,0,0,0,1.349.448,11.019,11.019,0,0,1,1.6.426,2.628,2.628,0,0,1,2.013,2.558,2.481,2.481,0,0,1-1.116,2.1,4.815,4.815,0,0,1-2.883.8,5.029,5.029,0,0,1-2.123-.426,3.561,3.561,0,0,1-1.455-1.169,2.716,2.716,0,0,1-.527-1.6h2.408a1.326,1.326,0,0,0,.5,1.037,1.987,1.987,0,0,0,1.248.36,1.839,1.839,0,0,0,1.1-.277A.861.861,0,0,0,98.975,14.372ZM50.92,32.527a3.17,3.17,0,0,1,2.54-1.213q3.094,0,3.138,3.595V41h-2.54V34.966a1.774,1.774,0,0,0-.352-1.211,1.505,1.505,0,0,0-1.169-.392,1.728,1.728,0,0,0-1.617.863V41H48.38V27.5h2.54ZM61.195,41H58.646V31.49h2.549ZM58.5,29.029a1.251,1.251,0,0,1,.382-.94,1.648,1.648,0,0,1,2.079,0,1.342,1.342,0,0,1,0,1.89,1.629,1.629,0,0,1-2.065,0A1.247,1.247,0,0,1,58.5,29.029Zm9.167,12.146a4.668,4.668,0,0,1-3.406-1.283,4.561,4.561,0,0,1-1.314-3.419v-.246a5.745,5.745,0,0,1,.554-2.562,4.064,4.064,0,0,1,1.569-1.74,4.4,4.4,0,0,1,2.316-.611,3.947,3.947,0,0,1,3.072,1.23,5,5,0,0,1,1.121,3.489v1.037H65.519a2.36,2.36,0,0,0,.743,1.494,2.245,2.245,0,0,0,1.569.563,2.742,2.742,0,0,0,2.294-1.063l1.248,1.4a3.813,3.813,0,0,1-1.547,1.261A5.075,5.075,0,0,1,67.664,41.176Zm-.29-7.813a1.587,1.587,0,0,0-1.226.512,2.651,2.651,0,0,0-.6,1.466h3.533v-.2a1.891,1.891,0,0,0-.457-1.311A1.638,1.638,0,0,0,67.374,33.362Zm10.986.51a6.9,6.9,0,0,0-.914-.07,1.86,1.86,0,0,0-1.89.976V41h-2.54V31.49h2.4l.07,1.134a2.354,2.354,0,0,1,2.118-1.31,2.662,2.662,0,0,1,.791.114Zm9.791,2.461a5.758,5.758,0,0,1-.976,3.564,3.231,3.231,0,0,1-2.725,1.279,2.969,2.969,0,0,1-2.47-1.187L81.867,41H79.582V27.5h2.54v4.843a2.893,2.893,0,0,1,2.312-1.028,3.258,3.258,0,0,1,2.729,1.279,5.767,5.767,0,0,1,.989,3.6Zm-2.54-.194a3.8,3.8,0,0,0-.457-2.111,1.544,1.544,0,0,0-1.362-.666,1.675,1.675,0,0,0-1.67,1v3.764a1.7,1.7,0,0,0,1.688,1,1.569,1.569,0,0,0,1.617-1.217A6.294,6.294,0,0,0,85.611,36.139ZM95.226,41a2.821,2.821,0,0,1-.255-.853,3.073,3.073,0,0,1-2.4,1.028,3.376,3.376,0,0,1-2.316-.809,2.6,2.6,0,0,1-.918-2.039,2.687,2.687,0,0,1,1.121-2.32A5.529,5.529,0,0,1,93.7,35.19h1.169v-.545a1.567,1.567,0,0,0-.338-1.055,1.331,1.331,0,0,0-1.068-.4,1.513,1.513,0,0,0-1.006.308,1.045,1.045,0,0,0-.365.844h-2.54a2.551,2.551,0,0,1,.51-1.529,3.37,3.37,0,0,1,1.441-1.1,5.253,5.253,0,0,1,2.092-.4,4.15,4.15,0,0,1,2.791.883,3.09,3.09,0,0,1,1.033,2.483V38.8a4.546,4.546,0,0,0,.378,2.048V41Zm-2.1-1.767a2.188,2.188,0,0,0,1.037-.25,1.645,1.645,0,0,0,.7-.672V36.676h-.949q-1.907,0-2.03,1.318l-.009.149a1.017,1.017,0,0,0,.334.782A1.3,1.3,0,0,0,93.126,39.233Zm11.391-.861a.818.818,0,0,0-.461-.734,5.241,5.241,0,0,0-1.481-.479q-3.393-.712-3.393-2.883a2.613,2.613,0,0,1,1.05-2.114,4.237,4.237,0,0,1,2.747-.848,4.56,4.56,0,0,1,2.9.853,2.687,2.687,0,0,1,1.085,2.215h-2.54a1.229,1.229,0,0,0-.352-.9,1.488,1.488,0,0,0-1.1-.356,1.52,1.52,0,0,0-.993.29.916.916,0,0,0-.352.738.783.783,0,0,0,.4.681,4.114,4.114,0,0,0,1.349.448,11.019,11.019,0,0,1,1.6.426,2.628,2.628,0,0,1,2.013,2.558,2.481,2.481,0,0,1-1.116,2.1,4.815,4.815,0,0,1-2.883.8,5.029,5.029,0,0,1-2.123-.426,3.561,3.561,0,0,1-1.455-1.169,2.716,2.716,0,0,1-.527-1.6h2.408a1.326,1.326,0,0,0,.5,1.037,1.987,1.987,0,0,0,1.248.36,1.839,1.839,0,0,0,1.1-.277A.861.861,0,0,0,104.516,38.372Z" transform="translate(721.917 5738.089)" fill="#12263f"/>
    <path id="Trazado_595293" data-name="Trazado 595293" d="M40.136,14.882h5.6V17H37.5V4.2h2.637ZM52.59,17a2.821,2.821,0,0,1-.255-.853,3.073,3.073,0,0,1-2.4,1.028,3.376,3.376,0,0,1-2.316-.809,2.6,2.6,0,0,1-.918-2.039,2.687,2.687,0,0,1,1.121-2.32,5.529,5.529,0,0,1,3.239-.817H52.23v-.545a1.567,1.567,0,0,0-.338-1.055,1.331,1.331,0,0,0-1.068-.4,1.513,1.513,0,0,0-1.006.308,1.045,1.045,0,0,0-.365.844h-2.54a2.551,2.551,0,0,1,.51-1.529,3.37,3.37,0,0,1,1.441-1.1,5.253,5.253,0,0,1,2.092-.4,4.15,4.15,0,0,1,2.791.883,3.09,3.09,0,0,1,1.033,2.483V14.8a4.546,4.546,0,0,0,.378,2.048V17Zm-2.1-1.767a2.188,2.188,0,0,0,1.037-.25,1.645,1.645,0,0,0,.7-.672V12.676h-.949q-1.907,0-2.03,1.318l-.009.149a1.017,1.017,0,0,0,.334.782A1.3,1.3,0,0,0,50.49,15.233Zm14.678-.105a1.666,1.666,0,0,0,1.143-.387,1.355,1.355,0,0,0,.457-1.028h2.382a3.258,3.258,0,0,1-.527,1.771A3.48,3.48,0,0,1,67.2,16.732a4.442,4.442,0,0,1-1.991.444,4.129,4.129,0,0,1-3.217-1.3A5.13,5.13,0,0,1,60.817,12.3v-.167a5.071,5.071,0,0,1,1.169-3.507,4.08,4.08,0,0,1,3.208-1.31A4,4,0,0,1,68.055,8.33a3.594,3.594,0,0,1,1.094,2.7H66.767a1.745,1.745,0,0,0-.457-1.206,1.7,1.7,0,0,0-2.5.183,3.749,3.749,0,0,0-.453,2.1v.264a3.8,3.8,0,0,0,.448,2.113A1.549,1.549,0,0,0,65.168,15.128ZM76.11,17a2.821,2.821,0,0,1-.255-.853,3.073,3.073,0,0,1-2.4,1.028,3.376,3.376,0,0,1-2.316-.809,2.6,2.6,0,0,1-.918-2.039,2.687,2.687,0,0,1,1.121-2.32,5.529,5.529,0,0,1,3.239-.817H75.75v-.545a1.567,1.567,0,0,0-.338-1.055,1.331,1.331,0,0,0-1.068-.4,1.513,1.513,0,0,0-1.006.308,1.045,1.045,0,0,0-.365.844h-2.54a2.551,2.551,0,0,1,.51-1.529,3.37,3.37,0,0,1,1.441-1.1,5.253,5.253,0,0,1,2.092-.4,4.15,4.15,0,0,1,2.791.883A3.09,3.09,0,0,1,78.3,10.681V14.8a4.546,4.546,0,0,0,.378,2.048V17Zm-2.1-1.767a2.188,2.188,0,0,0,1.037-.25,1.645,1.645,0,0,0,.7-.672V12.676H74.8q-1.907,0-2.03,1.318l-.009.149a1.017,1.017,0,0,0,.334.782A1.3,1.3,0,0,0,74.009,15.233ZM82.93,17H80.381V3.5H82.93ZM87.7,17H85.154V7.49H87.7ZM85,5.029a1.251,1.251,0,0,1,.382-.94,1.648,1.648,0,0,1,2.079,0,1.244,1.244,0,0,1,.387.94,1.247,1.247,0,0,1-.391.949,1.629,1.629,0,0,1-2.065,0A1.247,1.247,0,0,1,85,5.029ZM89.4,12.175a5.731,5.731,0,0,1,1-3.542,3.237,3.237,0,0,1,2.729-1.318,2.913,2.913,0,0,1,2.294,1.037V3.5h2.549V17H95.674l-.123-1.011a2.989,2.989,0,0,1-2.443,1.187,3.228,3.228,0,0,1-2.694-1.323A5.916,5.916,0,0,1,89.4,12.175Zm2.54.181a3.775,3.775,0,0,0,.466,2.057,1.516,1.516,0,0,0,1.354.715,1.7,1.7,0,0,0,1.661-1V10.36a1.675,1.675,0,0,0-1.644-1Q91.939,9.362,91.939,12.356ZM105.448,17a2.821,2.821,0,0,1-.255-.853,3.073,3.073,0,0,1-2.4,1.028,3.376,3.376,0,0,1-2.316-.809,2.6,2.6,0,0,1-.918-2.039,2.687,2.687,0,0,1,1.121-2.32,5.529,5.529,0,0,1,3.239-.817h1.169v-.545a1.567,1.567,0,0,0-.338-1.055,1.331,1.331,0,0,0-1.068-.4,1.513,1.513,0,0,0-1.006.308,1.045,1.045,0,0,0-.365.844H99.77a2.551,2.551,0,0,1,.51-1.529,3.37,3.37,0,0,1,1.441-1.1,5.253,5.253,0,0,1,2.092-.4A4.15,4.15,0,0,1,106.6,8.2a3.09,3.09,0,0,1,1.033,2.483V14.8a4.546,4.546,0,0,0,.378,2.048V17Zm-2.1-1.767a2.188,2.188,0,0,0,1.037-.25,1.645,1.645,0,0,0,.7-.672V12.676h-.949q-1.907,0-2.03,1.318l-.009.149a1.017,1.017,0,0,0,.334.782A1.3,1.3,0,0,0,103.347,15.233Zm5.845-3.059a5.731,5.731,0,0,1,1-3.542,3.237,3.237,0,0,1,2.729-1.318,2.913,2.913,0,0,1,2.294,1.037V3.5h2.549V17h-2.294l-.123-1.011a2.989,2.989,0,0,1-2.443,1.187,3.228,3.228,0,0,1-2.694-1.323A5.916,5.916,0,0,1,109.192,12.175Zm2.54.181a3.775,3.775,0,0,0,.466,2.057,1.516,1.516,0,0,0,1.354.715,1.7,1.7,0,0,0,1.661-1V10.36a1.675,1.675,0,0,0-1.644-1Q111.732,9.362,111.732,12.356ZM41.569,32.175a5.731,5.731,0,0,1,1-3.542A3.237,3.237,0,0,1,45.3,27.314a2.913,2.913,0,0,1,2.294,1.037V23.5h2.549V37H47.844l-.123-1.011a2.989,2.989,0,0,1-2.443,1.187,3.228,3.228,0,0,1-2.694-1.323A5.916,5.916,0,0,1,41.569,32.175Zm2.54.181a3.775,3.775,0,0,0,.466,2.057,1.516,1.516,0,0,0,1.354.715,1.7,1.7,0,0,0,1.661-1V30.36a1.675,1.675,0,0,0-1.644-1Q44.109,29.362,44.109,32.356Zm12.375,4.82a4.668,4.668,0,0,1-3.406-1.283,4.561,4.561,0,0,1-1.314-3.419v-.246a5.745,5.745,0,0,1,.554-2.562,4.064,4.064,0,0,1,1.569-1.74,4.4,4.4,0,0,1,2.316-.611,3.947,3.947,0,0,1,3.072,1.23A5,5,0,0,1,60.4,32.034v1.037H54.339a2.36,2.36,0,0,0,.743,1.494,2.245,2.245,0,0,0,1.569.563,2.742,2.742,0,0,0,2.294-1.063l1.248,1.4a3.813,3.813,0,0,1-1.547,1.261A5.075,5.075,0,0,1,56.484,37.176Zm-.29-7.813a1.587,1.587,0,0,0-1.226.512,2.651,2.651,0,0,0-.6,1.466H57.9v-.2a1.891,1.891,0,0,0-.457-1.311A1.638,1.638,0,0,0,56.194,29.362ZM64.517,37H61.968V23.5h2.549Zm11.725-2.628a.818.818,0,0,0-.461-.734,5.241,5.241,0,0,0-1.481-.479q-3.393-.712-3.393-2.883a2.613,2.613,0,0,1,1.05-2.114,4.237,4.237,0,0,1,2.747-.848,4.56,4.56,0,0,1,2.9.853,2.687,2.687,0,0,1,1.085,2.215h-2.54a1.229,1.229,0,0,0-.352-.9,1.488,1.488,0,0,0-1.1-.356,1.52,1.52,0,0,0-.993.29.916.916,0,0,0-.352.738.783.783,0,0,0,.4.681,4.114,4.114,0,0,0,1.349.448,11.019,11.019,0,0,1,1.6.426,2.628,2.628,0,0,1,2.013,2.558,2.481,2.481,0,0,1-1.116,2.1,4.815,4.815,0,0,1-2.883.8,5.029,5.029,0,0,1-2.123-.426,3.561,3.561,0,0,1-1.455-1.169,2.716,2.716,0,0,1-.527-1.6h2.408a1.326,1.326,0,0,0,.5,1.037,1.987,1.987,0,0,0,1.248.36,1.839,1.839,0,0,0,1.1-.277A.861.861,0,0,0,76.242,34.372Zm9.8,1.661a3.185,3.185,0,0,1-2.6,1.143,3,3,0,0,1-2.333-.879,3.752,3.752,0,0,1-.822-2.575V27.49h2.54v6.151q0,1.487,1.354,1.487a1.834,1.834,0,0,0,1.775-.9V27.49H88.5V37H86.112ZM94.8,37.176a4.668,4.668,0,0,1-3.406-1.283,4.561,4.561,0,0,1-1.314-3.419v-.246a5.745,5.745,0,0,1,.554-2.562,4.064,4.064,0,0,1,1.569-1.74,4.4,4.4,0,0,1,2.316-.611,3.947,3.947,0,0,1,3.072,1.23,5,5,0,0,1,1.121,3.489v1.037H92.651a2.36,2.36,0,0,0,.743,1.494,2.245,2.245,0,0,0,1.569.563,2.742,2.742,0,0,0,2.294-1.063l1.248,1.4a3.813,3.813,0,0,1-1.547,1.261A5.075,5.075,0,0,1,94.8,37.176Zm-.29-7.813a1.587,1.587,0,0,0-1.226.512,2.651,2.651,0,0,0-.6,1.466H96.21v-.2a1.891,1.891,0,0,0-.457-1.311A1.638,1.638,0,0,0,94.505,29.362ZM102.829,37H100.28V23.5h2.549Zm1.7-4.843a5.64,5.64,0,0,1,.545-2.522,3.989,3.989,0,0,1,1.569-1.714,4.577,4.577,0,0,1,2.377-.606,4.33,4.33,0,0,1,3.142,1.178,4.727,4.727,0,0,1,1.358,3.2l.018.65a4.97,4.97,0,0,1-1.222,3.511,4.735,4.735,0,0,1-6.561,0,5.058,5.058,0,0,1-1.226-3.586Zm2.54.18a3.555,3.555,0,0,0,.51,2.073,1.831,1.831,0,0,0,2.9.009,3.89,3.89,0,0,0,.519-2.267,3.519,3.519,0,0,0-.519-2.06,1.686,1.686,0,0,0-1.459-.731,1.658,1.658,0,0,0-1.441.726A3.955,3.955,0,0,0,107.065,32.338Z" transform="translate(1100.814 5738.089)" fill="#12263f"/>
    <path id="Trazado_595294" data-name="Trazado 595294" d="M60.566,4.2v8.429a4.315,4.315,0,0,1-1.314,3.322,5.066,5.066,0,0,1-3.59,1.222,5.123,5.123,0,0,1-3.56-1.187,4.242,4.242,0,0,1-1.345-3.261V4.2h2.637v8.446a2.438,2.438,0,0,0,.6,1.833,2.311,2.311,0,0,0,1.666.576q2.224,0,2.259-2.338V4.2Zm7.146,10.169a.818.818,0,0,0-.461-.734,5.241,5.241,0,0,0-1.481-.479q-3.393-.712-3.393-2.883a2.613,2.613,0,0,1,1.05-2.114,4.237,4.237,0,0,1,2.747-.848,4.56,4.56,0,0,1,2.9.853,2.687,2.687,0,0,1,1.085,2.215h-2.54a1.229,1.229,0,0,0-.352-.9,1.488,1.488,0,0,0-1.1-.356,1.52,1.52,0,0,0-.993.29.916.916,0,0,0-.352.738.783.783,0,0,0,.4.681,4.114,4.114,0,0,0,1.349.448,11.019,11.019,0,0,1,1.6.426,2.628,2.628,0,0,1,2.013,2.558,2.481,2.481,0,0,1-1.116,2.1,4.815,4.815,0,0,1-2.883.8,5.029,5.029,0,0,1-2.123-.426,3.561,3.561,0,0,1-1.455-1.169,2.716,2.716,0,0,1-.527-1.6h2.408a1.326,1.326,0,0,0,.5,1.037,1.987,1.987,0,0,0,1.248.36,1.839,1.839,0,0,0,1.1-.277A.861.861,0,0,0,67.712,14.372Zm3.709-2.215a5.64,5.64,0,0,1,.545-2.522,3.989,3.989,0,0,1,1.569-1.714,4.577,4.577,0,0,1,2.377-.606,4.33,4.33,0,0,1,3.142,1.178,4.727,4.727,0,0,1,1.358,3.2l.018.65a4.97,4.97,0,0,1-1.222,3.511,4.735,4.735,0,0,1-6.561,0,5.058,5.058,0,0,1-1.226-3.586Zm2.54.18a3.555,3.555,0,0,0,.51,2.073,1.831,1.831,0,0,0,2.9.009,3.89,3.89,0,0,0,.519-2.267,3.519,3.519,0,0,0-.519-2.06,1.686,1.686,0,0,0-1.459-.731,1.658,1.658,0,0,0-1.441.726A3.955,3.955,0,0,0,73.961,12.338Zm12.12-.163a5.731,5.731,0,0,1,1-3.542,3.237,3.237,0,0,1,2.729-1.318A2.913,2.913,0,0,1,92.1,8.352V3.5H94.65V17H92.356l-.123-1.011a2.989,2.989,0,0,1-2.443,1.187A3.228,3.228,0,0,1,87.1,15.853,5.916,5.916,0,0,1,86.081,12.175Zm2.54.181a3.775,3.775,0,0,0,.466,2.057,1.516,1.516,0,0,0,1.354.715,1.7,1.7,0,0,0,1.661-1V10.36a1.675,1.675,0,0,0-1.644-1Q88.621,9.362,88.621,12.356ZM101,17.176a4.668,4.668,0,0,1-3.406-1.283,4.561,4.561,0,0,1-1.314-3.419v-.246a5.745,5.745,0,0,1,.554-2.562A4.064,4.064,0,0,1,98.4,7.925a4.4,4.4,0,0,1,2.316-.611,3.947,3.947,0,0,1,3.072,1.23,5,5,0,0,1,1.121,3.489v1.037H98.852a2.36,2.36,0,0,0,.743,1.494,2.245,2.245,0,0,0,1.569.563,2.742,2.742,0,0,0,2.294-1.063l1.248,1.4a3.813,3.813,0,0,1-1.547,1.261A5.075,5.075,0,0,1,101,17.176Zm-.29-7.813a1.587,1.587,0,0,0-1.226.512,2.651,2.651,0,0,0-.6,1.466h3.533v-.2a1.891,1.891,0,0,0-.457-1.311A1.638,1.638,0,0,0,100.706,9.362ZM52.133,37a2.821,2.821,0,0,1-.255-.853,3.073,3.073,0,0,1-2.4,1.028,3.376,3.376,0,0,1-2.316-.809,2.6,2.6,0,0,1-.918-2.039,2.687,2.687,0,0,1,1.121-2.32A5.529,5.529,0,0,1,50.6,31.19h1.169v-.545a1.567,1.567,0,0,0-.338-1.055,1.331,1.331,0,0,0-1.068-.4,1.513,1.513,0,0,0-1.006.308,1.045,1.045,0,0,0-.365.844h-2.54a2.551,2.551,0,0,1,.51-1.529,3.37,3.37,0,0,1,1.441-1.1,5.253,5.253,0,0,1,2.092-.4,4.15,4.15,0,0,1,2.791.883,3.09,3.09,0,0,1,1.033,2.483V34.8a4.546,4.546,0,0,0,.378,2.048V37Zm-2.1-1.767a2.188,2.188,0,0,0,1.037-.25,1.645,1.645,0,0,0,.7-.672V32.676h-.949q-1.907,0-2.03,1.318l-.009.149a1.017,1.017,0,0,0,.334.782A1.3,1.3,0,0,0,50.033,35.233Zm5.845-3.059a5.731,5.731,0,0,1,1-3.542A3.237,3.237,0,0,1,59.6,27.314,2.913,2.913,0,0,1,61.9,28.352V23.5h2.549V37H62.153l-.123-1.011a2.989,2.989,0,0,1-2.443,1.187,3.228,3.228,0,0,1-2.694-1.323A5.916,5.916,0,0,1,55.877,32.175Zm2.54.181a3.775,3.775,0,0,0,.466,2.057,1.516,1.516,0,0,0,1.354.715,1.7,1.7,0,0,0,1.661-1V30.36a1.675,1.675,0,0,0-1.644-1Q58.418,29.362,58.418,32.356ZM69.1,37H66.547V27.49H69.1ZM66.4,25.029a1.251,1.251,0,0,1,.382-.94,1.648,1.648,0,0,1,2.079,0,1.342,1.342,0,0,1,0,1.89,1.629,1.629,0,0,1-2.065,0A1.247,1.247,0,0,1,66.4,25.029Zm7.831.123V27.49h1.626v1.863H74.229V34.1a1.133,1.133,0,0,0,.2.756,1.015,1.015,0,0,0,.773.229,4.051,4.051,0,0,0,.747-.062v1.925a5.229,5.229,0,0,1-1.538.229,2.425,2.425,0,0,1-2.725-2.7V29.354H70.3V27.49h1.389V25.152ZM79.951,37H77.4V27.49h2.549Zm-2.7-11.971a1.251,1.251,0,0,1,.382-.94,1.648,1.648,0,0,1,2.079,0,1.342,1.342,0,0,1,0,1.89,1.629,1.629,0,0,1-2.065,0A1.247,1.247,0,0,1,77.252,25.029ZM85.6,33.9l1.767-6.407h2.654L86.815,37H84.389l-3.208-9.51h2.654Zm5.01-1.74a5.64,5.64,0,0,1,.545-2.522,3.989,3.989,0,0,1,1.569-1.714,4.577,4.577,0,0,1,2.377-.606,4.33,4.33,0,0,1,3.142,1.178,4.727,4.727,0,0,1,1.358,3.2l.018.65A4.97,4.97,0,0,1,98.4,35.853a4.735,4.735,0,0,1-6.561,0,5.058,5.058,0,0,1-1.226-3.586Zm2.54.18a3.555,3.555,0,0,0,.51,2.073,1.831,1.831,0,0,0,2.9.009,3.89,3.89,0,0,0,.519-2.267,3.519,3.519,0,0,0-.519-2.06,1.686,1.686,0,0,0-1.459-.731,1.658,1.658,0,0,0-1.441.726A3.955,3.955,0,0,0,93.152,32.338Zm13.184,2.035a.818.818,0,0,0-.461-.734,5.241,5.241,0,0,0-1.481-.479Q101,32.447,101,30.276a2.613,2.613,0,0,1,1.05-2.114,4.237,4.237,0,0,1,2.747-.848,4.56,4.56,0,0,1,2.9.853,2.687,2.687,0,0,1,1.085,2.215h-2.54a1.229,1.229,0,0,0-.352-.9,1.488,1.488,0,0,0-1.1-.356,1.52,1.52,0,0,0-.993.29.916.916,0,0,0-.352.738.783.783,0,0,0,.4.681,4.114,4.114,0,0,0,1.349.448,11.019,11.019,0,0,1,1.6.426,2.628,2.628,0,0,1,2.013,2.558,2.481,2.481,0,0,1-1.116,2.1,4.815,4.815,0,0,1-2.883.8,5.029,5.029,0,0,1-2.123-.426,3.561,3.561,0,0,1-1.455-1.169,2.716,2.716,0,0,1-.527-1.6h2.408a1.326,1.326,0,0,0,.5,1.037,1.987,1.987,0,0,0,1.248.36,1.839,1.839,0,0,0,1.1-.277A.861.861,0,0,0,106.335,34.372Z" transform="translate(533.652 5439.836)" fill="#12263f"/>
    <path id="Trazado_595295" data-name="Trazado 595295" d="M52.98,11.437H47.918v3.445h5.941V17H45.281V4.2h8.561V6.339H47.918v3.05H52.98ZM57.92,17H55.371V3.5H57.92Zm10.529-1.872a1.666,1.666,0,0,0,1.143-.387,1.355,1.355,0,0,0,.457-1.028h2.382a3.258,3.258,0,0,1-.527,1.771,3.48,3.48,0,0,1-1.419,1.248,4.442,4.442,0,0,1-1.991.444,4.129,4.129,0,0,1-3.217-1.3A5.13,5.13,0,0,1,64.1,12.3v-.167a5.071,5.071,0,0,1,1.169-3.507,4.08,4.08,0,0,1,3.208-1.31A4,4,0,0,1,71.336,8.33a3.594,3.594,0,0,1,1.094,2.7H70.049a1.745,1.745,0,0,0-.457-1.206,1.7,1.7,0,0,0-2.5.183,3.749,3.749,0,0,0-.453,2.1v.264a3.8,3.8,0,0,0,.448,2.113A1.549,1.549,0,0,0,68.449,15.128Zm5.036-2.971a5.64,5.64,0,0,1,.545-2.522A3.989,3.989,0,0,1,75.6,7.921a4.577,4.577,0,0,1,2.377-.606,4.33,4.33,0,0,1,3.142,1.178,4.727,4.727,0,0,1,1.358,3.2l.018.65a4.97,4.97,0,0,1-1.222,3.511,4.735,4.735,0,0,1-6.561,0,5.058,5.058,0,0,1-1.226-3.586Zm2.54.18a3.555,3.555,0,0,0,.51,2.073,1.831,1.831,0,0,0,2.9.009,3.89,3.89,0,0,0,.519-2.267,3.519,3.519,0,0,0-.519-2.06,1.686,1.686,0,0,0-1.459-.731,1.658,1.658,0,0,0-1.441.726A3.955,3.955,0,0,0,76.025,12.338ZM86.4,7.49l.079,1.1a3.32,3.32,0,0,1,2.733-1.274,2.759,2.759,0,0,1,2.25.888,4.142,4.142,0,0,1,.756,2.654V17h-2.54V10.9a1.654,1.654,0,0,0-.352-1.176,1.572,1.572,0,0,0-1.169-.366,1.747,1.747,0,0,0-1.608.916V17h-2.54V7.49ZM97.181,5.152V7.49h1.626V9.354H97.181V14.1a1.133,1.133,0,0,0,.2.756,1.015,1.015,0,0,0,.773.229,4.051,4.051,0,0,0,.747-.062v1.925a5.229,5.229,0,0,1-1.538.229,2.425,2.425,0,0,1-2.725-2.7V9.354H93.252V7.49h1.389V5.152Zm8.385,4.72a6.9,6.9,0,0,0-.914-.07,1.86,1.86,0,0,0-1.89.976V17h-2.54V7.49h2.4l.07,1.134a2.354,2.354,0,0,1,2.118-1.31,2.662,2.662,0,0,1,.791.114Zm.51,2.285a5.64,5.64,0,0,1,.545-2.522,3.989,3.989,0,0,1,1.569-1.714,4.577,4.577,0,0,1,2.377-.606,4.33,4.33,0,0,1,3.142,1.178,4.727,4.727,0,0,1,1.358,3.2l.018.65a4.97,4.97,0,0,1-1.222,3.511,4.735,4.735,0,0,1-6.561,0,5.058,5.058,0,0,1-1.226-3.586Zm2.54.18a3.555,3.555,0,0,0,.51,2.073,1.831,1.831,0,0,0,2.9.009,3.89,3.89,0,0,0,.519-2.267,3.519,3.519,0,0,0-.519-2.06,1.686,1.686,0,0,0-1.459-.731,1.658,1.658,0,0,0-1.441.726A3.955,3.955,0,0,0,108.615,12.338ZM119.329,17H116.78V3.5h2.549Zm-75.5,15.175a5.731,5.731,0,0,1,1-3.542,3.237,3.237,0,0,1,2.729-1.318,2.913,2.913,0,0,1,2.294,1.037V23.5H52.4V37H50.1l-.123-1.011a2.989,2.989,0,0,1-2.443,1.187,3.228,3.228,0,0,1-2.694-1.323A5.916,5.916,0,0,1,43.827,32.175Zm2.54.181a3.775,3.775,0,0,0,.466,2.057,1.516,1.516,0,0,0,1.354.715,1.7,1.7,0,0,0,1.661-1V30.36a1.675,1.675,0,0,0-1.644-1Q46.367,29.362,46.367,32.356Zm12.375,4.82a4.668,4.668,0,0,1-3.406-1.283,4.561,4.561,0,0,1-1.314-3.419v-.246a5.745,5.745,0,0,1,.554-2.562,4.064,4.064,0,0,1,1.569-1.74,4.4,4.4,0,0,1,2.316-.611,3.947,3.947,0,0,1,3.072,1.23,5,5,0,0,1,1.121,3.489v1.037H56.6a2.36,2.36,0,0,0,.743,1.494,2.245,2.245,0,0,0,1.569.563A2.742,2.742,0,0,0,61.2,34.064l1.248,1.4A3.813,3.813,0,0,1,60.9,36.723,5.075,5.075,0,0,1,58.742,37.176Zm-.29-7.813a1.587,1.587,0,0,0-1.226.512,2.651,2.651,0,0,0-.6,1.466h3.533v-.2a1.891,1.891,0,0,0-.457-1.311A1.638,1.638,0,0,0,58.452,29.362Zm18.686,2.971a5.7,5.7,0,0,1-1,3.52,3.2,3.2,0,0,1-2.694,1.323,2.963,2.963,0,0,1-2.329-1v4.482h-2.54V27.49h2.355l.088.932a2.985,2.985,0,0,1,2.408-1.107,3.22,3.22,0,0,1,2.733,1.3,5.858,5.858,0,0,1,.976,3.586Zm-2.54-.194a3.763,3.763,0,0,0-.47-2.054,1.53,1.53,0,0,0-1.367-.723,1.662,1.662,0,0,0-1.644.917v3.906a1.691,1.691,0,0,0,1.661.943Q74.6,35.128,74.6,32.139ZM81.391,37H78.842V23.5h2.549Zm7.6,0a2.821,2.821,0,0,1-.255-.853,3.073,3.073,0,0,1-2.4,1.028,3.376,3.376,0,0,1-2.316-.809,2.6,2.6,0,0,1-.918-2.039,2.687,2.687,0,0,1,1.121-2.32,5.529,5.529,0,0,1,3.239-.817h1.169v-.545a1.567,1.567,0,0,0-.338-1.055,1.331,1.331,0,0,0-1.068-.4,1.513,1.513,0,0,0-1.006.308,1.045,1.045,0,0,0-.365.844h-2.54a2.551,2.551,0,0,1,.51-1.529,3.37,3.37,0,0,1,1.441-1.1,5.253,5.253,0,0,1,2.092-.4,4.15,4.15,0,0,1,2.791.883,3.09,3.09,0,0,1,1.033,2.483V34.8a4.546,4.546,0,0,0,.378,2.048V37Zm-2.1-1.767a2.188,2.188,0,0,0,1.037-.25,1.645,1.645,0,0,0,.7-.672V32.676h-.949q-1.907,0-2.03,1.318l-.009.149a1.017,1.017,0,0,0,.334.782A1.3,1.3,0,0,0,86.893,35.233Zm5.871-3.059a5.573,5.573,0,0,1,1.042-3.524,3.375,3.375,0,0,1,2.808-1.336,2.96,2.96,0,0,1,2.435,1.072l.105-.9h2.3v9.193a4.064,4.064,0,0,1-.567,2.171,3.641,3.641,0,0,1-1.6,1.406,5.608,5.608,0,0,1-2.408.483,5.215,5.215,0,0,1-2.039-.417,3.619,3.619,0,0,1-1.5-1.077L94.469,37.7a2.975,2.975,0,0,0,2.3,1.063,2.178,2.178,0,0,0,1.573-.541,2.027,2.027,0,0,0,.563-1.534v-.51a2.938,2.938,0,0,1-2.312.993,3.366,3.366,0,0,1-2.773-1.34,5.572,5.572,0,0,1-1.059-3.555Zm2.54.181a3.489,3.489,0,0,0,.519,2.035,1.648,1.648,0,0,0,1.424.737,1.762,1.762,0,0,0,1.661-.874V30.236a1.758,1.758,0,0,0-1.644-.874,1.659,1.659,0,0,0-1.437.751A3.933,3.933,0,0,0,95.3,32.356ZM108.918,37a2.821,2.821,0,0,1-.255-.853,3.073,3.073,0,0,1-2.4,1.028,3.376,3.376,0,0,1-2.316-.809,2.6,2.6,0,0,1-.918-2.039,2.687,2.687,0,0,1,1.121-2.32,5.529,5.529,0,0,1,3.239-.817h1.169v-.545a1.567,1.567,0,0,0-.338-1.055,1.331,1.331,0,0,0-1.068-.4,1.513,1.513,0,0,0-1.006.308,1.045,1.045,0,0,0-.365.844h-2.54a2.551,2.551,0,0,1,.51-1.529,3.37,3.37,0,0,1,1.441-1.1,5.253,5.253,0,0,1,2.092-.4,4.15,4.15,0,0,1,2.791.883,3.09,3.09,0,0,1,1.033,2.483V34.8a4.546,4.546,0,0,0,.378,2.048V37Zm-2.1-1.767a2.188,2.188,0,0,0,1.037-.25,1.645,1.645,0,0,0,.7-.672V32.676h-.949q-1.907,0-2.03,1.318l-.009.149a1.017,1.017,0,0,0,.334.782A1.3,1.3,0,0,0,106.818,35.233Zm11.391-.861a.818.818,0,0,0-.461-.734,5.241,5.241,0,0,0-1.481-.479q-3.393-.712-3.393-2.883a2.613,2.613,0,0,1,1.05-2.114,4.237,4.237,0,0,1,2.747-.848,4.56,4.56,0,0,1,2.9.853,2.687,2.687,0,0,1,1.085,2.215h-2.54a1.229,1.229,0,0,0-.352-.9,1.488,1.488,0,0,0-1.1-.356,1.52,1.52,0,0,0-.993.29.916.916,0,0,0-.352.738.783.783,0,0,0,.4.681,4.114,4.114,0,0,0,1.349.448,11.019,11.019,0,0,1,1.6.426,2.628,2.628,0,0,1,2.013,2.558,2.481,2.481,0,0,1-1.116,2.1,4.815,4.815,0,0,1-2.883.8,5.029,5.029,0,0,1-2.123-.426,3.561,3.561,0,0,1-1.455-1.169,2.716,2.716,0,0,1-.527-1.6h2.408a1.326,1.326,0,0,0,.5,1.037,1.987,1.987,0,0,0,1.248.36,1.839,1.839,0,0,0,1.1-.277A.861.861,0,0,0,118.208,34.372Z" transform="translate(906.63 5443.259)" fill="#12263f"/>
    <g id="Grupo_151707" data-name="Grupo 151707" transform="translate(332.682 5526.207)" opacity="0.64">
      <g id="Grupo_151706" data-name="Grupo 151706">
        <g id="Grupo_151705" data-name="Grupo 151705" clip-path="url(#clip-path-2)">
          <path id="Trazado_212286" data-name="Trazado 212286" d="M210.9,149.163a87.98,87.98,0,1,0-88.382,87.576A87.98,87.98,0,0,0,210.9,149.163" transform="translate(-34.938 -60.78)" fill="#fff"/>
        </g>
      </g>
    </g>
    <g id="Grupo_151710" data-name="Grupo 151710" transform="translate(522.376 5527.078)" opacity="0.64">
      <g id="Grupo_151709" data-name="Grupo 151709">
        <g id="Grupo_151708" data-name="Grupo 151708" clip-path="url(#clip-path-3)">
          <path id="Trazado_212288" data-name="Trazado 212288" d="M173.935,148.995a87.98,87.98,0,1,0,88.382-87.576,87.98,87.98,0,0,0-88.382,87.576" transform="translate(-173.934 -61.418)" fill="#fff"/>
        </g>
      </g>
    </g>
    <g id="Grupo_151713" data-name="Grupo 151713" transform="translate(711.931 5527.947)" opacity="0.64">
      <g id="Grupo_151712" data-name="Grupo 151712">
        <g id="Grupo_151711" data-name="Grupo 151711" clip-path="url(#clip-path-3)">
          <path id="Trazado_212290" data-name="Trazado 212290" d="M488.788,150.438a87.98,87.98,0,1,0-88.382,87.576,87.979,87.979,0,0,0,88.382-87.576" transform="translate(-312.829 -62.055)" fill="#fff"/>
        </g>
      </g>
    </g>
    <g id="Grupo_151716" data-name="Grupo 151716" transform="translate(901.626 5528.818)" opacity="0.64">
      <g id="Grupo_151715" data-name="Grupo 151715">
        <g id="Grupo_151714" data-name="Grupo 151714" clip-path="url(#clip-path-5)">
          <path id="Trazado_212292" data-name="Trazado 212292" d="M451.827,150.27a87.98,87.98,0,1,0,88.382-87.576,87.979,87.979,0,0,0-88.382,87.576" transform="translate(-451.826 -62.693)" fill="#fff"/>
        </g>
      </g>
    </g>
    <g id="Grupo_151719" data-name="Grupo 151719" transform="translate(1091.243 5526.207)" opacity="0.64">
      <g id="Grupo_151718" data-name="Grupo 151718">
        <g id="Grupo_151717" data-name="Grupo 151717" clip-path="url(#clip-path-3)">
          <path id="Trazado_212309" data-name="Trazado 212309" d="M766.724,149.163a87.98,87.98,0,1,0-88.382,87.576,87.98,87.98,0,0,0,88.382-87.576" transform="translate(-590.765 -60.78)" fill="#fff"/>
        </g>
      </g>
    </g>
    <path id="Trazado_595296" data-name="Trazado 595296" d="M0,0H1030V341.7H0Z" transform="translate(285 5443.259)" fill="none"/>
    <path id="Trazado_595297" data-name="Trazado 595297" d="M0,0H1030V341.7H0Z" transform="translate(285 5443.259)" fill="none"/>
    <path id="Trazado_212313" data-name="Trazado 212313" d="M-7977.984-8228.466v54.334" transform="translate(8398.559 13903.613)" fill="none" stroke="#a2a7c5" stroke-width="2" stroke-dasharray="4"/>
    <path id="Trazado_212320" data-name="Trazado 212320" d="M-7977.984-8228.466v54.334" transform="translate(8777.457 13903.613)" fill="none" stroke="#a2a7c5" stroke-width="2" stroke-dasharray="4"/>
    <path id="Trazado_212322" data-name="Trazado 212322" d="M-7977.984-8228.466v54.334" transform="translate(9157.539 13903.613)" fill="none" stroke="#a2a7c5" stroke-width="2" stroke-dasharray="4"/>
    <path id="Trazado_212317" data-name="Trazado 212317" d="M0,0V54.334" transform="translate(610.022 5553.371) rotate(180)" fill="none" stroke="#a2a7c5" stroke-width="2" stroke-dasharray="4"/>
    <path id="Trazado_212323" data-name="Trazado 212323" d="M0,0V54.334" transform="translate(990.105 5553.371) rotate(180)" fill="none" stroke="#a2a7c5" stroke-width="2" stroke-dasharray="4"/>
    <path id="Trazado_212314" data-name="Trazado 212314" d="M0,0V46.133" transform="translate(444.209 5729.48) rotate(90)" fill="none" stroke="#ea3584" stroke-width="2"/>
    <path id="Trazado_212319" data-name="Trazado 212319" d="M0,0V46.133" transform="translate(823.107 5729.48) rotate(90)" fill="none" stroke="#ea3584" stroke-width="2"/>
    <path id="Trazado_212321" data-name="Trazado 212321" d="M0,0V46.133" transform="translate(1202.007 5729.48) rotate(90)" fill="none" stroke="#ea3584" stroke-width="2"/>
    <path id="Trazado_212318" data-name="Trazado 212318" d="M0,0V46.133" transform="translate(587.525 5499.042) rotate(-90)" fill="none" stroke="#ea3584" stroke-width="2"/>
    <path id="Trazado_212324" data-name="Trazado 212324" d="M0,0V46.133" transform="translate(966.423 5499.042) rotate(-90)" fill="none" stroke="#ea3584" stroke-width="2"/>
    <path id="Trazado_594247" data-name="Trazado 594247" d="M115.416,202.5a60.958,60.958,0,1,1,61.236-60.678A61.027,61.027,0,0,1,115.416,202.5" transform="translate(495.263 5472.42)" fill="url(#radial-gradient)"/>
    <path id="Trazado_594248" data-name="Trazado 594248" d="M115.416,202.5a60.958,60.958,0,1,1,61.236-60.678A61.027,61.027,0,0,1,115.416,202.5" transform="translate(684.263 5472.42)" fill="url(#radial-gradient)"/>
    <path id="Trazado_594249" data-name="Trazado 594249" d="M115.416,202.5a60.958,60.958,0,1,1,61.236-60.678A61.027,61.027,0,0,1,115.416,202.5" transform="translate(874.263 5472.42)" fill="url(#radial-gradient)"/>
    <path id="Trazado_594250" data-name="Trazado 594250" d="M115.416,202.5a60.958,60.958,0,1,1,61.236-60.678A61.027,61.027,0,0,1,115.416,202.5" transform="translate(1064.263 5475.26)" fill="url(#radial-gradient)"/>
    <path id="Trazado_594251" data-name="Trazado 594251" d="M115.416,202.5a60.958,60.958,0,1,1,61.236-60.678A61.027,61.027,0,0,1,115.416,202.5" transform="translate(305.263 5472.42)" fill="url(#radial-gradient)"/>
    <g id="Grupo_874466" data-name="Grupo 874466" transform="translate(389.706 5571.359)">
      <g id="Grupo_874465" data-name="Grupo 874465" clip-path="url(#clip-path-7)">
        <path id="Trazado_595148" data-name="Trazado 595148" d="M52.5,29.491c2.4-1.147,4.619-2.213,6.843-3.257a.622.622,0,0,0,.431-.751c-.171-1.434-.306-2.872-.42-4.312a.883.883,0,0,1,.244-.647Q71.338,10.262,83.1.026c.023-.02.053-.033.029-.018l26,26c-.789.685-1.636,1.424-2.486,2.158q-7.89,6.817-15.78,13.632c-2.257,1.951-4.5,3.917-6.77,5.853a3.1,3.1,0,0,1-3.262.517.478.478,0,0,0-.58.106,3.046,3.046,0,0,1-2.133.8c-1.857,0-3.715.014-5.572-.015a1.123,1.123,0,0,1-.664-.357q-6.628-6.6-13.238-13.224-2.727-2.727-5.458-5.451a8.123,8.123,0,0,0-.68-.535M83.04,4.4c-.1.083-.222.179-.339.281l-8.364,7.286q-5.654,4.926-11.312,9.846a.775.775,0,0,0-.3.774c.13,1.087.2,2.18.332,3.267a1.181,1.181,0,0,0,.31.648q8.165,8.2,16.347,16.375c.759.76,1.493,1.546,2.249,2.331l22.46-19.414L83.04,4.4M77.924,45.83l.127-.177a4.394,4.394,0,0,1-.564-.41Q71.914,39.681,66.351,34.11q-2.438-2.439-4.885-4.871c-.112-.111-.357-.226-.468-.177-.934.415-1.85.868-2.807,1.326.093.106.141.166.2.22,4.8,4.8,9.613,9.593,14.387,14.421a2.384,2.384,0,0,0,2.029.817c1.036-.072,2.08-.017,3.121-.017" transform="translate(-47.499 -0.001)"/>
        <path id="Trazado_595149" data-name="Trazado 595149" d="M1,846.738c-.345-.986-.682-1.924-.991-2.87a.391.391,0,0,1,.18-.339c1.858-.571,3.611-1.492,5.583-1.686a11.448,11.448,0,0,1,4.926.514,24.56,24.56,0,0,0,3.277.943,7.239,7.239,0,0,0,4.143-.555,12.424,12.424,0,0,1,5.434-.966,13.49,13.49,0,0,1,4.089,1.023,8.033,8.033,0,0,0,6.078-.025,12.718,12.718,0,0,1,5.474-1,13.58,13.58,0,0,1,4.182,1.037,8.191,8.191,0,0,0,6.123-.051c.944-.364,1.908-.672,2.934-1.03l1.106,3.106c-.481.174-.919.345-1.366.492a37.758,37.758,0,0,1-3.62,1.148,10.981,10.981,0,0,1-6.667-.676,8.211,8.211,0,0,0-5.073-.534,18.149,18.149,0,0,0-2.212.718,10.988,10.988,0,0,1-8.039-.057,8.9,8.9,0,0,0-4.917-.747,17.919,17.919,0,0,0-2.772.82,11.274,11.274,0,0,1-8.36-.192,8.2,8.2,0,0,0-5.165-.527c-1.271.316-2.493.829-3.737,1.254-.179.061-.359.119-.611.2" transform="translate(0 -761.538)"/>
        <rect id="Rectángulo_293484" data-name="Rectángulo 293484" width="3.173" height="3.169" transform="translate(19.958 68.122)"/>
        <rect id="Rectángulo_293485" data-name="Rectángulo 293485" width="3.155" height="3.177" transform="translate(32.834 68.113)"/>
        <rect id="Rectángulo_293486" data-name="Rectángulo 293486" width="3.188" height="3.175" transform="translate(23.177 74.569)"/>
        <rect id="Rectángulo_293487" data-name="Rectángulo 293487" width="3.175" height="3.169" transform="translate(29.622 74.571)"/>
        <rect id="Rectángulo_293488" data-name="Rectángulo 293488" width="3.19" height="3.165" transform="translate(23.172 61.707)"/>
        <rect id="Rectángulo_293489" data-name="Rectángulo 293489" width="3.165" height="3.174" transform="translate(29.609 61.703)"/>
        <rect id="Rectángulo_293490" data-name="Rectángulo 293490" width="3.166" height="3.162" transform="translate(26.406 55.272)"/>
        <rect id="Rectángulo_293491" data-name="Rectángulo 293491" width="3.144" height="3.173" transform="translate(26.415 68.114)"/>
        <path id="Trazado_595152" data-name="Trazado 595152" d="M322.123,196.566c.268-1.389.494-2.713.783-4.022a26.361,26.361,0,0,1,2-6.28,5.172,5.172,0,0,1,5.14-3.012,5.289,5.289,0,0,1,5.053,3.617,5.414,5.414,0,0,1-1.1,5.808,6.449,6.449,0,0,1-2.656,1.62,42.529,42.529,0,0,1-8.232,2.1c-.307.054-.614.1-1,.168" transform="translate(-291.434 -165.789)"/>
        <path id="Trazado_595153" data-name="Trazado 595153" d="M205.4,235.853l5.388,5.395-2.2,2.157-5.38-5.387,2.2-2.165" transform="translate(-183.847 -213.383)"/>
        <path id="Trazado_595154" data-name="Trazado 595154" d="M326.826,357.7l-2.175,2.15-3.839-3.823,2.175-2.178,3.839,3.851" transform="translate(-290.248 -320.142)"/>
      </g>
    </g>
    <g id="Grupo_874468" data-name="Grupo 874468" transform="translate(587.525 5584.869)">
      <g id="Grupo_874467" data-name="Grupo 874467" clip-path="url(#clip-path-8)">
        <path id="Trazado_595155" data-name="Trazado 595155" d="M148.1,0a2,2,0,0,1,1.267,1.94c-.008.179.279.418.481.553q7.575,5.048,15.163,10.078c1.639,1.089,3.305,2.14,4.9,3.288a7.171,7.171,0,0,1,1.518,10.1,7.353,7.353,0,0,1-10.329,1.66q-9.63-6.335-19.245-12.692a1.014,1.014,0,0,0-1.163-.185,1.749,1.749,0,0,1-1.967-.555,1.791,1.791,0,0,1-.026-2.146c1.341-2.044,2.7-4.076,4.051-6.112,1.054-1.588,2.081-3.194,3.18-4.751A7.868,7.868,0,0,1,147.227,0Zm2.824,16.593a1.1,1.1,0,0,0,.157.192c4.071,2.7,8.133,5.409,12.223,8.078a3.708,3.708,0,0,0,3.669.4,3.583,3.583,0,0,0,2.292-3,4.028,4.028,0,0,0-1.839-3.954c-1.816-1.266-3.68-2.463-5.536-3.671a1.017,1.017,0,0,0-.685-.14c-3.405.683-6.806,1.388-10.281,2.1M147.462,5.24l-4.23,6.433c1.041.695,2.025,1.38,3.043,2.01a1.417,1.417,0,0,0,.906.16c1.1-.185,2.192-.429,3.286-.653l6.953-1.428L147.462,5.24" transform="translate(-121.108)"/>
        <path id="Trazado_595156" data-name="Trazado 595156" d="M30.592,262.325v-.754c0-4.52-.005-9.04.01-13.56a2.409,2.409,0,0,1,.244-1.063q1.3-2.51,2.664-4.984a1.7,1.7,0,0,1,2.475-.744,1.924,1.924,0,0,1,.716,2.595c-.654,1.176-1.37,2.319-2,3.507a3.12,3.12,0,0,0-.384,1.388c-.025,6.282-.01,12.565-.02,18.847a6.722,6.722,0,0,1-4.663,6.7,7.727,7.727,0,0,1-2.316.357c-5.825.029-11.65.021-17.475.014a6.749,6.749,0,0,1-7.017-7.012c-.015-6.282,0-12.565-.018-18.847a2.679,2.679,0,0,0-.325-1.219c-.692-1.273-1.445-2.513-2.165-3.772a1.685,1.685,0,0,1,.6-2.5,1.668,1.668,0,0,1,2.409.774c.824,1.461,1.612,2.942,2.423,4.41a3.476,3.476,0,0,1,.5,2.074c-.041.407-.007.822-.007,1.322h.709c1.949,0,3.9-.01,5.846.009a1.743,1.743,0,0,1,.5,3.414,3.162,3.162,0,0,1-.859.084c-2.03.007-4.06,0-6.141,0v2.041c.733,0,1.468-.015,2.2,0a1.762,1.762,0,1,1,.129,3.52c-.784.033-1.57.006-2.405.006v3.39ZM6.236,265.938a15.342,15.342,0,0,0,.022,2.417A3.184,3.184,0,0,0,9.61,270.91q6.408.014,12.815,0c1.7,0,3.4.022,5.1-.021a3,3,0,0,0,2.9-2.521,18.161,18.161,0,0,0,.02-2.432Z" transform="translate(0 -210.916)"/>
        <path id="Trazado_595157" data-name="Trazado 595157" d="M114.236,186.17a5.8,5.8,0,1,1-11.6.023,6.922,6.922,0,0,1,1.135-3.509c.991-1.671,2.064-3.3,3.18-4.889a1.68,1.68,0,0,1,2.813-.171,24.431,24.431,0,0,1,4.268,7.311,4.41,4.41,0,0,1,.164.662,5.363,5.363,0,0,1,.04.574m-5.623-4.319-.3.016c-.673,1.3-1.385,2.575-2.005,3.9a1.9,1.9,0,0,0,.695,2.25,2.338,2.338,0,0,0,2.668.14,1.943,1.943,0,0,0,.953-2.217c-.6-1.393-1.331-2.727-2.008-4.085" transform="translate(-89.84 -154.883)"/>
      </g>
    </g>
    <g id="Grupo_874470" data-name="Grupo 874470" transform="translate(771.78 5578.941)">
      <g id="Grupo_874469" data-name="Grupo 874469" clip-path="url(#clip-path-9)">
        <path id="Trazado_595158" data-name="Trazado 595158" d="M42.256,0c-.665,2.3-1.47,4.566-1.956,6.9-.5,2.4-.694,4.872-1.011,7.313a9.673,9.673,0,0,0-.005,1.069c5.374-3.143,11.184-2.669,17.157-2.639-.469.352-.777.577-1.077.81-2.255,1.749-4.671,3.295-6.553,5.5a30.119,30.119,0,0,0-6.649,13.493,3.151,3.151,0,0,0-.048.342c-.007.068,0,.137,0,.269A6.486,6.486,0,0,1,48.4,36.529a6.11,6.11,0,0,1-.7,7.037,6.67,6.67,0,0,1,.009,8.395c2.1,3.449,1.991,5.64-.482,8.729.069.116.145.25.226.381a6.042,6.042,0,0,1,.229,6.373,5.974,5.974,0,0,1-5.411,3.4c-7.22.064-14.443.147-21.66-.015a18.857,18.857,0,0,1-7-35.984c.656-.3.849-.567.712-1.314A29.01,29.01,0,0,0,6.094,17.573,62.261,62.261,0,0,0,.731,13.331c-.246-.192-.5-.377-.731-.553.049-.093.059-.131.069-.131,4.326.013,8.687-.371,12.911.935,1.333.412,2.612,1,4.028,1.545-.052-1.037-.06-2.084-.163-3.122A48.28,48.28,0,0,0,14.247.792C14.156.533,14.09.265,14.012,0h4.153a.655.655,0,0,0,.184.089c4.109.523,6.861,2.916,8.814,6.4.333.593.62,1.212.975,1.911.252-.512.453-.941.671-1.361C30.489,3.8,32.834,1.322,36.493.36,37.024.22,37.565.12,38.1,0ZM30.917,41.5h5.047c2.307,0,4.613.012,6.92,0a1.966,1.966,0,0,0,2.089-1.718,2.242,2.242,0,0,0-1.582-2.389,3.848,3.848,0,0,0-1.024-.123q-7.37-.01-14.74,0c-2.49.007-4.989-.074-7.468.106a14.681,14.681,0,0,0,1.184,29.306c6.827.077,13.655.025,20.483.02a2.3,2.3,0,0,0,2.445-2.274c-.02-1.233-.914-1.96-2.423-1.961q-5.052,0-10.1,0h-.8V58.287h.8q5.363,0,10.726,0a2.3,2.3,0,0,0,2.519-2.261c-.025-1.233-.9-1.931-2.434-1.931q-5.4,0-10.8,0h-.853v-4.2h5.7c2.076,0,4.152.013,6.228-.007a1.953,1.953,0,0,0,2.127-1.665,2.026,2.026,0,0,0-2.076-2.537c-3.737-.014-7.474-.006-11.211-.007h-.76Zm6.859-8.338a34.54,34.54,0,0,1,6.674-15.5c-3.74.7-5.779,3.38-7.613,6.287C34.444,17.584,34.8,11.27,36.476,4.818a7.788,7.788,0,0,0-3.238,2.907,18.759,18.759,0,0,0-2.6,7.229c-.2,1.148-.316,2.31-.468,3.448H26.122c-.215-1.428-.371-2.8-.639-4.157a17.184,17.184,0,0,0-2.725-6.885,7.362,7.362,0,0,0-2.94-2.511c1.593,6.423,2.085,12.736-.43,19.049-1.8-2.908-3.869-5.543-7.582-6.242A34.346,34.346,0,0,1,18.5,33.162Z" transform="translate(0 -0.001)"/>
      </g>
    </g>
    <g id="Grupo_874472" data-name="Grupo 874472" transform="translate(952.63 5580)">
      <g id="Grupo_874471" data-name="Grupo 874471" clip-path="url(#clip-path-10)">
        <path id="Trazado_595159" data-name="Trazado 595159" d="M43.415,0c2.159.424,4.351.728,6.471,1.3A31.521,31.521,0,0,1,61.808,7.561c.587.483,1.022,1.105.657,1.82A2.075,2.075,0,0,1,61.2,10.44a2.4,2.4,0,0,1-1.574-.612,30.722,30.722,0,0,0-12.2-5.922A29.744,29.744,0,0,0,11.871,39.678a3.858,3.858,0,0,1-1.194,3.993c-1.856,1.767-3.672,3.575-5.5,5.369-.241.236-.466.49-.9.953,2.162-.2,4.057-.378,5.951-.563.978-.1,1.956-.188,2.93-.319a3.987,3.987,0,0,1,4,1.745,29.512,29.512,0,0,0,13.413,9.971C47.858,67.369,67.419,55.96,70.2,37.718a29.426,29.426,0,0,0-5.135-22.064c-.08-.115-.167-.226-.242-.345a1.591,1.591,0,0,1,.307-2.322,1.563,1.563,0,0,1,2.281.527,32.123,32.123,0,0,1,4.816,9.417c6.121,19.22-6.5,39.66-26.5,42.492-12.4,1.756-22.7-2.489-30.681-12.164a2.243,2.243,0,0,0-2.292-.941q-4.964.581-9.949.979A2.462,2.462,0,0,1,.067,50.316a3.945,3.945,0,0,1,1.079-1.74c2.352-2.364,4.747-4.685,7.15-7a1.353,1.353,0,0,0,.441-1.464A32.978,32.978,0,0,1,35.267.465C36.226.3,37.188.154,38.149,0Z" transform="translate(0)"/>
        <path id="Trazado_595160" data-name="Trazado 595160" d="M124.02,61.2a25.358,25.358,0,1,1-25.3-25.34,25.406,25.406,0,0,1,25.3,25.34m-19.976,7.83a5.6,5.6,0,0,1-1.019.807c-.909.442-1.024,1.052-.691,1.948a2.965,2.965,0,0,1-.828,3.359c-1.129,1.1-2.227,2.242-3.36,3.342a1.582,1.582,0,1,1-2.187-2.252c.9-.932,1.795-1.883,2.762-2.747a1.2,1.2,0,0,0,.2-1.837A9.275,9.275,0,0,1,88.219,60.939a1.235,1.235,0,0,0-1.88.282c-.87.963-1.811,1.863-2.749,2.761a1.577,1.577,0,1,1-2.206-2.234c.9-.936,1.894-1.789,2.736-2.773A3.768,3.768,0,0,1,88.7,57.66a1,1,0,0,0,.88-.209,17.681,17.681,0,0,0,1.234-1.619l-8.948-8.961c-4.359,4.491-6.9,12.77-4.5,20.461,2.8,8.967,8.972,14.35,18.241,15.823a21.228,21.228,0,0,0,17.472-5.07l-9.038-9.059m11.491,6.559c7.823-8.6,6.957-22.737-1.934-30.8-9.23-8.37-22.311-6.919-29.117-.54l7.781,7.794a9.048,9.048,0,0,1,1.08-2.2,49.3,49.3,0,0,1,3.471-3.522,1.586,1.586,0,1,1,2.195,2.252c-.9.932-1.8,1.88-2.763,2.745a1.205,1.205,0,0,0-.244,1.8c.908,0,1.785.04,2.654-.025a.976.976,0,0,0,.687-.531,6.551,6.551,0,0,1,3.423-3.811c.229-.112.554-.465.513-.624-.531-2.085.911-3.173,2.159-4.341a1.506,1.506,0,0,1,2.177,0,1.572,1.572,0,0,1,.049,2.189c-.268.323-.6.594-.881.9-.647.71-.49,1.323.423,1.613a6.546,6.546,0,0,1,3.839,3.231c.325.581.07,1.737,1.066,1.653.608-.051,1.185-.693,1.737-1.119a1.636,1.636,0,0,1,2.2-.037,1.518,1.518,0,0,1,.037,2.254c-1.238,1.382-2.481,2.789-4.7,2.01a6.434,6.434,0,0,1-4.588,4.211v3.223a1.245,1.245,0,0,0,1.785-.292c.866-.965,1.814-1.858,2.746-2.762a1.586,1.586,0,1,1,2.226,2.219c-.829.858-1.7,1.672-2.522,2.54-.993,1.053-2.008,2.03-3.634,1.86l8.138,8.108M101.7,66.811l-8.6-8.648a6.1,6.1,0,1,0,8.6,8.648m7.03-12.153a3.608,3.608,0,0,0-2.623-3.194,3.147,3.147,0,0,0-3.637,1.8.957.957,0,0,0,.371,1.4,11.911,11.911,0,0,1,2.126,2c.9,1.067,1.417,1.233,2.4.231a11.155,11.155,0,0,0,1.363-2.24M103.48,63.48A5.846,5.846,0,0,0,96.4,56.4l7.078,7.078" transform="translate(-57.832 -28.288)"/>
      </g>
    </g>
    <g id="Grupo_874474" data-name="Grupo 874474" transform="translate(1148.946 5586.202)">
      <g id="Grupo_874473" data-name="Grupo 874473" clip-path="url(#clip-path-11)">
        <path id="Trazado_595161" data-name="Trazado 595161" d="M29.393,10.9a10.546,10.546,0,0,0-.947-5.581A5.054,5.054,0,0,0,23.48,2.407c-.8.02-1.255-.36-1.277-1.088A1.188,1.188,0,0,1,23.413,0a7.955,7.955,0,0,1,7.1,3.774c.041.065.085.128.147.222.067-.1.125-.17.174-.251A7.759,7.759,0,0,1,36.013.184,11.1,11.1,0,0,1,37.947,0,1.073,1.073,0,0,1,39,.677,1.254,1.254,0,0,1,38.9,1.993a1.08,1.08,0,0,1-1.018.417,5.02,5.02,0,0,0-4.323,1.846A7.334,7.334,0,0,0,32.2,7.163a8.52,8.52,0,0,0-.277,2.452c.019.416,0,.833,0,1.281H52.152a9.516,9.516,0,0,0-1.567-6.553A4.943,4.943,0,0,0,46.24,2.407a1.091,1.091,0,0,1-1.283-1.086A1.2,1.2,0,0,1,46.168,0a7.981,7.981,0,0,1,7.05,3.683c.055.082.108.166.162.248.005.008.017.012.057.036.154-.229.3-.467.465-.689A8.04,8.04,0,0,1,60.7,0a1.089,1.089,0,0,1,1.048.676,1.271,1.271,0,0,1-.092,1.319,1.078,1.078,0,0,1-1.019.415,5.133,5.133,0,0,0-3.6,1.12,6.543,6.543,0,0,0-1.963,3.188,13.169,13.169,0,0,0-.4,4.205h.382c1.487,0,2.974-.009,4.461,0a1.209,1.209,0,0,1,1.09,1.851,1.047,1.047,0,0,1-.912.56c-.143.007-.286,0-.429,0H20.842c-6.256,0-12.512-.009-18.768.007a1.209,1.209,0,0,1-1.222-1.57,1.132,1.132,0,0,1,1.217-.854q2.363-.005,4.725,0h.4c.117-2.456-.109-4.8-1.722-6.766a4.935,4.935,0,0,0-4.2-1.749C.488,2.429.029,2.051,0,1.343A1.188,1.188,0,0,1,1.217,0,7.957,7.957,0,0,1,8.328,3.809c.035.055.071.109.124.191.182-.269.341-.53.526-.771A8.038,8.038,0,0,1,15.774,0a1.078,1.078,0,0,1,1.017.673A1.264,1.264,0,0,1,16.7,1.992a1.048,1.048,0,0,1-.984.418,5.029,5.029,0,0,0-4.248,1.721,7.433,7.433,0,0,0-1.649,4c-.114.9-.1,1.819-.143,2.76Z" transform="translate(0 0)"/>
        <path id="Trazado_595162" data-name="Trazado 595162" d="M7.244,373.406a17.642,17.642,0,0,1,4.387.718c1.225.315,2.451.626,3.682.913a8.649,8.649,0,0,0,4.594-.266c1.344-.418,2.667-.9,4-1.345a13.315,13.315,0,0,1,10,.545c1.2.543,2.427,1.04,3.665,1.5a8.857,8.857,0,0,0,6.993-.387c.849-.388,1.723-.728,2.6-1.04a7.984,7.984,0,0,1,4.623-.215c1.654.4,3.276.938,4.908,1.426a15.422,15.422,0,0,0,4.039.773,1.163,1.163,0,0,1,1.172,1.308,1.129,1.129,0,0,1-1.313,1.108,20.585,20.585,0,0,1-5.043-1.126c-1.24-.38-2.487-.745-3.748-1.039a8.454,8.454,0,0,0-5.326.559c-1,.424-2.019.821-3.053,1.157a9.759,9.759,0,0,1-6.509-.246c-1.415-.515-2.815-1.079-4.2-1.672a10.529,10.529,0,0,0-7.11-.418c-1.517.412-3.014.9-4.525,1.337a12.2,12.2,0,0,1-5.082.587,31.7,31.7,0,0,1-3.481-.742,27.278,27.278,0,0,0-4.409-.976,7.379,7.379,0,0,0-4.468.833,10.322,10.322,0,0,1-2.021.862,1.133,1.133,0,0,1-1.3-.492A1.254,1.254,0,0,1,.2,375.691a1.083,1.083,0,0,1,.458-.447c.7-.331,1.411-.632,2.123-.932a11.272,11.272,0,0,1,4.466-.907" transform="translate(-0.046 -348.07)"/>
        <path id="Trazado_595163" data-name="Trazado 595163" d="M18.693,812.689a31.713,31.713,0,0,1,7.125.908c2.355.508,4.7,1.047,7.07,1.491A21.311,21.311,0,0,0,41.094,815q2.653-.535,5.308-1.058a17.368,17.368,0,0,1,8.612.434,52.9,52.9,0,0,0,5.553,1.436,15.726,15.726,0,0,0,8.614-.675.973.973,0,0,1,1.366.637,1.333,1.333,0,0,1-.825,1.736,16.72,16.72,0,0,1-6.438,1.072,28.663,28.663,0,0,1-8.32-1.483,18.544,18.544,0,0,0-5.125-1.044,16.548,16.548,0,0,0-3.537.389c-2.053.39-4.094.862-6.161,1.156a28.711,28.711,0,0,1-11.006-.691c-2.1-.52-4.208-1.044-6.334-1.451a18.649,18.649,0,0,0-6.571-.181,7.418,7.418,0,0,0-3.048,1.193c-.2.136-.358.326-.551.47a1.35,1.35,0,0,1-1.791-.221.954.954,0,0,1-.032-1.247,5.61,5.61,0,0,1,2.73-1.94,15.415,15.415,0,0,1,5.154-.841" transform="translate(-9.893 -758.976)"/>
        <path id="Trazado_595164" data-name="Trazado 595164" d="M63.344,612.621a48.131,48.131,0,0,1-8.3-.573c-1.309-.235-2.6-.555-3.907-.823a15.462,15.462,0,0,0-5.049-.363,16.171,16.171,0,0,0-3.788,1,20.153,20.153,0,0,1-9.815,1.056c-2.522-.308-5.032-.717-7.546-1.088a34.167,34.167,0,0,0-7.5-.513,13.929,13.929,0,0,0-4.543,1.056,1.309,1.309,0,0,1-1.77-.6.947.947,0,0,1,.464-1.427,22.475,22.475,0,0,1,3.175-.98,26.835,26.835,0,0,1,9.429-.16c1.989.308,3.964.7,5.947,1.046a23.966,23.966,0,0,0,7.489.365,22.012,22.012,0,0,0,4.194-1.147,14.113,14.113,0,0,1,6.234-1.027,43.953,43.953,0,0,1,4.359.721,48.113,48.113,0,0,0,17.426.532,1.326,1.326,0,0,1,1.7,1.194.925.925,0,0,1-.815,1.089c-1.22.171-2.442.351-3.669.449-1.481.118-2.967.156-3.717.193" transform="translate(-10.251 -568.179)"/>
        <path id="Trazado_595165" data-name="Trazado 595165" d="M717.536,491.339c-.968,0-1.936.009-2.9,0a1.193,1.193,0,0,1-1.149-1.712,1.034,1.034,0,0,1,1.016-.707q3.069-.017,6.139,0a1.205,1.205,0,0,1,.13,2.383c-.556.057-1.12.031-1.68.035-.517,0-1.034,0-1.551,0" transform="translate(-666.228 -456.597)"/>
        <path id="Trazado_595166" data-name="Trazado 595166" d="M247.529,746.225c-.99,0-1.98,0-2.97,0a1.123,1.123,0,0,1-1.217-1.175,1.139,1.139,0,0,1,1.212-1.223q2.986,0,5.972,0a1.1,1.1,0,0,1,1.121.841,1.225,1.225,0,0,1-.521,1.408,1.437,1.437,0,0,1-.629.142c-.99.014-1.98.006-2.97.006" transform="translate(-227.259 -694.664)"/>
        <path id="Trazado_595167" data-name="Trazado 595167" d="M267.576,312.7c-.859,0-1.718.006-2.576,0a1.206,1.206,0,0,1-1.1-1.809,1.094,1.094,0,0,1,1.083-.611h3.633c.506,0,1.013-.008,1.519,0a1.21,1.21,0,1,1-.017,2.419c-.848.006-1.7,0-2.543,0Z" transform="translate(-246.317 -289.767)"/>
        <path id="Trazado_595168" data-name="Trazado 595168" d="M69.257,248.945c.65,0,1.3,0,1.949,0a1.206,1.206,0,1,1,.006,2.412q-1.982.007-3.965,0a1.207,1.207,0,1,1,.027-2.413h1.982" transform="translate(-61.667 -232.492)"/>
        <path id="Trazado_595169" data-name="Trazado 595169" d="M594.507,312.658c-.583,0-1.166,0-1.749,0a1.208,1.208,0,1,1-.014-2.416q1.765-.019,3.53,0a1.125,1.125,0,0,1,1.2,1.232,1.139,1.139,0,0,1-1.216,1.187c-.583.006-1.166,0-1.749,0" transform="translate(-552.441 -289.727)"/>
        <path id="Trazado_595170" data-name="Trazado 595170" d="M160.682,515.541c.572,0,1.144,0,1.716,0a1.2,1.2,0,1,1,.026,2.408q-1.766.011-3.532,0a1.2,1.2,0,0,1,.007-2.406c.594-.006,1.188,0,1.782,0" transform="translate(-147.283 -481.467)"/>
        <path id="Trazado_595171" data-name="Trazado 595171" d="M783.612,278.493c-.507,0-1.013,0-1.52,0a1.208,1.208,0,0,1-.021-2.416c1.035-.011,2.071-.009,3.106,0a1.209,1.209,0,0,1-.012,2.417c-.518.006-1.035,0-1.553,0" transform="translate(-729.287 -257.823)"/>
        <path id="Trazado_595172" data-name="Trazado 595172" d="M187.709,248.935c.517,0,1.033,0,1.55,0a1.206,1.206,0,0,1,.054,2.408c-1.066.02-2.132.018-3.2,0a1.206,1.206,0,0,1,.045-2.409c.264,0,.527,0,.791,0h.758" transform="translate(-172.757 -232.481)"/>
        <path id="Trazado_595173" data-name="Trazado 595173" d="M547.676,525.077c-.518,0-1.035.005-1.552,0a1.2,1.2,0,0,1-.028-2.4q1.618-.018,3.237,0a1.2,1.2,0,0,1-.006,2.4c-.55.011-1.1,0-1.652,0" transform="translate(-508.963 -488.124)"/>
        <path id="Trazado_595174" data-name="Trazado 595174" d="M512.4,746.187c-.529,0-1.057.007-1.586,0A1.1,1.1,0,0,1,509.679,745a1.122,1.122,0,0,1,1.128-1.205q1.6-.013,3.2,0a1.127,1.127,0,0,1,1.123,1.213,1.115,1.115,0,0,1-1.116,1.181c-.54.008-1.079,0-1.619,0Z" transform="translate(-475.993 -694.628)"/>
        <path id="Trazado_595175" data-name="Trazado 595175" d="M384.479,551.641c-.264,0-.528.008-.792,0a1.225,1.225,0,0,1-1.182-1.19,1.152,1.152,0,0,1,1.017-1.188,12.3,12.3,0,0,1,1.974.006,1.167,1.167,0,0,1,.959,1.27,1.2,1.2,0,0,1-1.119,1.1c-.285.017-.572,0-.858,0" transform="translate(-357.223 -512.926)"/>
        <path id="Trazado_595176" data-name="Trazado 595176" d="M414.279,312.629c-.253,0-.506.007-.759,0a1.227,1.227,0,0,1-1.2-1.173,1.162,1.162,0,0,1,1.059-1.217,12,12,0,0,1,1.844,0,1.192,1.192,0,0,1,1.055,1.263,1.228,1.228,0,0,1-1.141,1.125c-.285.019-.572,0-.858,0v0" transform="translate(-385.067 -289.699)"/>
        <path id="Trazado_595177" data-name="Trazado 595177" d="M523.018,248.912c.231,0,.462,0,.693,0a1.207,1.207,0,1,1,.025,2.412c-.506.01-1.013.012-1.518,0a1.206,1.206,0,1,1,.008-2.411c.264-.006.528,0,.792,0Z" transform="translate(-486.58 -232.458)"/>
        <path id="Trazado_595178" data-name="Trazado 595178" d="M748.786,772.18c-.275,0-.55.01-.824,0a1.215,1.215,0,0,1-1.162-1.235,1.193,1.193,0,0,1,1.124-1.164c.571-.024,1.144-.024,1.715,0a1.2,1.2,0,0,1,0,2.4c-.284.02-.571,0-.857,0Z" transform="translate(-697.442 -718.886)"/>
      </g>
    </g>
    <path id="Trazado_595298" data-name="Trazado 595298" d="M0,0H1030V423H0Z" transform="translate(285 5400)" fill="none"/>
  </g>
</svg>
