<svg id="Grupo_151748" data-name="Grupo 151748" xmlns="http://www.w3.org/2000/svg" xmlns:xlink="http://www.w3.org/1999/xlink" width="1328" height="413.313" viewBox="0 0 1328 413.313">
  <defs>
    <linearGradient id="linear-gradient" x1="0.5" x2="0.5" y2="1" gradientUnits="objectBoundingBox">
      <stop offset="0" stop-color="#fff"/>
      <stop offset="1" stop-color="#fffae7"/>
    </linearGradient>
    <linearGradient id="linear-gradient-2" y1="1" y2="0" xlink:href="#linear-gradient"/>
    <clipPath id="clip-path">
      <rect id="Rectángulo_42710" data-name="Rectángulo 42710" width="466.305" height="413.313" fill="#fff"/>
    </clipPath>
  </defs>
  <g id="Grupo_870592" data-name="Grupo 870592">
    <path id="Trazado_217912" data-name="Trazado 217912" d="M1328,0H0V222.188H1328Z" fill="#fffae7"/>
    <rect id="Rectángulo_42708" data-name="Rectángulo 42708" width="1328" height="77" fill="url(#linear-gradient)"/>
    <rect id="Rectángulo_42709" data-name="Rectángulo 42709" width="1328" height="77" transform="translate(0 184)" fill="url(#linear-gradient-2)"/>
  </g>
  <g id="Grupo_870594" data-name="Grupo 870594" transform="translate(861.695)">
    <g id="Grupo_870593" data-name="Grupo 870593" clip-path="url(#clip-path)">
      <path id="Trazado_212654" data-name="Trazado 212654" d="M6.429,12.552A6.321,6.321,0,0,1,0,6.345,6.321,6.321,0,0,1,6.429.139a6.321,6.321,0,0,1,6.429,6.206,6.321,6.321,0,0,1-6.429,6.206" transform="translate(453.448 -0.036)" fill="#fff"/>
      <path id="Trazado_212655" data-name="Trazado 212655" d="M28.41,12.619A6.425,6.425,0,0,1,21.875,6.31a6.539,6.539,0,0,1,13.07,0,6.425,6.425,0,0,1-6.535,6.309" transform="translate(412.308 0)" fill="#fff"/>
      <path id="Trazado_212656" data-name="Trazado 212656" d="M50.424,12.552A6.321,6.321,0,0,1,44,6.345a6.433,6.433,0,0,1,12.857,0,6.321,6.321,0,0,1-6.429,6.206" transform="translate(371.134 -0.036)" fill="#fff"/>
      <path id="Trazado_212657" data-name="Trazado 212657" d="M72.452,9.974c-3.433,0-6.216-2.14-6.216-4.779S69.02.414,72.452.414s6.216,2.14,6.216,4.78-2.783,4.779-6.216,4.779" transform="translate(329.947 -0.106)" fill="#fff"/>
      <path id="Trazado_212658" data-name="Trazado 212658" d="M94.49,12.249A5.851,5.851,0,0,1,88.539,6.5a5.954,5.954,0,0,1,11.9,0,5.851,5.851,0,0,1-5.951,5.745" transform="translate(288.75 -0.194)" fill="#fff"/>
      <path id="Trazado_212659" data-name="Trazado 212659" d="M116.534,12.047A5.537,5.537,0,0,1,110.9,6.61a5.635,5.635,0,0,1,11.263,0,5.537,5.537,0,0,1-5.632,5.437" transform="translate(247.546 -0.3)" fill="#fff"/>
      <path id="Trazado_212660" data-name="Trazado 212660" d="M138.571,11.879a5.276,5.276,0,0,1-5.366-5.18,5.369,5.369,0,0,1,10.732,0,5.276,5.276,0,0,1-5.366,5.18" transform="translate(206.349 -0.388)" fill="#fff"/>
      <path id="Trazado_212661" data-name="Trazado 212661" d="M160.615,11.677A4.962,4.962,0,0,1,155.568,6.8a5.05,5.05,0,0,1,10.095,0,4.962,4.962,0,0,1-5.047,4.872" transform="translate(165.146 -0.494)" fill="#fff"/>
      <path id="Trazado_212662" data-name="Trazado 212662" d="M182.653,11.508a4.7,4.7,0,0,1-4.782-4.617,4.785,4.785,0,0,1,9.563,0,4.7,4.7,0,0,1-4.782,4.617" transform="translate(123.949 -0.582)" fill="#fff"/>
      <path id="Trazado_212663" data-name="Trazado 212663" d="M204.7,11.307A4.388,4.388,0,0,1,200.234,7a4.466,4.466,0,0,1,8.926,0,4.388,4.388,0,0,1-4.463,4.308" transform="translate(82.746 -0.689)" fill="#fff"/>
      <path id="Trazado_212664" data-name="Trazado 212664" d="M226.734,11.138a4.127,4.127,0,0,1-4.2-4.052,4.2,4.2,0,0,1,8.395,0,4.127,4.127,0,0,1-4.2,4.052" transform="translate(41.549 -0.777)" fill="#fff"/>
      <path id="Trazado_212665" data-name="Trazado 212665" d="M248.778,10.936A3.813,3.813,0,0,1,244.9,7.192a3.881,3.881,0,0,1,7.757,0,3.813,3.813,0,0,1-3.878,3.745" transform="translate(0.346 -0.882)" fill="#fff"/>
      <path id="Trazado_212666" data-name="Trazado 212666" d="M270.816,10.769A3.552,3.552,0,0,1,267.2,7.281a3.615,3.615,0,0,1,7.226,0,3.552,3.552,0,0,1-3.613,3.488" transform="translate(-40.851 -0.971)" fill="#fff"/>
      <path id="Trazado_212667" data-name="Trazado 212667" d="M292.86,10.566a3.239,3.239,0,0,1-3.294-3.181,3.3,3.3,0,0,1,6.588,0,3.239,3.239,0,0,1-3.294,3.181" transform="translate(-82.055 -1.077)" fill="#fff"/>
      <path id="Trazado_212668" data-name="Trazado 212668" d="M314.9,10.4a2.978,2.978,0,0,1-3.028-2.924,3.03,3.03,0,0,1,6.057,0A2.978,2.978,0,0,1,314.9,10.4" transform="translate(-123.25 -1.165)" fill="#fff"/>
      <path id="Trazado_212669" data-name="Trazado 212669" d="M336.942,10.2a2.664,2.664,0,0,1-2.71-2.616,2.711,2.711,0,0,1,5.419,0,2.664,2.664,0,0,1-2.71,2.616" transform="translate(-164.455 -1.271)" fill="#fff"/>
      <path id="Trazado_212670" data-name="Trazado 212670" d="M358.978,10.028a2.4,2.4,0,0,1-2.444-2.359,2.445,2.445,0,0,1,4.888,0,2.4,2.4,0,0,1-2.444,2.359" transform="translate(-205.65 -1.359)" fill="#fff"/>
      <path id="Trazado_212671" data-name="Trazado 212671" d="M381.023,9.826a2.053,2.053,0,1,1,2.125-2.052,2.089,2.089,0,0,1-2.125,2.052" transform="translate(-246.855 -1.465)" fill="#fff"/>
      <path id="Trazado_212672" data-name="Trazado 212672" d="M403.067,9.624a1.745,1.745,0,1,1,1.806-1.744,1.776,1.776,0,0,1-1.806,1.744" transform="translate(-288.058 -1.571)" fill="#fff"/>
      <path id="Trazado_212673" data-name="Trazado 212673" d="M425.1,9.456a1.489,1.489,0,1,1,1.541-1.487A1.515,1.515,0,0,1,425.1,9.456" transform="translate(-329.255 -1.659)" fill="#fff"/>
      <path id="Trazado_212674" data-name="Trazado 212674" d="M447.149,9.254a1.18,1.18,0,1,1,1.222-1.18,1.2,1.2,0,0,1-1.222,1.18" transform="translate(-370.458 -1.765)" fill="#fff"/>
      <path id="Trazado_212675" data-name="Trazado 212675" d="M469.186,9.086a.924.924,0,1,1,.956-.923.941.941,0,0,1-.956.923" transform="translate(-411.656 -1.853)" fill="#fff"/>
      <path id="Trazado_212676" data-name="Trazado 212676" d="M491.23,8.884a.616.616,0,1,1,.638-.615.627.627,0,0,1-.638.615" transform="translate(-452.859 -1.959)" fill="#fff"/>
      <path id="Trazado_212677" data-name="Trazado 212677" d="M513.268,8.716a.359.359,0,1,1,.372-.359.366.366,0,0,1-.372.359" transform="translate(-494.056 -2.047)" fill="#fff"/>
      <path id="Trazado_212678" data-name="Trazado 212678" d="M535.312,8.514a.052.052,0,0,1-.053-.051.053.053,0,0,1,.106,0,.052.052,0,0,1-.053.051" transform="translate(-535.259 -2.153)" fill="#fff"/>
      <path id="Trazado_212679" data-name="Trazado 212679" d="M6.468,37.246a5.954,5.954,0,1,1,0-11.9,5.954,5.954,0,1,1,0,11.9" transform="translate(453.408 -6.489)" fill="#fff"/>
      <path id="Trazado_212680" data-name="Trazado 212680" d="M28.449,37.314a6.057,6.057,0,1,1,6.269-6.052,6.164,6.164,0,0,1-6.269,6.052" transform="translate(412.268 -6.453)" fill="#fff"/>
      <path id="Trazado_212681" data-name="Trazado 212681" d="M50.455,37.28a6.005,6.005,0,1,1,6.216-6,6.112,6.112,0,0,1-6.216,6" transform="translate(371.103 -6.471)" fill="#fff"/>
      <path id="Trazado_212682" data-name="Trazado 212682" d="M72.484,37.145a5.8,5.8,0,1,1,6-5.8,5.9,5.9,0,0,1-6,5.8" transform="translate(329.915 -6.542)" fill="#fff"/>
      <path id="Trazado_212683" data-name="Trazado 212683" d="M94.513,37.011a5.594,5.594,0,1,1,5.791-5.591,5.694,5.694,0,0,1-5.791,5.591" transform="translate(288.726 -6.612)" fill="#fff"/>
      <path id="Trazado_212684" data-name="Trazado 212684" d="M116.549,36.842a5.338,5.338,0,1,1,5.525-5.334,5.432,5.432,0,0,1-5.525,5.334" transform="translate(247.531 -6.7)" fill="#fff"/>
      <path id="Trazado_212685" data-name="Trazado 212685" d="M138.587,36.674a5.081,5.081,0,1,1,5.26-5.078,5.172,5.172,0,0,1-5.26,5.078" transform="translate(206.334 -6.789)" fill="#fff"/>
      <path id="Trazado_212686" data-name="Trazado 212686" d="M160.623,36.506a4.825,4.825,0,1,1,4.994-4.822,4.91,4.91,0,0,1-4.994,4.822" transform="translate(165.138 -6.877)" fill="#fff"/>
      <path id="Trazado_212687" data-name="Trazado 212687" d="M182.661,36.337a4.568,4.568,0,1,1,4.729-4.565,4.649,4.649,0,0,1-4.729,4.565" transform="translate(123.941 -6.965)" fill="#fff"/>
      <path id="Trazado_212688" data-name="Trazado 212688" d="M204.7,36.135a4.26,4.26,0,1,1,4.41-4.257,4.336,4.336,0,0,1-4.41,4.257" transform="translate(82.738 -7.071)" fill="#fff"/>
      <path id="Trazado_212689" data-name="Trazado 212689" d="M226.742,35.968a4,4,0,1,1,4.144-4,4.075,4.075,0,0,1-4.144,4" transform="translate(41.541 -7.159)" fill="#fff"/>
      <path id="Trazado_212690" data-name="Trazado 212690" d="M248.786,35.765a3.7,3.7,0,1,1,3.825-3.693,3.761,3.761,0,0,1-3.825,3.693" transform="translate(0.338 -7.265)" fill="#fff"/>
      <path id="Trazado_212691" data-name="Trazado 212691" d="M270.824,35.6a3.439,3.439,0,1,1,3.56-3.437,3.5,3.5,0,0,1-3.56,3.437" transform="translate(-40.859 -7.353)" fill="#fff"/>
      <path id="Trazado_212692" data-name="Trazado 212692" d="M292.868,35.4a3.131,3.131,0,1,1,3.241-3.129,3.187,3.187,0,0,1-3.241,3.129" transform="translate(-82.062 -7.459)" fill="#fff"/>
      <path id="Trazado_212693" data-name="Trazado 212693" d="M314.9,35.227a2.874,2.874,0,1,1,2.975-2.873,2.925,2.925,0,0,1-2.975,2.873" transform="translate(-123.258 -7.547)" fill="#fff"/>
      <path id="Trazado_212694" data-name="Trazado 212694" d="M336.942,35.059a2.618,2.618,0,1,1,2.71-2.616,2.664,2.664,0,0,1-2.71,2.616" transform="translate(-164.455 -7.636)" fill="#fff"/>
      <path id="Trazado_212695" data-name="Trazado 212695" d="M358.986,34.858a2.31,2.31,0,1,1,2.391-2.309,2.351,2.351,0,0,1-2.391,2.309" transform="translate(-205.658 -7.742)" fill="#fff"/>
      <path id="Trazado_212696" data-name="Trazado 212696" d="M381.031,34.655a2,2,0,1,1,2.072-2,2.037,2.037,0,0,1-2.072,2" transform="translate(-246.863 -7.847)" fill="#fff"/>
      <path id="Trazado_212697" data-name="Trazado 212697" d="M403.067,34.487a1.745,1.745,0,1,1,1.806-1.744,1.776,1.776,0,0,1-1.806,1.744" transform="translate(-288.058 -7.936)" fill="#fff"/>
      <path id="Trazado_212698" data-name="Trazado 212698" d="M425.113,34.285a1.437,1.437,0,1,1,1.488-1.436,1.463,1.463,0,0,1-1.488,1.436" transform="translate(-329.263 -8.042)" fill="#fff"/>
      <path id="Trazado_212699" data-name="Trazado 212699" d="M447.149,34.117a1.18,1.18,0,1,1,1.222-1.18,1.2,1.2,0,0,1-1.222,1.18" transform="translate(-370.458 -8.13)" fill="#fff"/>
      <path id="Trazado_212700" data-name="Trazado 212700" d="M469.194,33.915a.873.873,0,1,1,.9-.872.888.888,0,0,1-.9.872" transform="translate(-411.663 -8.236)" fill="#fff"/>
      <path id="Trazado_212701" data-name="Trazado 212701" d="M491.23,33.747a.616.616,0,1,1,.638-.615.627.627,0,0,1-.638.615" transform="translate(-452.859 -8.324)" fill="#fff"/>
      <path id="Trazado_212702" data-name="Trazado 212702" d="M513.276,33.545a.308.308,0,1,1,.319-.308.313.313,0,0,1-.319.308" transform="translate(-494.064 -8.43)" fill="#fff"/>
      <path id="Trazado_212703" data-name="Trazado 212703" d="M535.312,33.377a.051.051,0,1,1,.053-.051.052.052,0,0,1-.053.051" transform="translate(-535.259 -8.518)" fill="#fff"/>
      <path id="Trazado_212704" data-name="Trazado 212704" d="M6.507,61.941a5.7,5.7,0,1,1,0-11.387,5.7,5.7,0,1,1,0,11.387" transform="translate(453.369 -12.942)" fill="#fff"/>
      <path id="Trazado_212705" data-name="Trazado 212705" d="M28.5,61.975a5.748,5.748,0,1,1,5.951-5.745A5.851,5.851,0,0,1,28.5,61.975" transform="translate(412.221 -12.924)" fill="#fff"/>
      <path id="Trazado_212706" data-name="Trazado 212706" d="M50.495,61.975a5.748,5.748,0,1,1,5.951-5.745,5.851,5.851,0,0,1-5.951,5.745" transform="translate(371.063 -12.924)" fill="#fff"/>
      <path id="Trazado_212707" data-name="Trazado 212707" d="M72.515,61.873a5.595,5.595,0,1,1,5.791-5.591,5.694,5.694,0,0,1-5.791,5.591" transform="translate(329.884 -12.977)" fill="#fff"/>
      <path id="Trazado_212708" data-name="Trazado 212708" d="M94.537,61.772a5.441,5.441,0,1,1,5.632-5.437,5.537,5.537,0,0,1-5.632,5.437" transform="translate(288.702 -13.03)" fill="#fff"/>
      <path id="Trazado_212709" data-name="Trazado 212709" d="M116.565,61.637a5.235,5.235,0,1,1,5.419-5.232,5.328,5.328,0,0,1-5.419,5.232" transform="translate(247.515 -13.1)" fill="#fff"/>
      <path id="Trazado_212710" data-name="Trazado 212710" d="M138.6,61.469a4.979,4.979,0,1,1,5.154-4.975,5.067,5.067,0,0,1-5.154,4.975" transform="translate(206.318 -13.189)" fill="#fff"/>
      <path id="Trazado_212711" data-name="Trazado 212711" d="M160.639,61.3a4.722,4.722,0,1,1,4.888-4.719,4.806,4.806,0,0,1-4.888,4.719" transform="translate(165.123 -13.277)" fill="#fff"/>
      <path id="Trazado_212712" data-name="Trazado 212712" d="M182.676,61.133a4.465,4.465,0,1,1,4.622-4.463,4.544,4.544,0,0,1-4.622,4.463" transform="translate(123.925 -13.365)" fill="#fff"/>
      <path id="Trazado_212713" data-name="Trazado 212713" d="M204.721,60.931a4.157,4.157,0,1,1,4.3-4.154,4.231,4.231,0,0,1-4.3,4.154" transform="translate(82.722 -13.471)" fill="#fff"/>
      <path id="Trazado_212714" data-name="Trazado 212714" d="M226.758,60.763a3.9,3.9,0,1,1,4.038-3.9,3.97,3.97,0,0,1-4.038,3.9" transform="translate(41.525 -13.559)" fill="#fff"/>
      <path id="Trazado_212715" data-name="Trazado 212715" d="M248.794,60.595a3.644,3.644,0,1,1,3.772-3.642,3.708,3.708,0,0,1-3.772,3.642" transform="translate(0.33 -13.648)" fill="#fff"/>
      <path id="Trazado_212716" data-name="Trazado 212716" d="M270.832,60.426a3.387,3.387,0,1,1,3.507-3.385,3.448,3.448,0,0,1-3.507,3.385" transform="translate(-40.867 -13.736)" fill="#fff"/>
      <path id="Trazado_212717" data-name="Trazado 212717" d="M292.876,60.224a3.079,3.079,0,1,1,3.188-3.078,3.134,3.134,0,0,1-3.188,3.078" transform="translate(-82.07 -13.842)" fill="#fff"/>
      <path id="Trazado_212718" data-name="Trazado 212718" d="M314.912,60.056a2.823,2.823,0,1,1,2.922-2.821,2.873,2.873,0,0,1-2.922,2.821" transform="translate(-123.266 -13.93)" fill="#fff"/>
      <path id="Trazado_212719" data-name="Trazado 212719" d="M336.957,59.854a2.515,2.515,0,1,1,2.6-2.513,2.56,2.56,0,0,1-2.6,2.513" transform="translate(-164.471 -14.036)" fill="#fff"/>
      <path id="Trazado_212720" data-name="Trazado 212720" d="M358.994,59.686a2.258,2.258,0,1,1,2.338-2.257,2.3,2.3,0,0,1-2.338,2.257" transform="translate(-205.666 -14.124)" fill="#fff"/>
      <path id="Trazado_212721" data-name="Trazado 212721" d="M381.039,59.485a1.95,1.95,0,1,1,2.019-1.949,1.985,1.985,0,0,1-2.019,1.949" transform="translate(-246.871 -14.23)" fill="#fff"/>
      <path id="Trazado_212722" data-name="Trazado 212722" d="M403.075,59.316a1.694,1.694,0,1,1,1.753-1.693,1.724,1.724,0,0,1-1.753,1.693" transform="translate(-288.066 -14.318)" fill="#fff"/>
      <path id="Trazado_212723" data-name="Trazado 212723" d="M425.12,59.114a1.386,1.386,0,1,1,1.435-1.385,1.41,1.41,0,0,1-1.435,1.385" transform="translate(-329.271 -14.424)" fill="#fff"/>
      <path id="Trazado_212724" data-name="Trazado 212724" d="M447.157,58.946a1.129,1.129,0,1,1,1.169-1.129,1.149,1.149,0,0,1-1.169,1.129" transform="translate(-370.466 -14.512)" fill="#fff"/>
      <path id="Trazado_212725" data-name="Trazado 212725" d="M469.194,58.778a.873.873,0,1,1,.9-.872.888.888,0,0,1-.9.872" transform="translate(-411.663 -14.601)" fill="#fff"/>
      <path id="Trazado_212726" data-name="Trazado 212726" d="M491.238,58.576a.565.565,0,1,1,.584-.564.574.574,0,0,1-.584.564" transform="translate(-452.867 -14.706)" fill="#fff"/>
      <path id="Trazado_212727" data-name="Trazado 212727" d="M513.276,58.408a.308.308,0,1,1,.319-.308.313.313,0,0,1-.319.308" transform="translate(-494.064 -14.795)" fill="#fff"/>
      <path id="Trazado_212728" data-name="Trazado 212728" d="M535.312,58.24a.051.051,0,1,1,.053-.051.052.052,0,0,1-.053.051" transform="translate(-535.259 -14.883)" fill="#fff"/>
      <path id="Trazado_212729" data-name="Trazado 212729" d="M6.547,86.635a5.44,5.44,0,1,1,0-10.874,5.44,5.44,0,1,1,0,10.874" transform="translate(453.33 -19.395)" fill="#fff"/>
      <path id="Trazado_212730" data-name="Trazado 212730" d="M28.536,86.668a5.492,5.492,0,1,1,5.685-5.488,5.589,5.589,0,0,1-5.685,5.488" transform="translate(412.182 -19.377)" fill="#fff"/>
      <path id="Trazado_212731" data-name="Trazado 212731" d="M50.542,86.635A5.44,5.44,0,1,1,56.173,81.2a5.537,5.537,0,0,1-5.632,5.437" transform="translate(371.016 -19.395)" fill="#fff"/>
      <path id="Trazado_212732" data-name="Trazado 212732" d="M72.554,86.568a5.338,5.338,0,1,1,5.525-5.334,5.432,5.432,0,0,1-5.525,5.334" transform="translate(329.844 -19.43)" fill="#fff"/>
      <path id="Trazado_212733" data-name="Trazado 212733" d="M94.568,86.5a5.235,5.235,0,1,1,5.419-5.232A5.328,5.328,0,0,1,94.568,86.5" transform="translate(288.671 -19.465)" fill="#fff"/>
      <path id="Trazado_212734" data-name="Trazado 212734" d="M116.6,86.366a5.03,5.03,0,1,1,5.207-5.026,5.119,5.119,0,0,1-5.207,5.026" transform="translate(247.484 -19.536)" fill="#fff"/>
      <path id="Trazado_212735" data-name="Trazado 212735" d="M138.626,86.231a4.825,4.825,0,1,1,4.994-4.822,4.91,4.91,0,0,1-4.994,4.822" transform="translate(206.294 -19.606)" fill="#fff"/>
      <path id="Trazado_212736" data-name="Trazado 212736" d="M160.663,86.062a4.568,4.568,0,1,1,4.729-4.565,4.649,4.649,0,0,1-4.729,4.565" transform="translate(165.099 -19.695)" fill="#fff"/>
      <path id="Trazado_212737" data-name="Trazado 212737" d="M182.7,85.895a4.311,4.311,0,1,1,4.463-4.309,4.388,4.388,0,0,1-4.463,4.309" transform="translate(123.902 -19.783)" fill="#fff"/>
      <path id="Trazado_212738" data-name="Trazado 212738" d="M204.736,85.726a4.055,4.055,0,1,1,4.2-4.052,4.127,4.127,0,0,1-4.2,4.052" transform="translate(82.707 -19.871)" fill="#fff"/>
      <path id="Trazado_212739" data-name="Trazado 212739" d="M226.774,85.558a3.8,3.8,0,1,1,3.932-3.8,3.865,3.865,0,0,1-3.932,3.8" transform="translate(41.509 -19.959)" fill="#fff"/>
      <path id="Trazado_212740" data-name="Trazado 212740" d="M248.81,85.39a3.541,3.541,0,1,1,3.666-3.539,3.6,3.6,0,0,1-3.666,3.539" transform="translate(0.314 -20.048)" fill="#fff"/>
      <path id="Trazado_212741" data-name="Trazado 212741" d="M270.847,85.222a3.285,3.285,0,1,1,3.4-3.283,3.343,3.343,0,0,1-3.4,3.283" transform="translate(-40.883 -20.136)" fill="#fff"/>
      <path id="Trazado_212742" data-name="Trazado 212742" d="M292.884,85.053a3.028,3.028,0,1,1,3.135-3.027,3.082,3.082,0,0,1-3.135,3.027" transform="translate(-82.078 -20.224)" fill="#fff"/>
      <path id="Trazado_212743" data-name="Trazado 212743" d="M314.928,84.852a2.72,2.72,0,1,1,2.816-2.719,2.769,2.769,0,0,1-2.816,2.719" transform="translate(-123.281 -20.33)" fill="#fff"/>
      <path id="Trazado_212744" data-name="Trazado 212744" d="M336.965,84.684a2.463,2.463,0,1,1,2.55-2.462,2.508,2.508,0,0,1-2.55,2.462" transform="translate(-164.478 -20.419)" fill="#fff"/>
      <path id="Trazado_212745" data-name="Trazado 212745" d="M359,84.515a2.207,2.207,0,1,1,2.285-2.206A2.246,2.246,0,0,1,359,84.515" transform="translate(-205.674 -20.507)" fill="#fff"/>
      <path id="Trazado_212746" data-name="Trazado 212746" d="M381.047,84.314a1.9,1.9,0,1,1,1.966-1.9,1.933,1.933,0,0,1-1.966,1.9" transform="translate(-246.879 -20.613)" fill="#fff"/>
      <path id="Trazado_212747" data-name="Trazado 212747" d="M403.083,84.145a1.643,1.643,0,1,1,1.7-1.641,1.672,1.672,0,0,1-1.7,1.641" transform="translate(-288.074 -20.701)" fill="#fff"/>
      <path id="Trazado_212748" data-name="Trazado 212748" d="M425.128,83.943a1.334,1.334,0,1,1,1.381-1.334,1.358,1.358,0,0,1-1.381,1.334" transform="translate(-329.279 -20.807)" fill="#fff"/>
      <path id="Trazado_212749" data-name="Trazado 212749" d="M447.165,83.775A1.078,1.078,0,1,1,448.28,82.7a1.1,1.1,0,0,1-1.116,1.077" transform="translate(-370.474 -20.895)" fill="#fff"/>
      <path id="Trazado_212750" data-name="Trazado 212750" d="M469.2,83.607a.821.821,0,1,1,.85-.821.836.836,0,0,1-.85.821" transform="translate(-411.671 -20.983)" fill="#fff"/>
      <path id="Trazado_212751" data-name="Trazado 212751" d="M491.246,83.4a.513.513,0,1,1,.531-.513.522.522,0,0,1-.531.513" transform="translate(-452.874 -21.089)" fill="#fff"/>
      <path id="Trazado_212752" data-name="Trazado 212752" d="M513.284,83.237a.256.256,0,1,1,.266-.257.261.261,0,0,1-.266.257" transform="translate(-494.072 -21.177)" fill="#fff"/>
      <path id="Trazado_212753" data-name="Trazado 212753" d="M6.586,111.329a5.184,5.184,0,1,1,0-10.362,5.184,5.184,0,1,1,0,10.362" transform="translate(453.29 -25.848)" fill="#fff"/>
      <path id="Trazado_212754" data-name="Trazado 212754" d="M28.583,111.329a5.184,5.184,0,1,1,5.366-5.18,5.276,5.276,0,0,1-5.366,5.18" transform="translate(412.134 -25.848)" fill="#fff"/>
      <path id="Trazado_212755" data-name="Trazado 212755" d="M50.581,111.329a5.184,5.184,0,1,1,5.366-5.18,5.276,5.276,0,0,1-5.366,5.18" transform="translate(370.977 -25.848)" fill="#fff"/>
      <path id="Trazado_212756" data-name="Trazado 212756" d="M72.594,111.262a5.081,5.081,0,1,1,5.26-5.078,5.172,5.172,0,0,1-5.26,5.078" transform="translate(329.805 -25.883)" fill="#fff"/>
      <path id="Trazado_212757" data-name="Trazado 212757" d="M94.608,111.195a4.979,4.979,0,1,1,5.154-4.975,5.067,5.067,0,0,1-5.154,4.975" transform="translate(288.632 -25.919)" fill="#fff"/>
      <path id="Trazado_212758" data-name="Trazado 212758" d="M116.628,111.094a4.825,4.825,0,1,1,4.994-4.822,4.91,4.91,0,0,1-4.994,4.822" transform="translate(247.452 -25.971)" fill="#fff"/>
      <path id="Trazado_212759" data-name="Trazado 212759" d="M138.658,110.959a4.619,4.619,0,1,1,4.782-4.617,4.7,4.7,0,0,1-4.782,4.617" transform="translate(206.263 -26.042)" fill="#fff"/>
      <path id="Trazado_212760" data-name="Trazado 212760" d="M160.686,110.825a4.414,4.414,0,1,1,4.569-4.411,4.493,4.493,0,0,1-4.569,4.411" transform="translate(165.075 -26.113)" fill="#fff"/>
      <path id="Trazado_212761" data-name="Trazado 212761" d="M182.724,110.657a4.157,4.157,0,1,1,4.3-4.154,4.231,4.231,0,0,1-4.3,4.154" transform="translate(123.878 -26.201)" fill="#fff"/>
      <path id="Trazado_212762" data-name="Trazado 212762" d="M204.752,110.522a3.952,3.952,0,1,1,4.091-3.95,4.022,4.022,0,0,1-4.091,3.95" transform="translate(82.691 -26.272)" fill="#fff"/>
      <path id="Trazado_212763" data-name="Trazado 212763" d="M226.789,110.353a3.7,3.7,0,1,1,3.825-3.693,3.761,3.761,0,0,1-3.825,3.693" transform="translate(41.494 -26.36)" fill="#fff"/>
      <path id="Trazado_212764" data-name="Trazado 212764" d="M248.826,110.186a3.439,3.439,0,1,1,3.56-3.437,3.5,3.5,0,0,1-3.56,3.437" transform="translate(0.298 -26.448)" fill="#fff"/>
      <path id="Trazado_212765" data-name="Trazado 212765" d="M270.863,110.017a3.182,3.182,0,1,1,3.294-3.181,3.239,3.239,0,0,1-3.294,3.181" transform="translate(-40.899 -26.536)" fill="#fff"/>
      <path id="Trazado_212766" data-name="Trazado 212766" d="M292.9,109.849a2.926,2.926,0,1,1,3.028-2.924,2.978,2.978,0,0,1-3.028,2.924" transform="translate(-82.094 -26.624)" fill="#fff"/>
      <path id="Trazado_212767" data-name="Trazado 212767" d="M314.936,109.68a2.669,2.669,0,1,1,2.763-2.667,2.716,2.716,0,0,1-2.763,2.667" transform="translate(-123.289 -26.713)" fill="#fff"/>
      <path id="Trazado_212768" data-name="Trazado 212768" d="M336.973,109.512a2.412,2.412,0,1,1,2.5-2.411,2.455,2.455,0,0,1-2.5,2.411" transform="translate(-164.486 -26.801)" fill="#fff"/>
      <path id="Trazado_212769" data-name="Trazado 212769" d="M359.017,109.311a2.1,2.1,0,1,1,2.178-2.1,2.142,2.142,0,0,1-2.178,2.1" transform="translate(-205.689 -26.907)" fill="#fff"/>
      <path id="Trazado_212770" data-name="Trazado 212770" d="M381.055,109.142a1.848,1.848,0,1,1,1.913-1.847,1.88,1.88,0,0,1-1.913,1.847" transform="translate(-246.887 -26.995)" fill="#fff"/>
      <path id="Trazado_212771" data-name="Trazado 212771" d="M403.1,108.941a1.54,1.54,0,1,1,1.594-1.539,1.567,1.567,0,0,1-1.594,1.539" transform="translate(-288.09 -27.101)" fill="#fff"/>
      <path id="Trazado_212772" data-name="Trazado 212772" d="M425.136,108.773a1.283,1.283,0,1,1,1.328-1.283,1.306,1.306,0,0,1-1.328,1.283" transform="translate(-329.287 -27.189)" fill="#fff"/>
      <path id="Trazado_212773" data-name="Trazado 212773" d="M447.173,108.6a1.027,1.027,0,1,1,1.063-1.026,1.045,1.045,0,0,1-1.063,1.026" transform="translate(-370.482 -27.277)" fill="#fff"/>
      <path id="Trazado_212774" data-name="Trazado 212774" d="M469.218,108.4a.719.719,0,1,1,.744-.718.731.731,0,0,1-.744.718" transform="translate(-411.687 -27.383)" fill="#fff"/>
      <path id="Trazado_212775" data-name="Trazado 212775" d="M491.254,108.234a.462.462,0,1,1,.478-.461.47.47,0,0,1-.478.461" transform="translate(-452.882 -27.472)" fill="#fff"/>
      <path id="Trazado_212776" data-name="Trazado 212776" d="M513.292,108.066a.205.205,0,1,1,.213-.205.209.209,0,0,1-.213.205" transform="translate(-494.079 -27.56)" fill="#fff"/>
      <path id="Trazado_212777" data-name="Trazado 212777" d="M6.633,135.991a4.876,4.876,0,1,1,0-9.746,4.876,4.876,0,1,1,0,9.746" transform="translate(453.243 -32.319)" fill="#fff"/>
      <path id="Trazado_212778" data-name="Trazado 212778" d="M28.622,136.024a4.927,4.927,0,1,1,5.1-4.924,5.015,5.015,0,0,1-5.1,4.924" transform="translate(412.095 -32.301)" fill="#fff"/>
      <path id="Trazado_212779" data-name="Trazado 212779" d="M50.628,135.991a4.876,4.876,0,1,1,5.047-4.872,4.962,4.962,0,0,1-5.047,4.872" transform="translate(370.929 -32.319)" fill="#fff"/>
      <path id="Trazado_212780" data-name="Trazado 212780" d="M72.633,135.957a4.825,4.825,0,1,1,4.994-4.822,4.91,4.91,0,0,1-4.994,4.822" transform="translate(329.766 -32.336)" fill="#fff"/>
      <path id="Trazado_212781" data-name="Trazado 212781" d="M94.647,135.889a4.722,4.722,0,1,1,4.888-4.719,4.806,4.806,0,0,1-4.888,4.719" transform="translate(288.592 -32.372)" fill="#fff"/>
      <path id="Trazado_212782" data-name="Trazado 212782" d="M116.668,135.788a4.568,4.568,0,1,1,4.729-4.565,4.649,4.649,0,0,1-4.729,4.565" transform="translate(247.413 -32.425)" fill="#fff"/>
      <path id="Trazado_212783" data-name="Trazado 212783" d="M138.689,135.687a4.414,4.414,0,1,1,4.569-4.411,4.493,4.493,0,0,1-4.569,4.411" transform="translate(206.231 -32.478)" fill="#fff"/>
      <path id="Trazado_212784" data-name="Trazado 212784" d="M160.718,135.553a4.208,4.208,0,1,1,4.357-4.206,4.283,4.283,0,0,1-4.357,4.206" transform="translate(165.044 -32.548)" fill="#fff"/>
      <path id="Trazado_212785" data-name="Trazado 212785" d="M182.747,135.418a4,4,0,1,1,4.144-4,4.075,4.075,0,0,1-4.144,4" transform="translate(123.855 -32.619)" fill="#fff"/>
      <path id="Trazado_212786" data-name="Trazado 212786" d="M204.783,135.25a3.747,3.747,0,1,1,3.878-3.745,3.813,3.813,0,0,1-3.878,3.745" transform="translate(82.659 -32.707)" fill="#fff"/>
      <path id="Trazado_212787" data-name="Trazado 212787" d="M226.813,135.115a3.541,3.541,0,1,1,3.666-3.539,3.6,3.6,0,0,1-3.666,3.539" transform="translate(41.47 -32.778)" fill="#fff"/>
      <path id="Trazado_212788" data-name="Trazado 212788" d="M248.849,134.947a3.285,3.285,0,1,1,3.4-3.283,3.343,3.343,0,0,1-3.4,3.283" transform="translate(0.275 -32.866)" fill="#fff"/>
      <path id="Trazado_212789" data-name="Trazado 212789" d="M270.879,134.813a3.079,3.079,0,1,1,3.188-3.078,3.134,3.134,0,0,1-3.188,3.078" transform="translate(-40.914 -32.937)" fill="#fff"/>
      <path id="Trazado_212790" data-name="Trazado 212790" d="M292.915,134.644a2.823,2.823,0,1,1,2.922-2.821,2.873,2.873,0,0,1-2.922,2.821" transform="translate(-82.11 -33.025)" fill="#fff"/>
      <path id="Trazado_212791" data-name="Trazado 212791" d="M314.951,134.476a2.566,2.566,0,1,1,2.656-2.565,2.612,2.612,0,0,1-2.656,2.565" transform="translate(-123.305 -33.113)" fill="#fff"/>
      <path id="Trazado_212792" data-name="Trazado 212792" d="M337,134.275a2.258,2.258,0,1,1,2.338-2.257A2.3,2.3,0,0,1,337,134.275" transform="translate(-164.51 -33.219)" fill="#fff"/>
      <path id="Trazado_212793" data-name="Trazado 212793" d="M359.033,134.106a2,2,0,1,1,2.072-2,2.037,2.037,0,0,1-2.072,2" transform="translate(-205.705 -33.307)" fill="#fff"/>
      <path id="Trazado_212794" data-name="Trazado 212794" d="M381.07,133.938a1.745,1.745,0,1,1,1.806-1.744,1.777,1.777,0,0,1-1.806,1.744" transform="translate(-246.902 -33.395)" fill="#fff"/>
      <path id="Trazado_212795" data-name="Trazado 212795" d="M403.107,133.769a1.489,1.489,0,1,1,1.541-1.487,1.515,1.515,0,0,1-1.541,1.487" transform="translate(-288.098 -33.483)" fill="#fff"/>
      <path id="Trazado_212796" data-name="Trazado 212796" d="M425.152,133.568a1.18,1.18,0,1,1,1.222-1.18,1.2,1.2,0,0,1-1.222,1.18" transform="translate(-329.303 -33.59)" fill="#fff"/>
      <path id="Trazado_212797" data-name="Trazado 212797" d="M447.188,133.4a.924.924,0,1,1,.956-.923.941.941,0,0,1-.956.923" transform="translate(-370.498 -33.678)" fill="#fff"/>
      <path id="Trazado_212798" data-name="Trazado 212798" d="M469.226,133.231a.667.667,0,1,1,.691-.667.679.679,0,0,1-.691.667" transform="translate(-411.695 -33.766)" fill="#fff"/>
      <path id="Trazado_212799" data-name="Trazado 212799" d="M491.262,133.064a.411.411,0,1,1,.425-.411.418.418,0,0,1-.425.411" transform="translate(-452.89 -33.854)" fill="#fff"/>
      <path id="Trazado_212800" data-name="Trazado 212800" d="M513.307,132.861a.1.1,0,1,1,.106-.1.1.1,0,0,1-.106.1" transform="translate(-494.095 -33.96)" fill="#fff"/>
      <path id="Trazado_212801" data-name="Trazado 212801" d="M6.673,160.684a4.619,4.619,0,1,1,0-9.232,4.619,4.619,0,1,1,0,9.232" transform="translate(453.204 -38.772)" fill="#fff"/>
      <path id="Trazado_212802" data-name="Trazado 212802" d="M28.67,160.684a4.619,4.619,0,1,1,4.782-4.617,4.7,4.7,0,0,1-4.782,4.617" transform="translate(412.048 -38.772)" fill="#fff"/>
      <path id="Trazado_212803" data-name="Trazado 212803" d="M50.668,160.684a4.619,4.619,0,1,1,4.782-4.617,4.7,4.7,0,0,1-4.782,4.617" transform="translate(370.89 -38.772)" fill="#fff"/>
      <path id="Trazado_212804" data-name="Trazado 212804" d="M72.673,160.651a4.568,4.568,0,1,1,4.729-4.565,4.649,4.649,0,0,1-4.729,4.565" transform="translate(329.726 -38.79)" fill="#fff"/>
      <path id="Trazado_212805" data-name="Trazado 212805" d="M94.686,160.584a4.465,4.465,0,1,1,4.622-4.462,4.544,4.544,0,0,1-4.622,4.462" transform="translate(288.553 -38.825)" fill="#fff"/>
      <path id="Trazado_212806" data-name="Trazado 212806" d="M116.707,160.483a4.311,4.311,0,1,1,4.463-4.308,4.388,4.388,0,0,1-4.463,4.308" transform="translate(247.373 -38.878)" fill="#fff"/>
      <path id="Trazado_212807" data-name="Trazado 212807" d="M138.729,160.382a4.157,4.157,0,1,1,4.3-4.154,4.231,4.231,0,0,1-4.3,4.154" transform="translate(206.192 -38.931)" fill="#fff"/>
      <path id="Trazado_212808" data-name="Trazado 212808" d="M160.749,160.281a4,4,0,1,1,4.144-4,4.075,4.075,0,0,1-4.144,4" transform="translate(165.012 -38.984)" fill="#fff"/>
      <path id="Trazado_212809" data-name="Trazado 212809" d="M182.779,160.147a3.8,3.8,0,1,1,3.932-3.8,3.865,3.865,0,0,1-3.932,3.8" transform="translate(123.823 -39.054)" fill="#fff"/>
      <path id="Trazado_212810" data-name="Trazado 212810" d="M204.807,160.012a3.593,3.593,0,1,1,3.719-3.591,3.657,3.657,0,0,1-3.719,3.591" transform="translate(82.636 -39.125)" fill="#fff"/>
      <path id="Trazado_212811" data-name="Trazado 212811" d="M226.837,159.877a3.387,3.387,0,1,1,3.507-3.385,3.448,3.448,0,0,1-3.507,3.385" transform="translate(41.447 -39.196)" fill="#fff"/>
      <path id="Trazado_212812" data-name="Trazado 212812" d="M248.873,159.709a3.131,3.131,0,1,1,3.241-3.129,3.187,3.187,0,0,1-3.241,3.129" transform="translate(0.251 -39.284)" fill="#fff"/>
      <path id="Trazado_212813" data-name="Trazado 212813" d="M270.9,159.575a2.926,2.926,0,1,1,3.028-2.924,2.978,2.978,0,0,1-3.028,2.924" transform="translate(-40.938 -39.354)" fill="#fff"/>
      <path id="Trazado_212814" data-name="Trazado 212814" d="M292.939,159.406a2.669,2.669,0,1,1,2.763-2.667,2.716,2.716,0,0,1-2.763,2.667" transform="translate(-82.133 -39.443)" fill="#fff"/>
      <path id="Trazado_212815" data-name="Trazado 212815" d="M314.975,159.238a2.412,2.412,0,1,1,2.5-2.411,2.455,2.455,0,0,1-2.5,2.411" transform="translate(-123.329 -39.531)" fill="#fff"/>
      <path id="Trazado_212816" data-name="Trazado 212816" d="M337.012,159.069a2.156,2.156,0,1,1,2.231-2.155,2.194,2.194,0,0,1-2.231,2.155" transform="translate(-164.526 -39.619)" fill="#fff"/>
      <path id="Trazado_212817" data-name="Trazado 212817" d="M359.049,158.9a1.9,1.9,0,1,1,1.966-1.9,1.933,1.933,0,0,1-1.966,1.9" transform="translate(-205.721 -39.707)" fill="#fff"/>
      <path id="Trazado_212818" data-name="Trazado 212818" d="M381.086,158.733a1.643,1.643,0,1,1,1.7-1.641,1.672,1.672,0,0,1-1.7,1.641" transform="translate(-246.918 -39.795)" fill="#fff"/>
      <path id="Trazado_212819" data-name="Trazado 212819" d="M403.122,158.565a1.386,1.386,0,1,1,1.435-1.385,1.41,1.41,0,0,1-1.435,1.385" transform="translate(-288.113 -39.884)" fill="#fff"/>
      <path id="Trazado_212820" data-name="Trazado 212820" d="M425.16,158.4a1.129,1.129,0,1,1,1.169-1.129,1.149,1.149,0,0,1-1.169,1.129" transform="translate(-329.31 -39.972)" fill="#fff"/>
      <path id="Trazado_212821" data-name="Trazado 212821" d="M447.2,158.2a.821.821,0,1,1,.85-.821.836.836,0,0,1-.85.821" transform="translate(-370.514 -40.078)" fill="#fff"/>
      <path id="Trazado_212822" data-name="Trazado 212822" d="M469.241,158.027a.565.565,0,1,1,.584-.564.574.574,0,0,1-.584.564" transform="translate(-411.711 -40.166)" fill="#fff"/>
      <path id="Trazado_212823" data-name="Trazado 212823" d="M491.278,157.858a.308.308,0,1,1,.319-.308.313.313,0,0,1-.319.308" transform="translate(-452.906 -40.254)" fill="#fff"/>
      <path id="Trazado_212824" data-name="Trazado 212824" d="M513.315,157.691a.051.051,0,1,1,.053-.051.052.052,0,0,1-.053.051" transform="translate(-494.103 -40.343)" fill="#fff"/>
      <path id="Trazado_212825" data-name="Trazado 212825" d="M6.72,185.346a4.311,4.311,0,1,1,0-8.617,4.311,4.311,0,1,1,0,8.617" transform="translate(453.157 -45.243)" fill="#fff"/>
      <path id="Trazado_212826" data-name="Trazado 212826" d="M28.709,185.38a4.363,4.363,0,1,1,4.516-4.36,4.44,4.44,0,0,1-4.516,4.36" transform="translate(412.009 -45.225)" fill="#fff"/>
      <path id="Trazado_212827" data-name="Trazado 212827" d="M50.715,185.346a4.311,4.311,0,1,1,4.463-4.309,4.388,4.388,0,0,1-4.463,4.309" transform="translate(370.843 -45.243)" fill="#fff"/>
      <path id="Trazado_212828" data-name="Trazado 212828" d="M72.72,185.312a4.26,4.26,0,1,1,4.41-4.257,4.336,4.336,0,0,1-4.41,4.257" transform="translate(329.679 -45.26)" fill="#fff"/>
      <path id="Trazado_212829" data-name="Trazado 212829" d="M94.734,185.245a4.157,4.157,0,1,1,4.3-4.154,4.231,4.231,0,0,1-4.3,4.154" transform="translate(288.506 -45.296)" fill="#fff"/>
      <path id="Trazado_212830" data-name="Trazado 212830" d="M116.746,185.177a4.055,4.055,0,1,1,4.2-4.053,4.127,4.127,0,0,1-4.2,4.053" transform="translate(247.334 -45.331)" fill="#fff"/>
      <path id="Trazado_212831" data-name="Trazado 212831" d="M138.76,185.11a3.952,3.952,0,1,1,4.091-3.95,4.022,4.022,0,0,1-4.091,3.95" transform="translate(206.16 -45.366)" fill="#fff"/>
      <path id="Trazado_212832" data-name="Trazado 212832" d="M160.788,184.975a3.747,3.747,0,1,1,3.878-3.745,3.813,3.813,0,0,1-3.878,3.745" transform="translate(164.973 -45.437)" fill="#fff"/>
      <path id="Trazado_212833" data-name="Trazado 212833" d="M182.81,184.875a3.593,3.593,0,1,1,3.719-3.591,3.657,3.657,0,0,1-3.719,3.591" transform="translate(123.792 -45.49)" fill="#fff"/>
      <path id="Trazado_212834" data-name="Trazado 212834" d="M204.839,184.74a3.387,3.387,0,1,1,3.507-3.385,3.448,3.448,0,0,1-3.507,3.385" transform="translate(82.604 -45.561)" fill="#fff"/>
      <path id="Trazado_212835" data-name="Trazado 212835" d="M226.868,184.605a3.182,3.182,0,1,1,3.294-3.181,3.239,3.239,0,0,1-3.294,3.181" transform="translate(41.415 -45.631)" fill="#fff"/>
      <path id="Trazado_212836" data-name="Trazado 212836" d="M248.9,184.471a2.977,2.977,0,1,1,3.082-2.975,3.03,3.03,0,0,1-3.082,2.975" transform="translate(0.228 -45.702)" fill="#fff"/>
      <path id="Trazado_212837" data-name="Trazado 212837" d="M270.926,184.336a2.772,2.772,0,1,1,2.869-2.77,2.821,2.821,0,0,1-2.869,2.77" transform="translate(-40.962 -45.772)" fill="#fff"/>
      <path id="Trazado_212838" data-name="Trazado 212838" d="M292.962,184.168a2.515,2.515,0,1,1,2.6-2.513,2.56,2.56,0,0,1-2.6,2.513" transform="translate(-82.157 -45.861)" fill="#fff"/>
      <path id="Trazado_212839" data-name="Trazado 212839" d="M315,184a2.258,2.258,0,1,1,2.338-2.257A2.3,2.3,0,0,1,315,184" transform="translate(-123.352 -45.949)" fill="#fff"/>
      <path id="Trazado_212840" data-name="Trazado 212840" d="M337.036,183.831a2,2,0,1,1,2.072-2,2.037,2.037,0,0,1-2.072,2" transform="translate(-164.549 -46.037)" fill="#fff"/>
      <path id="Trazado_212841" data-name="Trazado 212841" d="M359.072,183.663a1.745,1.745,0,1,1,1.806-1.744,1.776,1.776,0,0,1-1.806,1.744" transform="translate(-205.745 -46.125)" fill="#fff"/>
      <path id="Trazado_212842" data-name="Trazado 212842" d="M381.11,183.5a1.489,1.489,0,1,1,1.541-1.487,1.515,1.515,0,0,1-1.541,1.487" transform="translate(-246.942 -46.213)" fill="#fff"/>
      <path id="Trazado_212843" data-name="Trazado 212843" d="M403.146,183.327a1.232,1.232,0,1,1,1.275-1.231,1.254,1.254,0,0,1-1.275,1.231" transform="translate(-288.137 -46.302)" fill="#fff"/>
      <path id="Trazado_212844" data-name="Trazado 212844" d="M425.183,183.158a.975.975,0,1,1,1.009-.975.992.992,0,0,1-1.009.975" transform="translate(-329.334 -46.39)" fill="#fff"/>
      <path id="Trazado_212845" data-name="Trazado 212845" d="M447.22,182.991a.719.719,0,1,1,.744-.718.731.731,0,0,1-.744.718" transform="translate(-370.529 -46.478)" fill="#fff"/>
      <path id="Trazado_212846" data-name="Trazado 212846" d="M469.257,182.822a.462.462,0,1,1,.478-.461.47.47,0,0,1-.478.461" transform="translate(-411.726 -46.566)" fill="#fff"/>
      <path id="Trazado_212847" data-name="Trazado 212847" d="M491.294,182.654a.205.205,0,1,1,.213-.205.209.209,0,0,1-.213.205" transform="translate(-452.922 -46.655)" fill="#fff"/>
      <path id="Trazado_212848" data-name="Trazado 212848" d="M6.759,210.04a4.055,4.055,0,1,1,0-8.1,4.055,4.055,0,1,1,0,8.1" transform="translate(453.117 -51.696)" fill="#fff"/>
      <path id="Trazado_212849" data-name="Trazado 212849" d="M28.756,210.04a4.055,4.055,0,1,1,4.2-4.053,4.127,4.127,0,0,1-4.2,4.053" transform="translate(411.961 -51.696)" fill="#fff"/>
      <path id="Trazado_212850" data-name="Trazado 212850" d="M50.754,210.04a4.055,4.055,0,1,1,4.2-4.053,4.127,4.127,0,0,1-4.2,4.053" transform="translate(370.804 -51.696)" fill="#fff"/>
      <path id="Trazado_212851" data-name="Trazado 212851" d="M72.759,210.007a4,4,0,1,1,4.144-4,4.074,4.074,0,0,1-4.144,4" transform="translate(329.64 -51.713)" fill="#fff"/>
      <path id="Trazado_212852" data-name="Trazado 212852" d="M94.773,209.939a3.9,3.9,0,1,1,4.038-3.9,3.97,3.97,0,0,1-4.038,3.9" transform="translate(288.466 -51.749)" fill="#fff"/>
      <path id="Trazado_212853" data-name="Trazado 212853" d="M116.786,209.872a3.8,3.8,0,1,1,3.932-3.8,3.865,3.865,0,0,1-3.932,3.8" transform="translate(247.295 -51.784)" fill="#fff"/>
      <path id="Trazado_212854" data-name="Trazado 212854" d="M138.8,209.8a3.7,3.7,0,1,1,3.825-3.693A3.761,3.761,0,0,1,138.8,209.8" transform="translate(206.121 -51.819)" fill="#fff"/>
      <path id="Trazado_212855" data-name="Trazado 212855" d="M160.82,209.7a3.541,3.541,0,1,1,3.666-3.539,3.6,3.6,0,0,1-3.666,3.539" transform="translate(164.942 -51.872)" fill="#fff"/>
      <path id="Trazado_212856" data-name="Trazado 212856" d="M182.842,209.6a3.387,3.387,0,1,1,3.507-3.385,3.448,3.448,0,0,1-3.507,3.385" transform="translate(123.76 -51.925)" fill="#fff"/>
      <path id="Trazado_212857" data-name="Trazado 212857" d="M204.87,209.468a3.182,3.182,0,1,1,3.294-3.181,3.239,3.239,0,0,1-3.294,3.181" transform="translate(82.573 -51.996)" fill="#fff"/>
      <path id="Trazado_212858" data-name="Trazado 212858" d="M226.9,209.334a2.977,2.977,0,1,1,3.082-2.975,3.03,3.03,0,0,1-3.082,2.975" transform="translate(41.384 -52.067)" fill="#fff"/>
      <path id="Trazado_212859" data-name="Trazado 212859" d="M248.928,209.2a2.772,2.772,0,1,1,2.869-2.77,2.821,2.821,0,0,1-2.869,2.77" transform="translate(0.196 -52.137)" fill="#fff"/>
      <path id="Trazado_212860" data-name="Trazado 212860" d="M270.957,209.064a2.566,2.566,0,1,1,2.656-2.565,2.612,2.612,0,0,1-2.656,2.565" transform="translate(-40.993 -52.208)" fill="#fff"/>
      <path id="Trazado_212861" data-name="Trazado 212861" d="M292.986,208.929a2.361,2.361,0,1,1,2.444-2.359,2.4,2.4,0,0,1-2.444,2.359" transform="translate(-82.18 -52.278)" fill="#fff"/>
      <path id="Trazado_212862" data-name="Trazado 212862" d="M315.022,208.762a2.1,2.1,0,1,1,2.178-2.1,2.142,2.142,0,0,1-2.178,2.1" transform="translate(-123.376 -52.367)" fill="#fff"/>
      <path id="Trazado_212863" data-name="Trazado 212863" d="M337.06,208.593a1.848,1.848,0,1,1,1.913-1.847,1.88,1.88,0,0,1-1.913,1.847" transform="translate(-164.573 -52.455)" fill="#fff"/>
      <path id="Trazado_212864" data-name="Trazado 212864" d="M359.088,208.458a1.643,1.643,0,1,1,1.7-1.641,1.672,1.672,0,0,1-1.7,1.641" transform="translate(-205.76 -52.525)" fill="#fff"/>
      <path id="Trazado_212865" data-name="Trazado 212865" d="M381.125,208.29a1.386,1.386,0,1,1,1.435-1.385,1.41,1.41,0,0,1-1.435,1.385" transform="translate(-246.957 -52.613)" fill="#fff"/>
      <path id="Trazado_212866" data-name="Trazado 212866" d="M403.162,208.122a1.129,1.129,0,1,1,1.169-1.129,1.149,1.149,0,0,1-1.169,1.129" transform="translate(-288.153 -52.702)" fill="#fff"/>
      <path id="Trazado_212867" data-name="Trazado 212867" d="M425.2,207.954a.873.873,0,1,1,.9-.872.888.888,0,0,1-.9.872" transform="translate(-329.35 -52.79)" fill="#fff"/>
      <path id="Trazado_212868" data-name="Trazado 212868" d="M447.236,207.786a.616.616,0,1,1,.638-.615.627.627,0,0,1-.638.615" transform="translate(-370.545 -52.878)" fill="#fff"/>
      <path id="Trazado_212869" data-name="Trazado 212869" d="M469.273,207.618a.359.359,0,1,1,.372-.359.366.366,0,0,1-.372.359" transform="translate(-411.742 -52.967)" fill="#fff"/>
      <path id="Trazado_212870" data-name="Trazado 212870" d="M491.309,207.449a.1.1,0,1,1,.106-.1.1.1,0,0,1-.106.1" transform="translate(-452.937 -53.055)" fill="#fff"/>
      <path id="Trazado_212871" data-name="Trazado 212871" d="M6.806,234.7a3.747,3.747,0,1,1,0-7.489,3.747,3.747,0,1,1,0,7.489" transform="translate(453.07 -58.167)" fill="#fff"/>
      <path id="Trazado_212872" data-name="Trazado 212872" d="M28.8,234.7a3.747,3.747,0,1,1,3.878-3.745A3.813,3.813,0,0,1,28.8,234.7" transform="translate(411.914 -58.167)" fill="#fff"/>
      <path id="Trazado_212873" data-name="Trazado 212873" d="M50.8,234.7a3.747,3.747,0,1,1,3.878-3.745A3.813,3.813,0,0,1,50.8,234.7" transform="translate(370.756 -58.167)" fill="#fff"/>
      <path id="Trazado_212874" data-name="Trazado 212874" d="M72.806,234.667a3.7,3.7,0,1,1,3.825-3.693,3.761,3.761,0,0,1-3.825,3.693" transform="translate(329.593 -58.184)" fill="#fff"/>
      <path id="Trazado_212875" data-name="Trazado 212875" d="M94.812,234.634a3.644,3.644,0,1,1,3.772-3.642,3.708,3.708,0,0,1-3.772,3.642" transform="translate(288.427 -58.202)" fill="#fff"/>
      <path id="Trazado_212876" data-name="Trazado 212876" d="M116.825,234.566a3.541,3.541,0,1,1,3.666-3.539,3.6,3.6,0,0,1-3.666,3.539" transform="translate(247.255 -58.237)" fill="#fff"/>
      <path id="Trazado_212877" data-name="Trazado 212877" d="M138.839,234.5a3.439,3.439,0,1,1,3.56-3.437,3.5,3.5,0,0,1-3.56,3.437" transform="translate(206.082 -58.272)" fill="#fff"/>
      <path id="Trazado_212878" data-name="Trazado 212878" d="M160.859,234.4a3.285,3.285,0,1,1,3.4-3.283,3.343,3.343,0,0,1-3.4,3.283" transform="translate(164.902 -58.325)" fill="#fff"/>
      <path id="Trazado_212879" data-name="Trazado 212879" d="M182.881,234.3a3.131,3.131,0,1,1,3.241-3.129,3.187,3.187,0,0,1-3.241,3.129" transform="translate(123.721 -58.378)" fill="#fff"/>
      <path id="Trazado_212880" data-name="Trazado 212880" d="M204.9,234.2a2.977,2.977,0,1,1,3.082-2.975A3.03,3.03,0,0,1,204.9,234.2" transform="translate(82.541 -58.431)" fill="#fff"/>
      <path id="Trazado_212881" data-name="Trazado 212881" d="M226.931,234.062a2.772,2.772,0,1,1,2.869-2.77,2.821,2.821,0,0,1-2.869,2.77" transform="translate(41.352 -58.502)" fill="#fff"/>
      <path id="Trazado_212882" data-name="Trazado 212882" d="M248.959,233.927a2.566,2.566,0,1,1,2.656-2.565,2.612,2.612,0,0,1-2.656,2.565" transform="translate(0.165 -58.573)" fill="#fff"/>
      <path id="Trazado_212883" data-name="Trazado 212883" d="M270.981,233.826a2.412,2.412,0,1,1,2.5-2.411,2.455,2.455,0,0,1-2.5,2.411" transform="translate(-41.017 -58.625)" fill="#fff"/>
      <path id="Trazado_212884" data-name="Trazado 212884" d="M293.017,233.657a2.156,2.156,0,1,1,2.231-2.155,2.194,2.194,0,0,1-2.231,2.155" transform="translate(-82.212 -58.714)" fill="#fff"/>
      <path id="Trazado_212885" data-name="Trazado 212885" d="M315.046,233.524a1.95,1.95,0,1,1,2.019-1.949,1.985,1.985,0,0,1-2.019,1.949" transform="translate(-123.399 -58.784)" fill="#fff"/>
      <path id="Trazado_212886" data-name="Trazado 212886" d="M337.083,233.355a1.694,1.694,0,1,1,1.753-1.693,1.724,1.724,0,0,1-1.753,1.693" transform="translate(-164.596 -58.872)" fill="#fff"/>
      <path id="Trazado_212887" data-name="Trazado 212887" d="M359.112,233.22a1.489,1.489,0,1,1,1.541-1.487,1.515,1.515,0,0,1-1.541,1.487" transform="translate(-205.784 -58.943)" fill="#fff"/>
      <path id="Trazado_212888" data-name="Trazado 212888" d="M381.149,233.053a1.232,1.232,0,1,1,1.275-1.231,1.254,1.254,0,0,1-1.275,1.231" transform="translate(-246.981 -59.032)" fill="#fff"/>
      <path id="Trazado_212889" data-name="Trazado 212889" d="M403.185,232.884a.975.975,0,1,1,1.009-.975.992.992,0,0,1-1.009.975" transform="translate(-288.176 -59.12)" fill="#fff"/>
      <path id="Trazado_212890" data-name="Trazado 212890" d="M425.215,232.75a.77.77,0,1,1,.8-.769.784.784,0,0,1-.8.769" transform="translate(-329.366 -59.19)" fill="#fff"/>
      <path id="Trazado_212891" data-name="Trazado 212891" d="M447.251,232.581a.513.513,0,1,1,.531-.513.522.522,0,0,1-.531.513" transform="translate(-370.561 -59.278)" fill="#fff"/>
      <path id="Trazado_212892" data-name="Trazado 212892" d="M469.289,232.413a.256.256,0,1,1,.266-.256.261.261,0,0,1-.266.256" transform="translate(-411.758 -59.367)" fill="#fff"/>
      <path id="Trazado_212893" data-name="Trazado 212893" d="M491.317,232.279a.051.051,0,1,1,.053-.051.052.052,0,0,1-.053.051" transform="translate(-452.945 -59.437)" fill="#fff"/>
      <path id="Trazado_212894" data-name="Trazado 212894" d="M6.846,259.4a3.49,3.49,0,1,1,0-6.976,3.49,3.49,0,1,1,0,6.976" transform="translate(453.031 -64.62)" fill="#fff"/>
      <path id="Trazado_212895" data-name="Trazado 212895" d="M28.843,259.4a3.49,3.49,0,1,1,3.613-3.488,3.552,3.552,0,0,1-3.613,3.488" transform="translate(411.875 -64.62)" fill="#fff"/>
      <path id="Trazado_212896" data-name="Trazado 212896" d="M50.841,259.4a3.49,3.49,0,1,1,3.613-3.488,3.552,3.552,0,0,1-3.613,3.488" transform="translate(370.717 -64.62)" fill="#fff"/>
      <path id="Trazado_212897" data-name="Trazado 212897" d="M72.846,259.362a3.439,3.439,0,1,1,3.56-3.436,3.5,3.5,0,0,1-3.56,3.436" transform="translate(329.553 -64.637)" fill="#fff"/>
      <path id="Trazado_212898" data-name="Trazado 212898" d="M94.852,259.328a3.387,3.387,0,1,1,3.507-3.385,3.448,3.448,0,0,1-3.507,3.385" transform="translate(288.388 -64.655)" fill="#fff"/>
      <path id="Trazado_212899" data-name="Trazado 212899" d="M116.864,259.261a3.285,3.285,0,1,1,3.4-3.283,3.343,3.343,0,0,1-3.4,3.283" transform="translate(247.216 -64.69)" fill="#fff"/>
      <path id="Trazado_212900" data-name="Trazado 212900" d="M138.878,259.193a3.182,3.182,0,1,1,3.294-3.181,3.239,3.239,0,0,1-3.294,3.181" transform="translate(206.042 -64.725)" fill="#fff"/>
      <path id="Trazado_212901" data-name="Trazado 212901" d="M160.891,259.126a3.079,3.079,0,1,1,3.188-3.078,3.134,3.134,0,0,1-3.188,3.078" transform="translate(164.871 -64.761)" fill="#fff"/>
      <path id="Trazado_212902" data-name="Trazado 212902" d="M182.912,259.025a2.926,2.926,0,1,1,3.028-2.924,2.978,2.978,0,0,1-3.028,2.924" transform="translate(123.689 -64.814)" fill="#fff"/>
      <path id="Trazado_212903" data-name="Trazado 212903" d="M204.933,258.924a2.772,2.772,0,1,1,2.869-2.77,2.821,2.821,0,0,1-2.869,2.77" transform="translate(82.51 -64.867)" fill="#fff"/>
      <path id="Trazado_212904" data-name="Trazado 212904" d="M226.963,258.79a2.566,2.566,0,1,1,2.656-2.565,2.612,2.612,0,0,1-2.656,2.565" transform="translate(41.321 -64.937)" fill="#fff"/>
      <path id="Trazado_212905" data-name="Trazado 212905" d="M248.983,258.689a2.412,2.412,0,1,1,2.5-2.411,2.455,2.455,0,0,1-2.5,2.411" transform="translate(0.141 -64.99)" fill="#fff"/>
      <path id="Trazado_212906" data-name="Trazado 212906" d="M271.013,258.554a2.207,2.207,0,1,1,2.285-2.206,2.246,2.246,0,0,1-2.285,2.206" transform="translate(-41.048 -65.061)" fill="#fff"/>
      <path id="Trazado_212907" data-name="Trazado 212907" d="M293.049,258.386a1.95,1.95,0,1,1,2.019-1.949,1.985,1.985,0,0,1-2.019,1.949" transform="translate(-82.243 -65.149)" fill="#fff"/>
      <path id="Trazado_212908" data-name="Trazado 212908" d="M315.077,258.251a1.745,1.745,0,1,1,1.806-1.744,1.777,1.777,0,0,1-1.806,1.744" transform="translate(-123.431 -65.22)" fill="#fff"/>
      <path id="Trazado_212909" data-name="Trazado 212909" d="M337.107,258.117a1.54,1.54,0,1,1,1.594-1.539,1.567,1.567,0,0,1-1.594,1.539" transform="translate(-164.62 -65.29)" fill="#fff"/>
      <path id="Trazado_212910" data-name="Trazado 212910" d="M359.143,257.948a1.283,1.283,0,1,1,1.328-1.283,1.306,1.306,0,0,1-1.328,1.283" transform="translate(-205.815 -65.379)" fill="#fff"/>
      <path id="Trazado_212911" data-name="Trazado 212911" d="M381.173,257.814a1.078,1.078,0,1,1,1.116-1.077,1.1,1.1,0,0,1-1.116,1.077" transform="translate(-247.005 -65.449)" fill="#fff"/>
      <path id="Trazado_212912" data-name="Trazado 212912" d="M403.209,257.645a.821.821,0,1,1,.85-.821.836.836,0,0,1-.85.821" transform="translate(-288.2 -65.537)" fill="#fff"/>
      <path id="Trazado_212913" data-name="Trazado 212913" d="M425.238,257.511a.616.616,0,1,1,.638-.615.627.627,0,0,1-.638.615" transform="translate(-329.389 -65.608)" fill="#fff"/>
      <path id="Trazado_212914" data-name="Trazado 212914" d="M447.275,257.343a.359.359,0,1,1,.372-.359.366.366,0,0,1-.372.359" transform="translate(-370.584 -65.696)" fill="#fff"/>
      <path id="Trazado_212915" data-name="Trazado 212915" d="M469.312,257.175a.1.1,0,1,1,.106-.1.1.1,0,0,1-.106.1" transform="translate(-411.782 -65.785)" fill="#fff"/>
      <path id="Trazado_212916" data-name="Trazado 212916" d="M6.893,284.056a3.182,3.182,0,1,1,0-6.36,3.182,3.182,0,1,1,0,6.36" transform="translate(452.983 -71.09)" fill="#fff"/>
      <path id="Trazado_212917" data-name="Trazado 212917" d="M28.89,284.056a3.182,3.182,0,1,1,3.294-3.181,3.239,3.239,0,0,1-3.294,3.181" transform="translate(411.828 -71.09)" fill="#fff"/>
      <path id="Trazado_212918" data-name="Trazado 212918" d="M50.888,284.056a3.182,3.182,0,1,1,3.294-3.181,3.239,3.239,0,0,1-3.294,3.181" transform="translate(370.67 -71.09)" fill="#fff"/>
      <path id="Trazado_212919" data-name="Trazado 212919" d="M72.893,284.023a3.131,3.131,0,1,1,3.241-3.129,3.187,3.187,0,0,1-3.241,3.129" transform="translate(329.506 -71.108)" fill="#fff"/>
      <path id="Trazado_212920" data-name="Trazado 212920" d="M94.9,283.989a3.079,3.079,0,1,1,3.188-3.078,3.134,3.134,0,0,1-3.188,3.078" transform="translate(288.34 -71.126)" fill="#fff"/>
      <path id="Trazado_212921" data-name="Trazado 212921" d="M116.9,283.955a3.028,3.028,0,1,1,3.135-3.027,3.082,3.082,0,0,1-3.135,3.027" transform="translate(247.177 -71.143)" fill="#fff"/>
      <path id="Trazado_212922" data-name="Trazado 212922" d="M138.917,283.888a2.926,2.926,0,1,1,3.028-2.924,2.978,2.978,0,0,1-3.028,2.924" transform="translate(206.003 -71.179)" fill="#fff"/>
      <path id="Trazado_212923" data-name="Trazado 212923" d="M160.93,283.82A2.823,2.823,0,1,1,163.852,281a2.873,2.873,0,0,1-2.922,2.821" transform="translate(164.831 -71.214)" fill="#fff"/>
      <path id="Trazado_212924" data-name="Trazado 212924" d="M182.952,283.719a2.669,2.669,0,1,1,2.763-2.667,2.716,2.716,0,0,1-2.763,2.667" transform="translate(123.65 -71.267)" fill="#fff"/>
      <path id="Trazado_212925" data-name="Trazado 212925" d="M204.972,283.618a2.515,2.515,0,1,1,2.6-2.513,2.559,2.559,0,0,1-2.6,2.513" transform="translate(82.47 -71.32)" fill="#fff"/>
      <path id="Trazado_212926" data-name="Trazado 212926" d="M226.994,283.517a2.361,2.361,0,1,1,2.444-2.359,2.4,2.4,0,0,1-2.444,2.359" transform="translate(41.289 -71.373)" fill="#fff"/>
      <path id="Trazado_212927" data-name="Trazado 212927" d="M249.022,283.383a2.156,2.156,0,1,1,2.231-2.155,2.194,2.194,0,0,1-2.231,2.155" transform="translate(0.102 -71.443)" fill="#fff"/>
      <path id="Trazado_212928" data-name="Trazado 212928" d="M271.052,283.249a1.95,1.95,0,1,1,2.019-1.949,1.985,1.985,0,0,1-2.019,1.949" transform="translate(-41.088 -71.514)" fill="#fff"/>
      <path id="Trazado_212929" data-name="Trazado 212929" d="M293.08,283.114a1.745,1.745,0,1,1,1.806-1.744,1.776,1.776,0,0,1-1.806,1.744" transform="translate(-82.275 -71.585)" fill="#fff"/>
      <path id="Trazado_212930" data-name="Trazado 212930" d="M315.109,282.979a1.54,1.54,0,1,1,1.594-1.539,1.567,1.567,0,0,1-1.594,1.539" transform="translate(-123.462 -71.655)" fill="#fff"/>
      <path id="Trazado_212931" data-name="Trazado 212931" d="M337.138,282.845a1.334,1.334,0,1,1,1.381-1.334,1.358,1.358,0,0,1-1.381,1.334" transform="translate(-164.652 -71.726)" fill="#fff"/>
      <path id="Trazado_212932" data-name="Trazado 212932" d="M359.167,282.71a1.129,1.129,0,1,1,1.169-1.129,1.149,1.149,0,0,1-1.169,1.129" transform="translate(-205.839 -71.796)" fill="#fff"/>
      <path id="Trazado_212933" data-name="Trazado 212933" d="M381.2,282.576a.924.924,0,1,1,.956-.923.941.941,0,0,1-.956.923" transform="translate(-247.028 -71.867)" fill="#fff"/>
      <path id="Trazado_212934" data-name="Trazado 212934" d="M403.233,282.408a.667.667,0,1,1,.691-.667.679.679,0,0,1-.691.667" transform="translate(-288.224 -71.955)" fill="#fff"/>
      <path id="Trazado_212935" data-name="Trazado 212935" d="M425.262,282.273a.462.462,0,1,1,.478-.461.47.47,0,0,1-.478.461" transform="translate(-329.413 -72.026)" fill="#fff"/>
      <path id="Trazado_212936" data-name="Trazado 212936" d="M447.3,282.1a.205.205,0,1,1,.213-.205.209.209,0,0,1-.213.205" transform="translate(-370.608 -72.114)" fill="#fff"/>
      <path id="Trazado_212937" data-name="Trazado 212937" d="M6.932,308.751a2.926,2.926,0,1,1,0-5.848,2.926,2.926,0,1,1,0,5.848" transform="translate(452.944 -77.543)" fill="#fff"/>
      <path id="Trazado_212938" data-name="Trazado 212938" d="M28.929,308.751a2.926,2.926,0,1,1,3.028-2.924,2.978,2.978,0,0,1-3.028,2.924" transform="translate(411.788 -77.543)" fill="#fff"/>
      <path id="Trazado_212939" data-name="Trazado 212939" d="M50.927,308.751a2.926,2.926,0,1,1,3.028-2.924,2.978,2.978,0,0,1-3.028,2.924" transform="translate(370.63 -77.543)" fill="#fff"/>
      <path id="Trazado_212940" data-name="Trazado 212940" d="M72.932,308.717a2.874,2.874,0,1,1,2.975-2.873,2.925,2.925,0,0,1-2.975,2.873" transform="translate(329.467 -77.561)" fill="#fff"/>
      <path id="Trazado_212941" data-name="Trazado 212941" d="M94.938,308.683a2.823,2.823,0,1,1,2.922-2.821,2.873,2.873,0,0,1-2.922,2.821" transform="translate(288.301 -77.579)" fill="#fff"/>
      <path id="Trazado_212942" data-name="Trazado 212942" d="M116.951,308.616a2.72,2.72,0,1,1,2.816-2.719,2.769,2.769,0,0,1-2.816,2.719" transform="translate(247.129 -77.614)" fill="#fff"/>
      <path id="Trazado_212943" data-name="Trazado 212943" d="M138.957,308.582a2.669,2.669,0,1,1,2.763-2.667,2.716,2.716,0,0,1-2.763,2.667" transform="translate(205.964 -77.632)" fill="#fff"/>
      <path id="Trazado_212944" data-name="Trazado 212944" d="M160.969,308.515a2.566,2.566,0,1,1,2.656-2.565,2.612,2.612,0,0,1-2.656,2.565" transform="translate(164.792 -77.667)" fill="#fff"/>
      <path id="Trazado_212945" data-name="Trazado 212945" d="M182.991,308.414a2.412,2.412,0,1,1,2.5-2.411,2.455,2.455,0,0,1-2.5,2.411" transform="translate(123.611 -77.72)" fill="#fff"/>
      <path id="Trazado_212946" data-name="Trazado 212946" d="M205.012,308.313a2.258,2.258,0,1,1,2.338-2.257,2.3,2.3,0,0,1-2.338,2.257" transform="translate(82.431 -77.773)" fill="#fff"/>
      <path id="Trazado_212947" data-name="Trazado 212947" d="M227.033,308.212a2.1,2.1,0,1,1,2.178-2.1,2.142,2.142,0,0,1-2.178,2.1" transform="translate(41.25 -77.826)" fill="#fff"/>
      <path id="Trazado_212948" data-name="Trazado 212948" d="M249.054,308.112a1.95,1.95,0,1,1,2.019-1.949,1.985,1.985,0,0,1-2.019,1.949" transform="translate(0.07 -77.879)" fill="#fff"/>
      <path id="Trazado_212949" data-name="Trazado 212949" d="M271.083,307.977a1.745,1.745,0,1,1,1.806-1.744,1.776,1.776,0,0,1-1.806,1.744" transform="translate(-41.119 -77.95)" fill="#fff"/>
      <path id="Trazado_212950" data-name="Trazado 212950" d="M293.112,307.842a1.54,1.54,0,1,1,1.594-1.539,1.567,1.567,0,0,1-1.594,1.539" transform="translate(-82.306 -78.02)" fill="#fff"/>
      <path id="Trazado_212951" data-name="Trazado 212951" d="M315.132,307.741a1.386,1.386,0,1,1,1.435-1.385,1.41,1.41,0,0,1-1.435,1.385" transform="translate(-123.486 -78.073)" fill="#fff"/>
      <path id="Trazado_212952" data-name="Trazado 212952" d="M337.162,307.607a1.18,1.18,0,1,1,1.222-1.18,1.2,1.2,0,0,1-1.222,1.18" transform="translate(-164.675 -78.144)" fill="#fff"/>
      <path id="Trazado_212953" data-name="Trazado 212953" d="M359.19,307.472a.975.975,0,1,1,1.009-.975.992.992,0,0,1-1.009.975" transform="translate(-205.863 -78.214)" fill="#fff"/>
      <path id="Trazado_212954" data-name="Trazado 212954" d="M381.228,307.3a.719.719,0,1,1,.744-.718.731.731,0,0,1-.744.718" transform="translate(-247.06 -78.302)" fill="#fff"/>
      <path id="Trazado_212955" data-name="Trazado 212955" d="M403.256,307.169a.513.513,0,1,1,.531-.513.522.522,0,0,1-.531.513" transform="translate(-288.247 -78.373)" fill="#fff"/>
      <path id="Trazado_212956" data-name="Trazado 212956" d="M425.286,307.035a.308.308,0,1,1,.319-.308.313.313,0,0,1-.319.308" transform="translate(-329.436 -78.444)" fill="#fff"/>
      <path id="Trazado_212957" data-name="Trazado 212957" d="M447.322,306.867a.051.051,0,1,1,.053-.051.052.052,0,0,1-.053.051" transform="translate(-370.632 -78.532)" fill="#fff"/>
      <path id="Trazado_212958" data-name="Trazado 212958" d="M6.98,333.412a2.618,2.618,0,1,1,0-5.232,2.618,2.618,0,1,1,0,5.232" transform="translate(452.897 -84.014)" fill="#fff"/>
      <path id="Trazado_212959" data-name="Trazado 212959" d="M28.977,333.412a2.618,2.618,0,1,1,2.71-2.616,2.664,2.664,0,0,1-2.71,2.616" transform="translate(411.741 -84.014)" fill="#fff"/>
      <path id="Trazado_212960" data-name="Trazado 212960" d="M50.975,333.412a2.618,2.618,0,1,1,2.71-2.616,2.664,2.664,0,0,1-2.71,2.616" transform="translate(370.583 -84.014)" fill="#fff"/>
      <path id="Trazado_212961" data-name="Trazado 212961" d="M72.972,333.412a2.618,2.618,0,1,1,2.71-2.616,2.664,2.664,0,0,1-2.71,2.616" transform="translate(329.427 -84.014)" fill="#fff"/>
      <path id="Trazado_212962" data-name="Trazado 212962" d="M94.985,333.344a2.515,2.515,0,1,1,2.6-2.513,2.56,2.56,0,0,1-2.6,2.513" transform="translate(288.254 -84.05)" fill="#fff"/>
      <path id="Trazado_212963" data-name="Trazado 212963" d="M116.99,333.311a2.463,2.463,0,1,1,2.55-2.462,2.508,2.508,0,0,1-2.55,2.462" transform="translate(247.09 -84.067)" fill="#fff"/>
      <path id="Trazado_212964" data-name="Trazado 212964" d="M139,333.277a2.412,2.412,0,1,1,2.5-2.411,2.455,2.455,0,0,1-2.5,2.411" transform="translate(205.924 -84.085)" fill="#fff"/>
      <path id="Trazado_212965" data-name="Trazado 212965" d="M161.017,333.176a2.258,2.258,0,1,1,2.338-2.257,2.3,2.3,0,0,1-2.338,2.257" transform="translate(164.745 -84.138)" fill="#fff"/>
      <path id="Trazado_212966" data-name="Trazado 212966" d="M183.03,333.108a2.156,2.156,0,1,1,2.231-2.155,2.194,2.194,0,0,1-2.231,2.155" transform="translate(123.571 -84.173)" fill="#fff"/>
      <path id="Trazado_212967" data-name="Trazado 212967" d="M205.051,333.008a2,2,0,1,1,2.072-2,2.037,2.037,0,0,1-2.072,2" transform="translate(82.392 -84.226)" fill="#fff"/>
      <path id="Trazado_212968" data-name="Trazado 212968" d="M227.073,332.907a1.848,1.848,0,1,1,1.913-1.847,1.88,1.88,0,0,1-1.913,1.847" transform="translate(41.21 -84.279)" fill="#fff"/>
      <path id="Trazado_212969" data-name="Trazado 212969" d="M249.093,332.806a1.694,1.694,0,1,1,1.753-1.693,1.724,1.724,0,0,1-1.753,1.693" transform="translate(0.031 -84.332)" fill="#fff"/>
      <path id="Trazado_212970" data-name="Trazado 212970" d="M271.115,332.7a1.54,1.54,0,1,1,1.594-1.539,1.567,1.567,0,0,1-1.594,1.539" transform="translate(-41.15 -84.385)" fill="#fff"/>
      <path id="Trazado_212971" data-name="Trazado 212971" d="M293.143,332.57a1.334,1.334,0,1,1,1.381-1.334,1.358,1.358,0,0,1-1.381,1.334" transform="translate(-82.338 -84.456)" fill="#fff"/>
      <path id="Trazado_212972" data-name="Trazado 212972" d="M315.164,332.469a1.18,1.18,0,1,1,1.222-1.18,1.2,1.2,0,0,1-1.222,1.18" transform="translate(-123.517 -84.508)" fill="#fff"/>
      <path id="Trazado_212973" data-name="Trazado 212973" d="M337.193,332.335a.975.975,0,1,1,1.01-.975.992.992,0,0,1-1.01.975" transform="translate(-164.707 -84.579)" fill="#fff"/>
      <path id="Trazado_212974" data-name="Trazado 212974" d="M359.222,332.2a.77.77,0,1,1,.8-.769.784.784,0,0,1-.8.769" transform="translate(-205.894 -84.65)" fill="#fff"/>
      <path id="Trazado_212975" data-name="Trazado 212975" d="M381.251,332.066a.565.565,0,1,1,.584-.564.574.574,0,0,1-.584.564" transform="translate(-247.083 -84.72)" fill="#fff"/>
      <path id="Trazado_212976" data-name="Trazado 212976" d="M403.28,331.931a.359.359,0,1,1,.372-.359.366.366,0,0,1-.372.359" transform="translate(-288.271 -84.791)" fill="#fff"/>
      <path id="Trazado_212977" data-name="Trazado 212977" d="M425.317,331.763a.1.1,0,1,1,.106-.1.1.1,0,0,1-.106.1" transform="translate(-329.468 -84.879)" fill="#fff"/>
      <path id="Trazado_212978" data-name="Trazado 212978" d="M7.027,358.072a2.31,2.31,0,1,1,0-4.616,2.31,2.31,0,1,1,0,4.616" transform="translate(452.85 -90.485)" fill="#fff"/>
      <path id="Trazado_212979" data-name="Trazado 212979" d="M29.016,358.106a2.361,2.361,0,1,1,2.444-2.359,2.4,2.4,0,0,1-2.444,2.359" transform="translate(411.702 -90.467)" fill="#fff"/>
      <path id="Trazado_212980" data-name="Trazado 212980" d="M51.014,358.106a2.361,2.361,0,1,1,2.444-2.359,2.4,2.4,0,0,1-2.444,2.359" transform="translate(370.544 -90.467)" fill="#fff"/>
      <path id="Trazado_212981" data-name="Trazado 212981" d="M73.019,358.072a2.31,2.31,0,1,1,2.391-2.309,2.351,2.351,0,0,1-2.391,2.309" transform="translate(329.38 -90.485)" fill="#fff"/>
      <path id="Trazado_212982" data-name="Trazado 212982" d="M95.025,358.039a2.258,2.258,0,1,1,2.338-2.257,2.3,2.3,0,0,1-2.338,2.257" transform="translate(288.214 -90.503)" fill="#fff"/>
      <path id="Trazado_212983" data-name="Trazado 212983" d="M117.03,358.005a2.207,2.207,0,1,1,2.285-2.206,2.246,2.246,0,0,1-2.285,2.206" transform="translate(247.051 -90.52)" fill="#fff"/>
      <path id="Trazado_212984" data-name="Trazado 212984" d="M139.043,357.938a2.1,2.1,0,1,1,2.178-2.1,2.142,2.142,0,0,1-2.178,2.1" transform="translate(205.877 -90.556)" fill="#fff"/>
      <path id="Trazado_212985" data-name="Trazado 212985" d="M161.056,357.87a2,2,0,1,1,2.072-2,2.037,2.037,0,0,1-2.072,2" transform="translate(164.705 -90.591)" fill="#fff"/>
      <path id="Trazado_212986" data-name="Trazado 212986" d="M183.07,357.8a1.9,1.9,0,1,1,1.966-1.9,1.933,1.933,0,0,1-1.966,1.9" transform="translate(123.532 -90.626)" fill="#fff"/>
      <path id="Trazado_212987" data-name="Trazado 212987" d="M205.09,357.7a1.745,1.745,0,1,1,1.806-1.744,1.776,1.776,0,0,1-1.806,1.744" transform="translate(82.352 -90.679)" fill="#fff"/>
      <path id="Trazado_212988" data-name="Trazado 212988" d="M227.1,357.635a1.643,1.643,0,1,1,1.7-1.641,1.672,1.672,0,0,1-1.7,1.641" transform="translate(41.179 -90.714)" fill="#fff"/>
      <path id="Trazado_212989" data-name="Trazado 212989" d="M249.125,357.534a1.489,1.489,0,1,1,1.541-1.487,1.515,1.515,0,0,1-1.541,1.487" transform="translate(-0.001 -90.767)" fill="#fff"/>
      <path id="Trazado_212990" data-name="Trazado 212990" d="M271.154,357.4a1.283,1.283,0,1,1,1.328-1.283,1.306,1.306,0,0,1-1.328,1.283" transform="translate(-41.19 -90.838)" fill="#fff"/>
      <path id="Trazado_212991" data-name="Trazado 212991" d="M293.175,357.3a1.129,1.129,0,1,1,1.169-1.129,1.149,1.149,0,0,1-1.169,1.129" transform="translate(-82.369 -90.891)" fill="#fff"/>
      <path id="Trazado_212992" data-name="Trazado 212992" d="M315.2,357.2a.975.975,0,1,1,1.009-.975.992.992,0,0,1-1.009.975" transform="translate(-123.549 -90.944)" fill="#fff"/>
      <path id="Trazado_212993" data-name="Trazado 212993" d="M337.225,357.063a.77.77,0,1,1,.8-.769.784.784,0,0,1-.8.769" transform="translate(-164.738 -91.014)" fill="#fff"/>
      <path id="Trazado_212994" data-name="Trazado 212994" d="M359.253,356.929a.565.565,0,1,1,.584-.564.574.574,0,0,1-.584.564" transform="translate(-205.926 -91.085)" fill="#fff"/>
      <path id="Trazado_212995" data-name="Trazado 212995" d="M381.283,356.794a.359.359,0,1,1,.372-.359.366.366,0,0,1-.372.359" transform="translate(-247.115 -91.156)" fill="#fff"/>
      <path id="Trazado_212996" data-name="Trazado 212996" d="M403.311,356.659a.154.154,0,1,1,.159-.154.157.157,0,0,1-.159.154" transform="translate(-288.302 -91.226)" fill="#fff"/>
      <path id="Trazado_212997" data-name="Trazado 212997" d="M7.066,382.767a2.053,2.053,0,1,1,0-4.1,2.053,2.053,0,1,1,0,4.1" transform="translate(452.81 -96.938)" fill="#fff"/>
      <path id="Trazado_212998" data-name="Trazado 212998" d="M29.063,382.767a2.053,2.053,0,1,1,2.125-2.052,2.089,2.089,0,0,1-2.125,2.052" transform="translate(411.654 -96.938)" fill="#fff"/>
      <path id="Trazado_212999" data-name="Trazado 212999" d="M51.061,382.767a2.053,2.053,0,1,1,2.125-2.052,2.089,2.089,0,0,1-2.125,2.052" transform="translate(370.497 -96.938)" fill="#fff"/>
      <path id="Trazado_213000" data-name="Trazado 213000" d="M73.066,382.733a2,2,0,1,1,2.072-2,2.037,2.037,0,0,1-2.072,2" transform="translate(329.333 -96.956)" fill="#fff"/>
      <path id="Trazado_213001" data-name="Trazado 213001" d="M95.072,382.7a1.95,1.95,0,1,1,2.019-1.949,1.985,1.985,0,0,1-2.019,1.949" transform="translate(288.167 -96.973)" fill="#fff"/>
      <path id="Trazado_213002" data-name="Trazado 213002" d="M117.077,382.666a1.9,1.9,0,1,1,1.966-1.9,1.933,1.933,0,0,1-1.966,1.9" transform="translate(247.003 -96.991)" fill="#fff"/>
      <path id="Trazado_213003" data-name="Trazado 213003" d="M139.083,382.632A1.848,1.848,0,1,1,141,380.786a1.88,1.88,0,0,1-1.913,1.847" transform="translate(205.838 -97.009)" fill="#fff"/>
      <path id="Trazado_213004" data-name="Trazado 213004" d="M161.1,382.565a1.745,1.745,0,1,1,1.806-1.744,1.777,1.777,0,0,1-1.806,1.744" transform="translate(164.666 -97.044)" fill="#fff"/>
      <path id="Trazado_213005" data-name="Trazado 213005" d="M183.109,382.5a1.643,1.643,0,1,1,1.7-1.641,1.672,1.672,0,0,1-1.7,1.641" transform="translate(123.493 -97.079)" fill="#fff"/>
      <path id="Trazado_213006" data-name="Trazado 213006" d="M205.13,382.4a1.489,1.489,0,1,1,1.541-1.487,1.515,1.515,0,0,1-1.541,1.487" transform="translate(82.313 -97.132)" fill="#fff"/>
      <path id="Trazado_213007" data-name="Trazado 213007" d="M227.143,382.329a1.386,1.386,0,1,1,1.434-1.385,1.41,1.41,0,0,1-1.434,1.385" transform="translate(41.14 -97.167)" fill="#fff"/>
      <path id="Trazado_213008" data-name="Trazado 213008" d="M249.164,382.229A1.232,1.232,0,1,1,250.439,381a1.254,1.254,0,0,1-1.275,1.231" transform="translate(-0.04 -97.221)" fill="#fff"/>
      <path id="Trazado_213009" data-name="Trazado 213009" d="M271.186,382.128a1.078,1.078,0,1,1,1.116-1.077,1.1,1.1,0,0,1-1.116,1.077" transform="translate(-41.221 -97.274)" fill="#fff"/>
      <path id="Trazado_213010" data-name="Trazado 213010" d="M293.206,382.027a.924.924,0,1,1,.956-.923.941.941,0,0,1-.956.923" transform="translate(-82.401 -97.326)" fill="#fff"/>
      <path id="Trazado_213011" data-name="Trazado 213011" d="M315.235,381.892a.719.719,0,1,1,.744-.718.731.731,0,0,1-.744.718" transform="translate(-123.588 -97.397)" fill="#fff"/>
      <path id="Trazado_213012" data-name="Trazado 213012" d="M337.256,381.791a.565.565,0,1,1,.584-.564.574.574,0,0,1-.584.564" transform="translate(-164.77 -97.45)" fill="#fff"/>
      <path id="Trazado_213013" data-name="Trazado 213013" d="M359.285,381.657a.359.359,0,1,1,.372-.359.366.366,0,0,1-.372.359" transform="translate(-205.957 -97.521)" fill="#fff"/>
      <path id="Trazado_213014" data-name="Trazado 213014" d="M381.314,381.522a.154.154,0,1,1,.159-.154.157.157,0,0,1-.159.154" transform="translate(-247.146 -97.591)" fill="#fff"/>
      <path id="Trazado_213015" data-name="Trazado 213015" d="M7.113,407.428a1.745,1.745,0,1,1,1.806-1.744,1.776,1.776,0,0,1-1.806,1.744" transform="translate(452.763 -103.409)" fill="#fff"/>
      <path id="Trazado_213016" data-name="Trazado 213016" d="M29.11,407.428a1.745,1.745,0,1,1,1.806-1.744,1.776,1.776,0,0,1-1.806,1.744" transform="translate(411.607 -103.409)" fill="#fff"/>
      <path id="Trazado_213017" data-name="Trazado 213017" d="M51.108,407.428a1.745,1.745,0,1,1,1.806-1.744,1.777,1.777,0,0,1-1.806,1.744" transform="translate(370.449 -103.409)" fill="#fff"/>
      <path id="Trazado_213018" data-name="Trazado 213018" d="M73.105,407.428a1.745,1.745,0,1,1,1.806-1.744,1.776,1.776,0,0,1-1.806,1.744" transform="translate(329.293 -103.409)" fill="#fff"/>
      <path id="Trazado_213019" data-name="Trazado 213019" d="M95.111,407.394a1.694,1.694,0,1,1,1.753-1.693,1.724,1.724,0,0,1-1.753,1.693" transform="translate(288.128 -103.426)" fill="#fff"/>
      <path id="Trazado_213020" data-name="Trazado 213020" d="M117.116,407.36a1.643,1.643,0,1,1,1.7-1.641,1.672,1.672,0,0,1-1.7,1.641" transform="translate(246.964 -103.444)" fill="#fff"/>
      <path id="Trazado_213021" data-name="Trazado 213021" d="M139.13,407.293a1.54,1.54,0,1,1,1.594-1.539,1.567,1.567,0,0,1-1.594,1.539" transform="translate(205.791 -103.479)" fill="#fff"/>
      <path id="Trazado_213022" data-name="Trazado 213022" d="M161.135,407.259a1.489,1.489,0,1,1,1.541-1.487,1.515,1.515,0,0,1-1.541,1.487" transform="translate(164.627 -103.497)" fill="#fff"/>
      <path id="Trazado_213023" data-name="Trazado 213023" d="M183.149,407.192a1.386,1.386,0,1,1,1.434-1.385,1.41,1.41,0,0,1-1.434,1.385" transform="translate(123.453 -103.532)" fill="#fff"/>
      <path id="Trazado_213024" data-name="Trazado 213024" d="M205.169,407.091a1.232,1.232,0,1,1,1.275-1.231,1.254,1.254,0,0,1-1.275,1.231" transform="translate(82.274 -103.585)" fill="#fff"/>
      <path id="Trazado_213025" data-name="Trazado 213025" d="M227.183,407.023a1.129,1.129,0,1,1,1.169-1.129,1.149,1.149,0,0,1-1.169,1.129" transform="translate(41.1 -103.621)" fill="#fff"/>
      <path id="Trazado_213026" data-name="Trazado 213026" d="M249.2,406.923a.975.975,0,1,1,1.009-.975.992.992,0,0,1-1.009.975" transform="translate(-0.079 -103.674)" fill="#fff"/>
      <path id="Trazado_213027" data-name="Trazado 213027" d="M271.225,406.822a.821.821,0,1,1,.85-.821.836.836,0,0,1-.85.821" transform="translate(-41.261 -103.727)" fill="#fff"/>
      <path id="Trazado_213028" data-name="Trazado 213028" d="M293.246,406.721a.667.667,0,1,1,.691-.667.679.679,0,0,1-.691.667" transform="translate(-82.44 -103.779)" fill="#fff"/>
      <path id="Trazado_213029" data-name="Trazado 213029" d="M315.266,406.62a.513.513,0,1,1,.531-.513.522.522,0,0,1-.531.513" transform="translate(-123.62 -103.832)" fill="#fff"/>
      <path id="Trazado_213030" data-name="Trazado 213030" d="M337.288,406.519a.359.359,0,1,1,.372-.359.366.366,0,0,1-.372.359" transform="translate(-164.801 -103.885)" fill="#fff"/>
      <path id="Trazado_213031" data-name="Trazado 213031" d="M359.316,406.384a.154.154,0,1,1,.159-.154.157.157,0,0,1-.159.154" transform="translate(-205.989 -103.956)" fill="#fff"/>
      <path id="Trazado_213032" data-name="Trazado 213032" d="M7.153,432.122a1.489,1.489,0,1,1,1.541-1.487,1.515,1.515,0,0,1-1.541,1.487" transform="translate(452.724 -109.862)" fill="#fff"/>
      <path id="Trazado_213033" data-name="Trazado 213033" d="M29.15,432.122a1.489,1.489,0,1,1,1.541-1.487,1.515,1.515,0,0,1-1.541,1.487" transform="translate(411.568 -109.862)" fill="#fff"/>
      <path id="Trazado_213034" data-name="Trazado 213034" d="M51.148,432.122a1.489,1.489,0,1,1,1.541-1.487,1.515,1.515,0,0,1-1.541,1.487" transform="translate(370.41 -109.862)" fill="#fff"/>
      <path id="Trazado_213035" data-name="Trazado 213035" d="M73.153,432.089a1.437,1.437,0,1,1,1.488-1.436,1.463,1.463,0,0,1-1.488,1.436" transform="translate(329.246 -109.88)" fill="#fff"/>
      <path id="Trazado_213036" data-name="Trazado 213036" d="M95.159,432.055a1.386,1.386,0,1,1,1.435-1.385,1.41,1.41,0,0,1-1.435,1.385" transform="translate(288.081 -109.897)" fill="#fff"/>
      <path id="Trazado_213037" data-name="Trazado 213037" d="M117.163,432.021a1.334,1.334,0,1,1,1.381-1.334,1.358,1.358,0,0,1-1.381,1.334" transform="translate(246.917 -109.915)" fill="#fff"/>
      <path id="Trazado_213038" data-name="Trazado 213038" d="M139.169,431.988A1.283,1.283,0,1,1,140.5,430.7a1.306,1.306,0,0,1-1.328,1.283" transform="translate(205.751 -109.933)" fill="#fff"/>
      <path id="Trazado_213039" data-name="Trazado 213039" d="M161.182,431.92a1.18,1.18,0,1,1,1.222-1.18,1.2,1.2,0,0,1-1.222,1.18" transform="translate(164.58 -109.968)" fill="#fff"/>
      <path id="Trazado_213040" data-name="Trazado 213040" d="M183.188,431.886a1.129,1.129,0,1,1,1.169-1.129,1.149,1.149,0,0,1-1.169,1.129" transform="translate(123.414 -109.985)" fill="#fff"/>
      <path id="Trazado_213041" data-name="Trazado 213041" d="M205.208,431.785a.975.975,0,1,1,1.009-.975.992.992,0,0,1-1.009.975" transform="translate(82.234 -110.038)" fill="#fff"/>
      <path id="Trazado_213042" data-name="Trazado 213042" d="M227.222,431.718a.873.873,0,1,1,.9-.872.888.888,0,0,1-.9.872" transform="translate(41.061 -110.074)" fill="#fff"/>
      <path id="Trazado_213043" data-name="Trazado 213043" d="M249.235,431.651a.77.77,0,1,1,.8-.769.784.784,0,0,1-.8.769" transform="translate(-0.111 -110.109)" fill="#fff"/>
      <path id="Trazado_213044" data-name="Trazado 213044" d="M271.256,431.55a.616.616,0,1,1,.638-.615.627.627,0,0,1-.638.615" transform="translate(-41.292 -110.162)" fill="#fff"/>
      <path id="Trazado_213045" data-name="Trazado 213045" d="M293.277,431.449a.462.462,0,1,1,.478-.461.47.47,0,0,1-.478.461" transform="translate(-82.472 -110.215)" fill="#fff"/>
      <path id="Trazado_213046" data-name="Trazado 213046" d="M315.3,431.348a.308.308,0,1,1,.319-.308.313.313,0,0,1-.319.308" transform="translate(-123.651 -110.268)" fill="#fff"/>
      <path id="Trazado_213047" data-name="Trazado 213047" d="M337.327,431.213a.1.1,0,1,1,.106-.1.1.1,0,0,1-.106.1" transform="translate(-164.84 -110.338)" fill="#fff"/>
      <path id="Trazado_213048" data-name="Trazado 213048" d="M7.2,456.783a1.18,1.18,0,1,1,1.222-1.18,1.2,1.2,0,0,1-1.222,1.18" transform="translate(452.677 -116.333)" fill="#fff"/>
      <path id="Trazado_213049" data-name="Trazado 213049" d="M29.2,456.783a1.18,1.18,0,1,1,1.222-1.18,1.2,1.2,0,0,1-1.222,1.18" transform="translate(411.521 -116.333)" fill="#fff"/>
      <path id="Trazado_213050" data-name="Trazado 213050" d="M51.195,456.783a1.18,1.18,0,1,1,1.222-1.18,1.2,1.2,0,0,1-1.222,1.18" transform="translate(370.363 -116.333)" fill="#fff"/>
      <path id="Trazado_213051" data-name="Trazado 213051" d="M73.192,456.783a1.18,1.18,0,1,1,1.222-1.18,1.2,1.2,0,0,1-1.222,1.18" transform="translate(329.207 -116.333)" fill="#fff"/>
      <path id="Trazado_213052" data-name="Trazado 213052" d="M95.2,456.749a1.129,1.129,0,1,1,1.169-1.129,1.149,1.149,0,0,1-1.169,1.129" transform="translate(288.041 -116.35)" fill="#fff"/>
      <path id="Trazado_213053" data-name="Trazado 213053" d="M117.2,456.716a1.078,1.078,0,1,1,1.116-1.077,1.1,1.1,0,0,1-1.116,1.077" transform="translate(246.877 -116.368)" fill="#fff"/>
      <path id="Trazado_213054" data-name="Trazado 213054" d="M139.209,456.682a1.027,1.027,0,1,1,1.063-1.026,1.045,1.045,0,0,1-1.063,1.026" transform="translate(205.712 -116.386)" fill="#fff"/>
      <path id="Trazado_213055" data-name="Trazado 213055" d="M161.221,456.615a.924.924,0,1,1,.956-.923.941.941,0,0,1-.956.923" transform="translate(164.54 -116.421)" fill="#fff"/>
      <path id="Trazado_213056" data-name="Trazado 213056" d="M183.235,456.547a.821.821,0,1,1,.85-.821.836.836,0,0,1-.85.821" transform="translate(123.367 -116.456)" fill="#fff"/>
      <path id="Trazado_213057" data-name="Trazado 213057" d="M205.248,456.48a.719.719,0,1,1,.744-.718.731.731,0,0,1-.744.718" transform="translate(82.195 -116.491)" fill="#fff"/>
      <path id="Trazado_213058" data-name="Trazado 213058" d="M227.262,456.412a.616.616,0,1,1,.638-.615.627.627,0,0,1-.638.615" transform="translate(41.021 -116.527)" fill="#fff"/>
      <path id="Trazado_213059" data-name="Trazado 213059" d="M249.274,456.345a.513.513,0,1,1,.531-.513.522.522,0,0,1-.531.513" transform="translate(-0.15 -116.562)" fill="#fff"/>
      <path id="Trazado_213060" data-name="Trazado 213060" d="M271.3,456.245a.359.359,0,1,1,.372-.359.366.366,0,0,1-.372.359" transform="translate(-41.332 -116.615)" fill="#fff"/>
      <path id="Trazado_213061" data-name="Trazado 213061" d="M293.317,456.144a.205.205,0,1,1,.213-.205.209.209,0,0,1-.213.205" transform="translate(-82.511 -116.668)" fill="#fff"/>
      <path id="Trazado_213062" data-name="Trazado 213062" d="M315.337,456.043a.051.051,0,1,1,.053-.051.052.052,0,0,1-.053.051" transform="translate(-123.691 -116.721)" fill="#fff"/>
      <path id="Trazado_213063" data-name="Trazado 213063" d="M7.239,481.478a.924.924,0,1,1,.956-.923.941.941,0,0,1-.956.923" transform="translate(452.637 -122.786)" fill="#fff"/>
      <path id="Trazado_213064" data-name="Trazado 213064" d="M29.236,481.478a.924.924,0,1,1,.956-.923.941.941,0,0,1-.956.923" transform="translate(411.481 -122.786)" fill="#fff"/>
      <path id="Trazado_213065" data-name="Trazado 213065" d="M51.234,481.478a.924.924,0,1,1,.956-.923.941.941,0,0,1-.956.923" transform="translate(370.323 -122.786)" fill="#fff"/>
      <path id="Trazado_213066" data-name="Trazado 213066" d="M73.239,481.444a.872.872,0,1,1,.9-.872.888.888,0,0,1-.9.872" transform="translate(329.16 -122.804)" fill="#fff"/>
      <path id="Trazado_213067" data-name="Trazado 213067" d="M95.237,481.444a.872.872,0,1,1,.9-.872.888.888,0,0,1-.9.872" transform="translate(288.002 -122.804)" fill="#fff"/>
      <path id="Trazado_213068" data-name="Trazado 213068" d="M117.242,481.41a.821.821,0,1,1,.85-.821.836.836,0,0,1-.85.821" transform="translate(246.838 -122.821)" fill="#fff"/>
      <path id="Trazado_213069" data-name="Trazado 213069" d="M139.256,481.343a.719.719,0,1,1,.744-.718.731.731,0,0,1-.744.718" transform="translate(205.665 -122.856)" fill="#fff"/>
      <path id="Trazado_213070" data-name="Trazado 213070" d="M161.261,481.309a.667.667,0,1,1,.691-.667.679.679,0,0,1-.691.667" transform="translate(164.501 -122.874)" fill="#fff"/>
      <path id="Trazado_213071" data-name="Trazado 213071" d="M183.274,481.242a.565.565,0,1,1,.584-.564.574.574,0,0,1-.584.564" transform="translate(123.327 -122.909)" fill="#fff"/>
      <path id="Trazado_213072" data-name="Trazado 213072" d="M205.287,481.174a.462.462,0,1,1,.478-.461.47.47,0,0,1-.478.461" transform="translate(82.156 -122.945)" fill="#fff"/>
      <path id="Trazado_213073" data-name="Trazado 213073" d="M227.3,481.107a.359.359,0,1,1,.372-.359.366.366,0,0,1-.372.359" transform="translate(40.982 -122.98)" fill="#fff"/>
      <path id="Trazado_213074" data-name="Trazado 213074" d="M249.314,481.04a.256.256,0,1,1,.266-.257.261.261,0,0,1-.266.257" transform="translate(-0.19 -123.015)" fill="#fff"/>
      <path id="Trazado_213075" data-name="Trazado 213075" d="M271.335,480.939a.1.1,0,1,1,.106-.1.1.1,0,0,1-.106.1" transform="translate(-41.371 -123.068)" fill="#fff"/>
      <path id="Trazado_213076" data-name="Trazado 213076" d="M7.287,506.138a.616.616,0,1,1,.638-.615.627.627,0,0,1-.638.615" transform="translate(452.59 -129.257)" fill="#fff"/>
      <path id="Trazado_213077" data-name="Trazado 213077" d="M29.284,506.138a.616.616,0,1,1,.638-.615.627.627,0,0,1-.638.615" transform="translate(411.434 -129.257)" fill="#fff"/>
      <path id="Trazado_213078" data-name="Trazado 213078" d="M51.282,506.138a.616.616,0,1,1,.638-.615.627.627,0,0,1-.638.615" transform="translate(370.276 -129.257)" fill="#fff"/>
      <path id="Trazado_213079" data-name="Trazado 213079" d="M73.279,506.138a.616.616,0,1,1,.638-.615.627.627,0,0,1-.638.615" transform="translate(329.12 -129.257)" fill="#fff"/>
      <path id="Trazado_213080" data-name="Trazado 213080" d="M95.284,506.1a.565.565,0,1,1,.584-.564.574.574,0,0,1-.584.564" transform="translate(287.955 -129.274)" fill="#fff"/>
      <path id="Trazado_213081" data-name="Trazado 213081" d="M117.289,506.071a.513.513,0,1,1,.531-.513.522.522,0,0,1-.531.513" transform="translate(246.791 -129.292)" fill="#fff"/>
      <path id="Trazado_213082" data-name="Trazado 213082" d="M139.3,506.037a.462.462,0,1,1,.478-.461.47.47,0,0,1-.478.461" transform="translate(205.625 -129.31)" fill="#fff"/>
      <path id="Trazado_213083" data-name="Trazado 213083" d="M161.3,506a.411.411,0,1,1,.425-.411.418.418,0,0,1-.425.411" transform="translate(164.461 -129.327)" fill="#fff"/>
      <path id="Trazado_213084" data-name="Trazado 213084" d="M183.314,505.936a.308.308,0,1,1,.319-.308.313.313,0,0,1-.319.308" transform="translate(123.288 -129.363)" fill="#fff"/>
      <path id="Trazado_213085" data-name="Trazado 213085" d="M205.326,505.869a.205.205,0,1,1,.213-.205.209.209,0,0,1-.213.205" transform="translate(82.116 -129.398)" fill="#fff"/>
      <path id="Trazado_213086" data-name="Trazado 213086" d="M227.34,505.8a.1.1,0,1,1,.106-.1.1.1,0,0,1-.106.1" transform="translate(40.943 -129.433)" fill="#fff"/>
      <path id="Trazado_213087" data-name="Trazado 213087" d="M249.345,505.769a.051.051,0,1,1,.053-.051.052.052,0,0,1-.053.051" transform="translate(-0.221 -129.451)" fill="#fff"/>
      <path id="Trazado_213088" data-name="Trazado 213088" d="M7.334,530.8a.308.308,0,1,1,.319-.308.313.313,0,0,1-.319.308" transform="translate(452.543 -135.728)" fill="#fff"/>
      <path id="Trazado_213089" data-name="Trazado 213089" d="M29.323,530.833a.359.359,0,1,1,.372-.359.366.366,0,0,1-.372.359" transform="translate(411.395 -135.71)" fill="#fff"/>
      <path id="Trazado_213090" data-name="Trazado 213090" d="M51.321,530.833a.359.359,0,1,1,.372-.359.366.366,0,0,1-.372.359" transform="translate(370.237 -135.71)" fill="#fff"/>
      <path id="Trazado_213091" data-name="Trazado 213091" d="M73.326,530.8a.308.308,0,1,1,.319-.308.313.313,0,0,1-.319.308" transform="translate(329.073 -135.728)" fill="#fff"/>
      <path id="Trazado_213092" data-name="Trazado 213092" d="M95.324,530.8a.308.308,0,1,1,.319-.308.313.313,0,0,1-.319.308" transform="translate(287.915 -135.728)" fill="#fff"/>
      <path id="Trazado_213093" data-name="Trazado 213093" d="M117.329,530.766a.256.256,0,1,1,.266-.257.261.261,0,0,1-.266.257" transform="translate(246.752 -135.745)" fill="#fff"/>
      <path id="Trazado_213094" data-name="Trazado 213094" d="M139.335,530.732a.205.205,0,1,1,.213-.205.209.209,0,0,1-.213.205" transform="translate(205.586 -135.763)" fill="#fff"/>
      <path id="Trazado_213095" data-name="Trazado 213095" d="M161.347,530.664a.1.1,0,1,1,.106-.1.1.1,0,0,1-.106.1" transform="translate(164.414 -135.798)" fill="#fff"/>
      <path id="Trazado_213096" data-name="Trazado 213096" d="M183.353,530.631a.051.051,0,1,1,.053-.051.052.052,0,0,1-.053.051" transform="translate(123.249 -135.816)" fill="#fff"/>
      <path id="Trazado_213097" data-name="Trazado 213097" d="M7.373,555.494a.051.051,0,1,1,.053-.051.052.052,0,0,1-.053.051" transform="translate(452.503 -142.181)" fill="#fff"/>
      <path id="Trazado_213098" data-name="Trazado 213098" d="M29.37,555.494a.051.051,0,1,1,.053-.051.052.052,0,0,1-.053.051" transform="translate(411.347 -142.181)" fill="#fff"/>
      <path id="Trazado_213099" data-name="Trazado 213099" d="M51.368,555.494a.051.051,0,1,1,.053-.051.052.052,0,0,1-.053.051" transform="translate(370.19 -142.181)" fill="#fff"/>
      <path id="Trazado_213100" data-name="Trazado 213100" d="M73.365,555.494a.051.051,0,1,1,.053-.051.052.052,0,0,1-.053.051" transform="translate(329.034 -142.181)" fill="#fff"/>
      <path id="Trazado_213101" data-name="Trazado 213101" d="M95.363,555.494a.051.051,0,1,1,.053-.051.052.052,0,0,1-.053.051" transform="translate(287.876 -142.181)" fill="#fff"/>
    </g>
  </g>
</svg>
